<mxfile host="app.diagrams.net" modified="2024-04-20T13:26:35.148Z" agent="Mozilla/5.0 (Windows NT 10.0; Win64; x64) AppleWebKit/537.36 (KHTML, like Gecko) Chrome/121.0.0.0 Safari/537.36 OPR/107.0.0.0" etag="t_jlp2TjhWqNRTEQiz71" version="24.2.7" type="github">
  <diagram name="PÃ¡gina-1" id="ZPeP8FIVXuGwTT_PxWBv">
    <mxGraphModel dx="1602" dy="881" grid="1" gridSize="10" guides="1" tooltips="1" connect="1" arrows="1" fold="1" page="1" pageScale="1" pageWidth="1169" pageHeight="827" math="0" shadow="0">
      <root>
        <mxCell id="0" />
        <mxCell id="1" parent="0" />
        <mxCell id="Hf2aZSIuRy_q8SedqZRs-1" value="" style="html=1;verticalLabelPosition=bottom;align=center;labelBackgroundColor=none;verticalAlign=top;strokeWidth=2;shadow=0;dashed=0;shape=mxgraph.ios7.icons.cloud;" parent="1" vertex="1">
          <mxGeometry x="505" y="368" width="160" height="91" as="geometry" />
        </mxCell>
        <mxCell id="Hf2aZSIuRy_q8SedqZRs-8" value="" style="endArrow=none;dashed=1;html=1;rounded=0;entryX=0;entryY=1;entryDx=0;entryDy=0;exitX=0.847;exitY=0.467;exitDx=0;exitDy=0;exitPerimeter=0;" parent="1" source="Hf2aZSIuRy_q8SedqZRs-1" target="Hf2aZSIuRy_q8SedqZRs-16" edge="1">
          <mxGeometry width="50" height="50" relative="1" as="geometry">
            <mxPoint x="560" y="470" as="sourcePoint" />
            <mxPoint x="780" y="328" as="targetPoint" />
          </mxGeometry>
        </mxCell>
        <mxCell id="Hf2aZSIuRy_q8SedqZRs-10" value="" style="image;points=[];aspect=fixed;html=1;align=center;shadow=0;dashed=0;image=img/lib/allied_telesis/computer_and_terminals/Personal_Computer_with_Server.svg;" parent="1" vertex="1">
          <mxGeometry x="799" y="549" width="90" height="90" as="geometry" />
        </mxCell>
        <mxCell id="Hf2aZSIuRy_q8SedqZRs-12" value="" style="endArrow=none;dashed=1;html=1;rounded=0;entryX=-0.064;entryY=0.016;entryDx=0;entryDy=0;exitX=0.916;exitY=1.016;exitDx=0;exitDy=0;exitPerimeter=0;entryPerimeter=0;" parent="1" source="Hf2aZSIuRy_q8SedqZRs-1" target="Hf2aZSIuRy_q8SedqZRs-10" edge="1">
          <mxGeometry width="50" height="50" relative="1" as="geometry">
            <mxPoint x="651" y="420" as="sourcePoint" />
            <mxPoint x="790" y="338" as="targetPoint" />
          </mxGeometry>
        </mxCell>
        <mxCell id="Hf2aZSIuRy_q8SedqZRs-13" value="" style="verticalLabelPosition=bottom;shadow=0;dashed=0;align=center;html=1;verticalAlign=top;strokeWidth=1;shape=mxgraph.mockup.graphics.lineChart;strokeColor=none;strokeColor2=#666666;strokeColor3=#008cff;strokeColor4=#dddddd;" parent="1" vertex="1">
          <mxGeometry x="908" y="564" width="90" height="60" as="geometry" />
        </mxCell>
        <mxCell id="Hf2aZSIuRy_q8SedqZRs-14" value="" style="endArrow=classic;html=1;rounded=0;entryX=0.533;entryY=1.052;entryDx=0;entryDy=0;entryPerimeter=0;exitX=0.498;exitY=1.005;exitDx=0;exitDy=0;exitPerimeter=0;" parent="1" edge="1">
          <mxGeometry width="50" height="50" relative="1" as="geometry">
            <mxPoint x="840.0000000000001" y="637.33" as="sourcePoint" />
            <mxPoint x="952.1499999999997" y="623.9999999999999" as="targetPoint" />
            <Array as="points">
              <mxPoint x="840" y="650" />
              <mxPoint x="952" y="650" />
            </Array>
          </mxGeometry>
        </mxCell>
        <mxCell id="Hf2aZSIuRy_q8SedqZRs-16" value="" style="shape=image;imageAspect=0;aspect=fixed;verticalLabelPosition=bottom;verticalAlign=top;image=data:image/png,iVBORw0KGgoAAAANSUhEUgAAAgAAAAIACAYAAAD0eNT6AAAACXBIWXMAAA7DAAAOwwHHb6hkAAAAGXRFWHRTb2Z0d2FyZQB3d3cuaW5rc2NhcGUub3Jnm+48GgAAGdxJREFUeJzt3XvQbWdB3/FvThLJDUOQBIKVQFAxVEXBSwGR1nARqbbqtOLUiEARESyjUqpS5aYgRRS5RIUGWp0KOgotqLVyUeugRYlWRkBAIMglhADhnhs5p3/sQ0kkl3P2u/b77L3W5zOzhsnw7mf99nv2u9Zvr9tTAAAAAAAAAAAAAAAAAAAAAAAAAAAAAAAAAAAAAAAAAAAAAAAAAAAAAAAAAAAAAAAAAAAAAAAAAAAAAAAAAAAAAAAAAAAAAAAAAAAAAAAAAAAAAAAAAAAAAAAAAAAAAAAAAAAAAAAcdszoAMzKzaqvq25XnTw4C8zJJ6uLqr+orhobhblQAJjCqdVPVt9f3XxwFpizj1bnV0+rPj44CztOAWCvbl/9fnWnwTlgSf6mekD1ntFB2F0KAHtxcvW66h+PDgIL9FfV3asrRwdhNx07OgA77XHVg0aHgIU6s/pw9X9GB2E3OQLAXryz1SkAYIy3VV86OgS7SQFgXbdvVQCAsc6s3j86BLvnwOgA7KwzRwcAqrrt6ADsJgWAdR0/OgBQ+VtkTQoAACyQAgAAC6QAAMACKQAAsEAKAAAs0HGjA7A4F1evGB0CttC/rM4YHYLlUADYb2+rHjE6BGyhu6QAsI+cAgCABVIAAGCBFAAAWCAFAAAWSAEAgAVSAABggRQAAFggBQAAFkgBAIAFUgAAYIEUAABYIAUAABbIZEDst5tXdxsdArbQyaMDsCwKAPvtq6vXjw4BsHROAQDAAikAALBACgAALJACAAALpAAAwAIpAKzr0OgAQOVvkTUpAKzrw6MDAFV9cHQAdtMxowOws06sPnT4f4ExPlqdXl09Ogi7xxEA1nV59YrRIWDh/nt2/qzJEQD24s7VX1Y3Gx0EFujy6iuqt48Owm5yBIC9eFP1iOrg6CCwMNdUD8nOnz04dnQAdt5fV39VfWP1+YOzwBL8ffWg6uWjg7DbnAJgKidV31mdW53Vata/G3NKdac11vOJ6i1rvA427ZxWfwdH683Vp27iZz5Wvat6ZfXS6oo11gOwFe7R6v7lo11eOyIsHIELW+8zbXpshnANAAAskAIAAAukAADAAikAALBACgAALJACAAALpAAAwAIpAACwQAoAACyQAgAAC6QAAMACHTc6ALC2Y6pbt94ENFP4ZPWBVs+zB3aMAgC75UD1XdXDq3s1/m/46uqPq1+pfjtlAICbYDbAo3fL6tWt93vbj+X3qlM39u63n9kA2SmuAYDdcEL1O9U3jQ5yIx7QKuPnjQ4C3DQFAHbD46q7jw5xBL6hevToEMBNUwBg+x1fPWZ0iKPw2GxbYOv5I4Xt93Wtzv/vijOru4wOAdw4BQC231mjA6zhDqMDADdOAYDtd/LoAGvYxcywKAoAACyQAgAAC6QAAMACKQAAsEAKAAAs0OiJRIDN+Xh16R7HOKM6ZYIswJZRAGC+fqPVrIF78avVeRNkAbaMUwAAsEAKAAAskAIAAAukAADAAikAALBACgAALJACAAALpAAAwAIpAACwQAoAACyQAgAAC6QAAMACXd9kQMdWX1N9SXXS/sZhQe44OgBsiW+v7jY6BLP1qept1eura679f1y7ABxb/bvqP1S33rdoAMv2+NEBWIT3Vz9bPbfDReAzpwBOrH63+vns/AFgbm5TPat6Rat9/v8vABdU9x8UCgDYHw+onl+rAvBPq+8emQYA2DffU33jger7RycBAPbVww9U9xydAgDYV/c6UJ05OgUAsK/OPND1PwsAAJiv4z0JEAAWSAEAgAVSAOCGfUv1G9W7qiuqQ4OW52/6jW7Arzbu93VFdVH169V9Nvw+YWc5/w+f6xbVf2tVANg9N6vOOrx8d/Wy6sHVx0eGgm2jAMB1nVj9QfW1o4MwmW+vTq/Ora4anAW2xl4KwAtaHW6Dddy6+hejQ1yPJ2fnP0ff0GrSnSeMDnI9Xlp9cHQIdtYx1cPXffHB1jvP5voB9uIerfe5e+0GM51aXb5mrm1cXjDB72Tkufypl4+32SnOL1wzl6mA2YsDrfe5O2gnDp913+qE0SHYmFOqfzY6BGwLBQA+64tHB2Dj/BvDYQoAfNYpowNMbIqr3j8xwRjb5NTRAWBbKAAwX2+fYIx3TDAGsIUUAJing9XvTTDO704wBrCFFACYpxdX75xgnDe3epAOMDMKAMzPRdUPTzjeI6t3TzgesAUUAJiXv6i+sbp0wjEvqe5d/fWEYwKDKQCw+y6rXtnqefd3bzPf1t9ZfU31sOo11Uc2sA5gHykAsHc/2epxnKOWW1b3a/XUvms2+D4/Xb2w1TP1Txv8np+ywfcJi6AAAMACKQAAsEB7mQ3wbq3uNYZ13Gl0ANgS54wOwE5b+4v8XgrAn+/htQCs/NroACyTUwAAsEAKAAAskAIAAAukAADAAikAALBAB6pDo0MAAPvq0IHqw6NTAAD76kMHqjeOTgEA7Ku/OVD95ugUAMC++s0D1QXV20cnAQD2xVurFx6orqy+I/N7A8DcXVZ9Z3XVZ+YCeEP1T1o9k/prR6WCHXXbVpNjjXJZ9a7qmn1a33HVWdUt9ml91+fMgeuGXfW66rzqbXXdyYDeUn19dd/q26qzqzP2uLJbtdpQHK0PttqgMV+nNJ8ZAR95eBnpg9WvV0+tLtnQOr6wenz1XdUtN7SOJXpz9anRIdios1rtD4/Wu1r9be/FJdU7qpdXr2ofb/1/6OGVHe1ywX4FZJh7tN5n47UbzPTTa2bapuXS6hum/sVU57a6ZXj0+9vr8lNT/2Ku5cI1M408esT+uKD1PhsP3WQoTwKEeblV9bvVnScc86ur/1GdNuGYwGAKAMzP51e/PNFYx1TnVydPNB6wJRQAmKd7tfrmvld3b3WBMDAzCgDM130nGOM+E4wBbCEFAObri7ZkjG1yaHQA2BYKAHzW3CbGOmGCMW42wRjbZK+3VMFsKADwWSbGmj//xnCYAgCf9Uet7qNnnt5b/enoELAtFAD4rCurJ48Owcb8ZPXp0SFgWygAcF3Pa/VIXeblgupFo0PANlEA4LoOtZos48mtjgiw2z7Vav6Ch48OAtvmuJv+EVicg9UTqv9cPajVw3BuU33eoDzrTqo10kXVhwat+6rq4lbzRryket+gHLDVFAC4Ye+unjE6RKtvr88fHeIo/VSr6cWBLeUUAAAskAIAAAukAADAAikAALBACgAALJACAAALpAAAwAIpAACwQAoAACyQAgAAC6QAAMACKQAAsEAKAAAskAIAAAs09+mAj6luXZ00Osi1HKouqT41OgjAljip1bb6mNFBruWT1QdabbNnaa4F4Jzqx6tvrW4xOMsNeUP1ouqXqisHZwHYbydUP1g9uPrKwVluyGXVK6qnVX87OMvk5ngK4FGtdq7ntb07/1p94H+hen11h8FZAPbT2dWF1TPb3p1/1WnV97bapzxycJbJza0APKx6brt1ZOPLq1dWXzA6CMA+OL16VXXn0UGOwvHV+dX3Dc4xqTkVgDOrXxwdYk13bHWICWDunt7uHvV8TnWb0SGmMqcC8APVyaND7MFDchQAmLfTWx1S31WnVI8YHWIqcyoA9xsdYI+Oq84dHQJgg86tjh0dYo/uPzrAVOZUAM4aHWACtx8dAGCDbjc6wATmsK+pdutiuZty4ugAE9im5xWw+27W6irmvY4BU5nDNm4O76GaVwEAruu8wwvA55jTKQAA4AgpAACwQAoAACyQAgAAC+QiwLqoOjjxmKe196uvAVi57PAypQMt/NZrBaDu2vQfrCdWT5h4TJZrttORwhF6dqvt6pROqz488Zg7xSkA2H4fGx1gDYvesMIuUABg+71ldIA1vG10AODGKQCw/d5QvXN0iKPwxuqto0MAN04BgO13qHrS6BBH4YmjAwA3TQGA3fBfq18bHeIIPL/6rdEhgJumAMDueEj1jOqa0UGux9XVU6pHjg4CHBm3AcLuuKZ6XPWi6qHVvasvbNxMmJdX767+uLog5/1hpygAsHveXP370SGA3eYUAAAskAIAAAukAADAAikAALBACgAALJACAAALpAAAwAIpAACwQAoAACyQAgAAC6QAAMACKQAAsEAmA6qXtZrKdEpnTzzekbpt9UPVt1R3rE4elGOT7lEdGh0CJvT60QFuwserv6t+r3pOdcmADOdV95x4zOMnHm/nKACrKVXn4MHV+dVJo4MAs3Lz6qsPL4+p/m31G/uc4ezGfbGaLQVgHh5SvXB0CGD2Tqle3Or08YsHZ2GPXAOw+85q9c0fYD8cU72gOnN0EPZGAdh9P1KdMDoEsCgntzodwA5TAHbft44OACySbc+OUwB223HV7UaHABbpjq1OB7Cj5lQArhodYAJXHuXPn1Qdu4kgADfhZtXnHeVrjnYbt43m8B6qeRWA944OMIH3jA4AsEG201tkTgXgNaMD7NGh6g9HhwDYoFe3+w/yevXoAFOZUwE4v90+DfDSZtQsAa7He6uXjw6xB1e3ugVyFuZUAN5R/czoEGv6YPXY0SEA9sGPVB8aHWJNT2r1WORZmFMBqHpK9azRIY7SxdUDq4sG5wDYD+9otc0bMafAXjyzeuroEFOaWwE4VP1w9YDqT6uDY+PcqI9Uz62+qvrzwVkA9tPrqrtUz2u1LdxWB6vXVvdvdZR2169fuI65zgXw+4eXM6ovqU4cG+dzfKB6c9PPQnikPladOmjdwPa5sqO/pW+vLqke3epL2zmtttfb5PLqrdWlo4NsylwLwGd84PACwHa6unrD6BBLNLdTAADAEVAAAGCBFAAAWCAFAAAWSAEAgAVSAABggRQAAFggBQAAFkgBAIAFUgAAYIEUAABYIAUAABZo7pMBcf1Orl4/OgSwNY4fHYD9pwAs07HV3UaHAGAcpwAAYIEUAABYIAUAABZIAQCABVIAAGCBFIDddkV1aHQIYJE+XV09OgTrUwB221XVJaNDAIv07urg6BCsTwHYfX8wOgCwSLY9O04B2H0/nxYO7K9rqueMDsHeKAC776+rp48OASzKk6s3jg7B3igA8/Afq2eODgHM3qHqqdVTRgdh7xSAeThYPbb6xup/VleOjQPMzBXVK6p7Vo/P3UezYDKgefmTw8sJ1RdWt7iJn//u6kfXWM9Lqp9b43XAZvxoq7/no/XM6sU38TOXVe9rVQKYEQVgnq6o3n4EP3evNce/pLpwzdcC01v3duD35G95sZwCAIAFmvsRgOOqM1odEt8mH6o+OjoEwJa4eXX66BD/wOXVB1rd8jhLcy0AX179RPXA6vMHZ7khb6peVD2v1QcNYElOrB5VPaS68+AsN+Sj1e+0uvPhTYOzTG6OpwAeU/3fVhfEbOvOv1Yf+Ge0Ov92x8FZAPbTF1d/2WobuK07/6pTq3/T6nkrjx6cZXJzKwDfXz2rOnZ0kKNwTvXK6lajgwDsgzNabfO+bHSQo3BcqycfPnR0kCnNqQCcWf3C6BBrukP1s6NDAOyD/1TdfnSINT271b5mFuZUAB5ZnTQ6xB48OEcBgHk7vfqe0SH24OTqEaNDTGVOBeB+owPs0XHVuaNDAGzQfdqtU7TXZ9f3Nf/fnArA7UYHmMBZowMAbNAXjQ4wgduPDjCVORWAE0cHmMAun8IAuClz2MbNYV9TzasAAABHSAEAgAVSAABggRQAAFggBQAAFmiukwEdjYuqgxOPedrhBYC9u+zwMqUDzeiWvnUoAHXXpv9gPbF6wsRjAizVs1ttV6d0WvXhicfcKU4BAMACKQAAsEAKAAAskAIAAAukAADAAikAALBACgAALJACAAALpAAAwAIpAACwQAoAACyQAgAAC2QyIObu1tU3V3eoThichd1wRfV31f+qLh2cBTZGAWCuTq2eUT0kn3PWc3X1/OrHqk8MzgKTcwqAObpN9WfVw7PzZ33HV4+qXlvdanAWmJwCwNwcqH67Omd0EGbjK6uXVMeMDgJTUgCYm++q7jE6BLNzbvVto0PAlBQA5ubBowMwWz5bzIoCwNx87egAzNbXjw4AU1IAmJPjqtNGh2C2zhgdAKbkCul6WavbfaZ09sTjcWQO5EItNufY0QEW7LzqnhOPefzE4+0cBaDuPToAADfq7HyxmpxTAACwQAoAACyQAgAAC6QAAMACuQgQ6prq8aNDsG+OqZ42OgSMNqcCcOXoABO4YnSAhbqmevroEOybAykAo8xhOz2H91DN6xTAe0cHmMB7RgcA2KA5bKffPTrAVOZUAF4zOsAeHar+aHQIgA16datt3S579egAU5lTATi/ump0iD34rRwBAObtva2evrqrrqpeMDrEVOZUAN5ZPXl0iDVdWj12dAiAffCj1QdHh1jTE6q3jw4xlTkVgKqnVs8YHeIova96QPX3o4MA7IOLqm+pLh6c42g9vZldLDy3AnCoelx13+pPqoNj49yoD1e/WN2lunBwFoD99Bettn3PbrUt3FYHq/9dnVv9WLt//cJ1zOk2wGt71eHlC6ovrU4eG+c6DlXvr95SfXpwFoBRLq0e0+qUwJ2q27Rds3l+stV2epsLyp7MtQB8xoeqPxsdAoAb9OnqjYcX9tHcCwAcieOqV44Owb7Zpm+ZMIwCAKtrYe4zOgTAfprbRYAAwBFQAABggRQAAFggBQAAFkgBAIAFUgCYk0/n4UpszhWjA8CUFADm5GCruRVgE2YzDzyUAsD8zGaubrbOq0YHgCkpAMzNs9ruSaDYTddUzxsdAqakADA3b6h+bnQIZuenqzeNDgFTUgCYo5+onjs6BLPxzOpJo0PA1BQA5uia6oeq+1d/dPi/4Wh8utX1JN9UPbaZzQMPZTIg5u0PDi+3qG5XnXEEr3lQ9bA11vWS6oI1Xrcf1p3p8L6TppjOI6vvWON1v1z99hH83CXVu6qPrbEO2BkKAEvwkcPLkfiaNddxUfO7Snxb388D13zdW9ve9wT7zikAAFggBQAAFkgBAIAFUgAAYIEUAABYIAUAABZIAQCABVIAAGCBFAAAWCAFAAAWSAEAgAVSAABggRQAAFiguc8GeEx16+qk0UGu5VCr6UY/NToIwJY4qdW2+pjRQa7lk9UHWm2zZ2muBeCc6serb201F/w2ekP1ouqXqisHZwHYbydUP1g9uPrKwVluyGXVK6qnVX87OMvk5ngK4FGtdq7ntb07/1p94H+hen11h8FZAPbT2dWF1TPb3p1/1WnV97bapzxycJbJza0APKx6brt1ZOPLq1dWXzA6CMA+OL16VXXn0UGOwvHV+dX3Dc4xqTkVgDOrXxwdYk13bHWICWDunt7uHvV8TnWb0SGmMqcC8APVyaND7MFDchQAmLfTWx1S31WnVI8YHWIqcyoA9xsdYI+Oq84dHQJgg86tjh0dYo/uPzrAVOZUAM4aHWACtx8dAGCDbjc6wATmsK+p5lUAThwdYALb9LwCgKnNYRs3h/dQzasAAABHSAEAgAVSAABggRQAAFggBQAAFmiXHpm7KRdVByce87TDCwB7d9nhZUoHWvit1wpA3bXpP1hPrJ4w8ZgAS/XsVtvVKZ1WfXjiMXeKUwAAsEAKAAAskAIAAAukAADAAikAALBACgAALJACAAALpAAAwAIpAACwQAoAACyQAgAAC6QAAMACKQAAsEAKAAAskAIAAAukAADAAikAALBACgAALJACAAALpAAAwAIdNzrAFnhZdfXEY5498XgAS3Zedc+Jxzx+4vF2jgJQ9x4dAIAbdXa+WE3OKQAAWCAFAAAWSAEAgAVSAABggRQAAFigORWAq0YHmMCVowMAbNActnFzeA/VvArAe0cHmMB7RgcA2CDb6S0ypwLwmtEB9uhQ9YejQwBs0Ktbbet22atHB5jKnArA+e32aYCXNqNmCXA93lu9fHSIPbi6esHoEFOZUwF4R/Uzo0Os6YPVY0eHANgHP1J9aHSINT2p+rvRIaYypwJQ9ZTqWaNDHKWLqwdWFw3OAbAf3tFqm3fJ6CBH6ZnVU0eHmNLcCsCh6oerB1R/Wh0cG+dGfaR6bvVV1Z8PzgKwn15X3aV6Xqtt4bY6WL22un+ro7S7fv3Cdcx1MqDfP7ycUX1JdeLYOJ/jA9Wbm34WQoBdcUn16FZf2s5ptb3eJpdXb60uHR1kU+ZaAD7jA4cXALbT1dUbRodYormdAgAAjoACAAALpAAAwAIpAACwQAoAACyQAgAAC6QAAMACKQAAsEAKAAAskAIAAAukAADAAikAALBACgAALJACAAALpAAAwAIpAACwQAoAACyQAgAAC6QAAMACKQAAsEAKAAAskAIAAAukAADAAikAALBACgAALJACAAALpAAAwAIdNzrADbhn9SujQyzAV6z5unOb77/PV635um+ubjllkC2wrf/Gd1/zdf+q+rIpg2yRdX8n/7o6Z8ogXK97jg5wfY7Z8PgPrS7Y8DoAYI4eVr1wU4M7BQAAC6QAAMACKQAAsEAKAAAskAIAAAu06QJw9YbHB4C5umqTg2+6AFy84fEBYK7et8nBN/0cgFOqS6sTNrweAJiTK6vTq49vagWbPgLwierFG14HAMzNr7XBnX9t/ghA1W2rC6vb7MO6AGDXXVzdtXr/JleyH3cBvK/657keAABuysWt9pkb3flXHbvpFRx2cfXr1amtJp44fp/WCwC74PLqv1QPqt62Hyvcj1MA/9DJ1ddV/6g6ccD6AWBbXF69p3pd9anBWQAAAAAAAAAAAAAAAAAAAAAAAAAAAAAAAAAAAAAAAAAAAAAAAAAAAAAAAAAAAAAAAAAAAAAAAAAAAAAAAAAAAAAAAAAAAAAAAAAAAAAAAAAAAAAAAAAAAAAAAAAAAAAAAAAAAAAAlur/AUUWf26P+gZDAAAAAElFTkSuQmCC;" parent="1" vertex="1">
          <mxGeometry x="783" y="200" width="122" height="122" as="geometry" />
        </mxCell>
        <mxCell id="Hf2aZSIuRy_q8SedqZRs-18" value="" style="shape=image;imageAspect=0;aspect=fixed;verticalLabelPosition=bottom;verticalAlign=top;image=data:image/png,iVBORw0KGgoAAAANSUhEUgAAAgAAAAIACAYAAAD0eNT6AAAABHNCSVQICAgIfAhkiAAAAAlwSFlzAAAOxAAADsQBlSsOGwAAABl0RVh0U29mdHdhcmUAd3d3Lmlua3NjYXBlLm9yZ5vuPBoAACAASURBVHic7N15lB1VgT/w76239r6nO0kn3VlJyEqABEjYBBwijDoKAioQouKI4sgMy8z8ZjSjM6OI2wQ3dAQFddzFBUQRCIkBsu8LSWftfd/e/l7V/f3RaUwg3Xndr967tXw/53iOB0jVN8nrV9+6detegIiIiIiIiIiIiIiIiIiIiIiIiIiIiIiIiIiIiIiIiIisQqgOQETmW3vvB4q9BYHKlCEqhZAVMIxCAJAaSjWpCQj4IIf+GYQWgkTSEIYUBvoAAJoWklJ0ezXZlQrHuz756I8G1P1uiCgbWACIbObhB1cX5QlM1yDrpSHroYlp0kC9EKgHUA2gAoDP5NMmAXQDaJcSx4WG4zDkMaGJ4wbEcU9e8MjH13wzZPI5iSiLWACILGrNmjVaWfj4DCHEIggsEMACSCwCMA3W+9mVAI5CYLcE9ghD7NY8YldncMrRNWvWGKrDEdFbWe1LhMi1Hrn/9oJ8j+8CKY3lEmIFgEsxdDdvWwIYlAKbIMVGKYxtAfjXf/Th7/SrzkVELABEyjx2992+RHliuTS06zXgWgm5CIBXda4sS0mJHQLyBQnxXE9B3cY1a9akVIciciMWAKIcWvvgh2shUiuFFNdD4FpIFKvOpFg/hPyzMMRznpT+h4999clm1YGI3IIFgCjLvnXfHZNTXu0mCO1mQF4G/tyNTGC/kPJJCe2pe7/4eIvqOEROxi8ioiz41v23T0hq3vcJ4H0AlgPQVGeyGQOQfxFC+5mhyZ998vNPdKoOROQ0LABEJlmzZo1WHjr5Nmi4Q0DeBCBPdSaHSECI30gYT9UcDT/7vp//XFcdiMgJWACIMvTVf717oieZuEsI8SEA01XncbijUsrv6T7/E/f993daVYchsjMWAKJx+ub9dyzUNc/HAdwBIKg6j8skIcTTmjAe+fgXvr9FdRgiO2IBIBqjbzy0eoUh5UMAbgB/hixAbJTCePjeh7//ezG0IBERpYFfXkRpkID4+gOrboIQ/w5ggeo8dFa7IMXnPvHI479iESA6NxYAonNYe//qa4UmHwawRHUWSsteSPnZTzzy/V+wCBCNjAWAaASPPrR6JaT8LICLVGeh8ZCbIcSn7334iT+qTkJkRSwARG/y6L+smgNdfAXAStVZyAQSL3qkft89X3pyt+ooRFbCAkB0ylfu+1C532d8RgL3wPlr8ruNISF+5DOS93/sS091qA5DZAUsAOR6j919ty9RkvwEBD4NoFR1Hsom0Ssh1/Tk132TmxCR27EAkKutfWj1IiHl/4LP+d1ml6bJj3ANAXIzFgBypa/cd3Oe11f0GQF5PwCP6jykREoA34waqX994EtPhVWHIco1FgByna8/eOc1EtpjAGaozkKW0GBA3P0PX3z8JdVBiHKJBYBc44k1q4KDEW2NgHwA3J2PziQBfNef77vvo2u+E1EdhigXWADIFb7+0J3zpNR+BGCR6ixkYQL7JcT7P/nw47tURyHKNj77JEeTgKh6cPXdEuKXAKaozkOWVyWAVTcsX5xaet27X123bh1XEiTH4ggAOdbX/+WOCkP3/lBAXq86C9mRfMajJW6/5ws/7lWdhCgbWADIkb7xwKrFhhC/BDBddRaytZOAeO+9X3x8q+ogRGbjRChynLUPrv6AIcRG8OJPmZsKyA1rH1i1WnUQIrNxBIAc47G77/YlSlNfA+Q9qrOQAwnxqL/X+08f/c53kqqjEJmBBYAc4eEHVxflAT/j837KJgnxQkB43/vRh7/TrzoLUaZYAMj2vnXfHZNTPs/vASxWnYVcYa/QtRs/8eXvnVAdhCgTLABka6fW8v89gFrVWchNZKuhyb/9hy/8YJvqJETjxUmAZFtrH/rQDULKjeDFn3JOTNQMbd2jD61eqToJ0XixAJAtff2h1e8T0vg1gALVWci1CiHl02sfvOsm1UGIxoMFgGzn0YdWvV9K+SMAPtVZyPX8AvjJow/edZfqIERjxaWAyVbWPnTXR4UU3wM/u2QdGoB3rlx+Qe8fNu7cpDoMUbr4JUq28egDd90ngLXgyBVZjxDA9TcsX9L/7MYdr6kOQ5QOFgCyhbUPrFothPgG+OYKWZcA8Dc3rLig49mNO7l0MFkeCwBZ3toHVt8hBL4H3vmT9QkA73jH8iVNf9i4Y4fqMESj4d0UWdraB1e9R0D8FIBXdRaiMdAh8YF7H3nip6qDEI2EBYAsa+g9f+PX4Gx/sqeEJuW7Pv7I959THYTobFgAyJL+55/vvFAztJfB9/zJ3iIS2tWf/OL3NqsOQvRmLABkOd+6747JKb9nEyQmq85ClDnZagjjkn94+MmTqpMQnY6TqshS1t77geKkT3uWF39yDjFRk55nv/qpVaWqkxCdjgWALOOxu+/2iTz/LwTEQtVZiEw2z+cXv1qz5ma/6iBEw1gAyDLiJcn/AXCd6hxE2SCBqysjhY+ozkE0jHMAyBIefeiuD0LiKdU5iLJNAKs+8cUnfqA6BxELACm39qHVi4SUrwDIV52FKAeiQmLFJx55YrvqIORufARASn3lvg+VCyl/BV78yT3yIPDLr//LHRWqg5C7sQCQMhIQXp/8EYDpqrMQ5ZIE6pHyPCE5CksKcS8AUqbqoVX/CODjqnMQKSFw3pYVSzqf3bhji+oo5E5sn6TE1x+6c56U2lYAQdVZiBSKeQx92T1fenK36iDkPnwEQDm39t57A4YUPwYv/kRBXfP8+Ik1q/izQDnHAkA5J/LDj3CxH6I3zBuMaP+lOgS5Dx8BUE59/cE7r5HQngc/e0Snk9Dk2+79wvfXqQ5C7sEvYcqZx9bcnZ+IJHcBmKk6C5EFHU4mQ4v+8as/j6oOQu7ARwCUM8lI8rPgxZ9oJLN83oJPqw5B7sERAMqJbzywarEhxBYAXtVZiCwsJSSWcZVAygWOAFDWrVmzxmsI8T3w4k90Ll4p8Phjd9/tUx2EnI8FgLKuInziXgBLVOcgsolF8dLkR1WHIOfjIwDKqrX/cleV0HEIQKnqLET2IXr9unf2R7/8nS7VSci5OAJAWaWl8Dnw4k80RrIs4Ul+RnUKcjaOAFDWnFrudyf47J9oPHQIecG9D39/j+og5EwcAaCskVL7KnjxJxovz6mfIaKsYAGgrHj0odUrAVynOgeRnQnIa77+4Cr+HFFWsABQdkhjjeoIRE5gSPFfko9rKQtYAMh0X3/orncBYqnqHEROIAQu/sYDq1aqzkHOwwJAppKAkBJrVOcgchIpxOc4CkBm86gOQM5S+cCqmyHEvapzEDnMxM3LF+/8w8adB1UHIefgCACZRgICQvy76hxkHk3jV4R1CG4URKbiTzeZ5psPrPobAAtU5yBz5AX9uPGaZSgtLlAdhYZcsPb+1deqDkHOwQJApjE08U+qM5A5NE3DlZcsQnFhPq66ZDECAe5NYwka+DNGpmEBIFM8+tCqBZC4RnUOMseyxXNQWVYMACgsCGLFRfOhCc5BU01AXr/2odWLVOcgZ2ABIFNIqT0AzlJ2hPnn1WNG3cQz/tnECeW4aOFsRYnodBqMT6nOQM7AL2zK2Ff/9e6J3lTyOAC/6iyUmWlTarD8wvOBEe72d+4/gr2vH89tKHqzhCZl3ccf+X6b6iBkbxwBoIx5U8nV4MXf9ibXVODSUS7+ALB47nTMrJuUw1R0Fn4pcKfqEGR/LACUkVOLk9ylOgdlZtKEClyxbOG5n/MLgaUXzEHtxMrcBKOzkhB3c2EgyhQXAqKMVDyw+u1C4JOqc9D4Taoux5WXLoInzXf+hRCYMmkC+gZCGAhFspyORlD22vIlLz+3ccdx1UHIvjgCQBnRhPyI6gw0fpNrKnHlJelf/Id5NA2XL12AyTUVWUpG56JJ+WHVGcjeOIRE4/at+2+fkNK8jeDzf1uaUTcRyy6Ym9Hrfbph4OVNe9DS1mViMkpTTHj02k98/slu1UHInjgCQOOWEp5bwIu/Lc2ZOQWXZnjxB4ZGAq66ZOFbXhuknAgahucm1SHIvlgAaNykEO9TnYHGxqMJXLJkLi5aMHvU2f5joQmBSy44H3NmTDHleJQ+TeIW1RnIvvgIgMZl7YMfrhXQT4Al0jbygn5cuWwhKstLsnaOva8fx84DRwEps3YOOoMBiCn3fvHxFtVByH745U3jIqR+M/j5sY2qilK84+qlWb34A0OrCF5+8Xx4PPxo5IgmId+jOgTZE39KaXwEOPxvB0JgzswpuG7FEuQFAzk5Zd3kCbj+yotRkBfMyfmIjwFofPgIgMbs1PD/SfDzY2n5eQFcduE81FSVKTl/NJbA+k270dnTr+T8LsLHADQuHAGgsROpleDF39LqJlfjhrctU3bxB4bmHFx3xYVYOHeaWfMN6ew0QP6N6hBkP17VAch+BMRK1Rno7Aryglh2wRxMqrbGAj2aEFg4ZzrKS4vw6rYDiCeSqiM5kxArATyhOgbZC3s5jcljd9/tS5QmOwFkdzYZjYmmCcydWYcF59XD67XmCt+RSAyv7jiA1o4e1VGcqK87v65qzZo1KdVByD44AkBjkihPLIchePG3kIkTynHRgtkoKS5QHWVU+flBXHPZYhw61ozt+xqQSumqIzlJaUX42DIAG1UHIftgAaCx0cVKjhtZQ2V5CRafP0Ppc/4xEwKzp9diYnUFXt22Hx3dfaoTOYfQVoIFgMaABYDGRAhxjQQXeVGppLgAC+dMQ92kCaat5pdrRQV5ePvlS3CssQ3b9jYgFk+ojmR/AtcC+DfVMcg+7PntQUo8cv/tBUHN2wcWRyWKCvKxcO401NfW2PW6f1bxRBI79x9Bw/FmLiCYmaQ/31f60TXf4R7NlBZ+kVPa8jTtEsnPTM5VlBZjzoxa1E2pyXjzHisK+H1YtngO5kyfgu37GtDMnQXHy5eM6hcBWK86CNkDv8wpfVJbzjGj3BBCYHJ1JeadV4eqLC/faxUlxQW4+tJFaO3owY69DejpH1QdyXYMQ18BFgBKEwsApU0KXKY6g9MFA37MqJuEOdNrkZeXm6V7rWbihHLUXL0UJ1s6sOf1Y+jrD6mOZBtCiOWqM5B98H6O0rJmzRqtInKiG0Cp6ixO4/F4MGViJaZNmYiJ1eWOHOYfNynR2NaFvQePo7tvQHUaGxC93flTK9esWWOoTkLWxxEASktp5OQs8OJvqorSYkybWoNpU2oQ8PtUx7EmITBlYhWmTKxCd98AXm9oxPGmdhicLTgCWVYePjYNwBHVScj6WAAoLR5pLHTU1HMFPJrAhKpyTJ1Yick1Vch36RD/eFWUFuOyi+Zh0fkzcOhoI46caEMswdcH30yTnoVgAaA0sABQegQWqI5gR0G/H5NqKlBbU4VJNeXweqy5TK+dFOQHccH8WVh0/ky0tHeh4UQrWtq7YBgcFQAACLkAwK9VxyDrYwGgtEgpFnIA4NyCfj8mVJWguqIM1VVlKC0qsO1iPVanaQK1E6tQO7EKsUQCjc0dONnSifbOXnc/ImBZpzSxAFBaBL9U3kITAsXFBagsLUZFWREmVJSihBd8JYJ+P2ZNq8WsabWIJ5JobutCU2sX2jp7kEi6a38cCbFQdQayB35T0Tl9Y809hUYkOgAXf14Cfh+KiwpQWlSA0uIClJcVo7ykCB6PpjoajUJKie7eAbR29KCtsxfdfQNu2IRI9+f7irkiIJ0LRwDo3MKRmRDOvq3VNA3BoB/5wQAK84MoLMhDYX4eCgvyUFpUgGDQrzoijYMQApXlJagsL8GCOdNgSIn+gRC6evrR2TOAvv4Q+gbDMAxHvTXnSUbj0wDsUx2ErI0FgM7JEKhXnSFTecEA6murUVyYD49Hg9/nQzDgQyDgR17Qz8l5LqEJgbKSIpSVFGHWtKF/JqXEYDiK/oEwunr6cLSxHdFYXG3QTBkaCwCdEwsAnZsU0+w6+F9ZXox5s+tRW1Pp9EEMGichBIoL81FcmI8pk6qweN5MNLV2Ye/r9l18yAmlnbKPBYDOTUOd3XYALi7Mx5IFM1FbU6U6CtmMEAJTJlVhyqQqNLV2YtueBgyG7fY4XUxTnYCsjwWAzkkaqLfLzbMQwPkz67Dw/OnwaJygR5mpnViFidUV2LX/KA40nLDNdsUCsl51BrI+FgA6J2GT4cSA34fLl85HTVW56ijkIB5Nw5L5MzFxQjn+smUv4omk6kjp4AgAnRNvkSgdNaoDnEtJYT5WXnUxL/6UNRMnlOP6qy5GUUGe6ijpqFYdgKyPBYBGJYfe/bf0VbWkuADXXX4hCu3xxUw2VlSQh7dfcSGKCwtURzmXStUByPpYAGhUX/vUqhIAlt2qLi8vgGsuXcz39Cln8oIBXHf5BcjPD6qOMhr/ww+uLlIdgqyNBYBG5fHJCtUZRuL1enDNZZb/IiYHygsGcPUliyy9EqRfMyz7s0vWYN1PL1mCJjXLDiVevPA8lBZbfiiWHKqspBAXLzxPdYwReQ3r/uySNbAA0KikR1jy+X/txCrMqJuoOga53Mz6SdZda0JYd/SOrIEFgEYlpbTcLbbX48HShbNVxyACAFy8aDa8XustJW3Fn12yFhYAOgcRUJ3gzebOmsLn/mQZBflBnDe9VnWMt9AEODOWRsUCQKMSkJb6EvH5vJg7s051DKIzzJtdB5/VRgGk9co7WQsLAI1KWuwuYkbdRPh9XMCSrMXv82HaVKvNSWEBoNGxANDoJCz1JTKrbrLqCERnNbt+kuoIZzAsNnpH1sMCQKMSFhoBKCkuRAlf+yOLKi0pstgKgRwBoNGxANCohJSWebBZW8PXmsnapky0zmdUg8FnZTQqFgCyjeqqUtURiEY1oZKfUbIPFgCyjaqyEtURiEZVyc8o2QgLANlCXtAPH2f/k8UFAj4EApbdO4voDCwAZAuFBfmqIxClpYifVbIJFgCyhYCfd1VkDwE/R6rIHlgAyBYst8oa0Qh8XhYAsgcWALIFKVUnICJyFhYAsgUpDdURiNIi2VbJJlgAyBZ0nV+qZA8pXVcdgSgtLABkC7rBL1WyB5ZVsgsWALKFRCKlOgJRWuKJpOoIRGlhASBbiMTjqiMQpSXKzyrZBAsA2UI8loBhcGiVrE03DMTjHAEge2ABIFswpMRAKKI6BtGoBgYjfAuAbIMFgGyjb2BQdQSiUfX18zNK9sECQLbR2x9SHYFoVH0D/IySfbAAkG30DoRVRyAaVW8/P6NkHywAZBu9fRxeJWvr4WMqshEWALKNaCyOgRDvsMia+gdCiMUSqmMQpY0FgGylua1bdQSis2pq71EdgWhMWADIVlraWQDImlrbu1RHIBoTFgCylY6uPm62QpaTTOno7O5XHYNoTFgAyFZ0w0BbR6/qGERnaOvogW5wy2qyFxYAsp1jTe2qIxCd4XhTm+oIRGPGAkC209TSgVics63JGqLxBBpbO1XHIBozFgCyHd0wcOQk77jIGo6eaOVGVWRLLABkSw3HmgFuukKqSYkjJ1pUpyAaFxYAsqXBcARtXX2qY5DLtXb2cpdKsi0WALKtAw0nVEcgl9vfcFJ1BKJxYwEg22pu60ZX74DqGORSXT39aOXCVGRjLABka7sOHFUdgVyKnz2yOxYAsrXW9m7uD0A519TaidYOrv1P9sYCQLa3bc8hrsJGOaMbBrbtOaw6BlHGWADI9gZCEezez+FYyo2d+45gMBxVHYMoYywA5Aj7G06is4ebsVB2dXT14eARzvwnZ2ABIEeQUmL9pt2IxuKqo5BDReMJbNi6l+tPkWOwAJBjRGMJbNiyl/MByHS6YWD9pj2IRlkwyTlYAMhROrr68PKru1kCyDSGIbFh0150dnPlSXIWFgBynJaObmzYvAeplK46CtlcStfx8qbdaGrjbn/kPCwA5EhNrV3404ZtCEU4W5vGJxSO4Y8vb0NzW5fqKERZwQJAjtXTN4jf/3kTXj/SCIMztyhNhpQ4eKQRv3/hNfT2D6qOQ5Q1XtUBiLIppevYsvsQ9jecxII50zCzbpLqSGRhDSdasOfAMYSjMdVRiLKOIwDkCuFIDJt3HkQ0llAdhSwqFktg886DvPiTa7AAkGsYhsTRk62qY5BFNZxogWHwURG5BwsAucrh482QnA9AbyKlRMPxFtUxiHKKBYBcJRSOorGVr3TRmU62dPCNEXIdFgBynQOHuZY7nelAQ6PqCEQ5xwJArtPZ048ubhxEp3R29/HzQK7EAkCudKCBowA0ZD8/C+RSLADkSidbOjEYjqiOQYqFwlE0tXKlP3InFgByJSklDh5pUh2DFNvfcJJvhZBrsQCQazUcb0Y8kVQdgxSJJ5JcF4JcjQWAXEvXDRw6ylEAtzp0tIk7RpKrsQCQqx080ogkLwKuk0ymcPAIX/0jd2MBIFeLJ5I4dJQXArc5eKSRj3/I9VgAyPX2Hz7JUQAX4d0/0RAWAHK9oVEAzgVwC979Ew1hASACsL/hBEcBXCDBu3+iN7AAEAGIx5PYf/iE6hiUZfsOHefdP9EpLABEpxxoOIlYLKE6BmVJNBbn3T/RaVgAiE5JpXTsOnhMdQzKkl0HjkLXDdUxiCyDBYDoNEeON2NgkHsEOE1/KIKjJ7jqH9HpWACITmNIiV0HjqqOQSbbua8BBtf8JzoDCwDRm5xo6eD+8A7S2d2HRu74R/QWLABEbyYlNu96nbvEOYCUwNY9h4b+DxGdgQWA6Cx6+gbRcKJFdQzKUMPxJnT3DqqOQWRJLABEI9i57wjfGbexeCKJnZzPQTQiFgCiEcQTSezma4G2tXP/EcTjLHBEI2EBIBrFoaNN6O0PqY5BY9TTP4iG43yEQzQaFgCiUUgpsWX365xEZiNSAlt2chIn0bmwABCdQ0dXHw4fb1Ydg9L0+tFGdPI1TqJzYgEgSsP2fUcQjsZUx6BzCEdi2LX/iOoYRLbAAkCUhmQyhU07DqqOQeewacdBbutMlCYWAKI0tbR349hJridvVUdOtKKlo1t1DCLbYAEgGoOtew4jGueWwVYTiyWwfe9h1TGIbIUFgGgM4okktu56XXUMepPNu17nok1EY8QCQDRGJ5o7cJSPAiyj4UQLTrZ0qI5BZDssAETjsHnX6xgIhVXHcL2BUATbdh9SHYPIllgAiMYhldKxftNe6IahOopr6YaBv2zey1n/ROPEAkA0Tn0DIezY26A6hmtt33MYPf3c6Y9ovFgAiDJw8GgTmlq7VMdwnea2brx+jKszEmWCBYAoE1Li1R37EY3FVSdxjUg0jle27eP+DEQZYgEgylA8nsT6zZwPkAu6YWD95j185Y/IBCwARCbo7O7jUsE5sGXn6+jiRj9EpmABIDLJ0ZOt2H/4hOoYjrXv0Ak0nGhRHYPIMVgAiEy0Y18DJwVmQUtbF3Zylz8iU7EAEJlISmDj1r3oGwipjuIY/QNhbNi6D5KT/ohMxQJAZLJkSse6V3cjxk2DMhaPJ/HSa7uQTKZURyFyHBYAoiwIRaJ4+bXd0HW+GTBeqZSOl17bhVA4qjoKkSOxABBlSWdPP9a9touvB46Dbhh4efMezvgnyiIWAKIsau3owV+27OXz6zGQUuKVrfvR2t6tOgqRo7EAEGVZY0snNu04yIXr0iClxCvb9uNEc7vqKESOxwJAlAMNJ1qwceteGGwBI5JS4pXtB3CssU11FCJXYAEgypHjTe3YuHU/S8BZDN/5HzvZqjoKkWt4VQcgcpMTTW3QhMSlF86DJoTqOJZgGAY2btuPE00c9ifKJY4AEOVYe2cvYqFBTgzE0J1/PBxGZ1ev6ihErsMCQKSAkUohOjgA6eJXBKVhIDI4AD3Fnf2IVGABIFLE0PWhC2DSfRdAPZUcKkC6rjoKkWuxABApJA0D0VAIiZh7VrtLxmOIDQ7CcPHoB5EVcBIgkXISiWgU0tARyC8A4NDJgVIiFgkjleAeCURWwAJAZBHJeAJ6MoVgQSE0r7N+NHU9hXg4DIND/kSWwUcARBZiGAaigwNIxmJwwjsCUkokYlFEBwZ58SeyGGfdZhA5gAQQj0aQTMQRzC+w7WiAkUohFuFdP5FV2fObhcgFDF1HJDQArz+AQF4ehLDHgJ2UEoloBMl4XHUUIhoFCwCRlUkgFY8jlUjAHwjCFwxCWHYFQYlELDb0+IKLHBFZHgsAkR2cepaejMfhywvC5w9YpghIKZGMx5CMx129sBGR3bAAENmIlAYSkQgSkSh8gQB8gQA0j0dJFsMwkIxHkYwnwL2OieyHBYDIlobvumPweL3w+v3w+vwQWnbnCUgpkUrEkUokuYQvkc2xABDZnJ5KQU+lEEcEHq8XHp8PHq8PHo8HyPQxgZRvHF9PJaHrKTji/UQiYgEgcpLhizUQhQCgebwQHg80jwZN006NEIih+QPD5UDKU5P2JKRhwDAMGLoOqRswDJ0T+ogcigWAyKEkhlbgg55SHYWILMgeLxYTERGRqVgAiIiIXIgFgIiIyIVYAIiIiFyIBYCIiMiFWACIiIhciAWAiIjIhVgAiIiIXIgFgIiIyIVYAIiIiFyIBYCIiMiFWACIiIhciAWAiIjIhVgAiIiIXIgFgIiIyIVYAIiIiFyIBYAoh/x5+Vi88oNA5UzVUSxDlE/DkhvvRKCgSHUUIlfxqg5A5BZlNVNw8Y0fREFxGQBAAkBXg9JMqonyaUDdMlQJgbe9/5PY/OyP0N18XHUsIlfgCABRtgmBGUtW4Mpb7nnj4g8AYurFrh4JGL74QwgAQLCoBCtu/nvMufQ6iFP/jIiyhyMARFnkDxbgopW3oHranLP+ezH1YleOBLz54j9M0zTMvfQ6VE6ux9Zn/w+xSEhRQiLn4wgAUZaUVk/BVR/45IgX/2FuGwkY6eJ/uqqps3DVB/8BFZPrcxeMyGVYAIjMdmrI/6pb70FBSdm5/3u4pwSkc/EfllfIRwJE2cRHAEQm8gaCuPC692HS7Plj/rVOfxwwlov/sOFHAmXVtdj23M+QiIWzmJDIXTgCvbkdaAAAIABJREFUQGSS0uopeNsH7xvXxX+YU0cCxnPxP13N9Ll42x2f4iMBIhNxBIAcKw4vQjKIGPxIQUMKGowsdF4B4PLFs7HsqpUQHk/mx3PYSECmF/9heYUluPymj2LTuj9gw85DQ39GJtNgwHvqf0EkUChiCCCVhTMRqccCQI4Rl160oRSdsgjdKEJcZv/j7Rc63rdsGi65/DJTj+uUEmDWxf+N43k8uOSaGxENvoafvHoUCZn9QcwgkqgQg6gUIdSIfgSQzPo5iXKBBYBsTUKgQxbjuKxEhyzJyl3hSKr8Sdx70zWYMnlSVo5v9xJg9sX/dFcvvwSzp9dh7c9eQEciu19jMfjQLMvRLMuxG8AE0Y960YUJYgAip584InOxAJBttchSHDZq0I/8nJ5XQOLCGh/uvvU98Pn82T2XTUtANi/+wyZPnIj/vOdW/O8vnsGWpggksv+mgATQLkvQLktQLKI4T2vFRPRl/bxE2cACQLYTRgC7jSnolMU5P7cfOm5dNh1XX3Fpzs5ptxKQi4v/MJ/Pi4/d9i7M3bgJ//dKAxLIfA5GugZkHrbo0zFBDGCBaESBiOfs3ERmYAEgW2k0yrFbToWu4AWWSt/QkP/U2uwM+Y/GLiUglxf/0121fBnOm1mPr/30eXTEc/u11iGLsU7OxXytCXWiK6fnJsoEXwMkWzAgsMOoww5Zn/OLv4DERTU+/PcnblFy8X8jh8VfEVR18R82sboa/3nPrVg6OS/nz+Z1aNhlTMUuYypnBZBtsACQ5enQsMWYgUZZkfNz+6HjjuUz8PHb3wufN7vP+9Nh1RKg+uI/zOf14mPvfxc+dOVsBDU95+c/ISux2ZihZISKaKz4KSVLkxDYrM9Au4Ln/RP8Sfz7+9+Gqy5bmvNzj8ZqJcAqF//TLV96If79A9diQiD37/C3yxJsNqbnZFIiUSZYAMjSthv16ERRTs8pIHHRRB/+655bUTt5Yk7PnS6rlAArXvyHTaoZeiSwrDb3jwQ6ZTG2G3U5PSfRWLEAkGUdMmrQLNPbTMcsbwz5f/C98Pp8OT33WKkuAVa++A/zeb34+9vUPBJoluU4LGtyek6iseBbAGRJPSjE6zK3E+4m+JO49+ZrUTvJmnf9Z6Pq7QA7XPxPt3zphZg2tRb/87PcviVw0JiECk8I5Qjl7JxE6eIIAFmOAYEdel3OBm0FJC6YcGrI30YX/2G5Hgmw28V/2PAjgeVTc7dwlASwQ6+DwfkAZEEsAGQ5h2UNwgjk5FwBkcKqFTPwyTutP+Q/mlyVALte/If5vF58+JZ34kNXzERA5OaRQBgBHJHVOTkX0ViwAJClJODN2ZdlpT+F/3fb23DFpdaa5T9e2S4Bdr/4n27FsovwmduvRXUgNxv7HJY1iPOJK1kMCwBZylE5Aaks7/A2POT/+XtuydpGPqpkqwQ46eI/bGJ1NT53z205eSSQkhqOy6qsn4doLFgAyDIMCBwzsvsl6ZQh/9GYXQKcePEflstHAseNKq4NQJbCMSmyjHZZgmQWNnMJeoEJeUBZQQC3v/MdqCjJ/aJCuWbW2wFOvvifbsWyizB3zmw8+dsX0BeOozMiEdXN/T3H4UW7LEGN4O6BZA0sAGQZjbLc1OPNrq3Cu5fPx3m1E6BpQ1/mxQX5GAhHTD2PVWVaAtxy8R9WP6ka993+dwAAw5A42NiB37yyB4eazNvgp1GWswCQZbAAkCVIAF3SnBX/PJqGW69ejGuXzD7reYoL8zEQYgkY9de57OJfXJiPVOqvjwA0TeD8umqcX1eNP207hJ+u2wHDyPzF1C5ZCAmR85UJic6GcwDIEvpFEVImDf+vvn7pWS/+ABCOxlCYn4fC/DxTzmUHY50T4LaLf0F+EPnBIKKx+Fn//dsvnI3V15vzpkgSXgyIAlOORZQpjgCQMoH8QtRMm4PqaXOwr98LrNud8TGvXjwTl82rH/HfG4aBWDyBkqICSCkRjsYyPqcdpDsS4LaLf34wgNKiQvQNhka9J18+bxoONXVi/e6jGZ9z8uU3YW5REh3HD6Lt6EHEo+GMj0k0HiwAlFP+YD5qps/F5NkLUV03G8IzdNe/7s/bMz520O/Fu5cvOOd/F47GkBcMoLS4EIaUI975Oc25SoDbLv7BgB9lJUUwDAOR6Lk/A+9ZsRCbDpxEPJnZDoOdAzFcd9ES1J63CFJK9LScQPPh3Wg+uBOxCJcMptxhAaCs0zQvJs48H/XzLkZl3Sxo2lufPLX3D2R8nsUzJqM4/9wrCMYTSSRTOnxeD8qKiyANiVgikfH57WCkEuC2i3/A70N5ydCck1AkCinP/Uy+pCCIRTMmYfPBkxmdu7138I3/L4RAxeR6VEyux/wrbkTnycM4sWczWo8cgGHkfitjchcWAMqawrIq1M+/CFPnXYxAfuGo/204mvmKbOfXp7/zWjgaRWlRIYQAykuL0NU7gEQyN6vCqfbmEuC2i7/f50VFaTGEEEOPgSLpPwaaV1+TcQGIxM7+OdM0DdX156G6/jwk4xE0v74HR3ZuxEBXW0bnIxoJCwCZrmJyPWZffDVqps1J+6ISS2R+8a0sTn9Ft0g0jpLCAgghhu7CyorR1dOPZModd13DJUAYuqsu/j6vBxWlJRCnfr+hSBRGGnf/wyrG8BkbSSSNz7ovkI/6hctQv3AZupuP4/CWdWg9dgAYQ1aic2EBIFMIjwe15y3GrAuvQEnV2HfUS+qZr8KWF0h/ZT8pJSKxOAryggAA7bQSkDIhix0UnXc5ACDkkomQXo8HFWUlb6wJMda7fwAoCPozzjHWkjn0iGAV+jpa0LDtZTS/vguGYWScg4gFgDIihMCkWQtw/vLrUVhWqTrOmIQjsTcKADC0fkBlWQk6e/ug6879ghVCoLSoAPmnfu9+vw+9A6G0noPb1dDfbTE8p80/CUdj0G10IS2dMAkXrbwNc5dfj0ObX8SJvVsgbZSfrIcFgMZFCIHJsxdhzmXXoqhsguo445JMpZBIJuE/bU8Aj+dUCejpd+RdlqZpKC8pQsD/199zXjAAj8eDnr4BW10Q06VpApVlJfB4/rrOhMTQ8L8dFRSX4YJr34uZSy7HgVf+hObDe/hogMaFBYDGrKxmChZe9U6UT6pTHSVj4UgM/pIzHx14PR5UlBajq7ffUXfFPu/Q5DeP561vYfh9XlRVlKKnbwCJDF9zsxIhBCpKi+H1nrnIVDQas/0oT1H5BCy98YPo7WjCnpd+i+7m46ojkc2wAFDagkUlmL/8ekyZu8Qxk8ai8QRKDOMtryYOzxTv7htwRAnICwZQVlz4xuS3sxl+BNI3EELEAWsjDL/h4T/Lro+DNr37P5uyCbW44n0fQ/PhPdi7/hlEBnpVRyKbYAGgc9I0DTMvvBJzLr0WHq+zttCVUiIUiaG48K2zu4ffFe/uy3yNApWKCvJQXJje8rNCCJSVFMHr9WIgZO8V6sqKixD0v3XSXiQWP2Pdf0cQYmhxrWlzcPDV53Fk+wZIw2G/RzIdCwCNqm7+Rb4ZS66MFFfWZP7+k0WFo1EUFeSd9e54eLW43v7Bs/xKaxu+mOcFxj5zvaggDz6vB739g2N6Tc4qyooLkRc8+6JQgw7eDdLr82P+FTegfv7S6OFtG/KA76uORBbGAkBndfjw4UCwuPSzQuIf4fDPiWFIRKJxFOQHz/rv84MBSEOib9A+y7R6PBoqSorh843/ry4Y8KOyvBTdfQPQbfRqZMlpbzi8mSPv/s+isLwq74Lr3vP/mtv+LhAZ7F8za9Ys+z/TIdNxN0B6i9bW7vPzikpfExIPwuEX/2HneiZckB8862MCK/L7fJhQXprRxX+Yz+vBhPLSM94asLLiwvxRd3p08t3/WXglxD/nF5Vua2xvX6g6DFkPCwC9QUopmto779aFsQXAYtV5cknX9XNuClRUMPrFxQoK8oKoLCs5634L4zX8Gp3lf+/5QRQVjFzSIlF33P2/mQTmCaltamzr+AcppTNm75IpWAAIAHDiRF9Zc3vXbyHxGAB73OqaLJ33wkuKCs5YPMhKigsLUFpcmLUXNEqKTh0/O4fPyPC2vqNx2d3/mwUFxNea2rt+faSnp0R1GLIGFgBCY3v7Qk8guQXAjaqzqJRIptLaEKh0lAlmKgzfoRcVZP8OPRsjDJkanqg5mkg05polnkcjgHcFEvrWxra2c++bTY5nnZ9iUqK5rfM2IbVXAMxQncUKBsPpvR8+0itmueb1eFBVlttn9H6/D1XlJfC9aXEdFU7f1nc06f69usRMAc8rzW0dt6gOQmqxALiUlFI0tnaukcCPAaT3krgLxOKJtJ4Tj7bITK4EA35UVZS+ZZW7XPB6PKgqL0VwHK8YmuX0bX1Hw7v/syqUED9pbuv6HyklrwMuxb94Fzp8+HCgpb3rh0LgM6qzWFG6a8QPbyPs8+b+RYnC/DxUlBZDU7gi4/Ayu6NNvMuWN2/rOxIJ3v2PRkJ+srmj+yfHjh2z5sQWyioWAJdpbOwvzy8u/ZME3q86i1VFYvG0N8XRhEBl2VvXms+W4cV9SoqsM2hTXJiP8pKic16MzfLmbX1HE+Xd/7lJebMvr+iFlpYWe23nSRljAXCRYx0dNcKXXCclrlCdxcrGuk+8pmmoLC056yY7Zhpeqz/fQhMQh+UFA6gqz9WfwZnb+o5ESmCAd/9pkpcZmm/9yc7OSaqTUO6wALhES0vPVJ8hNgCSs3/TEI5Gx7QJ0PA2wtmaHe/zelFVXgq/CYv7ZEu2M55tW9/RRKIxW61gaAFzhY6/tLW1TVMdhHKDBcAF2trapumavg7ATNVZ7MIwhjYJGovhbYTNHgrP1d21Gd4Ypcgzd5RipG19RyKldPt7/+MigGkpeNY1dnTMUp2Fss/63yiUkZPt7TNS8PxFAGz1YxSKRMa8FXC6M9PTVVSQ2+frZhBCoKzYvHkKQgAVpcVjeuMiFImmPY+D3mKqMMRLJ9rbp6sOQtnFAuBgTU3dtUJqzwPgc71xGM8oAJD+u+mjGb7jtcv+A2dTmJ+HirLM31QoKy4a0zoHhmFw5n/mJnuk9lJLS2+d6iCUPSwADtXW1jYBXuN53vlnZjyjAEB6q9ONxArv2Jsl6M9srYLRtvUdyWB4bPM3aERTDS31/LGOjhrVQSg7WAAc6Fhvb2kK2gsA5qjOYneGMbY3Ak6Xzvr0b+b3WWeVPbOMd7XC0bb1HYmuGwhHx/f3RWc1y2eI57q7u4tVByHzsQA4zFYpfb548meAmK86i1MMRsZ/RzmWbYQL8oOoKrfWOvtmGZ7BX5Cf3gX9XNv6jmQgPL4RGxrVomjSeHrfPmn/ISk6g/O+aVyupr3rUUBcpzqHkxiGMe5RAGBoIl9ZSdGIC9do2tDiPmMdLbCj0qLCc/xZaCgrKRrX6oKplI4I7/6z5eriiq5vqg5B5rLuS8U0Zk1tHf8G4KOqczjRYCSKgvzguGfj5wcDCAb8iMXiSCRTMKSEEAIBnxd5wYCtZvlnKj8YQF7Aj2gsjngyBSklNCHgz/DPoj8UNjkpnU4AH2ps62qYUlP5BdVZyBwsAA7R3Nb5txL4D9U5nMowhp4tj2dYepgmBPLzgsjgEI4hTP6zSCRTiMUT5hyMRiQg/6uptXNP7cSqZ1RnoczxEYADNHZ0zJLAk+DfZ1Zxdrl1DfDuP1c0aHjqZHs7tw93AF4wbK6tra1AGPgVgFLVWZxueBSArCUWTyCeSKqO4R4SZZrUftXS0mLfRSoIAAuA7aXg+TZn/OcORwGsh3f/Siw0NP/XVYegzLAA2FhTa8fNAD6oOoebGIaBUISrzFlFOBpDMsUNf9SQdzW3dd6qOgWNHwuATTU1dddCE4+pzuFGg+EoDK4zr5yUEoMhbvijkgS+xeWC7YsFwIaklBq8xlOQKFOdxY2klBjgTnPKDYYj3PBHvVJdpJ6SUjpn6UoXYQGwoeaOrk8BuEp1DjeLRGJIca95ZXRdH9dGTWQ+IXB5U3vnx1XnoLFjAbCZlpbeOki+76+aBDDA4Wdl+kNc8tdKBMTnuX2w/bAA2IyuJb8DwPlrxtpA9NSqfpRbiWQK0VhcdQw6U77X0L6hOgSNDQuAjTS1dt0pIN6uOgf9FV9By73+Qf6ZW5EUuL6xvfMDqnNQ+lgAbKKzs7NICMk1uC0mnkhyCdocGhp14aI/ViUkvsytg+2DBcAmYil8WgI1qnPQW3EuQG5IKdHPP2urq44m9X9WHYLSwwJgAyfb22cIgXtV56CzS6ZSiET5TDrbQpEYdL55YQPinxo7OmapTkHnxgJgA0JqXwIQUJ2DRjYQDnNWehYZhoFBrr1gF36ha59XHYLOjQXA4k62dF4kgHepzkGj03UDYb6XnjV87c9mhHxvY2vXUtUxaHQsABanafK/AQjVOejcBrgyXVYkkilEuAuj7QhNrlGdgUbHAmBhLR0dKwBxneoclB4pJScEZkH/YEh1BBoPiZUtLR2Xq45BI2MBsDDDEJ9TnYHGJhKNcXEgE4X552lrhiY+ozoDjYwFwKJOtnZdDK73b0t9vGM1hWFwRMUBrmls61qmOgSdHQuARWnAQ6oz0Pgk+czaFAOhMLdddgAB+SnVGejsWAAsqK2tbRqEfLfqHDR+/aEIDM5aH7dkMoUwS5RT3MyNgqyJBcCCdHg/BYD7a9uYYRgY5PD1uPExiqN4PFLjQmYWxAJgMW1tbQUG5CrVOShzoUgUyRQnsI0VJ1I60l0tLS35qkPQmVgALEaHdosAuJmGQ3DnurExDK7371AlhvDfrDoEnYkFwGIk8BHVGcg88USSe9ePwUCYE/8cS0h+t1kMC4CFNLa1LQDEJapzkLn6Q9wnIB3JVIrLKTvb8hOt3fNUh6C/YgGwECE9q1RnIPPpuoHBcFR1DMvrG+DEP6fTNONO1Rnor1gALEJKKSBwk+oclB2hSATJFLeyHUk4wol/biAkbpVScm8Ti2ABsIiWjo7LAExVnYOyQ0qgb2BQdQxL0g0DAyFOlnSJKc3tPVwZ0CJYAKxCet6nOgJlVyLJZ9xn0z8Q4qJJrmLwu84iWAAsQEopJOR7Veeg7OsPhaHrnOU+LBZPIBpPqI5BuXUTHwNYAwuABbR0di4GMFl1Dso+KSVXuTtl6M+CQ/8uNKWpo2OB6hDEAmAJ0sBK1Rkod4buerk2wEAoAl3nxEg30gzP9aozEAuAJUgp+MPgMv0DYRiGe597J1MphCJ8NdKtpJD8zrMAFgDFuru7i4UAF/9xGbfPfO/lO/9ut+JIT0+J6hBuxwKgWCxpXAnApzoH5V44GkM8kVQdI+dCkSiSfOff7Xz+eOoy1SHcjgVANSGXq45A6vQNhFy1TLCuGxjgZj8EQAiN332KsQAoJg3BHwIXS+m6q5YJ7ht0V+Gh0cgVqhO4HQuAQvv2ST8ELlSdg9QaWibY+UPikVgcMb7zT3+1dN8+6Vcdws1YABQqrui+AECe6hyklpRAT/+go++MdcNAP9c/oDPlFZV3L1Idws1YABQSQl6gOgNZQyqlYzDs3Gfj/QMhV7/2SGcnhFysOoObsQAoJbkaFr1hMBx15FsB0Vicy/3SWWkQ/A5UyKs6gKsZYiFcuiJ230AYew4fx8FjzWjq6EJXSALCk9Ex1/7wd5haXYZZUydhwaw6TKmphBD2+gPuHQihuqLUdrlHYhgGl/ulEUneBCnFAqCIlFI0t3fNV50jV5IpHdsPHMHuQ8ex9/AJNLZ3nfHvi6proXkyKwCN7V043tSC9dv2AQBKCvMxf2Yd5s+ciqULZqOsuDCj4+eCruvoHwyj1AZZ09E3GIZhcPMjGtFC1QHcjAVAkcaurokaUKo6R7YdaWrDui17sGHbPgzk+HW3/lAEG3cewMadB/DdX/4J59VPxlUXL8DlS85HMGDdycfhaAzBgN/SGdMRiycQjXHPAxpVeXt7e3V1dXW76iBuxAKgiMcwpkmHTsGIxOL44yvb8fyru9DW1as6DgDAkBIHjjXhwLEm/OC3L+KyxXPwrrctw+SqCtXRzqpvIIQJFWXQNHs+CjAMyeV+KS0J6akHwAKgAAuAIga0ent+tY9sMBLBsxu24Zn12yy90UskFsefX9uFFzftxpK5M3DL9SswY8pE1bHOoBsG+gYGUV5arDrKuPQNhjj0T2nRYNQD2KQ6hxuxACgipKyHQ2YARqJx/OL5V/DcK9tttdCLISW27m/AtgNHcNH5M/GBG67E1IlVqmO9IXpqCD0vGFAdZUw49E9jYUCbpjqDW7EAKCIg6p3wVvSWfYfxnZ//Ed39g6qjjJuUElv2Hcb2g0dw/fIluG3lFci3yEW3bzAEv98Hj2aPx0WGIdHHoX8aAwFZrzqDW7EAKCIBa405j1FrZy+++6s/YefBo6qjmEbXDTyzfite2XkQt994Fa66WP0bSoYh0dcfQkWZPR4F9A2GoHPon8bG1t+FdsYCoIyssOMjACklfrNuE370zHroum7ecQ0DyOwtQEiTVprrHQhh7Y9/j1d3v457b7sBhflqV2uOJRIIRaLKc5xLJBbn0D+NhzVn4rqAPcYVHUlUqk4wVoORCP77f3+OJ3/7kqkXfwAwMj6ehGGYu6HOlr2H8Y+PPI4Dx5pMPe54DAyGkUhad8MgrvVP4yZgu+9Cp2ABUEXYq/UePtmCB778fWzbfyQrx9cTmb01kErEh3bVMVlX3wA+/Y0f4ad/3ABD4WY9EkBP/4Bl19Pv6+da/zRO0l7fhU7CAqCAlFKDRInqHOl6cfNu/Ovap9DR05+1cyQj4aHHAOOUiGTv7lPXDfz0ub/ga0/9BimTRz7GmsOKE+xCkShiCfu8/UGWUyaltN/zUAdgAVCgtbU1CJv82T+zfiu+8ZNnoevZndhlGDri4YHx/dpkAsksFoBhf9lxAJ/99k8RUficOxqPIxyNKTv/m6VSOgZCzt3FkHLC09DQYO9lL23KFhchp4nn5Vn+wy6lxFO/ewnf+/XzOdunPh7qRSo+tkcB0jAQ7m3H0CB59u1tOIHPfOPH6Fd40esfDCOZssZ8gN6BwZx9Psi5ysvLrfHercuwACiQF49bugBIKfHNnz6LX7/4Wo5PDER62pGKpbd7nKGnEO5pg5Hji+GRpjb869onlS11K6VET5/6C+9AKGLpiYlkH3GLfyc6FQuAAqmUz9If9id//xJe2LRbybmllAj3dCLS0wEjdfbnytLQEQv1IdTRBD2hZji+tbMX//Htnygbjk/putK19hPJFAbDHPonc+h+P0cAFOA6AAp4vUlfKtOX3rPk6Zdew29eVLssd0VJISZXV6CqrBiG0JDQBaSmQZMSHiHhFxL9oSCa2zW09fSZ/kpiuk62duIL3/slPv33t8Lnzf3fZzQWR8TvQ35eMKfnlVKi18YrP5L1+FIpS98UORULgAJxIYTHgo9NX9qyG0/9bl1Oz+nzejBnWi3mz6zD/Fl1qJ80AXlj2AZX1w20dvVg/5FG7G04gT2HT+T0+fy+Iyfxlad+gwfufDc0Bcv19g2G4ff54M1hAekfDCt9G4KcJy4E3wJQgAWAAAy95/+tnz6Xk+fKmhA4r34yrrp4AVYsOX9MF/w383g01FZXora6Em+/7AIAQ8/o123Zg/Vb92Mwkv0ysGn36/jxHzbggzdcmfVzvZmUEj39g6gqL0EuvkOjMWu9hUBE48cCQAhFovjS95/O+l1dwO/DtZcswjuvWoqqsuwtgzCjtgYzamtw+41X48XNu/H0i69ldQ0DAHj6hVcxb/oUXDB3elbPczbJVAo9/UNbB2ezAiQSSaXzDojIXCwALielxKP/9ww6e7N3gfR5PbjxiqV459VLUVKYn7XzvJnf58X1y5fguksWYf32ffjJH/6Std+nISXW/vh3+Mr9H0JZSWFWzjGaWDyBnr4BlJcUZWUkIJ5IortvQPmbB0RkHr4F4HK/f3krtuw9nLXjz59Zhy/fvxq3/+1VOb34n87j8eDqixdi7T9/BLdcvyJrE/b6QxF8+cmnYSjaDS8WT6Crt9/0kZxQJIruvn5e/IkchgXAxVo7e/HDZ17KyrHzAn586oPvxGc//n7UVltjr4+A34db/uZyfOn+1aibVJWVc+w/2ohnN2zLyrHTkUim0NHdh1AkmvHWCKmUjq7efvQPhrOxzQIRKcYC4GLf+/XzSKbMf+4/paYKX7jvTlxx4TzTj22GKdWV+OJ9d+GGKy7KyvH/7w/r0dOn7jU5KSX6B8Po6O5FOBIb8yZGiWQKvf2D6OjuRTyRzFJKIlKNBcClXtl1ENsPmL+z34oLzseX/ukuTLHIXf9IfF4PPvR31+ETt90Aj8fcH4NoPIHv//ZFU485HildR99gCG2dPejuG0AoEkU8kYSuG2+UAsMwkErpiMbi6B8Mo72rF509fYjE4jlaXJmIVOEkQBeKxhN4/Ok/m37clSsuxIfecx00G73S+7alC1FcmI8v/+BpU+92/7JjP669ZBEWzq437ZjjJaVELJ5ALM4d+4jorzgC4EK/eWmT6UPUN799OT7y3rfb6uI/7KLzZ+LTf38rghmsR3A2jz/9Z06cIyLLYgFwmUgsjmfWbzX1mNcvX4LbVl5h6jFzbe60WvzLh24y9Q2Bk62d2LIve29YEBFlggXAZZ7buN3UldyWL56LD7/37aYdT6UFs+rwiVtvMPU9+l/86RXTjkVEZCYWABeJJ5L43brNph1v6sQqfOK2G2w57D+Syy+ch3dfvcy04zU0tmLnwaOmHY+IyCwsAC7ywqbdpm2UEwz4cf+qv0PA7zPleFby/ndcibnTak073i///KppxyIiMgsLgIs8/9oO04714fdch9oJFaYdz0o8Hg333fEu5OeZs0X5/qONaO3sNeVYRERmYQFwiaNN7TjR0mnKsc6fPgVXX7zAlGNZVWVpMW673pyJjVJKvLxtrynHIiIyCwuAS7y8bY+XQibvAAAQUklEQVQpx/F4NHzkvX+Tk61nVVu5Ygmm11abcqyXNu/hK4FEZCksAC6g6wY2bNtvyrGuX74ka+voW42maVj9d9eZcqzO3n4cONZkyrGIiMzAAuACextOoG8wnPFxfF4P3v22S0xIZB/nT5+C86dPMeVYG7cfMOU4RERmYAFwgd2HTphynKsuXoCKkiJTjmUnN113mSnH2X3ouCnHISIyAwuAC+xtyLwACCHwzquXmpDGfhbPmY76yRMyPk5zZze6+9XtEkhEdDoWAIeLROM40tSW8XFm103G5CpnvvaXjisvnG/KcfaaNBpDRJQpFgCH23f0JAzDyPg4V140z4Q09nXlRfNN2TZ4jwmjMUREZmABcLjXjzVnfAxN07D8gjkmpLGv0qICzJ9Rl/FxDhxrNCENEVHmWAAcrqm9O+NjTJ9cjaL8fBPS2NuC2ZkXgPbufiRTuglpiIgywwLgcC0dmReABbMyv/A5gRl/DoZhoL2bywITkXosAA6m6wbauvsyPs68mSwAADCjtgb5wcz3B2g2YVSGiChTLAAO1tHTj5Se+XDztEmZvwLnBJqmoba6MuPjtHT1mJCGiCgzLAAO1m7C3X9ewI/S4gIT0jhD7YTyjI/R1pX53wsRUaZYABwsHItlfIxJVeWu2PgnXZNMKADRWNyEJEREmWEBcLBYPJnxMSpKi01I4hxm/HlEYgkTkhARZYYFwMFi8cwvNHl5fhOSOEdeMPM/DzP+XoiIMsUC4GBRMwqAnwXgdHmBzN8CMOPvhYgoUywADhZLZP4IIBDwmZDEOfICmRciFgAisgIWAAeThsz4GBo/ImcQWuYTIqXM/O+FiChT/HYnIiJyIRYAIiIiF2IBICIiciEWACIiIhdiASAiInIhFgAiIiIXYgEgIiJyIRYAIiIiF2IBICIiciEWACIiIhdiASAiInIhFgAiIiIXYgEgIiJyIRYAIiIiF2IBICIiciEWACIiIhdiASAiInIhFgAiIiIXYgEgIiJyIRYAIiIiF2IBICIiciEWACIiIhdiASAiInIhFgAiIiIXYgEgIiJyIRYAIqJziETj2LBtH37xx40ZH6unP4QfP/sy9h05CUNKE9IRjY9XdQAiIisyDAM7Xz+GdVv2YvPeQ0gkU/D4/CismpzRcZOpFH7x/Cv4xfOvoLK0GFdcOA9XLV2A2gkVJiUnSg8LABHRaXRdx4bt+/GrP7+Kpo7urJ6rq28Av3rhVfzqhVexaPY03PaOyzG7LrOCQZQuFgAiolM2bNuHHz7zMjp7+3N+7l2HjmHXoWNYPGcaVr/7WtRWV+Y8A7kLCwARuV5rZy+++6s/YefBo6qjYOfBY7jvkcdx/fIL8P53XIm8gF91JHIoFgAicrV1W/bg2z9/DolkSnWUN+i6jmfWb8WWvYfxT3e+G7OmTlIdiRyIbwEQkStFYnF85cmnsfbHv7fUxf90HT39+LdHf4hn1m9VHYUciCMAROQ6vQMhfPaxn+BES+fYfqEQmZ9cju0YyZSO7/36eRxrbsfH3rcSHg/v28gcLABE5CpNHd343Ld/Oq6JfoauZ3x+aYzvGC9u3o1wNIZ/vOPd8Hk9GecgYpUkItdoau/Cv619avyz/I0UkOHiPYY+/scNm/Ycwhce/wV0E4oIEQsAEblCT98gPvfYzzAQjo77GFICycT4fz0ApGLhjH79jgNHsfbHv+cqgpQxFgAicrxINI7/+PZPTHm/PxEaHPevNQwdyVgk4wwbtu/HU797KePjkLuxABCR4z32i+fQ2N5lyrFS8QiSsfGNAsT6eyBNunP/zUubsGHbPlOORe7EAkBEjvbshm3YsH2/qceM9nVATyXH9GsS4QEkoyFTc3z758+huTO7yxWTc7EAEJFjNbV34Qe/fcH040rDQLirBam0RgIkYgM9iPb3mJ4jGk/g0R89w/kANC4sAETkWN/95Z+QTGVnxrw0DIR72hDpaUcqHgPkW/99MjKIwY4mxEP9eMt/YJJDJ5rxwmu7snJscjauA+Bgmgn1buPO/Tja1Dbqf+P3e1FRUoR5M6diydwZtlq73JASB482YfuBI+jo6cfgOWaIR2LxjM/JhVxyY/22fdhz+ETWz5OMRZCMRSCEBs3rgdA8MPTU0Ot+Oboxf+r367B0wWyUFObn5oTkCCwADmbGhbijpx8dPenNnH5u43YU5AXx3usuxTuvXArNjAaSRbsPHccTv/nz2FeDy1Ce3z4Fya50XcePnnk5p+eU0oCeNACMbW6AGUKRKH71wiu4613X5vzcZF/W/oamjJSVFOb8nOFoDE/+9iX853d/hmg8kfPzp+s3L23CZ789jqVgTVBeUpTzc7rNuq37lGzpq9KfXtmJ/lDmrxiSe7AAOFjtBHX7ie88eAxfe+q3lpyc9OLm3fjBb19Ulm3yhAol53ULwzDw6xdfVR0j5+KJJJ5Zv0V1DLIRFgAHm1ZbjaDfp+z8W/YdttzkpJ6+QXz3l39SmmHu9Nr/396dxUZ13WEA/869s3nB68x4PB4vmDG1sR2MMQQwwYYGtxATatkkUQUFQmgTtVWzVUmVSn2Jqj60UlT1oVIfolaVqijKC6WqQkkV1AIhhZQE47KWzTY2xsQb3mduHxJa0gA2eGb+c+/9fu+e82k89nxz557zF13f6o6fvoDua7G/494M3j14HNM8JphmiQXAwhy6jspwkWiGt/b9HdFoVDTD7d557zAmJhP/He0tToeOygWyvxOre/8fJ6QjiBkeHcWxjvPSMcgkWAAsrqGuWnT9GwPDOHWxSzTDLVHDwOFPTolmqKsMIzXFLZrBykbHJ/Bh+1npGKIOHG2XjkAmwQJgcSseWghvVoZohtMXO0XXv+Va/yAGhuY2iGWumtcsF13f6o6dPIfJqQeftmcFxzr4HNDssABYnEPX0bZ+lWiGG4OxPf70QX06LJujpryU3//HWSL2/Se7qekITl1IjtJNyY0FwAYeXbEYCwrzxdZ3O+VuRLyd2yl37IXToePpFu7RjrcT51gAAKCdzwPNAguADWiahue3bYJH6IS+vNwskXX/ny8nA0opkbW3b16HELf/xdWNgWH09g9Ix0gKJ89flo5AJsACYBMFvly8sPXxhB9Dq5RCTfn8hK55N/NSUxEWuBLy1YcfwsbVdQlf125iNe7XCq70cEIgzYwFwEaWVZXhe089ltASUFM+H77szIStN5P1q2oSut7qJYvw7JYNCV3Trrpsuvf/TkZGxzA0w1wLIhYAm2moq8KPdm1BempK3NdyOnRs37Qu7uvcj3XLqjG/IC/u6yil0LJuJZ7flvirLnZl18N/7qbrGq8C0L3xP5MN1VaU4hcv78Tir8Tv0rxSCs89sQFF+b64rfEgNE3DK0+3xnVqmi87E6/tfgLbNjVCE7rnwI4GR2S3eCaboWE+H3RvLAA25cvOxE+efQqv7mrFglAgpo+d4nbhh9tb0LhM9hCiu/HnZOJnL+xAcTC25SQzPRVbmxvxy1d3o7aiNKaPTTMbm5j7qGYrSeZhXJQcOA7Y5pZXLcTyqoU4e7kbf/uoAx+fvojO3uswHmBQTmZ6KuqXVKDt0XpkZaTFIW3s5OVk4ucv7sS+D47j3YP/xOWrDzYVMGteGqrCxVi5uBx1lWE4HXqMk9JsjU/IHfGcjFgAaCYsAAQAKCsKoqwoCAAYn5hEd98NDN8cw83xmT9VeVxOeLMyEMrLhaaZ56KSruvYUL8UG+qXou/TQVy7MTircapupxMpbheC/hxkzUvuomMnU9McgnM7ngZIM2EBoC/xuF0ojfHXAsnOl52ZVLsV6P65BSdfJqMUoXM/yDzM83GNiOgeUjx8w7tdiodDp+jeWACIyBL4ifeLWIhoJiwARGQJXn6F8wV+Ph80AxYAIrKEAn+2dISkoSmFgJfPB90bCwARWUIBhy39ly87Ay7B6ZdkDiwARGQJRQEfj13+XEkCjrsm8+NfCxFZgsftQrgwKB0jKVSFi6UjkAmwABCRZVSFC6UjJIXqMhYAmhkLABFZRk05ZzBkZ6ajMOCVjkEmwAJARJZRUVoIb1aGdAxRa2oroTiFkmaBBYCILENTCmuWVkrHENWwtEo6ApkECwARWUrj8mrbfgIuKfCjpMAvHYNMggWAiCwl5M9F3aKwdAwRLWtXSEcgE2EBICLLaWtaJR0h4QLeLKyqqZCOQSbCAkBEllNWFERN+XzpGAnV1rSaByHRfeGrRYArGo1KZyCyumdamuB06NIxEiJcmI/GOvPe/OeMuCLSGeyIBUCAYRgj0hmIrC7oz8GmhuXSMeJOUwq725qgmfjGx0hEG5bOYEcsAALy8/MHAExK5yCyurameuT7rD0Vr7lhGcqKTH0E8kQolDEoHcKOWAAEKKWmAZyXzkFkdR6XE6/sbLXsZLxwYT62NjdKx5gTBZxTSvErAAEsAGLUB9IJiOygKN+H7ZvXSceIubQUD17a0QKHbvr7HA5JB7ArFgAhCsY+6QxEdrGhfim+Xl8rHSNmHLqOl3d8A3k5mdJR5swwjP3SGeyKBUCIik7tAcAbX4gS5JnWJqxaXC4dY86UUvjukxuxeKH5tzkawJBmTO+VzmFXLABCgsHgqIJ6UzoHkV1oSuEHWx/HkgrzTgzUlMLu1iY0LDPvlr/bKag3g8HgqHQOuzLvvhEL6OzsD8ERPQMgRToLkV1EIlH8+u0/470jn0hHuS8OXcf3v9mMR2oXSUeJlVHDoRYWer1d0kHsilcABIVCuZ2A8VPpHER2ousanntyIzavfVg6yqylpXjw2re3WOnNH4B6nW/+sngFQJhhGI6u3v4DgGG/w8uJhB05cQa/+sOfcHNsXDrKXS0IBfDS9hYEvFnSUWLpyGC/d01lpeJ5KIJYAJJAV1d/oaFHDwMokM5CZDc91wfwxu/34Myl5PowqmkamtfUYWtzoxW2+v2PQiemtJWfXQElSSwASeLS1f5Kh4ruN4CAdBYiuzEMAweOtuO3e/6KwRH5e9JKQwF8Z8vXzH7C351cjRja+uL83JPSQYgFIKlc7u1doBnaHwFwpieRgKGbY3hn/0H85dBxjE9OJXz9fF82WtfXo7GuytRn+9+JAk7qiGwKBAIXpLPQZ6z1CrOAnp6etAj0NwxgF/j7IRIxODKKvQc+xL5DH2N4NP5XBEoK/GhZuwL1SyqgaZa7NzsK4DdadOpFbvlLLnyDSVKdvf0rYURfB2C9M0yJTGI6EsGxjvN4/2g7Puo4h6np2B1Zn52ZjkeWLEJjXTVKCvwxe9wks9+A+nFhwHtEOgh9GQtAkuvu7quNaupbgPEYgLB0HiK7mpyaxr8uXEH72Uvo+PcVXOnpx8jo2Kx+VlMK3uwMlATzUF1WjOqyYhQGvFAWu8z/ubMA9kIzfhfy+49Lh6G7s+Srz6ou9/UF9ahaBCNabEBlGIZySWcisrOuvutpp853efsGB+eNj0+4xyemXOOTU670VM+Yx+We8HickwU+70BN+fy+FLdrWjpvPChlTCoYQ1DapYhmdBT5fN3SmYiIiIiIiIiIiIiIiIiIiIiIiIiIiIiIiIiIiIiIiIiIzOY/LPZXnRr+Jr4AAAAASUVORK5CYII=;" parent="1" vertex="1">
          <mxGeometry x="740" y="577" width="85" height="85" as="geometry" />
        </mxCell>
        <mxCell id="Hf2aZSIuRy_q8SedqZRs-20" value="" style="shape=image;imageAspect=0;aspect=fixed;verticalLabelPosition=bottom;verticalAlign=top;image=data:image/png,iVBORw0KGgoAAAANSUhEUgAAAgAAAAIACAYAAAD0eNT6AAAABHNCSVQICAgIfAhkiAAAAAlwSFlzAAAOxAAADsQBlSsOGwAAABl0RVh0U29mdHdhcmUAd3d3Lmlua3NjYXBlLm9yZ5vuPBoAACAASURBVHic7d15fB11vT/+13vOluRkadO06QZ0S9K9tE0ppQUKqIDgAgiyqChoKygoXhbxXqF6/X2F4kUFZRf0ul1BwQtXQAVZKmUpLaULlCZdgDbN0uzbyVnm8/sjLZauyZmZ85nl9Xz4eFy85sy8Es6ZeZ3PfOYzABEREREREREREREREREREREREREREREREREREREREREREREREREREREREREREREREREREREREREREREREREREe1PdAcgIuumXbmsML8vPs4ExouhxilgrCEy3FRqmADDICiDUsWA5O15STGA0J5/zgDo6P9HlQCkHUCzApoNkWZTqSYBdihgWwjmtr5EaPu6X1/XnfNfkohsxQJA5CELrrk9P9GTmhbKGLMUzJkQmQFgOoDhOY7SCGADgPUCrMsYal1eQWTjyz/+Vm+OcxBRllgAiFxs3pXLR2b6ZJ4YWAioRQCqAcR05zqENIDNIvgnTLyUUcYLb/zi2nd1hyKig2MBIHKRxcuWhTvr8o6HCp0NqI8AmAMvf04FWwV4xszI/3UUxP5We+fVfbojEVE/7x5YiHxi4WW3FvUaxqdE1GcAfARAXHcmZ0gXoJ5RUH/Mz+Dxlx68oVN3IqIgYwEg0mDBNbfn93WmPymCzwI4E0DekV7jM70i8pSp8IdYYegJzh0gyj0WAKIcmvPlW6eIGJdCqS9DMEx3HpdoF8EfROHuVfdfv1Z3GKKgYAEgctikq+6IFScSFwnwVQDzdedxuVcg6p5Ea+/vNz6yLKk7DJGfsQAQOWT+VXcUpxOJLwG4FsBY3Xk8pkFE3RPJRO54+RffatEdhsiPWACIbDb7sltHGwZugMjl8O2EvlyRLhHzAQnLravuur5edxoiP2EBILLJ3CU/KoNS1wLqagD5uvP4TJ8IfiVh3MwiQGQPFgAii+ZfdUdxpi9xg1JyNaAKdefxuU4AP83LqOW8jZDIGhYAomwtW2ZU7yj4nAJuhWCk7jgBsxvADya0jfvZI49ckNEdhsiLWACIsjDny8tPFMFP0L9SH2kiCq9D4Zuv/+L6l3RnIfIaFgCiQZi75JYSmPJ9iHwdgKE7DwEAlIL8JmaGvsk7BogGjgWAaIDmXH7bJ8RQd4G39LmTQr1AXfX6Azf8UXcUIi9gASA6grlLflSmlHmPAOfpzkIDIX8MRVNffe3n32nWnYTIzVgAiA5j9tJbTzNM+RWAMbqz0KA0iMJlrz9w/ZO6gxC5FQsA0UFMuuqOWEmi73uAug681u9VCkrd2Z6ffz0fQ0x0IBYAov0c+9UfjguZxqNQMlt3FrLFatM0znvjF9e+qzsIkZvwmw3RPqq/fNviUCb0Kk/+vjLXEHP13CXLP6Y7CJGbsAAQAQCUzP3KrTcqUc8AGKE7DdlMMAwKT85dsvzbgOLIJxF4CYAIk666IzakL/GAUvic7iyUE48UpXq+8PwvlyV0ByHSiQWAAm3B5beX9hnpRwU4WXcWyh0FWSkin1p937W7dWch0oUFgAJr3mU/nGCGQn8BMFl3FtJBajOG+vjae6+v0Z2ESAcWAAqkOV++dYqIPANgtO4spFWDUvKxNQ9ct053EKJc4yRACpy5S5bPEZEXwZM/AeUi6vm5S26brzsIUa6xAFCgVF++fCEU/gGgTHcWco2hUOqv1ZcvX6g7CFEu8RIABUb15csXKgN/BRDXnYVcqVtMnM5HC1NQsABQIMz7yvJjTeAfAIbqzkKu1mEa6rQ37r3hdd1BiJzGAkC+N3fJLTNgGs9BMEx3FvKE3QbMxavu//ZG3UGInMQCQL42d8nyiVB4CUC57izkJWqXkTEXrXrwxq26kxA5hZMAybcWXH57KYC/gCd/GjQZZYZCf9nzHiLyJRYA8qVp5y+LJo30I1Co0p2FPGty0kj/edJVd8R0ByFyAgsA+ZCS2JD4AwBO1Z2EPO/EIX2JX/EBQuRHId0BiOxWvaTw3wF1je4c5BvTR1evTOxa/fd/6g5CZCe2WvKVeV+57SMm1NNguSV7mcrAWWvuvf5p3UGI7MICQL4x+/IfHWMY5uvgKn/kjJaQkurXHrhum+4gRHbgHADyhUlX3REzDPNR8ORPzik1oR7mpEDyCxYA8oXiROKHAObozkH+pgTVJYnED3TnILIDLwGQ51V/+daPKpG/gu9nyg3TgJy+6v7rntEdhMgKHjDJ0+Yu+VEZVGYdIKN0Z6FAqQtF0zNf+/l3mnUHIcoWLwGQpyll3sOTP2kwOpMM3607BJEVHAEgz5pz+W2fEEM9rjsHBZeCnLvm/use052DKBssAORJc5fcUgJlbAQwRncWCjK1K5OKTl37y2vadCchGixeAiBvMo0fgSd/0k5GhSKpH+pOQZQNjgCQ58xdcssiKONF8P1L7qAMmItW3f/tlbqDEA0GRwDIW5YtM5QybgdP/uQeYsK4E8uW8XhKnsI3LHlK9Y74lwSYpzsH0X7mzNlZ8AXdIYgGg9+iyDMWXnZrUSKEd3jbH7lUQzgvr/LVO6/u0B2EaCA4AkCe0WvgBp78ycXK04nEdbpDEA0URwDIE/pX/DO3AijSnYXo0KQrFcLEdfdc16g7CdGRcASAvME0vw2e/Mn1VGHUxLW6UxANBEcAyPXmLvnxKKhULYAC3VmIBqDXzKhJbzx4Q53uIESHwxEAcj+VugE8+ZN35EtIOApArscRAHK1GVf8cGg0HX4PUIW6sxANQncomj6GTwskN+MIALlaJBW6gid/8qB4JhlaojsE0eFwBIBca9JVd8RKEr3beOsfeVRDUapn3PO/XJbQHYToYDgCQK5V0td7IU/+5GHlHZGCC3WHIDoUFgByLyVX6I5AZIUAX9WdgehQeAmAXGnukltmQBnrdOcgssoAZq+6//q1unMQ7Y8jAORKSnECFfmDCVymOwPRwXAEgFxnwTW35ye70jsBDNWdhcgGbZCeMavvW9ajOwjRvjgCQK7T15n+JHjyJ/8YolT8bN0hiPbHAkCuIwLOnCZfMQSf1Z2BaH+8BECusvCyW4sSIWkAkK87C5GNEuG8vPJX77y6Q3cQor04AkCu0hfCp8GTP/lPXirR+wndIYj2xQJArqIg5+nOQOQEgZyvOwPRvngJgFyjf+nfvt1c+598qrs9L29Y7Z1X9+kOQgRwBIBcZEhv70k8+ZOPxYuSvYt0hyDaiwWAXMMUOVN3BiInGRm+x8k9WADINQTgwZH8TfgeJ/fgHAByhdmX3TraCMlO3TmIHCeR0avvu2aX7hhEHAEgVzDCslB3BqJcEDPJ9zq5AgsAuYMCD4oUDAbf6+QOLADkCsICQAFhKo52kTtwDgBpN3fJsgKogjYAEd1ZiHIgDekp4dMBSTeOAJALxGeAJ38KjvCe9zyRViwApJ1SmKk7A1FuKRYA0o4FgLQTHgwpaEy+50k/FgDSToEjABQwInzPk3YsAKSdANN0ZyDKsem6AxCxAJBWCy+7tQhAme4cRDlWtue9T6QNCwBp1WsY43VnINIhEVbjdGegYGMBIK0MgAWAAkmU8L1PWrEAkFZK+C2IgkmBBYD0YgEg3cbqDkCkhcJRuiNQsLEAkG6cAEjBJBimOwIFW1h3AAo8FgAPmVoewTkzClF9VAwji0MwIHivNY3Xd/Th0XVdqNmd0h3RS/jeJ61YAEgrURim+Egq18sLG7j+1CE4e2rBAf/bMaVhHFMaxjkz4vjTui789MV2JDNKQ0rPYQEgrXgJgLRSwoOg2+WFDfzsvLKDnvz3ZQhw/qxC/PhTZYiE2OqOTPjeJ61YAEgvBS6G4nLXnzoEM0dFB/zz846O4esLSxxM5BeqWHcCCjYWANJLENMdgQ5t6ogozppy+G/+B/PZYwtx9FBeYTyCgbcqIgewAJBuPAi62Hmz4pAsRvMNA/jMzEL7A/kLyy9pxQJAurEAuFRBVHBaxeC//e91elU+omHOBTgMFgDSigWANFICIKI7BR3cJ6fFURDN/gQ+tCCE06uyLxABYCxetozXSUgbFgDSZ9n3+PXQpcJG/3V8qy6ZUwiDR5lD6qwbxc8AacOPJumzbJkJwNQdgw507sxCjCmx/uV0wrAIzpoStyGRL6nV9y1J6w5BwcUCQLpx6TiXKYgYuOw4++7OXLqgGHlhHmoOIgUIV0wibfipJM2EBcBlLp9fhNKCkG3bG1EYwuereUfAQfC9T1qxAJBmigdBF6kaEcFFc+xfm+mL84owqYzzPffD9z5pxQJAunXrDkD9CiIGvn9GKZwYrY+EBP95RikvBXxYl+4AFGz8NJJu7boDECACfOcjQzC+1Llv6RPLIrjhNC4RvA++90krFgDSShQ6dGcgYMmCEnwsB/fsnzUljsvmcwl8gO990o8FgHTjtyDNzp9ViMttnPV/JEuPL8Y5M3hrIPjeJ81YAEgrU1Sb7gxB9vnqIly7eEhO9ykCfPvUobjEgcmGnmKwAJBeXIaStBJIk+4MQRQ2gGtOHoLzZ+m5PU8E+MZJJSgvCuGOFW1IB3A5KKXQqDsDBRtHAEgrEWnQnSFoRhWHcPdnRmg7+e/rwtmF+Pl5w1FeZN+6A17B9z7pxgJAWikoHgRzJCSCC2cX4vefG4lZo93zEMbZY2J45NJyfKG6CKFsnj3sVSbqdUegYOMlANJKKdQH6JCvRSQkOGNyAT5fXYRxQ935kc8LG/j6ohKcNbUAv369E09v6vH9ZQFlsACQXu48GlBghGA0mHwekCOmlEdwWkUBzphcgBGF3hhiH18awU0fK8XSBSV4+p0e/KOmB283+HPBPFNMjn6RViwApJWh+t4zRc8SsYYAhVFvXwUTAYpiBoryBMMKQphUFkXViAimjYxgZJF3P97lRSFcWl2ES6uLUN+Zxsb6FN5pTKF2dxLNPRl0JhQ6+0woi4/S6UqaMHU9jieZeVfTnokAABx9Jc2UzP3KbV0AnF+FBsDU8gg+PaMQ84/Ow4giI1jXnOkAGaXQ2GnilXcT+POGrlyONvSsvv+6Qj4NkHTy7lcE8glRwPJ3AUxxci/RsOCGU4bg7Klx8JxPe4VEMKo4hHNmxPHp6XE8sbEHy59vRTLt+Hl5O0/+pJu3xz/JFxTUdie3Hw0LfnZuGT4xjSd/OjQR4JPTC3DnOWWIhhx/o2x3egdER8ICQNoJjG1Obv/axUNw7OiYk7sgH5k9JoZvnezwQ4sUeP2ftGMBIBdQm5zackVZBJ+cxnXnaXA+Pb0QE8scnJwqeNu5jRMNDAsA6Sdqg1Ob/uT0OAwO+9MgGQbwyWkOzkt18D1PNFAsAOQCofVObXneURz6p+zMOyrPsW2bqQwLAGnHAkDarb7v2t2AMw9G8coCOOQ+5c6to9DwxkPf4UOwSDsWAHILR74R5Uc5/k/ZKXDocQminHmvEw0WCwC5xUbdAYhyQUHxvU6uwAJAriAiPChSICjwvU7uwAJA7pDhrGgKhpCYfK+TK7AAkCuokLkBAJdGJb9TqVTsLd0hiAAWAHKJ1fd9ux2CHbpzEDlKsGPtL69p0x2DCGABIBcRyCrdGYgcpeRV3RGI9uLTAMk1lFIvAzh3ID9rCFAYFeRFBBGj/9pBc7eJvoyzGSnYYiFgWNyAAEiZQCKl0JVUMAd+8epl59IRDQ4LALmGAXOleYhBqfFDDSw8Jowpww0cMySEcUPloE9sa0soNHYpbGrKYNXOtNORyedOrwhj3pgwJo8wMCJuYEjege+5ZEZhe6vCu20ZvN1kYuW7aWxtNQ+6PaXMlU5nJhoorpJCrjHpqjtiJYlEG4A8ABhTbOAz0yNYPD6MMcVZXq2KFYNvc8qOAvo6snplXYeJ57al8ccNKezs+KAM9LXn5ZXU3nl1n20RiSzgkZFcZc5XbntpZrlxwueOjeDk8RHrD/JhAaCsZV8A9jIV8OL2NH7zRhLrGjIvrb7/+kU2hSOyjEdGcg31+r2j1jQkn5k1MjxV7HpnsgBQ1qwXgH3VNGe2VJXIKXLc1963baNEFvDISK6QWX33UgiWAyi2dcMsAJQ1ewvAnk12QuT60Jyv3mPvhokGj0dG0ko991CeWdL7M0Aud2QHLACUNQcKwL82/VsjHF8qs77Q7cwOiI6MR0bSRr1+7yjTMJ8CMMuxnbAAUNYcLAD91hmmcYZUL93l5E6IDoULAZEWav395aZhPgMnT/5E7jbTNDLPqzV3jtYdhIKJBYByTr159wgzlX4OwFTdWYj0kkoT4WfUm3eP0J2EgocFgHJKqWWGyuA3AKbozkLkElMyGfxBPfxwSHcQChYWAMopc2359xXwUd05iNxEgMVmRfP3dOegYOHsKMoZteaek0yo55DL4slJgJQ1xycB7s80BadFZl/xfC53SsHFEQDKCaWWGSbU7eB7juhQDEPhJ7wUQLnCgzHlRGZt+eUA5urOQeRyszIVu7+kOwQFAwsAOU49/HBIFG7SnYPIC0TJzRwFoFxgASDHZSY2nwlgrO4cRB4xds9nhshRLADkOEPwFd0ZiLyEnxnKBU6PJkepf/6iyCxItgAIawnAuwAoazm/C2BfacM0yqR6abuuAOR/HAEgR6XzkydA18mfyLvCaVELdIcgf2MBIEcZgoW6MxB5ET875DQWAHKUQM3TnYHIi0ThON0ZyN9YAMhRCsZI3RmIvEiJ4meHHMUCQA5TZboTEHnUMN0ByN9YAMhhaqjuBEQexfJMjmIBICJyJ1N3API3FgBymHTqTkDkUfzskKNYAMhpPIgRZYefHXIUCwA5jQcxoqxw9IycxQJAjhKgRXcGIi8SKH52yFEsAOQopbBZdwYiL1LAO7ozkL+xAJCzhAcxoqyI8LNDjmIBIEeZhrlJdwYiLzJNxc8OOYoFgBwVTuJt3RmIvCgsGRYAchQLADlKjvva+4DapjsHkce8J3O+/q7uEORvLACUA/Ks7gRE3qL+rjsB+R8LADlOASwARIOglMECQI5jASDHhZB6FlzXnGigzJAk/6E7BPkfCwA5TuZc3SRKntGdg8gLBPi7zLm6SXcO8j8WAMoJE3hQdwYiLzCVPKQ7AwUDCwDlRCiv9DEAu3XnIHK5llBH7H91h6BgYAGgnJBpFyQh8hsNe879Lomy9xs55UsJ3SEoGFgAKGeMjCwH0JvTnaqc7o38JPfvnYQRCt+W871SYLEAUM5I9dJdULgvt3tlA6Bs5fi9o3CvzPrKjtzulIKMBYByysiYtwDoyd0eWQAoS5LTy0e9hqSX53KHRCwAlFNy3NfqIeCBjtzPzGV5lFtkzlV1OdwhEQsA5Z7R1vD/QeGNnOxMcQSAsiQ5W7tqvRErvSVXOyPaiwWAck5OWZY2DHMpgIzjO1NcgJCylJvyaBqQpTLtgmQudka0LxYA0kJmf20VoHJwKYAjAJSl3BSA5TLnqy/nYkdE+2MBIG2M2Y3/IcBTju6EIwCUNWffOwI8Y7Q3fNfRnRAdBldJIa3UuruGmml5DcAkR3ZgRIBIgSObJp9L9QBmyqmtbzdMY55UL+XqmKQNRwBIK5l5ZathGucCaHVmDxwBoCw5N3rUapjGJ3nyJ91YAEg7qV663jBwGoAW2zdusgBQthx577QbBs6Q6qXrndg40WCwAJAryLFXvGGYxkdh+0iA4jwAGjylHJgEqLoNpT4hx17xms0bJsoKCwC5hlQvXWOIeTqAels3rJy/25B8RqXt3mK9YYZOk7lXrrB7w0TZYgEgV5HZX1tlGKgGsNq2jXIEgAbLtLU0rjOQOV6ql75q50aJrGIBINeRY6/YaYTiJwvwR1s2aNr+bY78zqZRIwH+aMTMhTLn6+/askEiG/E2QHK19Bt3nS9K7gUwNPutCBArti0TBUBfBywuItUBpa4Lzb0yx0+/JBo4jgCQq4VnX/mIgcxsAf6R/VYU5wHQwKkMrJz8RclzBjIzefInt+MIAHlGevU9nxBRtyObRYPCeUAoZn8o8p90H5BJZPPK9xTku6HZS38tIlyDmlyPBYA8RW18OGommr8GwfUARg74hUYYiMSdC0b+keoe7LyReih1q5FXdhcf6kNewgJAnqQ2PhzN9LVcKFD/BmDmgF4ULeE7ng5PKSDVOcA1ANRmiHGX0dtzn5zwrV7HsxHZjIdD8jy15q6TTchnAZwHYMQhfzAS7x8JIDoUM9X/DIBDawLUnwzgfzD7ihc51E9exgJAvqEefjiUntSy2FDmGUpkkQBzAUQ++IFQFAjn6wtI7pfuBTIfGsVPK1GrxcQKU/DXcG3Zc3LBBZxRSr7AAkC+pd7873ja7J5nKEwB1CSBTFGxkjPA9z0dlFKS7HpaqczbgNSahrkpLEWvyawvdOtORuQEHggpUMyNv/s/BZylOwe5j0D+15h20ad15yDKFa4DQIFiKjykOwO5kwmT7w0KFBYACpRQ06j/BbBLdw5ynfpQb9eTukMQ5RILAAWKnHJKGgq/1p2DXOchqV6a0h2CKJdYAChwjJDcDYBPCKK90oaoe3WHIMo1FgAKHJly0XYAj+rOQa7xB5l6CZ/WR4HDAkCBZJhym+4M5A6GGLfrzkCkAwsABZLMuOh1a08YJD8Q4K8y9cI1unMQ6cACQIElpnxXdwbSSyA3685ApAsLAAWWzLhopQBP685BegjwuEy76FXdOYh0YQGgQBMx/h2AqTsH5VxGTHAEiAKNBYACbc/131/qzkG5pu6XGRev052CSCcWAAo8I52+EUC77hyUM21GNHKT7hBEurEAUODJrC80AvhP3TkoV+RmqbigSXcKIt1YAIgAGFPDP1GC13XnIGcp4DVjaujnunMQuQELABEAkQsyoQwuB8D14P0rHYJaKnJBRncQIjdgASDaQ2ZcvA4it+jOQU6RH8i0S9bqTkHkFiwARPswGkZ+X0Fe0Z2D7KWgVhm9Hf9Pdw4iNxHdAYjcRq377QQzJGsBFOnOQrboMkTNkamX1OgOQuQmHAEg2o/MvGSrUliqOwfZQimoy3jyJzoQCwDRQYSnX/x7KPxEdw6ySv1XeNolj+hOQeRGLABEh2AkOq9XwIu6c1B2BHjOaBx9o+4cRG7FOQBEh6He/tUw04ysBFCpOwsNyhYjGl7ABX+IDo0jAESHIVMubTYy6kwAjbqz0IA1G6LO5Mmf6PBYAIiOQGZestUw5RwA3bqz0BF1GWKezUl/REfGAkA0ADLjopUm5FMAErqz0CElTeB8mfo5ruNANAAsAEQDFJl20bNK4QJwuWA3SimFz0SmXfy07iBEXsECQDQI4ekXP6FEzgFHAtykT4l8Njz94id0ByHyEt4FQJSF1PrfLzYM9Ti4WqBu3abgnMjUi/+uOwiR17AAEGVJbfzdIlOpFRB+jLRQJgxgkUz/3Eu6oxB5ES8BEGVr6uaVSHUBytSdJHiUCaS6gabaV3VHIfIqFgAiK5QJpLoAM607SXCoNJBk8SKyigWAyCqlgFQPkOnTncT/Mkkg2Q1A6U5C5Hlh3QGI/EEB6QSgMkCogLNr7KYUkOkFMrwDk8guHAEgslMmBaQ6ATOjO4l/qEz/ZRae/IlsxQJAZLe9E9R4ScC6dF//kD+v9xPZjpcAiByx55KAmQTCBYCEdAfyFpUB0r0cSSFyEAsAkZPMPXcJGDEgFAPXDDgS1f+t3+zjPD8ih7EAEDlNof9ygJnsLwFGjJMEDyaT7B814ZmfKCdYAIhyRe25LCApIBwDjIjuRO5gpv91BwUR5QwLAFGuqUz/ugFGCAjlAUZAP4Y88RNpFdAjD5ELmBnA7O6fIBiKAqEIAnFtwEwDmQQn+BFpxgJApNveGe+Zvv4iYEQA8dkdusoEzFT/dX7e0kfkCiwARG6hzD2T4BL9owFGtP8ygWdHBdSeb/upPc9K4OQ+IjdhASByo0xqz8p30j9HIBQFJOz+LqBU/8N6MmlApfr/OxG5EgsAkaup/qFzc58yYIT7RwbcsriQyvR/wzfT/f/Mkz6RJ7AAEHnGvmUA+KAQSGhPITCcnzugzD3X8zP/OvFzaJ/Ik1gAiDxrTyFACtg7oV4EgAEYRv//FQOA7CkH+HBBUHuuJ8g+J3Bl9p/Pldm/fWUCMPtXNITJb/dEPsICQOQnSgHIABneYkdEh+eze42IiIhoIFgAiIiIAogFgIiIKIBYAIiIiAKIBYCIiCiAWACIiIgCiAWAiIgogFgAiIiIAogFgIiIKIBYAIiIiAKIBYCIiCiAWACIiIgCiAWAiIgogFgAiIiIAogFgIiIKIBEdwCigXirqWnUW+/smF3X0DanrbOnqqOz56iOnp4R3b3Jkr5kKp5IpvJ6evtCib50CABM00RvMikPL78aRsipnqswYefDDm2bBmLb6POhxJl/v2bGxAXX34H8aFQZRv8+8vMimfz8WDo/Fk3EouGegli0vaSooKGkMP/94nh809HDh6yunDJm3dThw3c5EorIRmHdAYj2UkoZW5s6JppIz4LCDEBmfu/eP32kpa07/sXr75a+VFp3RAqg3mTygy9K3YlEGG2dYQB5AIYAGA1gyr4/nx+L4uxr71BDiwq6v/vVc/4uwHoFrAtJeN2E4cVbRMTM7W9AdHAsAKTNO3UdZYaRXgDBQgUsrG1snQOgYN+BqY1bdsLM8HhJ3tHbl8T79bvl/XoUCuQcAOcIAFNlUNvY2l3b0LJGKbwEYGU6HV45ZWxxs+bIFFAsAJQzb9bXxwsQPRWCM6FwCiRdhT1ne16LooCIK+BECE4EgHAkrWoaWzZB4Tml8FQvks/NGjmyW3dICgYWAHJUTUPbREHm04BxhoI6EUAMAM/4RP0EClMATBHBlQWI9tU0tL4ImE8rhP5cWT5kq+6A5F8sAGS7LXUtR2cMOUdEnQ+YJyiIAEp3LCIviAHqo4B8VGD+V01Dy1uAekQk/JtJI0pqdYcjf2EBIFvUNDcXq7RcLJAvmVDHCU/4RHaYCsjNSmVuqmloeVUBv5Sw+n3FsGEduoOR97EA8BnbmgAAIABJREFUkCW1TW1zTdNcgjQuFqCQ3/SJHCEAjhfgeKTlJzUNrU8oZO6rLC97Rncw8i4WABq0jRtVNDK87WIodY0yzZnBvZwv6EMIMWR0BwmkJAzH1gBwuTxAnS8wzq9paHlTRH7c1zTk99OmSVJ3MPKWQH56KDs1zc3Fm+tbvxEta90iSj0kwEzdmXTbbcZ1RwisJsW/PYBZSqlfRsva3qtpaF628f32Ut2ByDtYAOiIaus7R9Q0tP4X0lInon4CYKzuTG7xvlGuO0JgvQ/+7f9FlQNyczSaeXdzQ8tt79R1lOlORO7HAkCHtPH99tKahuZlSlI1gPoWAH7l2s/u2DjdEQKrMTZedwQ3KhTgWiOU3l7T0HILRwTocFgA6ABv1tfHaxpab45GM9sAuRlAse5MbjWsqBSrkyN0xwic1clyDCsepjuGm8UB3BCNZrZubmj9bl1dXYHuQOQ+LAD0AaWU1DQ2n18g0Y2AWgae+I+oPAb8ITlNd4zA+V1iKkbGeMfJAJQI1Pe7Q3mbaxtav6CUCu6cXToACwABALY0tVXXNraugJKHARyjO4+X9ETLsTbNS665sj49DD2xci4mOThjFNSvapraXq1taD5BdxhyBxaAgNvS0lKyuaHlXtM0XwOwUHceL6qIA/d1zdAdIzDu6ZqJyji//WdDlJqnICtqGlruqmlu5ghfwLEABNjm+pazzSTWC7AEXJ0/a5VxhddT5Xg+yZsjnPZc31isSpWjktNRrTAAXCFp2bS5ofk83WFIHxaAANra0FBe09D6RxE8AcFRuvN43YQCICLAT7pmI6FCuuP4VkKF8NPu2QhJ/9+crFHAKIH8saah9eGtDQ28pzKAWAACpqah+XQTkTcAxeZvk4gA4wuAukwcd3cHfm0kx/y8exbqMnGMy1eI8chlI3V+BpH1NfUtn9CdhHKLH6OA2LZtW15tffNPAXlKAaN05/Gbvdek/5CoxJoUbwu025upMjySqAAAVMV5tcoBwyF4vKah5b/frK/nBZaAYAEIgHcaWmel4yVrlMjV4LV+R1TuGZI2leD7nfPRYUb1BvKRDjOKmzsXwNxzBxuv/zvq8wUSfW1LfQtntQYAC4DPba5vudiAWgmFKbqz+FlV4b96VV0mjhs7T4DJrmWZqQTf7VyAusy/zvqVBbwDwGFTTcFrmxtbv6Q7CDmLBcCnnlMqXNPQcosIfguAU6YcVhJWGLHPl/5VyZF4oGe6vkA+cX/PdLyc/NcVq+FRoJSDK7mQJ0o9uLmh5d6NGxX/4j7FAuBDbzU1jRrb2Po8gBt0ZwmSqv2Gpn/RPQ2PJyboCeMDT/WNw4M9H15lsYJVNqcEWBIpa312W2PjSN1ZyH4sAD5Ts6t5WsQMvQwu6pNzFfstTqMA/L/OeXiuj3daDtY/k6Px/Y7jsP9gPxcAyj0BFqVV+PV3Glpn6c5C9mIB8JEt9W2nwZB/gkv5arH/CAAAmBDc1HE8Vid5m/VArU6OwI3tC5E5yOGJEwC1GWNArahtbD5DdxCyDwuAT2xubP2iKeZTAIbozhJUR+UB+QdZB6gPIXyj4yQ823d07kN5zIrkGHyz/WT04cA/ZMwAxuVrCEV7FSklT9Q2tCzRHYTswQLgA5sbWq4XpR4CENGdJcgMASYeYoZ6UoXw7x0L8FhiUo5TecdfEuNxffvCg578gf7r/wZvrNAtrIB7ahuar9UdhKxjAfC4msaWGwS4VXcO6ne4RWpMCG7prMbd3TN5i+A+TAju7p6J73fOP+iw/14VHP53C1GQ22oaWm7RHYSsYQHwKKWU1DS0/ggK/BC6yJGuUSsAD/VMxZVtp6DJ5Hh2i5mHq9tPxkM9Uw+Y8Lc/TgB0nRtq6lvuVEqxzXoUC4AHKaWktrH1Z4D6N91Z6MMqC9SAhqnXpEbg862nY1UquJMDV6XKcXHrGXgteeQ7zAScAOhKgq/XNrayBHgUC4AHbWlsvQXAlbpz0IHyQ8DY2MB+tsXMw9fbTsGyzuPRpgb4Ih/oMKO4vWsOrmpfjBYzb0CvGZMHxPmgRbf62pamlh/rDkGDxwLgMbUNzd9XwPW6c9Ch7b8ewOEoAE8mxuEzLWfhscSkIw6De5kC8FRiHC5o/Tj+p7fyg7X9B4LL/7qbUvKNmobWm3XnoMFhAfCQmvrWbyrId3XnoMPLZqi6w4zih53V+Grbab58muCa1Agsbf0Ibu48fsDf+vfF4X8vUMs2N7Twy4mHhHUHoIGpaWy+DEpxmM0DrJys3kgNx1fbTsWsyG5cWvAWFkXr7AumwZupMtzXPcPyXIf+uys4CuB2AtxS29BaP6l86H/rzkJHxgLgATW7WhdDqbt156CBGRXrfzhQezr7eVFvpsrwrfaTMD3cjIsK3sHJsR2IwrQxpXOSMPBC31j8vqcKG9LDLG+vMASMzOPJ3yNEQT2wuWF3XWV52TO6w9DhsQC4XM2u5qkw1GMA+EQuD6mIC15vt76dDelh+PeOE1AoKZwU24mzYttRHa135SoCb6dL8VRiHJ5OHGPrpMaqOFz5+9IhRQTGn7bUtyyaOLJ0ve4wdGgsAC72VlPTKJjC5X09qCoOWwrAXl0qgicT4/BkYhzGhrqwOLYD8yINmBVpQoGk7dvRIPSoMN5MDceqVDme7xuLHZlCR/YzmEmV5BrFSvD41oaG4yeUlzfoDkMHxwLgUq8rFYk2tv5BAVxA3oP6T1rOfG/dkSnEb3om4zeYjBBMTI+0YG6kAXMjTaiMtKJE+hzZb7uKYXNqKFanhmN1qhwbUqWHXbnPLgd7yBK5nwLGZRB5dONGdcq0aZLUnYcOxALgUiWNrT9RwIm6c1B2JhYAEQFSDn95zcDAm6kyvJkqw4N7/n/DjV6MD7djjNGF0aFulBs9KDX6UGL0oUiSKJQUACDP6B85SJj9h4EuFUGniqLdjKHFjKHBLEBdJo6dZiG2podgdxaz960KCTChIOe7JfucEB3eciuAa3QHoQOxALhQTUPLJeBCP54Wkf4n19X05H7fTWY+mpL+WGZ4XL5CjDcre5uSb9Y2tL7BOwPchx8tl9nc2HosgPt15yDruHa9dYd7uBJ5h4K6q7a+ZbruHPRhLAAuUldXVyCm+j0Af3x9C7hKnrwsq+Dwv1/EleAP77//Po9tLsIC4CI9obz/gmCy7hxkD44AWFfFv6GfTO2LFPDppS7CAuAStY0tZypgqe4cZJ+hEWA4V2/IWlkEKOXfz1eUyFWb61vO1p2D+rEAuMC2xsaRSuFX4HonvsM17LPHv50viYg8UFvf6b8HXngQC4ALZFTo5wCG685B9uNlgOzxb+dXqtw0Uj/VnYJYALTbXN9ytoKcqzsHOYOL2GSPIwD+JQoX1tS3fkp3jqBjAdBoS0tLiQju0Z2DnHN0HpAX0p3Ce2JG/zoK5GOi7trS0lKiO0aQsQBoZKZwG4AxunOQcwwBKngiG7RJBf1/O/K10WYSP9AdIshYADSpqW8+HsCXdecg51VwKHvQOPwfEIIra5va5uqOEVQsABoopQQiPwFn/QcCJ7MNXmUB/2YBYSjTvFMpxWOhBiwAGtQ2tn0OwHzdOSg3KuIczh4MAVDpzJOFyZ0WbGlouUB3iCBiAcixurq6AkDxuleAxEPA6JjuFN4xOtb/N6PgUCI/erO+nhd+cowFIMe6Q/nXAThadw7Krcm8DDBgvGQSSGPjiH5Td4igYQHIoW2trUMAxTd5AHEi4MDxCYDBpATXvdvWNlR3jiBhAcihdJ+6AcAQ3Tko9/hkwIHjCEBglaT6MtfoDhEkLAA58k5dRxkEX9Odg/QYGVMoDutO4X6FYWBUnu4UpIuCXFOzq5PLoucIC0COGKHMjQCKdOcgPQR8tv1AVBbw3tiAK4SR+jfdIYKCBSAH+q9rqSW6c5BeHNo+sopC/o0IV/bPlyKnsQDkQCphXgmAdzYHHFe3O7IqjpIQUJRK8gtTLrAAOKymRsV47Z8AYGIcCHN8+5AMASawABAAAa7euFFFdefwOxYAh6mStosVMEp3DtIvKsAx+RziPpTx+Qp5PCJRvzHRsrbP6g7hd/y4OU3xvn/6lypeBjikygIOj9C+1Ld0J/A7FgAH1TQ0LxBgpu4c5B5cD+DQKjhLhj7s2C27ds/THcLPWACcpPAV3RHIXap4J8AhVfEJgLSfjGHwkekOYgFwyKampiKInK87B7nL0AgwnFObDlAaAYbx70L7EeDiTU1NXD/FISwADgmZoc+Bt/7RQXBBoAPxYUl0CIWhjMFHBTuEBcA5l+oOQO7EBYEOxDUS6FCUyBd1Z/ArFgAHbKpvGw/gON05yJ14sjsQn5ZIhyLAwi11LXyEugNYABwQMswLwCXN6RDG5YP3u+8jKv1/E6JDENNQ5+kO4Uc8DDlBgZP/6JAMASZxHsAHJsWBEOsyHY4IFwVyAB9QarPNDW0TAHOO7hzkbhVxYEOX7hTu4Nb1/9u7E5BQCCIGYBgQMSAi+GBwTwSA2vMfBQGgTAWlTECZgFJo7+pFSSGHN2xw3Nu7WsdNGTV0u+4gfsICYDNB5tN7jgxEh9Q/EZBvE8A9TwBMpjNYX7sDG7bswsatdXi/sQWh6JFO3rLnP/3/LiUECEIf/K9Lb/ktxo4YiukTR2PahFGYOWksYhEedrMgIcGnAPxUdxA/4TvRZgLjTAV3HNDIvSrj/ZcCzIC/VQT6JwBu3bkbL66twT/XbkFXb8L27e9obMWOxlY8/fJGRMMhzJl8NE48tgKzK4+CYbAEDpSIOgMsALZiAbDRm/X1cQV1ou4c5H7xEDA6Buyw/3zjKaPygKLQkX/ObulMBi+8UYsnVqxDfXN7zvabTGfwyoZteGXDNowoLcYnFs3A4rmViIQ0/BG8Z3FdXV3B6NGje3QH8QsWABsVIHoqgJjuHOQNlQUKOxLB/gaY6+V/k+kMnnntbfzfS+vR0t6d033vr7GlA794/CU8+vwbOHvhTHx0/hREwywCh5HXE46dBOBp3UH8ggXAToIzdEcg76iMC/7RojuFXpWFeybS5cD6rTvx0BMrUdeUu2/8A9Ha0YNfP/UK/rJyPS4983jMnz5edyQ3OwMsALZhAbCTwqmc10UDxUcD52ZVxOa2bvzqyZfx2lvbHd+XFS3t3fjx/zyL6inH4ItnL0BZCVcS359ScqruDH7CdQBs8vaOjmEQVOnOQd4xMk+hOMAVvDAMjHL4AUCrN72H63/+qOtP/vt6/e13cd0df8IrG7bpjuJG0ze+316qO4RfBPjwY69wOH0CeF+XM0QgRhiG0X8/NsTo/0Pve7elMqGUgjJNwDRhmpn+e7FdTND/YKDVHbqT6FGx504IJ5imiUefX4tHn3sDpvLerRa9fSn85H+exUfmTcYXz16AMCcJ7iWxWGY+gKd0B/EDjgDYRbBQdwQ/6ejuxZMrN8CI5COcF0coGoOEIxAj1L8Yy/5LLYgBMUIwwhEY0RjCeQUIxfLx9KtvOXJrl10qAvxgoEqHJgB29ybxnw8+iT/+Y40nT/77embVJvzgoafQ1dunO4prmOCx1i78xmqT2oaWFxXAWwAtaunowRMr1uEfr29CXyptyzbzohF8ZN5knH3iTAxx2apsb3cB36sN5sfwpkkKU22+zN3W1Ysf/uppvLur2d4NazZ2+BB854tnorSEE0cgeL5iROkpumP4QTCPPDZTShm1ja3tADhrJ0umaeKvr76FPzyzGom+lCP7iEXDOG/xbJy9aEb/5QQXSCrgsnWCtLe/qA6aIcCDM5StD0VqaOnADx56Ck2tnfZt1EWGDynEd750JkYNK9EdRbfOSSOGlohIwD419nPHUdDjtjZ1TARP/llraOnAf9z7OH71l1ccO/kDQF8yjd/9bRVuuu8JNLW5YyH+qADH5AfvODbe5icitnb0+PrkDwBNbV34zwefRHOb3vULXKDonYb2cbpD+AELgA0yKj1TdwaveuOd93HjXX/G1p27c7bP2h1NuPHnj+HNmh052+fhVBYEbyDOzuV/exJJ3PLrv/r65L9XS3s3fvjfT6M74HMCQlA85tqABcAGAszQncGLVqytxY9+93f0JJI533dXbx9u/fXf8PzqzTnf9/4qAjh2ZNf9/+lMBst//TffXfM/nB2Nrbjtt39HOpPRHUUbxWOuLVgAbKAAttFBWrG2Bnf96XlkMvpu1TNNE/f9eQX++WattgwAMDmAdwJU2jQC8NunV2HTu/X2bMxDNm2vx+//tkp3DG0EigXABlwHwAYiMpkPABy4tZt34J7HVsANd2iZSuHuR19EUUEeZlWM1ZKhNAKURYDdzk1/cJWhe35fq1a9vR1Pv7LB+oaOYPiQIkwdPwqTjhqOkWXFGFlajPxYFAWxKCD9lyB6+1JoaOlA/e521O7cjbe27UJji7MLPDy5cgOmjh+FuZOPcXQ/riSYojuCHwTv4qPNlFJS29jaBaBAdxYvaG7rxg0/f8x19+YX5sfwwys/jeFDi7Ts/47tgpVtWnadcwuGKnzD4jlrd3sXvv2zxxy7P76spBAnHjsJi46dhDHDh2S1jV1N7VjxZi1WrK1FU5sz8xPi+TEs/9q5GDYkcLcHdlaUlxbrDuF1LAAWbWtsHJlW4V26c3iBaSrcdN/jqN3RpDvKQVUcNQLf+8ontDyj/ekm4Jc7g/FxvHSswpll1rbxo9/+Ha+//a49gfYxdsRQfOqkWVg4c4Jtt4qapsIrG7bizy+8ifca7H/603FTx+FbF3/E9u26XToVLpsytjg4kz8cwEsAFqXN0DjWqIH566sbXXvyB4Ca9xvxt1ffwhkLpuV833bOine7/rsesr/+s7Zmh+0n/4K8KM4/bQ5Onz/V9jUiDENwwsyJOH7GBPxzbS3++8lXbR0Be+2t7VjzznuYU3W0bdv0gmjMHA+ABcACTgK0SCDjNEfwhPbuXjzy7BrdMY7o4WdXo727N+f7tfu+eLeyuu5BXyqNXzz+ko2JgMnjRuJHV52HMxdMd3SBKEMEJ82uwPKrzsWU8aNs3fav/vIKkulg3RVgqgyfm2xRAA45zjIFR+nO4AV/eWmDltv9BqsnkcRfXnJ+Ytn+DAEmBGAWycQ4ELYwYvbMa5tsvd//7IUzcNNlH8/pErulxQX47pc+jk8ssm8ie0NLB55d9bZt2/MCUQjWkIcDWAAsMoDhujO4XU8iib+/+pbuGAP2t1ff0vLwlaoAFIAqC+fZVDqD/3tpnS05RIDPnTkfnztzvpZloQ1DcMkZ8/GFjx9/wHOtsvXEinVIBWhtAKXE4kwSYgGwSCkZpjuD261cvxW9Dizxa9eBc3+JvhReXr/VmY0fhl2L47iZlacfPrf6HbR29NiS45Iz5uPshfpvJf/4CdPxpbNPsGVbLR09eHFNjS3b8gQBj70WcRKgVaLYQo9gxVr7DkqTx43E4tkVmD5pDIYW9n9lbunswYYtdXju9U3Y/H6jLft5Yc1mfPS43N5qXBHvvxRg+rQHCICKLEc5TKXwxD/X25Lj7IUzXHHy3+tj86eiqbXTlt/v8RXrcGr1ZMfKsZso8NhrFQuAdWyhh9HVm0DNe9ZPynmxCK445yTMn37gvJ/hQwpxytxKnDK3EivXb8V9j61AImltxGHLzia0dfXm9PHBhWFgVBTY6dNl3kflAcVZHnHe2rbLlmv/U8aNxMWnz7O8HbtddPpx2FbXjA1b6yxtp6GlA5verceUcSNtSuZeAo6+WsVLAFYJSnVHcLONW3bBtLjkX140gmWXn33Qk//+TpgxATddfhbyotaWmlOq/6STa36+DGDld1ux1vpyzfH8KK664FTXPAp6X4YIrjzvZBTkRS1v68U39D/fIkdYACxy3yfBY0Qhd18RPWjz+w2Wt/GVTy/CuNED/6xPGFOGL39qoeX9bn7PevbBqiz079htZTy7360vmcarG7dZ3v8Fp1WjtNi9My1LS+I4/7Q5lrfzyoZt6EulbUjkejz2WsQCYF1MdwA3q9vdbun1E8cMxwkzJg76dQtnTsLEsdZu0Khryv3avL4eASjI7ndbt2UHEhYnkR5dXprzOR3ZOH3+VIzNcunhvXr7UtiwxdqlBI+wPlwScCwAFim+CQ+rvtlaATh5TkVWE5pEgFPmVFra965mZx/mcjCjY0BRKOe7dVw81P+7ZWPjVuuXYj69+FgtSzwPlmEY+NTJsyxvZ6PFuQQewS9fFrEAWMcCcBhdPdYW/5k6YXTWr502MfvXAkC3hrUABMCkwpzv1nGVe+5wyIbVb7PDhxTh+GneWTRu4cyJGD7E2puABYAGggXAOr4JD8Pq0O2w4uxXjikrsXYQTSRTWh5Z7MfLANn+Tm1dvdjZ1Gpp3yfNrvDEt/+9DMPAolmTLG3jvYYWdGhY0jrHeOy1iAXAOv4ND8ficVdZOANbvftAFz+uCFiZZY/btnO35RK26NjBzyHRbeGx1gqAUsD2XfY/edBlfHixLLd48iJHWb0dr6Uz+5XfWtqtrRqXH4toWVBlUhwIeecL6xEZAkzMstTssjiHZOSwEowaVmJpGzqMHT7E8mUAHZNYyVtYAMhRhQXWpkhsqN2Z9WvX1e6wtO+CPD0jjFEBxvnoBqdxFp50uNPiSWyqhxfEsfrEQKvlifyPBYAcNdLit6/n39ic1RCwUsALFhdEGV2m75tjRe4eTue4bIf/AWCX1dtILd4KqtPEMdZWurVansj/WADIUWPKrN3TvL2uOauVzV5Y8w627txtad+jNBYAP00EtPK7tHVZu4yj89+hVaMsfnY6uhI2JSG/YgEgR1UeXW55G794/KVBPeRn83sNePCJlZb3W3W0vuFjK9+a3SbbBwABQCJpbUW7EaVFll6vU7nF7L191m7BJf9jASBHTZswCobFmXTJdAY/+MVf8NzqzYed2W8qhWdXbcJ/Pvgkkmlrz0UXAaaO11cAyiJAqQ9WmBgaAYZb+D16E9ZOYnFN8zjsEM+39gbo7QvEcsBkAZ8GSI6K58dQdUw53t5eb2k7yXQG9z72Ip5+eQNOml2J6RNGYWhxARSA1vYerN9ahxfWbMaORmv3jO9VcVQ5SnL4JMCDqYorvJz09u0AVRaG/5WCpTXtRYBYxLuHOKt30PQmOQJAh+fdTwd5xomzKywXgL3erW/Br596xZZtHc7Jsysc38eRVMaBl+3pM9pYuZShlAnTzL5AiIinFgDaXzhk7Tb3TMaEUtByKyt5Ay8BkOMWTJ9geTgzl/JjERw/fYLuGKgs8P6RuyrLJwASkfNYAMhx+bEIPjZ/mu4YA3bG8dNcUVjG5SvEPPwJjQpwTL5/7mYg8hsPH17IS85aOA2F+e6fkBXPj+GsRdN1xwDQvxrgBA8vCzwxDoQ5AEDkWiwAlBOF+Xm48KPVumMc0UUfm4fC/DzdMT5Q5eHbAf10KyORH7EAUM6cOm8yprh4adYp40fh1Ooq3TE+pMLDCwL5aTEjIj9iAaCcMURw1QWnojjuvoXui+P5uOr8UyyvWWC3qrjlBypqIbC2ABAROY8FgHKqtLgA37jwFEQs3uJkp0g4hGsuPBWlxe47YxWGgJF53vsmPTJPoZg3GRO5GgsA5dy08aPx9fMXu+IebcMQXHX+YstPXnOSF2+lsyOzYRiIhrMvivkxawvpuIGVxYDyonoeZ03ewQJAWsyfPh7fuugjiFg4wFsVCYVw9QWn4rhp47VlGAgvTqaza/i/pCj7DQ0pdN+IzmANtfD7W3ktBQMLAGlTPeUY3HjpGSjRMCdgSGE+/v2yM3H8dHef/AGgssB7lwCsLAG8r8nHZP8wKSuvdYtKC79DlYsn3JI7sACQVlPHj8ItXzsnp0Pw0yeOxq1fPxeTj/HGAXJMHhB3z5SJI4qHgNE2LflwwoyJWb/2+Jn6V3O06oQZ2f8OCzxQbkkvFgDSbmhxAW667Cxced7Jjt4hEM+P4dKzjsd3vnim9gf9DIbAW5cBKuKAXdM7ZlcdhalZlMNjK8ZixoQx9oTQaFbFWEyfOHrQr5s+cTRmVYx1IBH5CQsAuYIIcNLsCtz+zc/gM6fOQdzGVQOLCvLw2Y9W485/+yzOXDDddbf6DYSX7qm3a/h/r29ceCpGDSsZ8M+XlxbjivNOtjWDTldfcApGlRUP+OdHlBbj6+ef4mAi8gvvHQldpqahJQU+VdF2iWQKr27chhVv1OKt7fUwTXNQrzcMAzMmjsaiWZNw3LRxnn4sLABs6AJ+UOuNj+t/TFKYXmjvNtu6enH3n17AmzU7Dvtzc6qOxtJzT9Qyr8RJ7V29uPvRF7B28+F//2Mrx+KKc0/21AiXBemK8lLv3+qhkTeOKC7GAuC83r4U3tq2C5vfa8Cu3e2o292OnkQfEsn+Z8XnxSKI50UxqqwEY8qGoPLockwZP9Ly89TdpM8EvrReYOHpuDlhCPDgDIU8h8YW3962Cy+srcU72+vR3N4FEUHpkDimHD0SJ8+pRJUPJv4dzqbt9Xj+jc145916tLT3AABKSwpQdcxILJ5dicnBmvjHAmARC4BFLACUKzduFmzr0Z3i8MYXAD+sdHlLIb9gAbCIcwCIPMILDwby0mRFoqBjASDyCC9MBPTimgVEQcUCQOQRXni4DkcAiLyDBYDII4ZHgdKo7hSHNjTSn5GIvIEFgMhD3DzEbvf9/0TkLBYAIg+pdPGTAd2cjYgOxAJA5CFuvsbu5mxEdCAWACIPGZ+vEHPhpzYiCuPyeQmAyEtceCghokMJCTDBhXcDTIwLwrwCQOQpLABEHuPGoXYvrFFARB/GAkDkMW482XphlUIi+jAWACKPqYy76yEeAm8sUkREH8YCQOQxRSFgZMw9owAjYwrFfBwWkeewABB5kJvuuXdTFiIaOBYAIg+qcNE1dzdlIaKBYwEg8iA3LbvrpixENHAsAEQeNDYPiId0p+jPMCamOwURZYMFgMiDBO4Yeq/dyy8vAAAFQElEQVSIAwanABB5EgsAkUe5YT0AN2QgouywABB5lFtGAIjIm1gAiDyqskDv8LshQEW+vv0TkTUsAEQeFTOAo/P07f/oPCDPBRMRiSg7LABEHqZzDX6u/0/kbSwARB5WoXESns59E5F1LABEHsYRACLKFgsAkYcNjwKlkdzvd0ikf99E5F0sAEQep2Monsv/EnkfCwCRx+l4Gh+fAEjkfSwARB6nYzU+rgBI5H0sAEQeNyEfiObwC3lEgHFcAIjI81gAKEsKpmnCNE0A/DaoU0iACQW529/Egv4SQDrx80fWhXUHIO9QUEgm+pBIJJBOpfHBgUcE4XAYsbw8xPJiEPDskGsVcYVN3bn5u/P+fz0UFPoSfehLJJBOpwHFzx9ZwwJAA5LJpNHZ3oFMJnPg/6gU0qkU0qkUEj09KCwuRjjMt1YuVcWBJ3K4L8qtdDqNrg5+/shevARAR5TJpNHR1n7wg88BP5tBR3sbMul0DpLRXlWFyNn3vgreAZBTmUxm0J+/ND9/NAAsAHREXZ1de641DowyFTo7Ov41REmOKwoBI2PO72dUDCgJ899rLnV1dkKpwX3++l/jYCjyBRYAOqy+RB/SqdSgX5fJZNCXTDqQiA6lMgdD87nYB/1LX1+Wn790GslknwOJyE9YAOiwrBxEkn0JG5PQkbAA+I+Vz1CyjwWADo8FgA7LyrXETOrI1yzJPrmYnc87AHIrbeEz1H+nDtGhsQDQYSkz+wOQaeG1NHhjY0Chg5O/80P9+6DcUSr7z5CVzy4FAwsAHZaViUT8rphbhgAT8537q1fF+/dBucPPHzmJBYDIRyocvEZfUcBTCpGfsAAQ+chkB+/Rr+L9/0S+wgJA5COTCpQjw/SGABM5AkDkKywARD6SFwKOyrN/u0fl9U8CJCL/YAEg8hkn1urn+v9E/sMCQOQzTtyrX8n7/4l8hwWAyGc4AkBEA8ECQOQzI6LAkIh92ysJKwyP2rc9InIHFgAiH7Jzzf6qQvu2RUTuwQJA5EOVBXZui/f/E/kRCwCRD9k5aY8TAIn8iQWAyIfGFwARsX7ijkj/tojIf1gAiHwoIsAEG4buJxT0b4uI/IcFgMin7Bi65/A/kX+xABD5lB1PBrTzbgIichcWACKfsuNOgEo+AZDIt8K6AxCRM+IWP90RUSjhEYLItzgCQEREFEAsAERERAHEAkBERBRALABEREQBxAJAREQUQCwAREREAcQCQEREFEAsAERERAHEAkBERBRALABEREQBxAJAREQUQCwAREREAcQCQEREFEAsAERERAHEAkBERBRALABEREQBxAJAREQUQCwAREREAcQCQEREFEAsAERERAHEAkBERBRALABEREQBxAJAREQUQCwAREREAcQCQEREFEAsAERERAHEAkBERBRALABEREQBxAJAREQUQCwAREREAcQCYF2n7gBERAHUrjuA17EAWKSA93VnICIKIB57LWIBsO5vugMQEQXQX3UH8DoWAItMI/MAgLTuHEREAZIyjMyDukN4HQuARZOHD38HkDt15yAiCgoF/HTi8OGbdefwOhYAG7SPGHIDgKd15yAiCoCndo4YeqPuEH7AAmCDapFU+4ihnwTkx+DlACIiJ6QBuX3HiKGfPEWEx1kbhHUH8ItqkRSAb72ze/d9oYxxmQI+BuAYAEM0RyMi8qo2AO8K8Ne0kXmw/5IrERERERERERERERERERERERERERERERERERERERERERERERERERERERERERERERERERERERERERERERERERERkXP+f/TuxShhQ1lfAAAAAElFTkSuQmCC;" parent="1" vertex="1">
          <mxGeometry x="880" y="250" width="83.5" height="83.5" as="geometry" />
        </mxCell>
        <mxCell id="Hf2aZSIuRy_q8SedqZRs-21" value="" style="html=1;verticalLabelPosition=bottom;align=center;labelBackgroundColor=#ffffff;verticalAlign=top;strokeWidth=2;shadow=0;dashed=0;shape=mxgraph.ios7.icons.home;" parent="1" vertex="1">
          <mxGeometry x="270" y="561" width="100" height="101" as="geometry" />
        </mxCell>
        <mxCell id="Hf2aZSIuRy_q8SedqZRs-22" value="" style="html=1;verticalLabelPosition=bottom;align=center;labelBackgroundColor=#ffffff;verticalAlign=top;strokeWidth=2;shadow=0;dashed=0;shape=mxgraph.ios7.icons.home;" parent="1" vertex="1">
          <mxGeometry x="270" y="221" width="100" height="101" as="geometry" />
        </mxCell>
        <mxCell id="Hf2aZSIuRy_q8SedqZRs-23" value="" style="shape=image;imageAspect=0;aspect=fixed;verticalLabelPosition=bottom;verticalAlign=top;image=data:image/png,iVBORw0KGgoAAAANSUhEUgAAAgAAAAIACAYAAAD0eNT6AAAABHNCSVQICAgIfAhkiAAAAAlwSFlzAAAN1wAADdcBQiibeAAAABl0RVh0U29mdHdhcmUAd3d3Lmlua3NjYXBlLm9yZ5vuPBoAACAASURBVHic7N15fFXVuT/+z9rDmTIS5jkiCAg41wFRBoGYKq1ptQ6IAyoiYlsLtto7NPfb23r7a1p7JY2tWqx1aq29raWKaFurIooDTlgnQOYwBsh0hr3XWr8/EiwgkOHstdfe5zzv183FQrLWk+ScvZ797DUwKSVI/po0YbwFYIRlWRcwxs5kjI2QUvYDEJVSWlJKE4AppTSklExKaQAAY0y2/wnGGNr/WzDG0oZh7DFNc71hGO8xxlYDeAfAqiVLl7Xq+S4JCZ/qhfMSAIYKIUZyzk+XQoyRkAMhUQzIiJSItP9pAW3vVQmYkNKQgMEACcBljDkAS4EhyYAWMNYEYB8D2wOGesuy3rYs+z0AH1fX1O3T+10TPzFKAPLDpAnjTcMwxpqm+TUA50ophwshyoQQke60ZxjGYT/2JwNHIAAkAewDsAPAegB/BvDIkqXLMt2Jg5Cwq144rxTAWZzzCiHEyVKIciFFbylEnAsBKYQn/ZimCcMw296rpvHZfx9iG4CPAHx4yJ/rq2vqvAmEBAYlADlq0oTxfWzb/k8p5VeEEL2FEFY27ZmmedBHBwN9V0m0JQSvAHgEwP8tWbqMLjYk51QvnMcAjOScV3LX/TIX/CQhRIkUAl5eixlj7e9VC6bV9meW0gA+wb+SgtUA/lpdU7cr24aJPpQA5IhJE8ZbpmlWMMbuEEKcKoSIZdOe4gG/IwLAVgAvAfj1kqXLnvWzc0K8VL1wXpGUsoq77g2c89Nc7sYE5573YxgGbDsCy7JgmKbn7R+GAPA6gP8D8FB1TV29H50S71ACEGKTJowfZJrmfAAzhRADpZRZjdKWZX324fOA3xEOYAOA5wH8csnSZa9rjoeQo6peOK/QdZwbuOBXC87Hcc4NFddaxhgs24ZtR2D6M+gfCQewDMADAP5cXVNHj/RCgBKAkJk2eWIfAHdzzi8UQhRk255pmrBtO4iD/tHsAvALAP+1ZOkyV3cwhABA9cJ5tuu6N7iO8w3O3RFCCGVvKMuy2963tq2qi2w0AHgUwAPVNXWrdAdDjowSgJCYNnniLCnl/8c575ft78w0TViWBdu2wzToH44L4G8Avrlk6bIPdQdD8lP1wnk9nEzmR67rXOm6blxVP6ZpwrIjYXvfvgvg1wAerq6p26k5FnIISgACbNKE8b0sy6oRQlze3dn6B7JtG5FI5HAzf3PBegA/XLJ02X26AyH54T9uvXGc6zp3u45zrhBC2ZvKtiOIRCMwDK0l/mw5AJ4C8CsAT1XX1NHAEwCUAATQpAnjp5qmeTfnfHS2bTHGPhv4Q3TXkI0kgCcAfGvJ0mU0Q5l47rtfv/4Cwd2fua47XOX107IsRGOxsA/8h/MWgH+vrql7Wncg+Y4SgAA5b+I5X5ZS3i+E6JVtW4wxRCKhKxd6SaJtA6I7lixd9ozuYEj4fWfe1RVSyns550NU9mOYJmLRGEwr66V7QbcCwL9V19T9Q3cg+YoSgACYPmXStZzzuzjnJdm2ZRjGZwM/+cwOADcuWbrsT7oDIeFz+83X9pZSPOm67lkq+zEMA5FoLB/fu39FWyLwmu5A8g0lABpNmzzxAinlY67rFmXbFmMM0Wg0Hy8eXfExgCuWLF32pu5ASDjcMf/aHzuOc2v7lthKMMYQiUYRiURVdREWTwL4j+qauvd0B5IvKAHQYPI5Z480DOMZznm5F+1FIpF8esbvhZcBXLpk6bItugMhwXT7zdeOE4I/wzkfoLIfy7YRi8XpvfsvEsBvAXyvuqbuE93B5DpKAHw0acL4ItM0/8g5P8+L9izLQjQazdVZ/aoJAI8DmEV7CZD9FsyZaVqWdQ/n/PpsN9bqSCwWhx3JenFPrnLRtmLgO3RAkTqUAPjkvInnzBZC/EJKmXWN3jAMRKNRWLk/ScgPTQAuX7J02VO6AyF63Tb3qgmA/KMXk3CPxjAMxOMJv7brDbtNAK6trqn7m+5AchElAIpNPufsnqZprnRd91gv2otGo4jQXYMKfwPwJTqyOD/dNndWjRBigep+qOTfLRJALdqqAUndweQSSgAUmj5l0k8dx/mmF6VEwzAQi8V07/ed61IA5i5ZuuxB3YEQfyyYMzNiGMZfhBDTVPdFJf+sfQzgquqaupW6A8kVlAAoUHHe5JM45/9wXTfrZX1A2w5+sVhWh/uRrnkNwGSqBuS2BXNm9jIMY6UQYpjKfhhjSCQKqOTvDQ7gfwD8V3VNnaM7mLCjBMBj0yZPrHFdd4EXP1fGGGKxGD3r16MJbUkALRnMQQvmzDyWMfamlNKTJP1ImGG0Df40UddrbwOYVV1Tt1p3IGFGCYBHJk0Yb1mW9Ybruid60Z5lWYjFYvSsUC8BYOGSpcvu0h0I8c6COTOPYYy9I6XMev+NozEMA3Ea/FVKA/hPADXVNXVCdzBhRAmAB86beM5AAB9wzj25oNBEv8BZCuDCJUuX0UUm5BbMmTm0ffBXeudvtN/5Mxr8/fAygEuqa+rqdQcSNpQAZGna5Ilfcl33j1LKrN/pVPIPtG0ATl+ydNkm3YGQ7lkwZ+bg9sG/h8p+DMNAoqCQqnf+2gCgsrqm7gPdgYQJpadZmDZ54iLXdZ/0YvBvu2NI0OAfXP0ArJ1RWXGJ7kBI1y2YM7OEMfYGDf45ayiAl6sXzjtXdyBhQhWAbpg0Ybxh2/Yqx3E8ed5vmibicVobHCL3L1m67AbdQZDOWTBnJjMM4x0hxDiV/TDGkCgopGf+eqXRtlTwcd2BhAG9Urto2uSJ/UzT3OvV4G/bNhKJBA3+4XL9jMqKVTMqK+j9EwKmaf1e9eAPALF4ggZ//aIAflu9cJ7yTZ1yAVUAuqBy2nnnpNPpfwghPHmXRyIRRKN5fwJYmH0MYAydJRBc377p6ps4d+tU9xONxWnibvDcDeBWWiFwZJQAdNL5U6ecnclkXhJCeHKrTjP9c8ZGAKNp06Dgue2mq4ZJIT5WeZQvANh2BLF4XGUXpPv+D8DM6pq6lO5AgojqVZ1w/tQpZ9DgT45gCIB1MyorSnUHQg7GgOdUD/6GYSBKu3QG2VcA/K164byeugMJIkoAOlBx3uRTMpnMChr8yVH0RVsS0Ed3IKTN7fOv/R/OudItfoG20j/N3wm88QBWVC+cd4zuQIKGHgEcxfQpk05wXfctr5750+Cf85oAjFuydNkG3YHks+9+/boBmXRmo5SCSv/kQBsAnF1dU7dFdyBBQRWAI5g2eeJYGvxJFxUB+GBGZcUo3YHkq+/ect2p3HVfVD34m6ZFpf/wGQrg2eqF88p0BxIUVAE4jGmTJ47mnL8nhDcXERr8804abRMDP9UdSK77z2/NLXYd5wYh+KWci3FCcCWjMmMMpmXBsmxYlkVl/3BbCeC86pq6Ft2B6EYJwCGmT5nU33XdTV4N/rTUL2/tBTCQVgeocfv8a+cKIRYIzo+VUioZjRljsO0ILMuCSTt05prnAFxYXVOX0R2ITpQAHOCL06cmMplMg+u6nozYlmUhTs8I89knS5YuO053ELniP745J+a6bq3L3SsE58reWMwwEIlQ1S4PPAHg0nzeJ4DS2nYzKisiruvWezX4G4aBGD0jzHcjZlRWPLNk6bLzdQcSZgvmzExYlvUTIcR1QghbVT9G+8Bv08CfLy4GcA+AG3UHogtNAmznOM77mUym2Iu2GGO0tz/Zr2JGZUWN7iDC6ts3XfVNxliD67pzVQ3+hmEgFo+joLCIBv/8M6d64bwf6g5CF3oEAOD8qVN+nkql5nnVXiKRgGkqnYRMwmf2kqXLHtAdRFh8Z97VxwkpnxKcD1fZj21HEI3FKFknM6tr6h7VHYTf8j4BOH/qlCnpdPpvXv0cYrEYbFtZlZKElwBw9pKly17VHUiQ3XHLbEMKcZ/ruteqmtwHtFXpYvE4LIveqwQA0ALgjOqauvd1B+KnvE4Apk46t1BKuYdz7slcCNu26bk/OZoUgPIlS5dt1x1IEN1+87XlQvA3OedK12lbloVYnE7gJJ/zEYAvVNfUNekOxC/5PgfgY68Gf5r0RzohBuB53UEE0e03X3OWy90PVQ/+0Vgc8UQBDf7kcEYCWKw7CD/lbQIwfcqkX7mu29+r9mi5H+mk0TMqK76nO4gg+c7N11zquu5LUgilG2bE4wla2kc6cnH1wnm36g7CL3n5COD8qVNOT6fTK7363mmnP9JFAsBxS5YuW6s7EN2+M+/qO1zX/QEApbfk8UQBLNrMh3SOC2BydU3dct2BqJaXFQDXdV/wavA3TZMGf9JVBuhRAL4z7+pFruv+EAoHf8YYEjT4k66xADxevXBeX92BqJZ3CUDFeZNXuq7rycN6xhg99yfdNXhGZcUi3UHocsf82Xe7rjtfZR+MMcQTCdrGl3RHfwC/0B2EanmVAHxx+tS5mUzmdK/ai0ajMIy8+hESb908o7LiVN1B+O2OW2bflsmkb1HdTzyRgGnS4E+67aLqhfMu0R2ESnkzes2orCjOZDI/96r0b1kWrfcn2WIAntEdhJ9un3/tVCeT+ZHqfmKxOA3+xAuLcvn44LxJADKZzN9d1/Xs+6UT/ohHes2orPil7iD88O2brip3HecplRv8AG27+9GWvsQjfQH8VHcQquTFKoCK8yafkslk3vTqe6UjfonHOIBeS5Yu26s7EFUWzJlpGIaxWQjh2dLbwzFNE4mCQpVdkPx0fnVN3TLdQXgtLyoAnPNnvBr8GWM06594zQSQ0/uQW5b1mOrBnzED8USByi5I/vpl9cJ5OZdZ5nwCUHHe5K+5rtvbq/ai0SjtIkZUOH9GZcUI3UGocMf8ay9xXfdrqvuJJ+gETqLMUAA5d2pgzicAnPNfedWWYRg08Y+owgD8TncQXvu3b1zf23Xdh1X3Y9sRmvRHVLu5euG8MbqD8FJOJwDnT53yLdd1PSvb0HN/otjJMyorJuoOwkuu4ywTQih9ZsYYQ5T24yDqGcixKkBOJwCu697pVVumadJuYsQPv9EdgFduv/maL7mue7LqfqKxGJX+iV++VL1w3njdQXglZxOA86dO+Znrup7dedCOf8QnQ2ZUVszSHYQXuBD3q+7DtCzYNk3KJb7y7MZSt5xMAGZUVhiO43i2zahlWbTjH/FT6MuM37n5mtsF555Nvj2SWIxO4SS+O7d64bwv6g7CCzk5qjmO8zjn3PSqPVr2R3w2aEZlxRm6g+iu2+bOigjOlR95bEcilJgTXe6sXjgv9C++0H8Dh5pRWZFwHOcrXrVnmiZM07NcgpDOukt3AN1lGOb9Qgjlz8wiEZqUS7Q5AcDluoPIVs4lAI7jPMw592xGEN39E03OmFFZUao7iK66ff61PTl3Z6rux7bp7p9o92/VC+eFevZpzr2DXNf17NmMYRg085/oYiCMe5BLLJZSKr+uRGhJLtFvNIDpuoPIRk4lAJXTzpvsuq5nVwba9IdodpnuALrijltmW5x7l4AfiW3bdPdPguKbugPIRk69izjndV61xRijBIDoFp9RWXGz7iA6S0pZLYRQXjKLRGlJLgmMiuqF80bpDqK7cioBcF13pFdt2bZNm4uQIPi27gA6i3N+k+o+aEkuCRgG4Bu6g+iunHknVZw3+U4hhGcjNt39k4AYMqOyokx3EB35zrxrvig4Vx4nbfpDAuiq6oXzeugOojtyJgHgnM/1qi3DMOgugwTJ7boD6IiU8geq+2CMwaLEnARPAsAc3UF0R06MchXnTR7COfdsyRTd/ZOAUX6UbjbuuGV2RAh+gup+6O6fBNh1ugPojpxIAKSUv5ZSetYeLf0jATNkRmVFse4gjuI2P5b+2RFKzElgjaheOO8LuoPoqpxIAFzXPcertqj8TwKIIcCTAaUQN6juwzRNGAbtyEkCTfkGWF4L/UhXOe2887xcekTlfxJQgdx2tHrhvB6c86Gq+6Fn/yQELqteOC9UWWroEwAhxE+8bI/K/ySgjplRWVGoO4hDOZnMTUII5f1YFiUAJPD6AjhPdxBdkQsJwFiv2morM4b+R0JyEwOgvNTeVZxz5ZUJxuixHAmNUD0GCPW7akZlxemu63pWcqG7fxJwM3QHcKDqhfNMzt3Rqvuh9yUJkarqhfNCs1VlqBMA13W/7eXsfzr2lwTciboDOJCTyVwihFD+pjEpASDhUQTgTN1BdFaoEwDO+USv2mKMUQJAgq5sRmVFQncQ+3HOb/SjH6oAkJA5V3cAnRXqdxbnvKdXbal8xjiiTxSnlxcgZjPEbYaoacA0gX1JgW1NDjbsdrBhdxp7Wzm8q2eQ/WK2gX4lNvqWRNC3xEbcNpB2BJKOQNqRaEpxvLOxBa4IxU//CgD36w4CAITgZ6juwzBMOpODhE1oEgDmZQndTxdUTJva0tLynFftRaNRRCLe7jR2XN8YLj+tFGWdPKDYMAy4Eki6Ek1pgYYWjh1NLjbvc7CpIYNdTW5YBinfFMVM9Ciw2j4S7X8WHPx3hbGOKzsNzS6WvN2AFz9qhMsD/TN+esnSZRfoDuK7X7/u9HQqtVJ1P5FIFNFYaB6pEgIArQBKq2vqHN2BdCS0FQDOuacbo3hZ/h9YauOGs3uiRycH/v2EEDAAFJhAQYKhX8LC8b0tAG0XQMNgEGBIc6AlI7CpkWNjg4PdzQ52N7vY3eygJa1+SZYfLJMdMKDvH8zNQ/63Bcv05u6wrNDC1RP6YMbJZXhyVQP+8cE+T9pV4DTdAQCA4OJWP/qh5/8khBIATgXwqu5AOhLadxfn3NNtF71KAAb3iGDBlJ5gCiorQkgAElEGFBXbGDaw6HOfk3IE9iU50o5o+3Al0q5AypHt/7ut7N32d+3/3v65Kffzn5N2BI5WdLAMBttisM22D8tksE0DtskQMdv+7eDPMT773M8+LIZExEDpAQN+USfu2lUoK7Bw7Tl90LvIxu9f26Ulhg701h0AAAghzvKjH5qXQ0JqIigBUEcI8fnRr5u8usgURA1lg/+B7IiFRNHhy6Ix20DM9nY+g8PbEoOMK2EaBw/qufp09sKTeqA5xbH03T26QzkUm1FZccKSpcve1RmElKK/6j5Mk57/k9A6F8CPdAfRkVCuAphRWRHzcvmRVwnA/Im9lA/+jDEkCv19JmqbDIUxE2WFFkoSJhIRA5EcHvz3u/gLPdG/NJAn0I3X2fm/ff36fkII5T8YKv+TEDu7euG8wI+vgQ/wcIQQFwVt/f/o/jEMKFT/44wXRMGMXB96g8EyGa44q5fuMA7nVJ2dCyku9qMfWv5HQqwEAdu343DCmgB4egHyYgnghWPVn9bKGEMkSnui+2ncoAL0KAjcQDRSZ+dSyinqe2EwzcD93AnpisAvBwxrAnCyl+15kQAMKlY/WcmOWsj5unvAMAaceaxn0028Mlhn51JI5Xc2hhnKSxMhB6IEQAUhvJuA5MUko4E9bMCH/RTsCN0R6XBM7y6u51RP60oAKcUg1X3Q4T8kB5yjO4COhPJdJqX0bBacFxeaY3v5M0DQRVGPPsWBe+yibTvg7y24yZcJgPRaJzmgd/XCeSN0B3E0oXuXzaisMDjnnhXCPSn/l/ozQBgebXpDuiaACQCbUVkxVEfHruNc6MfuoYZB6/9JTjhWdwBHE7oEwHXdU7y8AHmRAPT1YYBgjNGaaE0KoibikcC9VbSUF4UQZ/vRD1UASI4o1x3A0YTuXSaEqPCyPS8uND3i6n+MdPevV++iwFUBtGwJLKQY60c/YUgAihIRDBtQjC+M7ouRQ0qRiNEcHfI55boDOJowvmLHedmYFxeagggDFJ/jF4YLYi7rU2xj4+607jAOdLyOTqUQyh89MGYEutpVXBDBhePLMaTv51eHbGtoxV9e/hS79qU0REYCqFx3AEcTxlHF0yVQXlxoLB+uVQZt/qNVACsA5To6FUKUqe4jyEsAR5eX4boLjz/s4A8A/coSuKpyNEYN6eFzZCSgynUHcDTBfacdWV8vG8s2AeiRMH1ZAsgCfFHMB72DNxGwj98d3jZ3Vl8ppfLZeUGtdp02qg++POEYRO2j/wgiloGLzh2GE4cHchdJ4q9y3QEcTTDfaUchpQzUriwj+vi1BJAqADr1Lgrc07JCvzs0TesUP/oJYgJwxvF9MfW0rhUfzz9jCI4dWKIoIhISfasXzovrDuJIgvdO65hnI64X5f8hZf4cFhPEi2I+CeAjAN/XyTHmz97mQVsCOH5cf0w+pet7HzHGcNE5w9C/Z4GCqEiIaFmy2xmhG1WklJ7dinmyC6BfewBQBUCrPsV24JYCzqisUH8AxcF8OYMgSMnuuScOwLknDuj219uWgUsmD0dpUeB2kyT+KdcdwJEE553WSV4mAF4YWqo+HMZYoCdG5QPTYDi13Peqe0d6+tmZlP6cQRCEBMA0GCrPHIrx47LfdTwRs3DplBG0TDB/lesO4Ej0v9O6zrOYs60AjBsYh6l4+R8AWJFglUTz1RnHBi4BUD4j/2BS+RkEQVj+VxC3ccW04zydxNejKIpLJg+HbYXxkkuyRI8AvCKlDEwCcP7x/sxHjEQC9/w5L40ZmEBBNFDJmM8VAKl8bZvuBKB/zwJcUzkaA3t7n+z171mASyYPR4SSgHxTqjuAIwndK9HLBCAbhuHPEcCMUQUgKEyD4bRjAlUF8HWxuZRQnvEypu/tfcKxPTFz+nEoSqhLuIf0LcJlU4/rcCkhySm0CiCIsrnbOG9ksS/r/y3b0n5XRP4lYI8BfL2zkJDKTyHU8VovLYrisvNG4ItnlcPyYa7NgF4FuHzacYhHaU5AntB2emdHwpgABGI0nDDMn9+pTReJQBk9IIGehYH5nfibAEip/FmUnwmAaTCMH9sf1194PMr7+7ugol9ZAldMO44mBuYHqgDkktKEidKYPxcqO0IXiCAxGHDpGYHZ4c23XWaqF84rlEIof9H7lQAM7lOI2Rccj3NPGuDLXf/h9C6N48rpI5U+ciCBQBWAXPKNSb38Kf9HqPwfRGccW4SR/QKR1Pu2K6brOr6ca6769Z6I2vjqhCGYOX0kepbElPbVGWXFMcycPhIlBf5sKEa0CMTF4nAoAeiiyrHFKPPp7j8apTuDoJo5vjcCkJv5VrcWXAzzox9VCQBjwNQT++DaSX0xsCRYl73SwihmTh+JsmL9CQlRgioAuaBHwsT5I/3Z1tO0DHr+H2BDe0UxcaT2fd59m5EopFC+BwAAeJ1VGQbDpLG9MXfaIIzsYwFCeNq+V4oLIrjq/FEYNsDvzR2JDwJbAaARpgu+Mbm3L6V/AIglaOvQoLv49J54e2ML9ra6ukLwb5N5KX3Zc8CrCkBpYQQTx/TCoFITEByQwRz4DxSLmLhk8gi88PYWvPr+Nt3hEO9QAhB2M8aVoIdPY7JlmzT5LwSKYiZuPX8AfvDnTci4/iSGh/AzS/Slr2wTgJGDinHmiBIU2QJSyrbBP0QYAyadPBB9esTx9Csb4PLgJy6kQ4F9lkujTCcM6xXB1OMSvtz9M8aQKKRngWFR3iuKuVP6YdFz9X4Vhw7kZ4++zFLrTgJQ3ieBcUOLMKhHBIbkALiO34Wnji8vQ8/iGP7wwlo0tmR0h0OyE9hXIyUAHRg7II4bzir1rfQfL4jSwT8hc2p5IS49oxd+++ou3aGoFJhp6gUxEyeWl2JY3xiKowxsf3lfhutuvyN9yxK4pnI0/vTSOmzc3qQ7HJKDKAE4itPLE5h5aolvg78dsRCJBbZaRI6i8oQeSGYEnlzV4Ge3ft5Z+PLCPFIBoCRhY8LxPTGwhw0b+wd66dt7U5dEzMJlU0fgr29swqqPduoOh3RPYF+klAAcwZSRRfjy2ELfLjCmaSBRRKX/MPvKaT3Ru8jGAy/tABe+vG58vLAwnyoAB2cAw/sXYsKoUhTY+wf73LrL7wyDMUz/whD07ZHAs69t9Ou1RbwT2F8YJQCHMWNcCaYeF/dt8DcMAwUlCdr0JwecM7IYPQst3P1cPZIZ5RO4/Lyw+H6tOHt0T5w0ONY2gz+wl1D/nDi8Fwb0KsBTK9ZjW0Or7nBI5wX21UsPmw9QEDWwYGofTB0R9+1XxgyGwpI4DIMG/1xx/MAE/vvioRgzMLD7f3SHr3MAvnhaX5w0KJrzJf6u6l0ax1WVozDxpIEw6ZpBskQVgHZfHFuC6SMTYD5ecAzTQEFxnCb95aBehRa+fcFA/OPDffjdq7vQqqYakHNzAABg1KAiHNODjss9EoMxnDW2H0YMKsFTr2xA/e4W3SGRowtsFpu3CUDcNhCLmhg3OIGLTy5GoQVf7zYs20RBURyMsvicNmlUCc4YVoRlq/fiuff2wDQYmtMcHi3vzskEYOLoUuTjs/6u6lUax1Xnj8TKf27H8nfrac+A4KIEQJe+xTZG90tgZL84+hTZKI5ZKI6bsE2GHS0cfQr8v9OIxOzQrfUP7Cs4iA75YcVsA18+uQxTjy+B29z27LY1I9CUFmhKCWza6+DjnRms3ZVBumsbCuXcHICzj+8Jiwb/TmOM4cwx/TBicCmeWrEeW3dRNSCAAnv5zMkEYGTfOCaMKMbofgmUFRz5W9TxDC2WiCKWCMyS6k6jOkUXHOGHFY8Y2L+aOxExkIgY6FsEDO8dweQRBRAS2LjHwfvb0ljxaSua0x3e0fl5y+dLBeCY3nEE+HoZWD2LY5hVMQqvf7gdL769laoBpFNyJgEwGHDq0EKcP6YHjukVzLvrsA7+xBsdrfIwGFBeZqO8zMb0kQV4bWMSz3/Sgp3Ngbgj9uVaURg1QOX/7mEMOH10X4wY1FYN2LyzWXdIpE1gM9qcSABOGVKIy77QC70Kg7uJjmmZNPjnua5UUWyT4exjEhhfnsDbW1L4wzuNaPp8RcC3C4uEdPzox2IywJfLcOhR1Ha88Ltrd+Hl9+ppK2H9AvuKDnUCELcNXHFGb5x9bPCP0AzbM3/ive5s88AYcPKgGI7rE8Hv3mrEO1tSB/6zO0819wAAIABJREFUfxcWiVTHn+RFP1S69gJjbfsGjB3WE29/shOvrN6G5qQvORwJkdAmACP7xnH9Of3Q8yjP+IPCtEyYFi31I91XEDEw+4xSvLExid+/04iUIwF/7yyonhxCpsFw6sg+OHF4L6z6eCdefX8bWlPajq/OV1QB8NIJgwowf3J/WCFZQhel/f2JR04bEkevQgt1yxuQdn1ct8qw27e+iOcs08Dpo/vipBG98caH2/HaP7cjlaG5FvkudLelYwYkMH9SeAZ/AHT3TzxVXmZj7tk9ELeZn2tYd/jYF1EkYhkYP7Y/bqoah7PH9UfEpg2XfBDYCkCoRqZ19109+eZJ/WCZ4Rn8gba9/gnx0rCeEdxybtnp6+67Ou5HfwzY7kc/xB9R28Q5Jw7ATReNxZlj+sGmm5S8FJrf+rr7ru4J4LeRkA3+AGi3P/IZL897Glhi9wLwfe9aPKptPvVDfBSPWph08kDMvWgsThvVB2YIr68hQBUAD/wMQB/dQXQZvZ/IQTx/QXxz3X1Xn+51o4eSEltU90H0KYjZmHraYNxcdQImnTwQpYVR3SHlEkoAsvHhosv/k3N+pdftmiZTv0A2sL96kiPMTCrz1Cf3XKn0ii2k2KyyfRIMiZiFM8f0w41fHotLJg/H8IElnlatSLAEPgFYd9/VTAjxnUwyAym8HU17F1rrPW2QEJ85GQeu4/YSXNSq7OfH9/xmr8r2SbAwBhw7sAQXTx6Omy4ah7PG9kMBrWbqrsDeBgZ+GaDruFcILhIAkE6mEU1EO9xStQsC+4shpCPc5XDSbZu7cM4vA3CDyv4YY0JKGfibBuKt4oIIJp40EOecOADr65vwwfoGfLxpL9IOLSMMu8C/mbnLb9//30IIZFK0rSUhQgikU+l//W8uCj+svfwSlX0yxuiKn8cMxjBsQDEuGF+Or198Ir4y8ViMGtqDVhB0LLA3moGuAHz08yt6Ci7GHPh33OXIpDOIRGlffZKfpJBIJ9Ofu6xIIe8A8HuFXTvw6VRAEmymyXDc4FIcN7gUGVdgzea9+GDDHmzY1oQMVQYORQlAd0ghr5NSfq7e72ZcCC4QjUWzXGJHs1uIzxiyuhy4jgsn7UAeZhNAKeVx3W+5Y4yxNICEyj5I+EQsA8eXl+H48jIIIbFlVwvW1zfi0/pG1O9uPexrNc+06A7gSAKdAAAYcaR/EFwg1ZqCHbVh2UH/NgjJjpQSmVQG3D3y3ZUUUvHgzJIAeqjtg4SZYTAM7lOIwX0Kcc6JA5DKcGzY1ohP65uwvr4Re5vTHTeSe5p0B3AkQR85hx7tH/dfFAUXsKN21ycHUmZKfNadAgDnHJlkpsM7KSkl+7hu5sDj5j2iZM0+Y8G9kyHBFIuYGDmkB0YOacsbm5MO6ne3oH5XK7bubsG23S35cCYBJQDd1L8zn+Q6LrjLYdkWLNvqwmMBRhkACSzu8s9e250lhRwPZfMAWI6cCEiP/nQpjNsYMagUIwaVfvZ3e5rSqN/dgq27WlC/uxW79iZzbYUBJQDdIaUs7MLnwsk4cDIODNOAZVswLdPLJYOEKCeEAHfaBv7uPDuVkOp2y2RoVNY2yVs9iqLoURTF8eVln/1da8rFnqYUGprS2NOUxp7GFPY0pdHQlA7jJENKALpDSpnqztcJLpDhGYABlmXBMAwwg4Ex9tmfhOgmhYSQAlJISCnBXQ7BRVZtMrB3PArvMG0jJzYDond/8CViFhKxQgzs/fl7wJaUg71NGbSmHSTTHMm0i2TaRWvKRTLjIply0dr+d6mMG4QnvZQAdIdhGB8ILkZ1uwHZ9njgcJjBYBQlena7bUK6IZ3KwM107+6+k95Q1TDAGtS1TUjnFMTsTu9KyLnE1t0t2Li9Ceu27sOWnVqmsQS2chboHRyYwVaqarvtrgt04gXxleBC2eDPGOMj5z/arapZ5zrALmVt+4lKAHnDNNtWJZw9rj9mVYzC9NOHwDJ9H/YCWwEIdAJgWdYSxV34UxzSX4IieYAZau/QGbBTZfuEqHbKcb1xzRdHozDu635WlAB0x7E3/uafhmGEfuYxjf9kP5XTTwzDeFxd6wDAtqtt3y9UAshnvUpiqDhjiJ9dUgLQXcxgz+uOgZDAY5CMsWrFvdQrbp8QX4wYVIrRQ33b04oSgO4yLfPm8M/apxoA2U/Na9k0zU9Gzn9U7TN6BiUbDBGiw1ljO7XNjBf2+dVRVwU+AThu3iObLNt6UXcchHhDTTJoGMa3lTR8sM0+9EGIL3qVxmCavtxcUgKQDdMyL2IGO/x6PkLynGmZL4yc/+iTqvu5c9HiwC5nIqSrDMbQuyTuR1eB3T8jFAnA8LkP7TFN88e64yAkaJjB0oZhXOhbf4xlt1NREIT9iSLxTGmRLyvBqQKQrVG3PPZdy7be1R0HIdnwegsA0zJvGjn/Ud9WyjBGlTiSO3yYX8ara+oCu5ItNAkAAERikVNNy1yrOw5CgsCyrf8cNf+xB/ztlTn+9qcClQCIbwL92CxUCcCwGx507ah9vGmZG3XHQohOlm3916hbHvu+3/0yhtAf6E7DP/FRYMv/QMgSAAAYfuNDGdMyR5omJQEkDzFIy7b+36hbHqvWFEBST7+EhBIlAF47bt4jqdHf+O1Qy7Z+xRijRfYkPLKYBGAYRqNt25NG3fLY9zyMqEsYg5bTVAgJqcCuAABCmgDsN+qWx663o/bppmUG+pASRkVHkiXTMp81LbPnyPmPat4TgwV2QlOn0duR7Kf+rGCqAKh03LxH3ojGo32tiPVTxlhGdzyHRRcc0q6rlxvTMj+yI3bl6K//tmLk/Ef1z8BnwZ7U1ClUMyTt1I//wU4ALN0BeGHYDQ8KAAtW//SSb1u2dauU8huCi0GdOHaVLgUkcBhj0jCNFYZhzB05/9HVuuM5EAt4SbMzJL3tSTsfXguUAPhl7Ld+zwHUAKhZ84tZQ1zX/YbgokoKOURKaeqOj5AjMUxjH2PsbWawPzCwB/xc2981bLfuCLJG4z9pJ6gCkJuGz31oI4AF7R9Y88tZIwQXX5BSjpBSlkNisGGwXpzLUr2RknxiWubbzGD1DGwbgE1gWM/Alig/yMcrDOFPACgDIO06USXOFiUAQTD8xoc+AfDJgX+35aEbfsp55kRNIZE81HtA2ZSyqto9uuPoLgbs1B1Dtnx47ktCwofXQqAfmYV+EmB21P/2Q3+SMfFayPfSZ9t0R5A9ygBIm3yvAOR5AuAHygDIQcI++tTrDiBrVAIg7fJ9DgAlAIT4K9wVAIYtukMgxDNUAchjtIsg8V+4EwBgs+4AsuVD2ZeEBFUAiFr0BIAcLNSjz52LFgd0eWIXhPo3QLxEcwDyGd0KEP+F/jhdxljIqxj0tidt8n0nwLxOACSg/GQzKgCQAzSXVdXq3843S4yxUH8PlPaT/RTvBOhW19QF+vCs/E4ApAz0L4fknNCu/z8YU1fF8GXdLGUApI1QW8sK9N0/kO8JgECr+l6oBkA+kxMJAGNI6Y4hK1QCIO0UPwWmBCDYpPLtV+ngEXKAnEgAAKbw0Zn6hJnekWQ/xa8FSgCCTEqs96MTQtrlRALAmLrKGffj7ULvSdIu43CVzVMCEGSC8/Wq+6BrDTlATiQAAGtS1bLjSwZAC4BIm6ZWpYtyKAEIMin9OdiELjakXW4kAAyNqppOZvxZYSi50js/EgKpjAuXK329BfogICDPE4BhNzzo+LGmmcZ/0m6H7gC8wBQmMo1q78g+IwQlAPmusUX5a40qAEHHDIVLmtpRBYC0W6s7AG+wBlUt725Kq2r6IFLtnR8JgabWjOouKAEIOsaY+iVNlACQNrmRADAoWz2zrUH53lwAAEkVgLyn+Pk/QAlA8BkG26q6Dxr/SbucSACYwkcZW3b5szeXoDkAeY8qAJQAgDG2WnUf9AiAANhZVlWrbPKcv9h2VS03NPuzx5BUvAUcCT5KACgBAGN4UXUflAAQAGt0B+ChelUNSwkIHy5Lgof6OAPiAR8mnNIqgBBYorwHGv9JjpT/AQAMW1Q2n/ZhLwDhupSY57ltu5XvBE8VgKAbOOv+DcxgSh8I0oWGAPhIdwAe2qyy8eaUP+V54YT+ZGbSTbv2pZDKKK8CUQIQBoZh7FbZPiUABMArugPwyp2LFreqPLWvfo8/8wC4SwlAvtq8o9mPbigBCAPDYB+obJ/G/7znAnhVdxBeYoCy2/Q3PvZlg06qAOSxzTspAQAoAQAAmKbxrMr2BW06ku/eLquq9Wd9m08YY8rqpzv2tEAyU1Xzn+GUAOQtHyoAmeqaOn82tcgCJQAADMu4X+UppJQA5L3lugPwHlO6hmpPq/pZ+oK7tBwwDzUnHextVr7jZODv/gFKAAAA/S775Q7TNJXtb87pIpPvXtIdgNcYg9Ir6Np6ZQcOHoSqAPmHnv//CyUA7QyDrVTWuKQqQJ57WXcAnmNMaXnzTZ/mAbhpfyYckuDYRAnAZygB2I/hNyqb55QA5Kt/llXVKts5TxcGKJ3TsLclAy4VPpdrRwlA/qEJgP9CCUA7J+0+ofJoYKoA5K3f6w5ADaa8Rr+zWX15XgoB7ijfEpYERHPSwY49yjcAAigBCJdhNzzomJahbDkgVQDy1m91B6AEg/JzDVZ9omxazkHctD9HEBP9Vq/b7deybEoAwsa0TGWPAbhDp4/loXfKqmo/1B2ECgxQPjq/++kuwFB/iXJT9BggX7y3TumebwcK/DkAACUAB7Gj1iJmMCX5IeeCdgTMP7/THYA6zJcraUOrD+cCcBfCpcOBct3WXS3Yvc+3ZI8qAGHT55J7kpZlKjse2KUqQL7J3QSAwZcEYNW6Bj+6ocmAecDHu3+AEoBwYoz9j6q2KQHIK6+VVdWu0x2EKgzY4Uc/b364HdKwlPeTSfoyMYxo4nKBD9b7k0y2owQgjAZddf+jhmEouRpQApBXHtQdgFrMl6WNUkqs26F+cJac01yAHPbJpr1IZXy9/lICEFambTyqol3ucpoHkB92AHhAdxBKMWz1q6tn39jkSz+Z1pw6roEc4F1/y/8AJQDhxcAWqNoTgFYD5IWfllXVBv4gkCz5lgDsa8lgb0p94sydDG0NnIOaWjNYX6981eqhaBVAWA266v5GyzaVbN+aSdNs4xy3F8A9uoPwgT+35e2eWbXFl34cqgLknNXrGnQcyU4VgDAzLePrKtp1Mi49Bshti8qqan2/3fDbnYsWpxhTv1Xvfuvrm9Dqqr9cOakkpKAqXa5wucAqn86VOAQlAGE2YOZ9b1u2tdbrdqWUcDJUBchRLQD+V3cQPvJ1pHxhtS8LD5BppRUBueKND3egqVXLVs+UAISdYbLrVbSbSVECkKPuLauq9X22kS6MMV9fyO+s3QkH6pcEOslWSElbd4ddKuPildXbdHSdrq6pC8X+0pQAHMWgWff/w7Ktd71u13VcCEGPAXJMGkCN7iB8xZjvM+ZWfqx+LbcUAplmX06MIwq9/N42pPVMug7F3T9ACUCHTJNdxpj32wM7aZptnGMeLKuq9W1mfBAwwPeF8y+v3grhx8ZArS20PXCI7WvOYNXH/jwyOoxQrAAAKAHo0MBZ939g2ebzXrebSVECkEM4gB/pDsJ3jPm+1FFKieff8+fCnm7O+bmcOevFd7aAc21VVqoA5BLDYJd7vS8A5wLcpdnGOeLBXN7290hY26RH373+4XY0ZtSvQHDTabiZUDzKJQfY3tCK9z/1ddvfQ1ECkEsGzrp/hx2xPD/XPZXUMjuVeGsbgIW6g9CDNenq+dHn1wJM/eUr3URVgLB5/i1/9ow4CkoAck00bl9j2aanVwMn7YK7NNs45OaWVdXu0R2EFkzfhW5vcxrvblI/UU+4Lm0RHCLr6xt17Pp3KEoAck3vS+5x7Kj9Za8nBKZaqcQYYo+WVdU+qTsIXRigNfF5euUGZKSpvJ9MSzOkoEQ96LiQ+PuqzbrDACgByE39L//lP6Jx+zdetulkXJoLEE7bASjZLTI8mNYHrQDwx1c2AYp3JJRCIN2s7WkH6aS/v7kZO/YE4ggOWgWQq2KJ6Gw7Ynl6FGqyheYChNBN+bTpz2Ex7NIdwqf1+7B5r/oVNU6ylY4LDrCPN+3Fmx9pW/Z3KKoA5KqyqloRjdtTDdPwrCboOi5cOiUwTH5XVlX7R91B6Mbajj3W7nf/WAvB1D8KSDXuheD0Pg2afS0ZPP3Ket1hHIgSgFzW52u/WB2LR37sZZs0FyA0dgCYrzuIYGCeVsK6y3EF/vTaVjBD7eVMSonUvj3QcbQcOTwhJJ58aR1SmUAlZpQA5Lp+l//y9mjM/sSr9lyH0yFB4XBzWVWt9tJ3IDDU6w5hv483NmDVBvWrArjj0HyAAHnh7S3YuitwqzQoAcgHkXjkTNMyPTs6LNmSppuLYHuorKr2Cd1BBIj2BdcHWvbaBtQ3q5+tn2ltgZum+QC6rd2yDyv/GYgi1KEoAcgHvS+ua7Bss8KrpYGCC3oUEFwvALhBdxABs0l3AIf6zbKPkOTqL2upxn00H0CjplYHf1mxXncYR0IJQL4YeOV9y03L+J5X7aWTGdocKHj+CeCisqpays4OcOeixRkVB2VlQwK4/5mPIRRf2qQQbfMBiO+klPjz8nVIpgP7yJSWAeaTIdcs/r5lmw941V5rM5UXA2QrgMqyqtrQvKl9FrhstSXl4HfLNyrfH4A7DpKUBPju2dc3YdOOQB/XTBWAfDPkmsWz7Yj1Zy/a4i5Hms4JCIImABeUVdVu1B1IUDHGAnkbtmF7E55etUN5EuCmUkg1Um7ol7+9sQlvfbxTdxhHk6yuqQvNUa+UAHho8NW/+nIkar/iRVup1jQED9zNVT5xAVxcVlX7tu5AAo2xwGaq767bheUf7VOeBDjJJFJNobnpC63nV23G6x8GYuuJownVC4ESAI8limJnR6L2h9m2IyU9CtDshrKq2md1BxF0DAj0vIjl723Be1vUbw/rtLbS8kCFXnx7a1Bn/B+KEoB8VlZVKxNFsZMjMXtrtm25Dkc6FdgbrFz2vbKq2l/rDiIUGPNsGawqT73yKd6vV59MZ1qakWkJ9LPpUHr5vXqsWB2YLSc6QglAviurqk0lCmNjIlE763XSyeY0HRbkr5+UVdX+P91BhAUDArcLy+EsWfEp3t6oPtR0cxMdH+yhV9/fhpfeyfpeyk+hmhBCCYAiZVW1e2OJyLF2xMp6t8CWphQk7RCkGgcwv6yqdqHuQMKFhabu/czrG7FyjfobtHRTI5xk4AsjgffaB9vxj7cCtddUZ1AFgLTpdXFd2sm4Iy3bfCebdgQXNB9ArWYAXyqrqv257kBCh4Xrgvf8O1ux9K2dyicGphr3Id3UqLSPXPbmRzvw9zc36w6jO0L1fqAEQLFhNzwoXYefYlrmi9m046RdWhqoxhYAE8qqap/WHUgYMbDQLYR/Z90uPPbSJkim9vKXaW1Bcm8DVe+66OX36vHc64HbZLKzKAEgBxt2w4Ni6LWLJ9oR6yeModtXg2QLzQfw2FsAziirqs2qQpPnGnQH0B0btjfhvmfXwYXaY4TddBqtDbto2+BOSKZdPP73T8L2zP9QlACQwxt89a8WRuORrxim0e3NU2g+gGf+AuDcsqra0D1kDBSG0J6M2NCYxN1PfogWV+1lULguWht2gTtUwTuSrbta8MDTH2Dd1tA/NqEEgBzZgJn3/SlREB1tR61ulU4FF2hpVL+uOcfVom1vf1qzlSUGBH5nlqPJuC4WPfk+1u3KAFA3L0AKgdY9DXBS9N491Jsf7cAjz36ExpacSJBoFQA5uj6X/mJNQVF8cCwR+SvrxmQk1+FobaJJgd2wA8ClZVW1t5RV1VJN1hNsm+4IvPD4C2vxxMqt4CoviVIitW9v2+RAquIh43D86aV1eO71TeAiZ34eVAEgHSurqm0ZMPO+abFEZJZhGl1OfTNph44O7pqHARxfVlX7uO5AcgpDaHZo6ciazXtx1x//iS171R5vkGltQUuePxLYuTeJXy/9EB9uCN0c0o5QAkA6r/8V9z5s2+YAyzZXd/VrU60ZZFKhOXdCl01oO9BnVllV7W7dweSgnJpD4QqJh/72CZ56aweEwkcCbfMCdiPd1Jh3c3pWr9uN3zzzIRoac7KKSQkA6ZqBs+7fPeSaxeMs2/wvxrp2vGprcwquE8gD2XSTAH4BYAwt8VMqtOu1jua9dbuxaMlH2Nms9klRprUFrbt3ws3kfjWvNeXi6VfW4y8r1sNxc/ags1AlACzfss+g27D42sHMYL93HX5GZ7+GMYbCkgRMi/K5dp+g7TCfF3QHkg8W3nilkFKq3VlHo3HH9ETFKf1hQW0yYMcTiBYVgSnen8BvLhd4/YMdePX9bUg7OT/1pld1TV1oKo2W7gDIwYbOfmATgDPrH50zzXX4Q07G7dvR10gp0dLYisLSAhhGzl6HO6MZwN0A/rusqpamW/tHAIoX1Gv03qe78d6nuzHttME4ZWgxulik6zQn2Qo3nUa0sAh2PK6kD7+tXrcbL7y9FU2teTPfgSoAxDv1j914tZN2fuQ6vMNEwLQMFJYk0J2VBSG3B8AiAP9bVlUbyo1pwuy2ubNSQoio7jj8YBoMF54xFKMGJJDFnl4dMkwTkYJC2PGEsj5UWr+tCc+v2oztDXl1JkJLdU1doe4guoISgJDY8vANV7oOr+Hu0RMByzZRWBLOi0Y3bAfwUwD3lFXVhuZQmlxz201XNQrOi3TH4adE1MSXzhyK8l4xgBKBz+zam8Tzb23B2i2huhH2ytbqmrqBuoPoCnoEEBIDr7zvYQAPb/rNdTOFK37KuehzuM9zHY7W5hQShTGfI/TVVgB3AvgVlfr1Y0AKQF4lAK1pjt++sA7xqIXppw7CqAEFYNL7RwOCc6Qa9yHT0hzoRKAl6eCld7binbW7825VwwFCl/VQAhAyg6/61SMAHll331X3MMOYKw+zgUYm5YCBIV6YW1VZwQVSyQxch08sn/3AGt3xkHaM5W0Slky7eHLFeqztW4DpZwxENBaBVLDv/4GJgJ0ogB2Lgxn6Jwu66TRWvbMVL6zdA87zduDfjxIA4o9M2nnZzbhzTctENB4BMwwcmAykUxlIyNBXAgQXcDIuMmn3wIOQaN1jgLC2yZd5zZYSzXub0AwgEo0gUZRom5Dr8d2w4BzppkakmxphRaOwYnFY0Ziv836E68BJJuGkkpBCYHf9Xhr821ACQHzDAIC7HK1NbTdglm0iEouAMQNSyrZNgiSQKApXEiC4QCbtwsk44Lm7XjiHsNCf4JKtA4ffTDqDTDoDxhii8ShiBXGYDJ6Xxt10Gm46DcYYrGisPRlQU/WTQsBJJeEkkxAubT52BKHb1pASgPD6XP3PdThcpy0ZMK22ZMB1XLQ0JlFQHOxlRZwLODTohxLLoe2Au+0wN+BSSqRaU0i1tu14FyuII56IwzDaBlSvSCnbBudUEswwYMfiMKNRmHYkq8qAlBI8k4aTTMJN5+SufV7brjuArqIEILyO+gCQuxzJ5rZkwDAMpFpTsCM27KgFO2LBsvX96oWQ4C4Hd0X7nxwidw4DyT+MbdAdgm6dGWZTLUmkWtrek9F4FJFYDLZtgjEGKbyZNyCFQKa1BWhtAQAYlgXTjsCMRGDaERjmkbdrEK4D7uz/yEC49KSti7bqDqCrKAHIA0IIpJMZpJP/2oyDMQYr0pYM7P+wIrbnGwkJLj4b6F3e9ufhJi6S8GJgTwP4pu44wiSdTCOd/Nf2v4wxRGJRRONRWFZbUgApsn5sIFwXwnXhJNvW4xum2faoIBJpu8N3MuCOA+E4+Tx73ytv6Q6gqygBCK+sRmopJZy0Ayd98PM8wzRgGAyMMRiGAStqw7YtMNZ2kWIGAxgDa29DCAkp2z/2/7fAZ39Hct+dtYufu23urHS+bAZ0WFnmzVJKpJMppJMHl9rtqA3TsmCYJkzThGmZsG0Tcn+XjIGB7f8fAGT7/8n2sNoCk+3/XwoBJ9mKTEvez9v02j4A/9AdRFdRAhBeStYACS5wYDVStA/shByNaZrPCiFm6I5DF1Vz8A9N0i3bQnFpqDabyxcPVdfUhW52pP6FpKS78m6/XxJczDAuNgyzRXcc+tDbMY+tB/Bd3UF0ByUA4UW/OxIYdy5anLEs62u649Al/47fIO0kgNnVNXWh3IqcBpHwoksOCZQ7axc/bdv2n3XHQYiPaqtr6p7XHUR3UQJACPEMM4yvWpb1T91x5CrK+gPljwBu1x1ENmgSYHhR8kYC585Fi10AY26ff+0druN+X0px5IXnOcSvBS80HTcQ9gC4pbqm7hHdgWSLBpHwopsBElj/U/vAnXbEPsayrE90x+IHWvKaN54CMCYXBn+AKgBhRskbCbQ7Fy3eBOC4O26ZPVEK8U0hxNlSymIpZURKmVMJLA3/OSkFYAuADQCeB/Cn6pq61XpD8hYlAOGVUxdQkrvuXLT4BQAv6I5DpQ33fOPmFFCrOw4dTi9lt1d9r+5HuuMgXUd3keFFvztCAoJJeLOZPyE+okEkvKgCQEhQSNDJOSR0KAEghJAsMSmpAkBCh+YAhBclb6RD984ezlxXHCOlPAkSY6SU/aWUpRKIM8ABY5m2P5FhjGXQdqb5Bkis5Vys5VzsvPXxTd4dXp+rqAJAQogSgPCiRwDkM7VXlo+WErOllGdDop+UsocECiCl3dkVaowBhmHAMNtOgoxalmQG23Hv7OGbAWxG22zo1wGsmLN4zTp13034MEoASAhRAhBeVAHIYz+fdcwZUsirhZSTpJDHCiEjXfn6Qwd702g/6vmQTwPQt/3j1AP/4d7Zw7cBeBnAivY/V81ZvCZ0p6F5hR4BkDCiBCCsJFUA8sndlw/tyxj7roS8QAg5VArZ5fcuY4BpmrBsA6aZdf7YD8BX2z8AIHXv7OEvA3gMwBNzFq/Zl20HYSJQcq+EAAAgAElEQVQZo2spCR160YYXVQDyQO3M8huFkN/iXIxANx/7mKYByzZhWUpfMjEA57V/1N47e/hfADwM4Ol8qAxwi5XojoGQrqIEgJCAueeqYSdxLn7AuZja1dL+fobBPhv0mf9n1cYAXNz+0XDv7OGPA3h4zuI1L/sdiF+kyUp1x0BIV9FdZEg19j9jtO4YdOBmHJuHX3Gz7jhUqL2y/Pq7rxi6OZVy3nIc/sXuDP6WbSKeiCCeiMC2TR2D/6HKAMwFsPze2cNfv3f28At0B6SCMFgv3TFo1K0klejH6BCLcHlx+cu/SCQS15vSNdOOg8IVdyntz47asCO20j46y4mUomnc1TAlh8ss3tLSsnjSORPm6I4rW4uuGHqrELJaCFnc3TYsy4AdsWB8fiJfEL0OoHrO4jVP6w7EK5/ed+vrmbh5mup+LNtCcWmh6m66JPPRjr8O/Prd03THQbqOEoCQWP7Kij/Fo/EvGdI96Aqf4RIFy38KKNqJNCgJQCbeFy1jLoMhDv4+BTNlSyr9x3PHn/XVI3xpYP38ymO+6nJxj+Cid3fbME0DkWhoBv5DvQbge3MWr3lGdyDZ+vRX39qbiRrK5wEEMQFwPt29Y8Dcu/rqjoN0HSUAwWYtX7nyhUTEOosJccQrvCMZ4strwIT3SUAQEoBk4VCkR1101O9PMFM2p9MvTDzrrMk+htYt91w9bLzr8IdcVwzrbhuGaSASMb2YzR8EKwHcNmfxmpd0B9Jdn/7mNp4xpPJfRhATAL69ye131Y/03yWQLqMEIIDeXLWqR9rhy+O2cTxk5zZhc6WB6Mt3weBpT2PRnQA0lxwHd8T5YKJzPwfJTLRknDd7FBdMGHv82JTi8LqkbtYxMSHkE64rLuju+84wGCIRC6baGf06SAB3A7hjzuI1Sd3BdMXGn3/9+FRp9H0/rqVBTACkw+Gs2TV64DcXfag7FtI1OXcVCbPlK5Yf+8prr280IRviFjo9+AOAxQQy53wLrh2si0M29vU8CXx45wd/AGCSo9A2TnVSmeRLr7724bLnlvVQGGKnLbqifI7j8D2Ow7s9+NvtE/xycPAH2pY4fgPAO/fOHj5edzBdweP2yny+kWK2CRa3l+uOg3QdVQACYPmKl4+17egrERO9keXvgzMT5spfwk42eBKbrgpAQ58zYQ0+HbILSdBhGSZ2p8Qqkdz7xelTpm73JrrOq51ZXiSEfIFzcXJ322CMIRqzcqXc3xkCwF0A/n3O4jWBquIcaOPPvzHWTVivODbzLesOYgVgP+fT3btkyp048JuL/qk7FtI5lABotGLlq2cIK/67noWJoUw4SLa2eNKuZCbYmw/CbtqadVs6EoDdAybD6jcObeNAFhhDPFEA07TQ6gI79zZ+4DTvurByWoUv+9jXzTrmQsfhjwsh491twzQNRGNWEJbz6fAhgGvmLF6zUncgALDhnm+OhYGfCNs8i0eMQg7p+y8lyAkAAEBK8N2tQjSmdkqHPw8hv08JQXBRAqDBy6++cgEihYt7F8X7MPzr5+9kMkinWj3pQzIT8u3fIrr306za8TsB2DmkEpFex3rSVrygEKZ58F5XacGwfW/z+kzj9osrp1W86UlHh/HzWcf8wsnwG7N5f0UiFuyI6WFUocTRNi/gx353vPG+W48XUt4lbfMsbusZ8A8V+ATgUAcnBP8AF/898Nba1brDIm0oAfDRy6++eq0RK7qrZ0Gk5EhXEsfJIJ30JgmAYYC/+2fEdnc/AfczAdg5rArRHoPgxWsyFi+AZR85blcy1O9rqefNu6+cNnnK37PusN29s4dbmbT7kuPwM7vbRh6W/DvjXgA3z1m8Rtmpexvv+9YoAfkzaRnjgzLgHyp0CcChDkwIMu4L4PIHA79V+67usPIVJQA+WP7qq3dEEyX/URq3OlUKdjJppFMeTYRmBtyPnkO8vns3u34lADtGXIZokTebqcXiCVh25zYn4xKo35dscFp23zB90uT/y6bfn195TH/OxVuci26vic7zkn9HngVwyZzFaxq9aGzD4gUjweXPuMXOFgEd8A8V+gTgUJ8lBMldMsNfAJf/TQmBfygBUMd8eeVrP44XFt9cFDG7vFVmJp1CJu3N/CfGDGTWvIjE5hVd/lo/EoDto65GLFHkSVvRWBx2JNrlr5NgqG9MNyb37Vhw/pTJ93f16xfNLJ8kuHhGCNn1zttZloFojJZTd2A1gAvmLF6zsatfuOHXC0dKV9wlLWMCt1goBvxD5VwCcKgDE4I0fxFc/GDggp+/rTusXEUJgIcefeLxY1JGwXUtVvH5ItF7zPQhVsxi3f/5plOtcDIZT2JjjCG14XUUftq1arfqBGD7mBsQi3Z7zDxIJBpFJNrt+XYAgLWtEby1eV9jqbtrdYG79y+lzs7FX7rsxqOuHqi9svxy1+EPS9n9ZbU0+HfJNgAz5ixe88bRPmnFeRP6RApi/+a0pGakWtNDyr50ghkbHIhVod1m2xaKcjkBOMS+1z7FpiffFrGS+O5oSeKFaGnBnWMW/3GV7rhyBSUAWXjkid+PSpkF17WYJdP22r1H7rF7xw48sXV4IoXpvZuy6iOVbIHreHOaKmMMyS2rUfTJU53+GpUJwI4TbkLU8maSmx2JIBpLZNXGXtfC77eWwjngxtCUHGVOfXOps/P9Qnfv0mK34VcXXXrd5v3/XjfrmDmZDP+FlN2/m7QsE9EYHczZRa0ALpuzeM2S/X+xYsrZfe1E9A6nNfOldFNycDqVOeiHahdEMWDOOTBCPLEy5ysAB+CtGbz//SVwnIOnfUSjtogVJ3ZHSxMvRUsSPxzzwJ+UTebNdZQAdMEjT/z+pKRZOLvFLDlvj9372H127w5vXc/u0YwTi7N7np9qbYHrepgE7FyLovef6NTnq0kATOw86SZEPJrjZlk2YomCrNpwJMMf6nugwTn64GBIgTKnvrXU2flB5L3fbmp57+kvZzX42yaiURr8u8kpb+r1t6Ld1phUU7L/oQP+4RSfMAg9K8f4EZsS+ZQAfHr339CwcVeHn3dAQrA8Uhz/4dhfP3nUyhD5F0oAjuLhPzxxZsoouLrZKp28x+47rNEq6/JIyCBxUb996B/t/gAupUQq2QLuejcBOtmwFcXvPdzh53mdAHDDxt6TboKV7Rr/dqZpIpYozHrS3LM7i7CmNdbpz09sWYHeS2+C7MIuhYeiwT97Bgf6fBhFpLXz2WT/S09DrLynwqjUyZcEYM/yNVjXzRv7aMQWsZJEQ7Qk8XLJ0J7/fuzPHqNlh0dACcABHv7DHyYmjcKrmq3SiQ1236HNVqknV+eEKfG1/g1ImFkMelKitbUZgntz4A9jDK37dqL4rcVH/TwvEwBuJrDvxBtgenRyoWGYiBdkP/i/0xjHy3s6f1GN7XgXfZdcBZnF78K2TURo8PeE6TD0/WcUVqZzrwMrHsHAG8+BEcKfvx2xUFSS2wkAb0ph9Q/+AtfN/joxpKQEkV6FaaOs4GOjKPpXI2HfP+TOB2ljonZ5nQA89If/Oz9pFs5sMksn7In0G9xiFit7ONgv6uCifvtgIIuft8dJAAAkW5tQ/Po9R/x3rxIAxy5B0wnXwJReDf4GYolCGEZ2zxHq0zb+tK0EEp0bPKJ7PkG/P14KmcUjGRr8vWenGPp+EIXhdu73WHT8APSaMU5xVN6LxiIoKMpurkvQrf3Js9hbv8eTtoaWlsI45AbB7JFIGz0LPjGKos/le0KQVwnAfb974trdVs+brGhhvwa7/8CkWejrTisnFCUxoaw5qzaklEi2NEFkUXo+VCqdRtGr/3vYf/MiAcjE+6JlzGUwPDqu2KvBv5UbeLy+DK28k3eOTVsw4ImLAKf7yzMN00A8TrP9VYg2G+jzURSsk2+Nfl89BfHhvdUG5bFEYRz/P3tvHibXVd95f8+5a+1dvbekVkuWtVjybrwCJrEBOzGLWUOIg0MITAgmM5nJNhm/bxLGyUwYIGFetmBCABvbYGywjddgY7wDsmVbkjftkiW1eu/a627n/aPVckvqpe5+b93zeR4/srrrnnNUdeue3/n+NjXlTdZMFBl/+BXsvf8Fz8ZbXVw664MW002hK72T5tT/oGnp31b+r+8mxmXQ1gbAt7/z9b4xdeW/HpKWv31Y6MoYRMJAWoEYYpGVd3SXsDbjrmUvYxZqlYr7RjlzaBomsk9+8aSfuzUAGtmVaGx4H4hHmz8hBKlMFpS6E2ssEPxkuIDhZmv/NmJqGLzlMqA+7XhOQghSaYkX+fGR1JSAnp0yWhHaBEnEwMcvhlSMz4m6oyvv2vCNKo0Dk3jlKz+DaXrzXCOEYFVHh+3raDGlCV2ZWYPgW+1sELSdAfDlm2555xF5+dcPSQOrJkmWzt5KaVFAv6qAhvzsFQnDB/on0SW72xAty0S9WvGkbO4smsWQefxLwBwfvRsDoFpYC33tb9lq57sYhBCoR5v7uOWJiSxeLLdeM2DZ/Z+AeOBXruZUUxIv7xsA+WERHQdau2elnIqBP7gYQtp2ra7AaWf5X5+u45V/uh+a5k22EwBQQjDkwAA4DkIg9ucmhd7c3TSn/O3Kf/zOPm9WFw3awgD41m23XrJfWP6dveKKNZNQT3rCFmQRPUp0vuAdkokP9k9Cpi5b/5omGjVvjQCdEaSf+BJgzXwRnRoApa6zwFa9DfBQpVDTGYiie/l8R1XBf4zlW359/pXb0fHY51zNKckCZJn7/YOi9xUFark1Y0vty6P/mgtAPKpJ4QeCKCDf4T7gNYowzcTL/3gv6hWPyp8fRaQUg4WCdwMKFOLywiGhO3MLzcj/sPIfvjPl3eDhEGsD4PPfv/OLu1PrrjtMO2VrgX9GUZbQpUTP57o6reHKnukWQ88WxjQNNGpVT40AAxTSE1+GaNYdGQATvRdBHLzAUxeFnfr+izGuCbhjuAijxdR9sTqM5bf9FpjpPAVTEChU7vcPFFEj6N+mgrYotGXX9KLnA2cDEdxgCSEoFHOg7ageMWDH5x9AadS5a20hJEHAinzrhr4diCwycUVhl9CV+ZehL978VV8mCYBYGgD/+5a7vrJd3fTpKZJe9BuRl0T0qtE5+Z/IRcUqzs277/xnGgbqNXfBhSeiERHiM/+KLCvZMgB2rngvenqHAI/y/AHn9f1PRLMIfjRcxNQSxX7mMviDK0GmDzqek/v9wyMzJqBrT+vf/8K5K9H5jtN8XJF9CCHI5jOQ2lQ92vv1RzG+a9FK245RBAHLfDIA5iIO5CfFFR3XD33x5q/5PpnHxMoA+Pwtd311W2rTH09i8Y0fADKigIGIR8sSAry7dxorVPf1/g1dQ8OrNsJH0YkI6fnvo2COtvT611Z9GH2dvZ6uQVZUyErrBXoWggF4YLSAPbXWN4Tup25AetsPXM3L/f7h0rNDRmqqdYOv67INyJ8/5OOKWkeURGRz6fY8+QM4fNuvcWjzbt/GV0URAzlvmoy1grisMC6u6PjvQ1+46cbAJnVJLAyAL9x699e3qhs/NdHCxg8AqkCxPK26lteDQKUWPjwwiazo/sTsaRvho5hEBH35J+io7V30da+d+jH0FwqeuiIkWYGiumvuM8tzpTSemWy9XHBqeDN67vlDwMW/h/v9w0fQCQa2tV4fAAB6rzoDmdOX+biqpUmlVaQy7g3fqDJy71Yc+Lm/6fdpSUJfNviiSeLywpi4vOMvh75w078HPrlNIm0AfOm2u775vHrGH00yteVvr0AIBjNqqKl+dumVdbyvfxqCi86Bs2jNJrSmt0aARQQYO/4DPaX5v7A71v0RerPePqxEUYKSSnsinb/ekHHPSKH1vdwysPKmtwDNquM5Z6R/OYou5cSRnhTQvdOeK7DrN9Yhf+Fqn1Y0P5RSKKoMWZXbWjU6dMezOPz0Tt/nycgyejPueoS4QVxWGBcHOz479H9uujW0RSxBJA2AH9/89fQz6rn7XxYGu+yubiClIBPhaN6F2Jit4ze6vPHja80GtKbzYjXzwYiA+u7HMTB5fCfO1077E/SlvH1YCaKElMvmPrNUDIofHi6iYbW+xp4nP4fU9ttdzasoIkQpfvdhu9K1R0ZmzN7n0XHuShTfvsHXwEBCCGRFgqzKkKQ2V4sYsPdbj2P81UOBTJeVZfSEaAAAAAQKZWP/bau+etvvhruQ+YmcAfCtW2/7w8dTF31rgsm2v3UFSURPhIP+luKyrjI2ZL3ZuJuNOnTNXcGhkyAU5f3PYsXokwCAXad/Ft2yt/ePIAhIpbOePHRNRvDj4QJGtNaDGKlRw+B33+wq6p/SmdM/JzpQc8YVILTYL2CW7No+dL/3TBCPT+SSLEJRZUhyMgJEmWFi55cfRsmjEr+tkFcUdKWjUTdBGuo8ICwrXDT0T98NxvppkUgZAH9359MPvUhXvUN3sCaZUgxm4uH3XwiBAO/vn0SP7E3Xv2a9Bl13H2A4F0Yopg69BNazCZ2idz0JAO+a+8zy6HgWL1XsxRD0/vwvoe6439W8PPAvmmRHRHTus5+OmVrWgd4Pn+e6eZAgClAUGbIqtW01v/kwq0289qWHUJv2Nkh5KQqqis6UNzFEXkALKV1e3/uxoS/cdFvYa5klEgbAZx6akEl95PX9Vr7H6WqWpRSkYyj9n0hONPHhgSko1H1QIGMMzUYNhu5ddS0A2KHlcIpS86yxDwAQQo+W+PXmwfhKRcUj4/YigKlWwuD3LgVzUbaY5/xHF8KAZS+qtlUAAFA60ui/5kLQjD1lh1ICWZGhqDKENng+2UUbLuG1rzyMZsPbg0grFFMpdKgRC6SMmEsgdAPgb+7fXRzR2OEjlvOcvbQoYFnEU/7ssDKl46qeKc9cj41aFYaL7nVz2aFlcdNwAV2SieuWjUFgHqgVhCCdzoIK3jwgRzURdw4XYdq8tfsfug7y3l+4mjuVlkHDrjfNWZDcERHF/c4MNEES0Pues6Au0UCIEHKcxJ9UJp/ahX13PedZbX+7dKZSKETNADhKVFwCoepQX7vjwdOPaHTMzeYPAN0RrPTnhv11CZtL3gWvKKk0BA821136zOYPAOO6gK8c6oZF3MmiM9HyGc82/6ZF8cBo3vbmL9ZGoOx7zNXcoiTwzT/iVHoMmJKzQ4+pmzh8x3MY/+lWWM2TDV9REpHJpdHRlT9avKe9nkutYtZ17Pr/HsHuOzeHtvkzxqB52Dbda/R9E4P6rtFX9//NH3SHuY7QDIB//+Ed7/mVtHHriCW7WkNeEiG3oT9t81Qa++reBJLNNNFxd8LerWXw3cPH19V+wwhwPu6MceJN9DNjwH+M5VE27K+n99G/dlfDgACynDyJN24wCpQG3KlWpe2HcOibj6NxYHKmvXNGRUdnHvmOLBRVTkRQ30JMb96H7Z+7G1P7Wise5gcMQNUwIHl0qPALc6SS1fdObN//Pz4emkwRys759R/df9YvUhfeNW66/4AKbZo6wwD8bCyPkoPNbD5mTtrOfOx79Cy+Mzx/V60xXcBXD/XAdGAEqClvmvvMsrmUwf66/fGk0j6IBze7mlsUhUQ/+OOEGxVgFr2m4fAtv8Lh7/8KMhXbtlpfq5g1DS/9nwew87ZnoOveBDE7gQGo6jpMxpCVo5+JY7w+1Wu8PrU1rPkDjwH4x3u2dO6yiqNuT/7ATOT/yjaulgUAXbKBD/RPQvRob2GWhXqtAqvFFr179TS+fbi45Ot6FQN/0j8G2mJgoKKmIXn4Bd1Xl3HfSKGVNvAnseyn10I89NzSL1wEHvkfL+y0DD4Rxhg0y0LTssAYg0Aphi7biFXvPgexTkNyyN4f/Rr7nngVpsVAAMiCAIXSUAziqmHAsCxQQnBmr7dlyf1EXt/79Oobf3RJ0PMGagD8yYMTkl6fqAwzb5KkuxQJxQT42dZnGri8u+zZeJZlodGCEbBXz+Dbh1vvp90nG/j0wNJGgFf1/WcpGQJuP1xE03LwwLEMDH37Ta4i/3nef/wgFrD8BdVWiWDzqF9ZW+B7I8kiTr36XAy8Zb1Xy4w0hx99Bbt+ugWaNv+JX6IUiiBACMAQMBlD3TBgHt3PZEHAxu5Q3eu2kTcN/Gj113/woSDnDPTIItYPH/Zq8weAnNie8v+JvFpVsa3s3YZJKYWazoKQhT/+A4a9zR8AjmgivnG4B2wRd4AkK55u/gYD7h/NO9v8AXS8fIurzR+Ykf858YJRoNrV2ueuWxYquo6Kri+4+QOArhl4+Ye/wlN//UOMb9nv1VIjx/gvd+Hpv/wBXr7z1wtu/sDx75veouJoFwagYZqoHJX9Z1Ei7v+fD2374Q/u/ezv/nOQcwamAHzh9gcffEw8451ezZY62vAnKVDC8L6+afQp3uX0m6aJevVkZWGM5fCV1wuwHN4bG7IEv9t9GOSEjVUUJagelfid5eGxHF6tOr8PBm9/F8jkPldrSGeSHfgVV5QyRd8r8ycgWYxBtyxoluX4e5DNpbH+9y5BYeOAm2VGhukt+/HqD3+JStVZtVJKCGRKIVEK6sH3RbcsNExz3s+nJ5XC8gBaAXuOQKGcvfy/rPrn7385iOkCMQBuuflbb/1x7rcfa3hoBPaqMvJtGgC4EFnBwocGJpESvHsjTdNAo1Y9FgE/xnK4b6ofuyt1xw++TlnCqRmCqwr7jxkBXtb3n2VbWcVjE87bfQqNKSy/6VJXHf944Z94s/x5FYJOYDEGgzGYlgWDMcf3/nyoKRkDF52KlVedBSFm3SFN3cT+Hz+H4c27UfewmA8lBCIhECiFSEhLBgEDYFgWdMuCYVmLxvsM5fMoRqgKoB1oXjXkjf3dQ5//3rTfcwVyNz6RueRnXm7+BEA2gbJrxaR4aCyPd/dOwat0c0EQoahpNOpVjLEs7pvq92TcCUPEfaVBXJXbD4ESzzf/I00JT0y6a/VZ3PJ1V5s/AN7wJ+ZM5jXIh4mj4NFWadQ17Pn5S9j76MvIdWYxePkm9L1lrY8zumf456/g9UdfRnmq6mmL71ksxqAxBhx1DRDMZCrR2T8JAWMM7OhrZ/9slUwMMgAWwio1RKvUuB3AO/2ey3cF4HO3//wnvxbXv9fLMbOigP42qvxnl3PyNVxcdN6qdj62lyT8YvINn79bBaDzaHGmbknDO7vL6JC9swDrJsXth4uomO5CWFbe/DagNuH4ekII0jZLw3KihThFkNkefPaGQCmKy4pY9Z5zkN8QDRfB9Jb92PfAVkwdmYLhk88+CAghOCtGGQDzQSSBKW8aPHfon773vJ/z+KoA/Pkdm5fvlta912vzOpsw6f9EtpTS6FMMnJL2ptvfc9MpPDPl7jS9EGO6jLtGiri6bwoFyX1lLosBD43lXW/+8uQOV5s/AIgiT/uLO0aBgYkACTh13bQsjL0+jrGv/QwCpUhlVeRWdKL73FXoPm/I8+6DJ8JMC2PP7MbY8/tRPjSJerUBM8ab/lykNigMx3STmIdLdwBY4+c8vu6khJmbdeZ9cJTK863x8FgOnctMdIjunlzPTafxzJS/PbOrJsVdRzrw3v4pFFx2EPzlVAYHG+597sUtX3c9hsANgPhDAL2LQT4SXhCnaVmolGqovFTD4ZdeB7n5CUiSiHRHGh2retF59iAyq3sgZZ2pnka5gcquEUy+cABTe8dQLdWg64avbo8waZfKsPreiVP2/ddrPj70pZv/3a85fHMBPPBvf3f2v3Z9covhsQEgEILV2XgGd3hNp2TiAwOTkIizz3BLKY2nJ+ff/L1yAcwlK1q4um8KeYdGwO6aggdGvYnsHbz1cpDyiPMBCJDJJNcN1U6IkwSZl+KxaVBCQAiBQAmoIECQBCgpGQBBs9aEaZiwTBOmxcA8DmaMC93pNFbknAcHRwmhJ1sxRyv59Y895ssH6dtd/1T+N+/1evMH2se684IJXcDPbba8neWFRTZ/v6gYM0qAk/LGU4aIh8e8+1LT6pir63nVv/bBzMdnk7SOZipoholGU0Ot2kBBJ+jQgXqtgUZTg2aYMF2kL8adDqV9DHNztJJVzlz2Nb/G9+Up9i+3P5B5STp1mR9jKwLPt57LzqqCzdNpW9e8UErhyYA3/1nKR40AOw17aibF/SN5eOVOUoefA3Pp7+QGQPvABMCKoahICcGajg4UFAV5RcGaYtGT/Po4I1Aaix4AdtB3jX1y35//vi9lDX15ik1C/VnTh9M/AChcATiJX01l8Mh4DtYS77nBCB6fyOJJl+lzbikbFHcOd2B/Y+kv6pgm4kfDRUzq3qXbZfc86HoMoQ3a/iqpDJRUOIZg1DCz8Toti5RibbF43GaXkSSs7eyEmOBnZEZqv5ocVlUTWEP/X36M7UsQ4A5x6EI/xgUAmZ+85uWVioopXcCFHTUMKDroCXEB++syfjGRQ9mIxvtXNSl+eqSA9dkm3lwsQSHsuGp6VZNid03BM1NZ6B4HJyvD7hr/AACJ8UO2f+hUXHzVR9DZtxwAMHHkIJ6+9zYM79sZ8srCw8wySKPxMOoUQVhwo0+JIk7r6sKOiQk0TPdZN3GjU23P6rDGkfKHAHzS63E9DwL85k3f+fQ92Xf64rMgAE7JpZPYcMsWImFYoepQBIZJjWLaEG3XyvcjCHAhKAEG5Bp6JB2ECNjfUDCu+2fJD33nQjCt5vj6ODf/GVi9Du/8vc9AlI/3kxpaEw99/6s4vOe1kFYWLuI0QWZb9I26nCxjTXHp7pwAsHtqCqWmN6nCcUAgBJt6etrWDaJeMPSOoS/c9DMvx/T8jj+grPp/vR5zFolSvvm3gMEI9tZlvFpRMKJJjhvlBIXFgIPNNJ6vFLClnPV186daydXmDwAkpvJ/KpvH5b/zn07a/AFAlBVc/jv/CalsDOune0AcXAA96XTLmz8AnNLRgd5Mclw8KVFs280fAKzp+t97PabnBsB+eWWf12POonD5n+OS7N6HXY8hxFT+f+vVH4OySElmJZ3BW6/+WEzvrK8AACAASURBVIArig5RDgQkhGAwn8dyB6lty7JZDOXziWhW1RnT2v+tYhwune/1mJ4+yb53y01nT0H17U6TY3ry4kQHaXKH6zFoDO/DDedfisF1py/5usF1p2PD+ZcGsKLoYaajpwIIhODUYhFdLja3YiqFdcUihDY2AgRCYtv8p1WsUkPa9xe//xYvx/TUABij+S9ZPn6H2vkG5gSDVHLfpz1uBkD38iFceOUHW379hVd+EN3Lh3xcUTSxIpY+nhJFnNbd7Ulke0qScFp3N9Jie5ZRz8pyItzDrK5/wsvxPDUADon9F3g53omI3ADguESoHHE9RpxiAPJdvbjimusgSq0HLYqSjCuuuQ75rng3VLELk6OhABAAvek01nd1eZrSJ1KKdV1d6Mtk2m6z7EtIrINVavyml+N5agAcFnp8/RTaIfeaEy604a4BUJxs0FQ2jys/9qdQM/Z9x2omhys/9qeJCgpkEUghlwUB67q6sMzHUrYD2SzWdXVBFtqjlXVakpBuw/z/+TBGKoNejueZAfDTG/92XQn+5mByBYDjFtqsuLo+LsFUxb7leNcn/hy5ovMCYrliN971iT9H8Wi9gHbHCjmzszOVwsbubqQCkOlTooiN3d3oSqVirwa0S93/VmA1je7/20+c7dV4nhkAR+Tln/FqrPkg4DEAHA8wGu6uj8E9uPbsi/GeT/2VJxJ+vqsX7/nUX2Ht2Rd7sLJow0IyAERKsaZYxMp88GrLYD6PNcVibKsHZhN0+j+GZl7m1VCemZpHlOXv9Gqs+eCbP8ctxNRc9wCI8m0oiBIuvup3sP48TwOFIUoyLn3/tegbWoOn7/0BTEP3dPyoYEnBxwDkFQWrCoVQ89ezsoxN3d3YOz2N6RgVDqKEYGWhEPYyAodpxpu8GsszA2Bc6Fnp1Vjzwf3/HLcQ0+XpHwCJqGCaK3bj8o98Cl0D/n0N15/3FnQvW4mHb/smypPuuilGESZhRmoMwA6ghGBlPo+OiJSuJYRgdUcHphoNHCiVYMagk2B/JtM2cQx2YE1jg1djeab7TIhFX5Mwuf+f4xbi8vQPRE8BoIKAdedcgqs//Te+bv6zdA2sxNWf/husO+cS0DZ8+LIAlPDc0RN3VDb/uXSoKjb29CAf8Y56GUlKVJXDuVg13bNAQM8UgBJJEz8tZ+4C4LiGedAcJSK3oaSo2PCmt2LTxZchk2+9PKwXyGoab33fx3Du5e/G9qcfwSubH4fedK+uRAIfP19FELAin0cu4purQAhOKRZR0TQcKJXQjFhTIYlSnGKjJHK7wSpNz/7xnhgAX73tjrM0xd8gIa4AcFwTA1lzKdK5AjZdfDk2vOmtkNVwK59l8kVccMUHcPbbfhuvbH4c259+GLXydKhrco0PCoBIKfozGXSn094P7iNZWcZp3d0Yq9UwXK3C8EBBc4tAKdZ2dib6QGhO1YXRB28Y6Lni+sNux/LEAJgSOj7txTiLwWMAOG4hCP8B5oR0roD+VWsxuO4MnHL6eaBCtKq5yWoKZ77lnTj94suwe9uzOPDaVgzv3RFLY4AR70QAgRB0pVIYyOWiIhw5ojudRlc6jcPlMsbr9dDiAwRCsLazM5F+/7mwhg5938RGANEwAKok7WsFQIArABz3EMsbKXPVhrOx/rxLAADV8hSmx45gfPggxg7thdZwJ4UTQtDRO4DOvhUYWL0O/avWotDlW38tT6GCiFPPuhCnnnUhAGB6/AiG9+7A4T2v4fDe11ArTbmeQxBFZAtdyHV2I1fsRrbQCQDYvXUzxocPuB7fCwVApBRdqRT6s9lYb/xzIQCW5XIYyOVwpFLBWL0eqCKgCAJO7eyEFNN0Ra8xh8vnA3Dd2cwTA6BCUp5WJ5qPJEs+HK9w/8A64+LfxFlvufzY3wvdvVi2et2cVxBYpgGt2UC9UkJlegqG3gQYwJh11AthASBQM1mkswWo6QwkRYUgiiCEgBCKbGf8y/AWuvpQ6Oo7lpZYr5RQq0yjXp5GrVxCrTyNemUa9UoJjDEQQmf+/XTmTyqIyBaKMxt9sRv5YjfSucK8kZhnvPkdeOB7/xeHdr/ias2MMDjVAFRRRG863dZd6QiA/mwW/dksJup1jNRqaBiGr/N1qCqGEpjutxhWpbnJi3E8MQDqVM16Mc5iiNwFwHGLB9LlaecvlWPPQAUBajoDNZ1BsXfA9ZztQiqbnykt3O/9eYFQik0XX+baALC794uUIifL6M1kAqngFyU6Uyl0plJoGAaOVKuoaBp0j1QBSgiysozl2SyUhL2vrcCq2hovxvHGAIDie1grVwA4rmkxC0BRU+gfOgW9g6uQyeahZjJIZbJQ0hlISsRaxnGOke/sxXs++edo1mto1qpo1qqoVcsYO7Qfowf3QmvUXc9BMCNHZ2QZXalU8qrQzYMqisdO6DVdx0S9joqmoWmathPDBEJQUFUMZLNc7l8Eq6Yt82IcTwyAJpGo3ymAfPvnuIYtfDop9vVjzaZzMLBqDbr6ly1Y8z/+eQTtCyGAms5CTWeBrjd+vv7ci8EYw9TIYRx5fQ/2vfoipkfn7wqpCiJAGQghEAiBQClkQUBKEJCSZaRFMdSqfVFnbmMexhiqhoG6pqFumtBME6ZlwWQMjDGIlEKkFBKlUEQRWUlCJuIpklHBqja7ln7V0nhiAGg+V8/gp3+OF5B5DIDlp6zFposuxfLVp4awIk5QEEJQ7FuGYt8ybDjvzRjevwuvPfsUhvfvOu51qwoFZFL8VO8FhBBkJQlZrpJ4jlVqepJT6toA+PKtd55jqRd5sZYF4f5/jifMMQAGhtbgwne8C8W+/hAXxAmL/pVr0L9yDaZHj2DLYw9g5PU9YS+Jw2kZVtPo3v/80eKqL98y6WYc10d3i9D3uR1jKbgCwPECwkwIoogL3nEVrvy9Tzja/Pmd2F4UevrwG+//GM659EpQUQT/hDlxgUjCeW7HcK0A1Il6odsxloLXAOB4Qb9cx3s/8VkUuuOfYsfxEEKw9pyL0D+0BqXvPgrsdnWo4nACgZnWmQB+5mYM1wpAnaZPcTvGUnAFgOOWFeIkPrryMN/8OQuS6+zBsk9fDWkVv0c4McCwXHcFdG0AVGm62+0YS8FjADhuWC5O4ZqOX0IW4lkKmBMcRJVQ/MxvQ1rZE/ZSOJxFYbq52u0Yrg2AGvG/wwVXADhO6RNLuKbjl1CIf9XKOO0FUWUUr7sK4nJPMq04HF9gmrHc7RjuDQCq+l6miccAcJwgEhMfzD8HlehhL4UTM0hKRsfHLwcReTEaTjRhDcO1+u767m5A8v0bwhUAjhPeltqBbqHi8aj8Xowq1PL2UST0dSBzpetAaw7HF1hdz7kdw/U3RoO/rRkpIeAhABy7rBcP4OL0Ds/HZZTXJY8qiun9WST19jMhbfK91xmHYxur2nRdl9zVN+a7N//72abPtVEFvvlzHPCb4hY0KxV4X7yXFwNOCgxAo1aF+q5zw14Kh3MSrGGQAzd8ylW3MVcGQFnIXu3m+lbg/n+OXQq0hrQ5DdPQ0ay5bwDDSSbNWg2mYcDKyqCdvjc85XBsw2ra+W6ud2UAVEnG9yJA3P/Pscvb5BePtf7Vmg0YWjPkFXHihqE1oTcbAGaa2qSuODvkFXE4J8M083Q317syAOpC2pOexIvBawBw7HIK23fc3+u1KizTmzRAfje2P5ZpoF6tHfczup73jOBED6ab69xc71IB8L8IEFcAOHZIkwaoecKJnwG1chmGpoWzKE5sMDQNtXIZJ8Z6mHSmPgCHEyWYZqxyc707A4CmM26ubwUeA8CxQw8tzftzxhjq1Qoa1eox9wCHcwzG0KhWUa9WwBa4P4SBjoAXxeEsDmsa4QUB1mjK95wogbsAODYo0sXz/nWtiWqpBNM0A1qRA/gtHyimaaJaKkFfIlZE6M4HtCIOpzVYw3BVrtLVBt6A7HsRIK4AhAMF4LRyfpg2W5FWgSX2dssyUS9NQ0qlIMsyCPW3lgUnmjDLhKZp0Ov1lpI7Sbfruiscjqewmu4qPcWVAdD0uQgQwGMAwkIRKAzD2SlZEUIsn8paM1sYAK1eh9aoQxAlyLIKQZb44bvNYQBMTYemNWAaur2yDi3eWxxOUFjVpqvAFMdP6h/d9LUzDZ9dqQTcAAgLhTrfxN1c65aypdq7gAGmrqNeLaM2PXks93shPzAnfjDGYBoGmrUaatOTqFfLMHWbmz8Aa6q29Is4nABhTYMc+NwnHZeqdKwATAgdvhcB4v7/8MiIAiY0+010UgIFDdFo220tx6UO7Q/LYtCaDWhH878JISACBSUUhAqgAoWc8j3uleMUQqA1G7BMC8wyYTELzLQ8M+bMHcOejMPheAlr6OcBOODkWsdHtTLNX+T02lbh/v/wUASKoizZuoYQoFd1XZ7aFRNWFkTwJjaVMQbLMGHoOvRmA80aPwFGGkrRrNWgNxswdB2WYXq2+QuUwhwvezIWh+MlbooBOTYAagEUAeLyf7h0KpItf36PIkOKgGpTIoWwl8BpM9gULynNiSZMM9c6vdaxAVAhmR6n17YKVwDChQBYkVbRsYQSIFGC5WkFeSkanfJetXj3No63GFsdKawcju+4KQbk2ACoChnfnaE8BiB8CIBuRTpqCIhQBQpCZko0Z0UB3YqEwXQKKSE6qXTPaBsBEp31cOINBUHzkW1hL4PDmRc3xYAcH9mqRBX97ozKFYDooAoUqhCPUqgaROwTV2FI3xX2UjhtANs5AqZ700uCw/EaN8WAHCsAdSi+53rxGACOU+6uXwwWE4OFE10oI6je+mTYy+BwFoTVNcfFgBxv4kEUAeIKAMcpOiget84LexmcmKM/+CLAT/+cCGNVnBcDcmQA3HHTV8/xuwgQwGMAOO7YrK/FlOhxw0peHygx0PEamk+9GvYyOJxFYZqJA//zk6ucXOvIABgVO30vAgRwBYDjnu81r0RN9DAtkARgAXAjI3RoVUf1aw+FvQwOpyVYTTvXyXWODIAKyV3o5Do7cP8/xwsMRvGt5rvQtDwKWWFB3JfcAggTS9NR/eJPeeAfJzYw3XJUDMjRU7EqZE5xcp0d+Omf4xWprbfh/n/7EnSt4XosRvzvc8D7EDjF/ftm6Boe+dGNOJgpebAeDicYmGasc3KdMwMggCJA3P/P8QL1wBMoPv15GLqOu7/9NYwc2DdTs9ghQRgAHIcYbrr1EYwPv46Hf/BN6IaBnd3TmEw3PVsah+MnTDOHnFznUAFIp51cZweuAHDcIk3uQvfDf3GsjSuzTDx2zw/xxL13wHLY2tVk3ACIKpaD5lUAAMbw3M/vwa8euhOWdfReIcBL/ZOoydwNwIk+rGn0O7nOoQKQ8r3mK48B4LiBNibR88BnQLXKSb8b3rsLd33zX/D6zldsj2sEkP4KcDeAE5wYAMP7d+LBW76GIwd2n/Q7g1rYOjAOXXCjLHA4/sMaeqeT6xxt5HXIvh+DRO4C4Lig+5H/DrF8cMHfm6aJZx66B+IjD+CMiy/Fqo1nQhDFJd3IBguoxDBjrlwVSYQ1dSC1+GsImfnsX9+xHa8+9yQMfXGjoSGZeKVvEmccclxsjcPxHaumOyoG5MgA0AI4BXEFgOOUzGt3QX29tepthqFjy+MPY8vjD6PY04u151yA/hWrIKvz7yRB3PsAYFkmBMrdDXawtIUNAF1rYPzwAeza+ixKEyO2xp1IN3EkV0Nf2XfPJ4fjCFZ1VgzItgFw283fuMjIvMfJXLbgMQAcJwi1MRSf/ryjaydHR/Crh3567O+F5WvB3vW/kZdMFFBBltaRNlV0BbAvM4vLznYxxqZBJnWw6RqsqRr0yWm8QPdgfGrY9dg7u0so1lTIJjfKONGDaSYO/N0frRn8u2/ZaoBi2wCYEDrfbfcaJ3AFgOOE4hM3gDa9SeHac+rvo8LWAdobP3t36jWsCmAPsCzT/0naDG3HQVSfOr5rX3e+gfFe92MbgoWdPdPYOFx0PxiH4wOsaZwLwJYBYPtRViXZC+xe4wQeA8CxS3r3Q0jvfdiTsZq9Z6Ky/uSCl+NGMDIw4waAbbTD4yf9rL+URr7hTVOo0WwdYxn3tSQ4HD9gmrHJ7jX2DQAhs9ruNXahhIBv/xw70OY0ik/+gzeDEYrJt/wPYJ67cGvNg+NkC3AFwD76PAYAAJw66l0p6B090zAod89wogfTTNvFgGwbABWa9ri7yslw/z/HLsWn/glCfcKTsSrr3gute+O8vyubMizqf5thy3CY055QjKkKrIY27+9yTQn9JW+UG000saubVwnkRA+mGSvtXuPABZDxXQPl/n+OHVL7H0dmxz2ejVc+4/cX/f00c9x+u2Us0+RuABvor48u+vsVUxnP5hrO1zCZ4lUCOdHCSTEg2wZAjaq+FwHi/n9OyzALxaf/ybPhmv3nQu9cu+hrDujBBIIZ+vwnWs7J1F/et+jvM5qEQt075WZXD1cBONGCNQzbxYBsGwB1yL7vzlwB4LRKZud9EKcXf/jbobzpI0u+Znu9z7P5FsPkBkDL1LbvWfI1y6a9UwGqso7RbN2z8Tgct1h1zbY0adsA0JxVD7YFjwHgtASzUHjuG54NZ6a7UV/9jiVft6PRCQTQFMg0uAHQClZDQ3PXwlUfZ+mpepvHv6+z7NlYHI5bWEWT7F5j69tw883/9hYzgBLlXAHgtEJm572env4rGz4ARpf2cDEADbJEzVkP4HEArVF/eR+YuXRkPmEEA56qAAZXATiRgekmDvzdJxb3X56ALQNgUigEUgRI5MW2OEvBLBSe+1dPh6yvuqzl1+7QHTXfsg2PA1ia+taTG/ksRFdV9XRurgJwooTVMM6183pbW22VZs63txxncAWAsxSZHT/19PRvqUVo3ae1/PoHp08NxA1gaDzafFEshvIz21t+ea4pQfTQDcBVAE6k0ExbxYDsGgCrbC3GITwGgLMozEJhyzc9HbKx4mLMV/hnIaqmhHE46sBpC0Nr8L4Ai1B7cSfMqZNbPi9Gsa54ugauAnCiAtNN/1wANZr2vScmwUwlQA5nIbw+/QNAfcUltq95tHqqp2tYCL1ZC2SeOFJ67AXb1xRr3hoAXAXgRAWmGUN2Xm9TAUj7HvnEawBwFsUH3z8wqwDYY1u1G6bgfzCg1uAGwHxYtQaqz75m+zqvFQAA2MtVAE4EYE3DVo6yPQWA+F8EiPv/OYuR2XEPxNJ+T8c0U10w085q/G/XVni6lvlglgVD401oTqT8+ItgumH7OlUXIFrexm/UuArAiQB2iwHZ+hYEUQSI+/85i5F/8Tuej2kUbKlmx/HQ9CkgVPBwNfPDVYDjYYaJyXuecnx9WvP+LHOgaC8WgcPxGqum2cpzbdkA2PalD5EgigAJ3AXAWQB5dDukiZ2ej2sUbPfQOEbVlDAK30NjYOoaLNP+abddKT36PIwJ5+V4U7r3BkBZ0VGVeRMnTniwSlMaffCGljfRlnf0X/a96zIrgCJAXAHgLETmtbt8GVcvrHJ1/Y8nN8JOBoFTmjV+wgQAZlqYvPsJV2OkNX9Um+E8dwNwwoMZFhpP7Vnf6utbNgAqNHeVsyXZg8cAcOaDmBoyO+/zZWwjP+jq+kNaFodYj0erWRhDa/D+AADKj70AY2za1Rh+KAAAcCRXAyMBnJQ4nAWwGvo5rb62ZQOgSjPnOVuOPbgCwJmP1L5HQZvuHvoLYSkF12PcPHFuS2WE3dKoJrsLnVVrYvz2n7sex+sgwFl0wcJ4mhdv4oSIbrVcDKjlb0GNpp1HStmAxwBw5iPz2k98G5sJtntonETdEvFYvfVKgk6xTCPRAYHjP3jYduGf+aDMv+fMcD65nw8nfJhmtFwMyIYCkPa/7Bm4AsA5GaE2itSBJ30b36uT+6OlIVSFDk/GWgytVklkdcDGroOY/tmznozlp0o/kW5AF5L3+XCiAdPNlqOa7SgA3nbRmAcCHgPAOZnMjnsA5uMDVZA9G+qWyXN8TwtkzEKznrCAQIth9Fv3AsybnZv4qAAwMhMLwOGEAWu0XgyodQOAFwHihETmVX+i/2dh1L0LYJZDzQxeNld7Nt5C6I0aTCM5AYETdzyK5r5hz8ajPsfpcTcAJyxYQ29ZrW/ZAKhD8n135v5/zonII1shTbXe7tUJXsQAzOWHYxtQE9wHFi5FvTwFZpm+zxM25Se3YeLHj3s6JvE5bbMqGygrvCYAJ3ismp5u9bUtGQDbvvQhojH/iwBx/z/nRLI+Bv8dw0MFAAAYgBtHzwcjPrsCLAv18pRnsngUaew8iJFv3u35uEFk6nEVgBMGrNp6MaCWdvUn+957ZRCPGO4C4MyFmE2kd97v+zxeugBmmTJV3FM5G34XCDINvW1TA43xEg5/8TZH9f6Xws8sgFlGcnVYvCYAJ2CYYaH+xO6Nrby2JQNAZMYlKWJC8Pk7wxUAzlxS+34BqvnfZc1rF8AsW2oDeKzZ0vfQFXqzDq1R9X2eILGaOg5/4VaY0/78u4J40hjUwniGN3HiBAQhoFkF4kAeRBXXtHJJS4F9b558kF44ci8AoCGkcUQZxJg8gHG5F1NSF6aFAqo0gxpR0SQSdEbgxO7lMQCcuUgT9lu9OoEYTcD7DrEAgJ+XVqPY2cQZgvc9DObSrJYhCBIEybuMhtBgDEe+ciea+474NoUZ0Mm8Khvwv0Ykp90hsgiaU47+p4LM+f9jf2Zl4I1DdEv+x1Yj+48VFlDNGoZqr2Ko9uqCL2agmFD6MCIvx5jcjwmpG9NiEWUhhypNo0FkaBBgnvAd5AoAZy5CbSyQeWizBDPjrB1wK9w5sQHFviZWWAd8mwOYCQpM5YsQRH8UjaAYv+1hVJ9d+PniBYbfaQBH0cT2D9LkuIAQ0Kx8/EaeU45u8OqxTZ/ItpPwWqpv3tKojDFbxdIJLHQ1D6OreXjR19VpGiPqIEaVAUxIveg1dFg0hapYQEUooCp2oCLkYZJ4P9A4zgjMAND896F/+8hZ+HgvMMj8MwIYs1AvTSCVK8ZWCSg99oKrNr+tYgRUqEfjBYESC1HEE07pc0/vKmhWOfHU7iUrWnlRa2YFQ7+rpSxAynpDTSCUIJVJzfu6Bk0fNQYKqIoFVIUCKmIBFaHjmLFQF7IIxrPHCYyAFCHa9N8AYAC+PXIWPtpFsJbu928exlArTyKVLUCUfa/d5SmTdz+J8R88EshcBuUbM8chdMbXvujmnlNAJH+zgJbAUwWg6G4tS0MWedirVg2qVkMXDi34GosIqAr5o8ZBxzEjYe7fp6UusNZLH3BCpr7qMqT2Per7PEEEGs5yy/iZ+GCRYpO4179JGEO9PAU1W4CkzG9URwnW1HHkm3ej8vT2wOYMygXQXY2XEZZ0iCyCFtSTNneSnbPRZ3w7tXuJdwoAYyzjbi1Ls5gB0AqUmcgZk8gZk8ACzbgaNIO96Y14rnAZxuVlrubj+E9t1WUoPv45EMv7NLC50GZwBgAA/GRiHXLqQawsGL7m8Dcq02CMQVZbrgsSOGajgYn7HkX1OX99/icShAuAMMINgJignL0cypnLIK7oiMPm3gotKQBLHodf/r8fERhjvpcBdmsAtIJqVbGh8mt86NA/Y211i+/zcdxhKQXUV13m+zxBxADMkjMm8KFD/4zsK/ehtnMrqM99A5rV0kydgAgWC9KrJZT2boOwvgP5j18I2hGcWhGEC6C7qkI0ueIYZYhIkX3fmchctQniYLFdNn8AWDb64A1L3nxLvoBQ4n8i88w8QUwDAJCYhitGvocubfEgRU74TFz699C61vs6BxN8ygGch7eP3oJubcaV1Rg/jMkXHgf1eXPWGzVUp8dhGtEpTdsYH0Z538tg5oy6I3RlkH336YHN73choGxTwvoR/ztDctyhXrIa8kZfQtzCRgKwZFOgVszTs92vZWmCUACOmw8W3jIRQJlZjissOYvR3/oGjNxy3+bQO1tun+2KlfVXsKKx47ifmfUqxn79M+ijB0Gof6dFyzRQmx6HFnYXQWahenAXasN7T1IlxJVFiCt9DzcCAGSa/mUWqbqAMw51QbDa5jTZltCMDPVi/xt3hciSboClnzgMmzxZyhIEbQAAwGD9NQiM5+lGHTPdjSPvvQmlM/8AlpzzfHwtIANgoLFnwd+V97yEqRceBzH9vR+btQpq0+OwfJ5nPvTyJKZ3bUNzanTB1wg92UDWktG892qKFsXgZBbnHOyGzKX/yCP05UDEtv6clgwEbOVb0FJJQbcE6QI4NicsFIxRTEhtKQG1FWa6B1MX/TdMn/dpZF/9CVL7fwF5dDtoc9rVuOUzfh9mpuX22a7oMBbe+ADArNcw/uwjyK46DUrfIJhPrgHT0FGbHoOcys4ECPpsfBu1MmpH9sOoLR1sSbPBuGNSuohl0xkcKrgrNSyZFLmmhK6qir5ymp/6Y0SQMSchsaQCsKQBwBhb6c1aFicMBQAAFLM+4y3hxAImpVE+/aMon/5RAIBYOgB5dBuUkW2QR7dBHnsJxGit/rrWvRFTF/6Zn8t1RGXvy6gf2oP8hvNA01kwy/uANcYYmrUytEZ1xhBQUp4bAmajhtqR/dArU62vSw9OmVgzlkdZ1Vpu2ytYBNmmhFxTRr4x86eqh5rrzXGDFb3AWI/xQAFgSwcSeEFYBoBGgwsA43iPkR+EkR9Ebc1vzfyAWZAmd0EZ2TpjEIxugzSx47hUQkspoHT2J1A+/aO+dAJcCI20nhJmag1MvvgkqKwgd8rpkDq6YflhCFgWmtUStHrFM0PA0hqojbwObdpBJUfN35TPuVBGcPbr3TjYUcX+jspxqYGEEWQ0EfmGjFxTQq4hIa1JvNRYG8G0tnf/eqAAgPkeyhqG/D+LTnmebltBKPTOtTOBfRveP/Mjswlpag8AAktUYaZ7wKTgc+M1B/eapTUx/cqzACHoOPc3IcoKLNP7TfINQ6AKJZWBqKRsG+XMMtGY7Lt25AAAGfRJREFUGkN9ngC/lsdoBvtQpoxgcDKLZdMZaIIJ82iBoLQmBtIymBMerBmcsRkSnrgAIl8EyA1cAWh/mKBA69oQ9jLc3WuMoV6ehsUAJZ2BkkofdQ14K2Myy5ypG1ArQ5RkiLIKUVYX/I4yxmBoDRjNOgxdg1WZdlVzgAWoAMxFsAhSlu/lTjgRIqx7LUCWdAEsGgK5+8ZrCbMCKAIUpgJgQ5blcNzgRAGYj2atitL4KCrTkzA0HSAUVBC9NaQZg6E10ahMozI5gnp5EnqzDsYYmGVCbzZQL0+hMjmCRmUahq7NXuhu2vaXZTkRIWi1KQSWLAa06Oaua/pp3q5nfigJJxXDIgJMwoN4OMFgJwZgARjmdLxiloV6tQxUZ6LrCaVQ01lIigJCKZhpeJBJQECpAMYY9EYdWr3iawphAk5lnIiQgHtNBNAPLNxEZ/HTPWvPIkCzaITL/5zg0F26mwgIAxZ2TDPLQr1SwtxaP6IsgwoiBEEAoQIoFUAFCkIoCCEghICxOcFvhIAxgMECs2b+s0wDCOiwlIBTGSciJCAGAJiJA3BmADCwtisDPBceAMgJEg9cALaP84amAdDm/R2hFNlCtMrVJuBUxokICXE3rQDwy4V+ubj2znCq16uZD54CyEkCrg2AGASlu3U4JOShzIkCpjXzX3uzaCbAogYAQ0BFgMJSALgLgBMgbmMA2r5sCbgCwAmWBLicnBsA7V8EiLsAOMHh/n5rn16l88EMKwnV2TgRIgEG56KpgIsrAIz53porzBoAboOyOBw7uL/f2rwyTfs/jDkRIwGBgK4UAN9bc4VZA4BnAXCCxHXMSSwOx26KALW9HMuJGFwBWIDdN15LGWO+F0rnCgAnKTBQGER2M0RbKwAJOI1xIkYC7rllow/esGCxmwUNANMwV/vVjnQuoSoAPAaAEzBO7zlCBXd9a4PCxSODKwCcoEnAPScAGFjolwsaAMxi5/iynBMIVQHgLgBOwDh2A0jKhLcriR4JkGM5ESMBCgCwiBtgYQOAsU3+rOWEBdBwygADXAHgBI9jBUCQmx4vJXJwA4ATNAm55xYMBFzYAABb689ajofHAHCShFPViQliLPz/xIVBn4CcbE7ESMg9Z18BAEMwRYDCbAXMXQCcgHGsOhFBjEUZADcGQDJOY5wIkZB7zoECwNiCgQNeEmorYK4AcALGqQHAQFJBBOW6hjrvrpmAgCxOxEhIDIB9AwBApw8LOY4wT/8AjwHgBI9jA4AhFgYAcWUAJOJhzIkQ3AWwAIyxti4CBPAsAE7wOL3nhEwu7fFSfIEIkuOKxVwB4ARNQoxOewrA7huvFZjFXFUsaYXwFQBuAHCCxZECQCmkfMH50TpIKIWQKTi6NCFyLCdCJOSe61+oGJA43w8ZYysCKQIUsgGgcxcAJ2BaNgAIgZjvgpDvAtI5Zlnx6QNAsx0gkgKrWQPTGmCG3tqFXAHgBExCFAABwDIAB078xbwGgGVaZ/q9IiB8FwDPAuAEzYKqEyFQ8wJY4VQQJQ2LUDDGYAFAjDb/WYiSgqCkZv5imbC0BpjWANEmYBrzVxhPyMOYEyESEgMAzMQBtGYAMIud7vtyEK4CYBIBFomHqsppHzRyVAEgBGpeRCpnQpbKENkYAIYR6ayZ38cg4K9lqACqZgA1g/TI7WCCClPog4EuGFYHTGPG28hjADhBkyCjcxDA0yf+cCEXwDrfl4OQUwAJl/85wSHAwpnii7gg9yj6sjWIbAzEasz80pr5g7lrFBQbiFWFaO2GiN0AACakYQp9EN6RRWUzUH9pOiadDzlxJyExAMACgYDzGwBgq3xdylEoCbMMMJf/Of4hEhNnCc/jDPIsVlgvIWvsBdHavpqvI4hVg2jtQXYQyA4C7P0q9HoRzUMiqlsbqG+bbi9FhBMdLAZmWCBieHtRQMybCjivAQC2cPcgLwm3CBBXADjeoZAmzqGbcRp5ESvYy8gY+0BMLexlxRLCGpDVw5BPAXKnAOxqBUajE41DEmrbG6htnQZMbhBwvIE1DRCx7dU3GwoAY13+riX8DACuAHDcoJI6LjXvxvrmo8g390ARdSjptn+IhAJhTUjKMKTVQG41wN4tw2h2onlYQu2lJqrPlwDTCnuZnLiiGUCm7b+7rSsAjLG8v2sJ3wDgRYA4dkijireZP8Za7THkGruBZgkMgJxSoWZTIDR+D5DYpRYchTANknwE0hCQHQLYb0swtCKawzJqL2mobZkCM7hCwGmNhGQCtKYA7L7xWomxAIoAhZ0CyF0AnEVheJPxEC7Q7kKx8SqglTFbG2N241cyaVDBO98hYcGeYqkQcBYMM2f+8xjCdEjSCKTZGIIrZei1LtR2UJSfKsEY47EXnIVJSCZA/+iDN4g9V1x/3D92PgVgWSKKAHEFgHMCEnRcbvwAmxr3Qa3tATNnvitzvw0zG3/Kp83TACEEQdX8d9O619F8VjmYeZgGOTUM+Uyg40wC0+pE/VAalWfrqG+dDmQNnPiQkEwAipliQPvn/vAkA8AyrQ1BpOCErwBwA4Azw0bzl7iq9gXItQNg1swJ9cSvACEEqUIOkuKvOEYICyzgXZSCdVtQsxLofDMwCHQc2RXjyK4ArKuzqO4pYuIn47AqLVYo5LQ1Cao/MYglDQDLOiOIlYSuAHADIPGcYz2Gd5a/CKF2CMDCqedUFJAp5EFF/yVzQhiC8M4TSiFK81fk823OUAyA46GsgtyqCrJ/pqJ2sB8TP56AMcmzNZJMQhQAYJ5AwJMMAMbY+iBWErYBoPFCQInlQvM/cFnlyyC1I0u+VlJkpAq5wO5XAU2Y8P/eVNMZ3+c4kaBcAK1AWAOZZQeQvk5CfbQPEz8pQR+uh70sTggkJAYAmCcQ8OQYAIZVQawkbBcAVwCSx1r2Aj40/VdAfbyl16vZDJRMyudVHY/ExqFhua9zyKoa+OkfiIYCcCKE6Uh3v470JwU0pvox8r1JmNPcNZAkkqwAnBQFxBjz9+lzlNAVAJ4FkCjeb3wFHx75lI3NPx345g8AsnFSvw5PEUQJSirt6xwLQY3JUOZtCWZCLRzEij+lyF3SGfZqOAGSsBiA45gvDLjb71UQQkI3APSE1F1POjIa+K+Va7Bh9LtgVmtpdpKqQMmEs0nKxj7fvhtKKoV0LufL2EtBzAqoPhzK3HagrILuy0bQ/8d9QPuXh+UgUQrA0gZAEooAAVwBSALr2Rb8xfiVUMuvtnyNIIlI5bM+rmopLEjUu7x1QggkWUYmX4CsBq9ozCI2XkN8OvwwpLpfx4r/VgRNz18tndM+JCgGYHEXwO4br5WZxXx3joft/wd4DEC7s8F6Dh8c+TSYVm35GkIp0h350A3UtLnd9RiiJEHNZJEpdEDNZIMv+nMCQqN1IywqSNIwVvyXDMRu/qxoZxKkAPSNPnjDccE/JyoAy5NQBAjgWQDtzADbhw+Mf/ZYTn+rZDryoAEXx5kPRXsFomj/OyKIItR0BtmOIlLZHCRZjsR3jRqjoMZE2MtwhEDHsPyPRYid3AhoVxJSChh4oxjQcT84BmPslKQYAFwBaE+ymMQfTlwLZtjL7ZZUBYIUHbk3hdaCAakgQEmlkS10IJ3LQ1KUSHy/5iLW43f6nwvFFPo/VQQJoA4EJ3gS5AIATogDOM4AsMyAigBFwAXAKwG2HwIM/OnkR2zJ/rOo2XCC/hYi1di8oGxPqQBZTSGTLxz17auBl/VtGaZDaLwW9ipcI4kH0PPJU8JeBscHEuQCABYzABhj64JYQRROKLwXQPvxZ+VrgIZ9qVlOq6H7yE+EWHWkcPCNv1MKWVGRzuWRKRSgpPzqR+AtUu15EKs9Cuxkul9F/kpuBLQbCUoDBE4IBDzJBRDECsJWAEwiwiLRf3hyWudS8y7IlV22ryOEQA0p5W8psvXHochAOpdDttABJZ2GIEbHTbEUxKpBqm4JexnewUwULzgCsTf4Kooc/+AugFnYyWkCfhC2AsDl//bjrVP/7Og6OR1h+RwG8s1HIYjBV+3zArn0C4C1V1U9ak2h79ow00Q5nmMxMCPYVtwhsqgC0BPECsI2AHSeAdBWXKP9oyO/PzBTFjfKUP0wxLr7tMCgEevbITR3h70MX5CV15H/ja6wl8HxkATFASwaA1Dwe/aw5X+AKwDtRB5TWDV1j6NrqSgE0uHPLXL5cVDtUNjLaBlqjEEuPxH2Mnwlf35cihpxWiFBboD5FYDdN16rMuZ/ESBKwpdbdV4FsG34eO0vYJnOvrySEhNDkJlQpu6LRS49MStQpu4FWHs/UCVlBPJgNGNHOPZJkALQN/rgDcfq4M/djVcEUgMgCgoAzwBoCwgsZCtbHV8vqfHpB0FYE8rUPZHsqDcLsWqRX6N3MBSvDKevAscHkpMJQIA32o3ONQAGmcWLAHHiw9vNH4KZzr64VBBiFVEPzJ6u7wYxy2Ev5SSIVYUy+ZNYqBRekeofB5HCVzQ57kmQAgDMcQMcu3st0zotiJmjoABwA6A9OLPhzPcPAKISn9P/XKgxCXXihxCa+8JeyjGoMQp14kfRbvfrA4TVUXg7DwZsBxJmABwLBDxmADDGgjEAIqAA8D4A7UGqtsfxtXE7/c+FWA0oUz+FVPklwu6wJ9ZfgjpxZ0Jk/5PJndVeaY5JJUFBgMAcBeDYUzApRYAAngXQDrzZug+W4fzhK0jRj/5fCqm6GVQ/Aq1wORgNtjgNsaqQS49CaO4NdN6oIUoTIJIIpicmj7wtSVBDIGABBWBw/td6SxQUAO4CiD/nN+5wfjEhsVYA5iJoB6COfR9SdXMwkffMgFTdjNTY9xO/+QMAmAl1Aw8GjDsJUwCO7fVzFYBe36cl0TAAuAsg/mSa+x2L30IMcv/tQJgOqfJLiLWtMNJnwkhtAvM41ZVYDYj1bRBrW0Gsmqdjx53UWgV158konAiQsBiAk10AYOjwe9Yo1AAAuALQDhCj6sIAaI/T/4kQqwap8gyk6q9hKqtgKKfCUlaCEWcBj4RpoM39EBs7IWh7AZYombRllIGwV8BxS8IaAh2vAOy+8dp0EEWAouD/BwCNFwKKNQIMd/7/NlMAToKZEBq7IDR2AaCwpB5YUj8ssRtMyMESMgDNgB31ABKYIGYNxKqCmCVQYxxUHwbVRwFw3/ZSSPlG2EvguCRhCkDP6IM3KD1XXN+cPQqtSEoNAADQHZ6IONFgPXve1fUkBm10vcMC1Y+A6kfCXkjbIojTAKVAAM9Qjj8kLAZgthjQ7llNfjApVQABXgo47pxivuDqeipEwxXFaROYgdRa3iEwziRMAQCOxgFQAGCMrQnEAIiIAsDTAONNn7HD1fWUJkkB4ASBPMQPFXEmYTEAwNE4AAoAlmVtDGLGyBgAPAsg1hSMg46vJYRERonitA9SJ1eV4kwCFYA3DABmsTVBzBiVBy/PAog3ijHu+FrC5X+ODwi+N1Ln+EnCYgCAuS4AMARSBCgyaYC8G2CsoYbzZjiURuMe5LQXYiZxEnJbkbBKgMBxCgBjfX7PRgiZiT0MGZNIsCJiiHAcYjQdX8oDADl+QBXeEyDWMAamJ8oIOC4IsOj3bJHx/3P5P9YsY7vgJmCVcAWA4wNU5LUA4k7C4gBmFIDdN16bSlQRIC7/x5pTrG2urucGAMcPKKtFQuHkOCdhmQA9ow/eoFAAy5KUAshrAMSbfst5C2CAxwBw/MKC1MufLXEmYQoAAKygAJYHUgUwKgoAdwHEmk7jgKvruQLA8Qt5GTcA4kwCMwEGKYKqAhgVBYDXAIg1GXPE1fVRMUQ57YfY255NppJCAjMBVlDLtDYEMVNUHrxcAYg3ijnl6nruAuD4hdTJK0zGmiQqAIwFVAQoKgoANwBijWBWXF3PXQAcv+DFgOJNImMAGGNDQcxEIhIiy4sAxRwXNQD45s/xEzGdOAm5rUhkDABjrD+QqaKx/0PjWQCxhcACM50XXOHyP8dPeDGgeJPAGIA+yhjrDGKmqLgAeAxAfBlku1xdH5U4FE57wosBxZsEKgAZyiz/iwBF5fQPcBdAnBmyXnJ1PXcBcPyEshrAjczYksAYgDRljEl+zxIV/z/AXQBxZsBypwBwFwDHXyxIffz5ElcSVgkQOGoA+J67EhX5H+BZAHGmaB50db0XrYAZYzANA0ZTQxAFtDiLwywLhqbDNAxXPSK8Ql7Gny9xJYkKgMgY8393js7+z10AMSZjuCsC5EYBMHQDjXIFpm4CeGOjoYIAUZGhZtORMnTbGcYYGtUajIYGy5x7aiMQJAGpXAaC5LuwOS9iTzjzctyTwBiAtIjwjeZA4UGA8UV2WQTISQwAYwyNchVaff4AL8s0odXqMJoa0h05CCKvBucnpmGgNlU+YeOfhcHUDVQmpiGnVKi5TOBGmdTJ3UxxJYEKQJMSQnx3fERBmpuFNwOKL4LhrggQdeACWGzzn4tlmqhOTC+wMXG8wM57rNUbaJSrAazqeEReDCi2JDAGYIISQvxPXo3O/s/bAccZ012alV0FQG82W9r8Z2GMoVZyZ6RwFqZWqtg6TGj1BvSm88JRThB4MaDYkkAFYJKCwPfk1SgpANwFEE9migA5/4ISSmzLwY1yzfY8pqZDb2i2r+Msjt7QYGr2zypOPkM3CAr/7ONKMhUAkHIQM0XFCOBZAPFkJXvN1fWU2kt2YZblWM43Nb4JeI3T99QyTTDL8ng1C0MFXgwotjCWNCPgCAXF1iBmioIBYBAJDDxIJ44MWa+4ut6u/G84OG3OYvI4AM9x8566+SztQlidFwOKMQnLBHiWEkLuC2ImywzOCl8IHgAYX/rN3a6utxsAaLpwN8ykCnK8xM17GmxgpgVpgD9n4krC4gCepgTkB0HMFAUDgPv/40vRet3V9bZTAF0JVuGrXe2H8/c0aPVRHuDPmbiSIBeAAeBZuv66W8Yopb5HyphG+G8szwCIL66LANlUAFztGbwgkPe4eU8DtsckXgwotiRIAXix54rraxQACCXb/Z6NMRZ66VTuAogvissiQLarALqwAKLU+6JdcPOesoAtAJEXA4otCYoBeATATEQcpfTvg5gx7OAo7gKIL9RwV9TFdh8ANxIA3/+9x817GvC5Q8xzF1BcSZAC8G3gqAGw/rpb7qWU+p4OaOjhvrm8D0B8IS6LANlVANycGgmPAvccN+9p0DEAvBhQfGHNRHx2T/Vccf3LAN7IiaMC/aHfs1qmFaoKwGsAxBMCC5bl4r4hxHYQIBcAooWr9zRoA0AJLu2Q4zHJcAHcOPs/x56KhJC/JoT4/k0xQnyDNcJjAOLIEF5z9RB31AXQxXyMmwCe4+Y9DVqQ58WA4ksCXAAlAMcO+8eejOuvu2WMCvRpv2c3DTO0lECuAMSTIfMlV9c7aQLkBt4W2HvcvKdBuwAIqwECvwfiSALSAL/Sc8X1x7L+jnsyUkrfTQjx3QTSA6zMNRceBBhP3BYBctoG2PF83ADwHDfvqf+65okwyMtSQU/K8YA2VwD2ALhh7g+OezKuv+6WCUEUPuf3KkzDDKUugMbTAGNJ0Tro6npnLgAXE/L933tclQEIPipf6ueHjTjS5mmAn+m54vr63B+c9GTc8Nlb/ycVqLuyay2gNbTA6wLwLIB4kjFGXV1vOwUQLhUAx1dyFsJVFmAIfUikXjHwOTnuaWMF4Ec9V1x//4k/nPfJKAjCe/wOCGSModkItlc3VwDiiRx0ESBwF0DUcPWehmAAiEVeDCiOtGkMwBSA/zzfL+a9S9dfd8sWQRL+xO+jjGVa0JvBxQPoRA5sLo53UKPi7noHCgBxU3ueGwCe4+Y9DaMRKS8GFE/aUAGoAnhXzxXXH5rvlws+GTdcd+s3REn8K9+WdRRd0wMrEMRLAccTYrpTiggVbF/jqg4ANwA8J24KAC8GFE/aLAagCeDqniuuf3KhFyx6NNpw3a2fFyXxhsVe4wVaQwtECeBZAPGDwoRluftSOlEA3MUAcAPAa+L2ngqyFvYSOA5oo0qAOoAP9Vxx/c8We9GST8YNn731/xEl8V88W9YC6JoOreHvl4YrAPFjFV5xFZHvJAXQdemYeO1V8cCVABC8AsCLAcWTNlEADADX9Fxx/T1LvbClp+OGz976Z6IsfoRSWv//2zt7FqmBMI7/spNdFRXluMCh4JXxC4idnW7hN1ius80HOI709wW2td3TVrAQWysLsXS1EnwpRVhvk92ZPFfcKcHmkpnkbgfmB8MSyGyGIS/P2/zn/LPt0WtNuSx7e2DDdsD+cc98cupv5/27fcFDBqB7XOf04sWAlkRxKAT0Ec+NgA/Ag2ScN5L2b3yH3s+OXqpYbalYvbUeWgOMNhR/il7qAoISoH/sVG4iQBe9AgAIFkAfOFsA3QyjzQVHd0PE0Uc8TQMUwD7wMBnnH5t2arVYNc1mBfBkPp08NdocVVV1s+UgGyEirIoVeqUZXh2iVPsirv9ZR6Og0e4ht42bCJBNCiBy9hbDfdY9rnMqHfxHO+KdK5Rfj88/MbBRnEYAvHIW3wHPknH+uW1HqxhVms1eq1htxcP4QMXqS1+aAVVVUR6XlMvSeRfB4P37yXXjJgJklQJwdBfDKoDucZ3Ty1gKOEqCGJCPeLIU8BfwHHgMPLL5+EPLCECdNJtp4BA4nE8nN0RkXyrZM5XZ7Trc9lc6OIoiVKxOm1KtDPpgAPjJSP926m+3D4DTJUMGoAd8qwGAIAbkKxssBrQAXgEvgDfJOHeumu/ERE2z2QLIgXw+nWwLsoeQCrKLcEdEthFuicg1EbGO54sIeq3/1QeoWBENIqKo1mrH9a5nWwGHV7NnDMzCyZ4c2KSPggWwebhbAN2MowUqiAF5ySVGADTwE/heaz/Ofr8B7+s7+XXBCfsxSNnHZyZKAAAAAElFTkSuQmCC;base64,iVBORw0KGgoAAAANSUhEUgAAAgAAAAIACAYAAAD0eNT6AAAABHNCSVQICAgIfAhkiAAAAAlwSFlzAAALEwAACxMBAJqcGAAAABl0RVh0U29mdHdhcmUAd3d3Lmlua3NjYXBlLm9yZ5vuPBoAACAASURBVHic7d15uF1lfff/z9prz2fOTAIEiMxTQFSwB5ywUpGq1YgVhCQYUuujvydtU0NiS2tbml6xTZ+22toitSBgRXGACqg4YByoqMyTJEAYM+dMe1h7rXX//tggEDOcYa91r73X+3Vdubwsh/391pxz7s+6p+UYYwSg/S1dvmaaMeaNYRi+PjTmJBOamUamLKOyMaZojMkbY/KhMVljTMYYk5GMHCdjHEeh4zi+I8d3HMeTo7rjOLWMkxnKuJnnMo7zgKS7wjC84+rP/d2ztv9/BTB1DgEAaC9LLl19nDHmnWEYnhqG5qggDOcFQdAXBEE26tqO46hQyFdLxeLGrnLpp5lM5n5Jj0q6e/26Vc9FXR9A6xAAgIRbunzN/CAIlwdB8PaG7x/t+34xrtrZbFaFfF6FfE75Ql75XG5/X/6wpO++8Of769et2hFLkwAmhQAAJMzS5WtmhWF4qR8E5/m+f3yj4XfFVfuFJ3yVS0WVikW5rjvZjzKS7tVLgeCO9etWDbeqTwBTRwAAEmDp8jXlIAj/rOE3LvK8xtw4fy4dx1GpWFSpVFSpWFAmk4mijC/pNklXS/rG+nWralEUATB+BADAosXLLlvi+8GKuuedEIahE2ftcqmorq6yioWCHCfW0kOSviTp6vXrVm2IszCAlxAAgJgtuXT16/wg+CvPa7zB9/18nLVd11V3V1ndXeWpTO+30iZJ16gZBjbZbgZIEwIAEJPFy1Z/0Gt4a+t1b27ctYuFgrq7yyqXSnGXnohbJP3N+nWrfmS7ESANCABAxBYvu+wjntf4i7rnzYi7dldXWb3d3crlIj8h2Eo/UDMIfNt2I0AnIwAAEVm87LJP1OveSq/R6I27drlUUl9fj3LZthr49/QzSX+j5qZBflEBLUYAAFrs4g9dtrbu1T/aaPjluGsXiwX19/Ue6Lx+u7lf0hWS/nv9ulWh7WaATkEAAFpkyaWrz6vV61d7XqM/7tqFfF79fb0qFGLdUxi3OyV9eP26Vb+03QjQCQgAwBQtXb5mRqPRuKlaq58e98+Tm8looL9P5XKiN/e1UiDp05L+jIuFgKkhAABTcPGHLvvraq328Tju4d9TV1dZA329UV3ck3TPSfqj9etWfdF2I0C7IgAAk7Dk0tWvr9e9G+ueNzvu2tlsVtMG+lQsFOIunUTfkfSR9etWPWq7EaDdEACACbroko/fWKnW3m3jZ6e3p1t9vT1x39yXdHVJn5S0lk2CwPgRAIBxWnLpmgV1r76hXvfmxF07m3U1Y9o05fMdtbu/1b4j6cL161Ztsd0I0A5SuXgITNTiZZctH6tUHrYx+JdKRc2ZNZPB/8DOlnTPipVr32K7EaAdMAMA7MfS5WsyDd+/uVKp/o6N+v19vert6bZRup2Fat4b8Bfr160KbDcDJBUBANiHJZeuPqZe935o4wpf13U1Y9pAp5/rj9odkj6wft2qZ2w3AiQRSwDAXixedtmHxiqV+20M/sVCQXNmzWTwn7qzJN29YuXaN9tuBEgiAgCwh4uXXXb56FjlP4IgjP19uV3lkmbNnC7X5UezRWZIumXFyrXvs90IkDQsAQAvc/GHVv3b6FhluY3avT3d6u+L/b1BaRFK+tj6das+bbsRICkIAMALLrrk418fq1R/10ZtNvvF5pPr16263HYTQBIQAABJFy79059Wq7XX2ag9fdqAutJzl38S/JuatwdyaRBSjQCAVFu6fE2x7nn31Wr1V8Vd23EczZg+TaUiV/pa8GU1Lw2q224EsIUAgNRaunxNvlavP16ve3Pjru04jmbOmMZ9/nZ9W9J5hACkFVuNkVp1z7vPxuAvSTOmDTD42/dWSV9YsXItvweRSnzjI5U+uPRPf1Kr1Y+yUXv6tH6VSkUbpfGb3ivpX2w3AdhAAEDqXHTJx79aqdZOt1F7oL9PXeWyjdLYtw+vWLn2L2w3AcSNAIBUufhDqz4zVqm+y0btvt4e9XR32SiNA7t8xcq1f2i7CSBOBACkxuJll31irFL9sI3a3d1d6uvtsVEa4/fPK1auXWS7CSAunAJAKixedtmS0bHKVTa+3wuFvGbPjP2VApgcT9I569et+p7tRoCoEQDQ8ZZcumbBWKXySBAEsd/t77qu5syayd3+7WWbpIXr16161nYjQJT4rYSOV6/Xf2Rj8G9e9DPA4N9+Zkq6fsXKtbF/zwBx4jcTOtpFl3z8a3XPm22jdn9frwp5Xunbps6S9Je2mwCixBIAOtbiZZddPDpW+byN7/GucknTpw3EXhctFaq5H+DbthsBokAAQEdaunzNIaNjlU1BEGTjrp3LZTVn1kw5jhN3abTeVjX3AzxnuxGg1VgCQEeq1es/tjH4S823+zH4d4xZkq5jPwA6EQEAHeeiS1ZdV697B9uo3dvTrXwuZ6M0ovNGSZ+w3QTQaiwBoKMsuXT1wtHRsV+ExsT+CJ7NZnXQbKb+O1RD0snr1616yHYjQKswA4CO4nmNr9kY/CVp+kA/g3/nykn6tO0mgFYiAKBjLF522R/X6vX5Nmp3d3epUODIX4d704qVaz9guwmgVVgCQEdYunxN91ilusP3/dhH4azras6cWcrw9J8Gz0s6ev26VcO2GwGmihkAdISG73/FxuAvNV/xy+CfGnMk/ZXtJoBWYAYAbW/JpatfPzI69iMrL/rJ5zV7Fi/6SZlA0mnr162623YjwFQwA4C2V/e8r9gKsv19vVbqwipX0mdWrFzLtA/aGgEAbW3xsss+Wq97c2zULhULbPxLrzMkvdd2E8BUEADQ1upe43Jbtft4+k+71bYbAKaCAIC2tXjZZUs8z5tuo3ZXucSNf1i4YuXac203AUwWAQBty/Maf2ujruM46uvtsVEaybPGdgPAZBEA0JYWX7p6Ud3zZtuoXS6XlM1aec8QkueMFSvXvsl2E8BkEADQlhpe4+9t1e7p7rJVGsnELADaEgEAbWfJpavfXqvXD7FRu1DIs/aPPb1lxcq1r7PdBDBRBAC0Ha/R+CdbtXn6xz4wC4C2QwBAW1ly6ZoF9bq3wEZt13VVLpVslEbyvWPFyrWH2m4CmAgCANpKEAR/bevWv+6uspW6aAuOpAttNwFMBAEAbcVrNKycu3YcR91M/2P/LrLdADARBAC0jSWXrn5Lo9GwcgC/VCrKzfDjgv06ms2AaCf8RkPb8P3gz2zVZu0f48QsANoGAQBtw/O819uo6ziOSsWCjdJoP+evWLmWN0ShLRAA0BYWL7tsuR8EVg7gl4oFOQ5vfsW4TJfE+wHQFggAaAu+73/MVu0S0/+YGJYB0BYcW0eqgPFaunxNZmR0rBGGYeyB1XEczTtojjIZZgAwbp6kgfXrVlVsNwLsDzMASDxjzO/ZGPwlqVgoMPhjovKSBm03ARwIAQCJFwTBBbZql0tFW6XR3t5suwHgQAgASDzfD86wVbvI7n9MDgEAiUcAQKItXb4m3/Abs2zUdl1XruvaKI32d+qKlWv7bDcB7A8BAIkWhuHvh6GxsghfKHCcG5PmSjrLdhPA/hAAkGhBGJ5vq3YhTwDAlLAMgEQjACDRfD94ra3azABgiggASDQCABJr6fI15UajMd1GbcdxlM9ZuXgQnePEFSvXzrDdBLAvBAAkljHmrbYuqmL6Hy3gSDrJdhPAvhAAkFhhaH7LVu080/9ojaNsNwDsCwEAiRWa8GRbtXPZrK3S6CxH224A2BcCABIrDMMFtmpns5z/R0swA4DEIgAgsYIgnG2rNjMAaBFmAJBYBAAkVhAEXTbqZhxHmQw/GmiJw1asXMuGEiQSjzlIpCWXrj4hDEMrNwBmefofl4O6MzpyWlaH9rqqB0bPj4a6f5uvXbXQdmtJ4kpaIOkh240Ae+I3HRLJGPMmW7VZ/9+/jCOdfXhBb5yf154J7ezD87p1Y10/faYhOwc4E+koEQCQQMxzIpFCY15jqzYzAPuWzUiLTyrpTXsZ/CUp7zr63aOKev/xJblW5m8SiY2ASCQCABLJGGNtAyAzAHuXcaQPHF/SkdMOHJBOmpXVhSeWlOU3jCRxGyASiR9PJJMxPbZKswHwNzmSFh1b1LEzxj87csz0rBafVFaeqQBr38vA/vCbDolkjKycAJCa7wHAK73zqKIWzp74uxEWDLhaenJJxWyq/zclACCRCABIJCNjLQBkHH4sXu6cBQW9bt7kX4w0v8/VslPK6sqlNgQQAJBI/KZDIhljSrZqMwPwkjfOz+sNh079GPvc7owuPbWsgWIqf+X02m4A2JtU/jQi+YwxRVu1nQwBQJLOmJfT244otOzzZpUz+shpZR3en7pNlswAIJEIAEgkY2Tt9rQMMwA6ZU5O5x3V+gzWlXN0ycKyXjt38ksKbYgAgEQiACCRjDHWRoi0LwEcPzOr9x5T3Os5/1ZwHendRxf1u0cWlJLJFgIAEokAgEQyxli7jSfNAeDIaVm9/7hSLAPzGQfntfTkssqdvzmQAIBEIgAgkYwx1kaFtAaA+X2uLjyhGOvlPQsGXH30tPK4LhdqY7wMCIlEAACgg7ozWnxSycqlPf3FjJaeXNJ7jimm/b4AIFYEACDl5va4umRh2frge9pBOa14bZeOmd7RswFAYhAAgBSb3+dq2cJSYi7p6S04uvikkt53XDENewMAq4jaQEodOS2rD55QVC6Bd/WfMjunIwey+tqjNT2wzbfdDtCRmAEAUui4GVlddGIpkYP/i7rzji48oaTfPz45MxRAJ2EGAEiZhbNzWnRssW3O4J80K6sFA1266dGa7tnKbADQKswAACny2rk5va+NBv8XdeUcvf/4kpaeXNL8vtRdJQxEghkAICXOPCSvt7+qdXf723DktKyOnJbVxl2Bbn+irsd3B7ZbAtoWAQBIgd8+oqA3ze+c+2gWDLhaMFDW47ubQWDjLoIAMFEEAKCDZTPSe44pauHsznz5zuH9rj60sKwnhwJ99wlPj+5kjwAwXgQAoEOVc44+eGJJh6VgzXx+n6slJ5f01HAzCDyy05cxtrsCko0AAHSgGaWMFp9c0vRSuvb5HtLr6uKTShquG929paFfPt/Q82Oh7baARCIAAB3m8H5XF55QSvVNer0FR2cdmtdZh+b13GioXz7f0N1bGhrxmBYAXkQAADrIKbNzes8xRbnpevDfr4O6MzroVQWds6Cgjbt8/eSZhh7azl4BgAAAdIi3HJbX2Ye39zG/KGWcl44RPj0c6Or7qswIINV4TgDanJuR3ndckcF/Ag7udXXpqeVUL5MABACgjfUWHC1bWNYpHXrML0ozSpmOuhsBmCgCANCmjhhw9dHTurgadwpOn5dvu2uRgVZhDwDQZhxJb5if11sPLzB4TVE2I00rZbS9wlFBpA8BAGgjpayj9x1X1DHT+dFtlZ68o+0V210A8eO3CNAm5vW4uuCEogaKrNy1EpMoSCsCANAGXjc3p3ccWVSWsR9AixAAgATLuY7efVRBp8xhlz+A1iIAAAk1o5zRhSeUNLuLx34ArUcAABLGkfTaeTm9fUFBeZcVagDRIAAACTJQzOg9xxS1YICz/XH5vblDqk+rSZKM0wxcvnE00shoczWn+4ZL2u0xC4POQwAAEsCR9Lp5Of0OT/2xyyuQo0bzv7zs1QA9OWlurqrTe4dlMq6GgpweGi3qzu0lNXiFADoAAQCwbKCY0XuPKeoInvoTywkD9TuBzuip6YzeIe3yc/r+jh49NspVwmhfBADAEkfS6fNyOoen/vZijAZcT++etUPV2Xl9d3uPHhwiCKD9EAAAC6aVmmv9R/Tz1N/OSsbTuTN26PSBor78dJ+GffYKoH0QAIAYOZLedlhGZxxa5qm/Uxhpeqam5fPrum+0S7du6bHdETAuBAAgJidPD/WOQ+oq5Fzl3C7b7aDVjNGJXaM64ghPVz0xTbWQgIdkY74KiNi8LqP/e2Jd7z5kVLkXd5ujY3XJ0x8cvkNdWd4wiGRjBgCISHdOOv9VDR1SqOkV58vQ8XKmoUvn79BVm6drqMFzFpKJAAC0WMaR3nl4oJP6qnIMT4FplTW+Ljl0uz7/1HTWApBIRFOghc6ca7RmYVUn944x+EOuCbTkkB35oWtXl233AuyJGQCgBY7ul951WF0l1ZntxytkTCBJfyfpo5ZbAV6BGQBgCmaWpP9zgq/fP2ykOfgDe/eRoWtXv9l2E8DLEQCASZjfY/QHxzX0kWNGNCNbEY/9OABH0lVD167mkgAkBksAwAScPsdocLanbueFp33GfYzffEn/IGmZ7UYAiRkA4IAKrvTOw0N94pSKzpkz8tLgD0zckqFrV8+z3QQgMQMA7NPssnTuob4OLdUkE/K0j1ZwJV0s6QrbjQAEAGAPJ003evPchvrduiTDwI9WWyICABKAJQBAUjYjnX9ijz5zbr9+75AR9bvc3ofIvGro2tVvsN0EwAwAUm/RCd367cNcuQok+bbbQToskfQD200g3QgASLU/en2fTpgWSApst4J0ea3tBgCWAJBa5xzZ9cLgD8TuMNsNAAQApNZ5R+Zst4D0Kg1du3q27SaQbgQApFIx66iUYb0fVh1uuwGkGwEAqXT0zLztFoDDbDeAdCMAIJWKWV7RDut4LwCsIgAAgB1P2m4A6UYAAAA7HrfdANKNAAAA8TOSNttuAulGAACA+D3bd8EVvFYSVhEAACB+v7LdAEAAAID4/bftBgACAADEqyLpettNAAQAAIjXl/suuGLIdhMAAQAA4nWl7QYAiQAAAHG6r++CK35ouwlAIgAAQFwCSctsNwG8iAAAAPH4VN8FV9xpuwngRQQAAIjeg5Iut90E8HIEAACIUvPFkxdz8x+ShgAAABG6d7Qn6Lvgirts9wHsiQAAAFFwpJ+N9um2Ld2+7VaAvcnabgAAOo3jONqwu08/3lGy3QqwTwQAAGghx3H03V39umtn0XYrwH4RAACgRXy5+urzA3piLGe7FeCACAAAMFWOo4cqXfrmcz0KbfcCjBMBAAAmy5GGTEE3PNWvXR57qtFeCAAAMAm7w7y+va1PT4zxaxTtie9cpFJgdZ7W2CyOPRgzvr8Px3HkOVltHMvrxzvK2uHx6xPtje9gpNKoZy8BmJBV4kQx+/77aMjVDj+vxysFPThc0E6m+dFBCABIpeG6xUF4PwMO4nfLtn7troUKTXNuxkgaCxztqru2WwMiRQBAKu2uBtZqMwOQLJtGXQ3XebJH+vBdj1SqNGyuwxtmARKkbi8LAlYRAJBejr1vf2YBksML2JSJdCIAILXMC+9ptVKbGYBEaARG4zwEAHQcAgBSqx7aCwAyzDsnwZDH6I/0IgAgtYY8izMALAEkwrYx/h6QXgQApJbVX/4sASTCtgp/D0gvAgBSa/OwzaOALAEkAQEAaUYAQGo9tqNhrbYJfWu18RICANKMAIDUenibZ6126HvinQD2bWUPAFKMAIDUqvlGDVuXYRqj0Lc3AwFpuG5U9QlhSC8CAFLt+TF7tY1ft1cc2rSbZRikGwEAqXbfNnuDQNggANi0cRcbMZFuBACk2h1P1KzVDgP2Adi0aTcBAOlGAECqbR315bMPIHV210LtrLIBEOlGAEDqbanaq80+ADt4+gcIAIB+vNneUzj7AOx4bCcBACAAIPVu2zgmY+nVwOwDiJ8XGD2wnRMAAAEAqReG0tOjln4UjGEWIGYPbPPlBYQugAAASPrO4/YG4aBu8TKCFPr582y8BCQCACBJ+uETVYWOa6V22KjJBExJx2GobtgACLyAAAC8YOOQY612UB+1VjtNfvF8Q4bZf0ASAQD4tS/cMybJTggIvIqM4Vx6lIyRfv4c0//AiwgAwAueGmro+ZqdZQAZo5C9AJG6f5uvHVz+A/waAQB4mWvvtXcrUHMzIPPTUfnek5y2AF6OAAC8zANb6xo1BSu1TRgo8CxeS9jBHtnh67lRnv6BlyMAAHu4/dm8tdpBjc2AUfjek57tFoDEIQAAe/jlNkcVW7MAQUMh7wdoqcd3B3pyiKN/wJ4IAMBe3PhEQdZOBFSHrdTtREbSrRsJVMDeEACAvXhsSHrWK1mpHfoe9wK0yM+fa2jzME//wN4QAIB9uO5XWRlLtwP61WGZkNsBp6LSMLqFp39gnwgAwD6MNqRf7LIzCyBj5I/ttlO7Q9y6qa5Kg2OVwL4QAID9uOmJjDzZORUQ+nVeFDRJTw0HuutZbv0D9ocAABzANRuLkmPnR8WvDsmErGFPhB9KX32kxpVKwAEQAIADeGpEunNn2U5xY+RXWAqYiP95rMalP8A4EACAcbjlyYx2BUUrtcNGTYFXsVK73dy71ddPn2HqHxgPAgAwTlc+nFfoZK3U9itDMiFPtfuzvRrqxodrttsA2gYBABinsYb0tafKkmPhgiATyh/bIV5mv3d+KF13f1X1gP99gPEiAAATcO926Ufbu6zUDn1PjbEd4o2Br2Qk3fgw6/7ARBEAgAn69lMZPThqKQQ06mqM7bJSO6lueayuX25h3R+YKAIAMAlfeszVM3U7JwNCr8rJgBfcsdnTD5/iTX/AZBAAgEm68qGshkI7JwOC+pj8lL806BfPN3jRDzAFBABgkoykf7k/r1FjKQTURhTU0vnSoId3+PrKw1z2A0wFAQCYgkYo/cO9ee0M7LwzwK8Ope6OgHu3+vrC/VWFjP7AlBAAgCkKjfRP9+X0nGdnT4A/tkuhV7VSO24/eaahLz5YVcCGf2DKCABAi3z2waw2Ve2cDmiM7ez4PQHffryubzxa4yoEoEUIAEALXf2Iq3uGuyXFf1lQUBtRY2S7jOmsx2NjpK89UtN3n2C3P9BKBACgxb66KaMbn+pW6Lix1w79uhrDWxX6nTFYjnpGV91T0Z282hdoOTsXmwMd7t4djp4c7dKyY+rqduI9qmbCQI2RbcqW+uQWu2Ot3UqbdgX64oNVjXjM+QNRYAYAiWTjuv1WG6pLn7qnoEfGumRjScCvDqkxtrPt3h9gjHT7E56uvKfSKYN/Z63JoGMQAJBIbsYdsVXb9/2Wft71v3L11ad75GTin3ALvaq84a0yQXtMoftBoM/dU9F3Hq+3W27Zn8dsNwDsDQEAieRm3U22ante6wfLe7ZLw0OjCo0b+/SGCX15I9sU1EYSPRsQ1Eb11Jbt2rgrsN1Kq/3cdgPA3hAAkEhuJvNTW7W9RnRPy9WRYdXG6lImF1mNvTJGfnVY3vDzCuqjStIbBUPfkze8VX51SGGCA8oU3GW7AWBvCABIpEwmc7Ot2lHMALxc4Dc0tnu3fN/EvixgwlB+ZUje0BYFdbs3CBoTyq/sUmNkW9ssUUwSMwBIJE4BIJEcx/mW67p+EASxf4/WPU9hGCqTiTYf1ysV1StSodylXD4rE7Z278H+mDCQX9mloD6ibLFXmXx8VxkbEyqojTZnIjrzif/ltki623YTwN4wA4BEuuqzf+OXS8U/tVHbGKOdu4diq1evjGl095CdGYHAV2Nsp7zhrQobtWhrhcELsw/PJ34/QgstX79uVbT/wwKTRABAYn3+P/52falYvMdG7Uqlqko13vv165WKRncPqdEIm3sEYtwsaIKGGqM71BjZ1nyvQAsHZxM05Fd2v7DskIqn/hdds37dqq/bbgLYF5YAkGj5fO7sht941veDmHfNSTt3DamQL8h1483JXrUqr1qVk3FUKHcrm83EtjwQ+p5Cf6fkZOTmS8rky8pk8xP+HBOGCr2KAq/S6ev7+/KMpI/ZbgLYH2YAkGhXffZvtpdLpXfnstnYX3cXhqG27djR8nsBxsuERrXREY3uHlKt4imU+8ISQQwzAyZUUB9TY2SbvKEt8qvDCv269nt6wBiFXlWN0R3yhp6TXx1K6+D/sKTz1q9btdt2I8D+OCY903FoY0uXryk3Gv6tlWr1zLhrO46j/r5e9XRP7U1/f7xgqzJm6mfcnYyjfLEkN5dTxmmurcd2rM9xlMkWfv3HKFTYqMv49Za8f+DpiqsrH7XzRsUWCCX9o6Q1rPujHRAA0FYWL1v9wXq9/umG7/fE/b1bLBTU39+rfG5yqxGtCgB7ejEQZNysMm7mhfmB8IVg0KoaGSmTleO8MGkYhgqDhlodPNo0AASSfinpj9avW/VD280A40UAQFtaunxNbxiG7w5Dc04QBqea0EyLq7bjOEEulx3J5/PDxUJ+yHXdcT36/smCLW91TBjbspvjOHLzBWWzWWXzOTm/salwz5/9vSwtmGaQiOsVw9tqmaFPP9xt7RKoCdii5gU/d0m6e/26VbEvUQFTRQAAYvL8Z1dUwjCM78D9y5S7y3IybfGGpTv7LrjidNtNAGnAJkAAAFKIAAAAQAoRAAAASCECAAAAKUQAAAAghQgAAACkEAEAAIAUIgAAAJBCBAAAAFKIAAAAQAoRAAAASCECAAAAKUQAAAAghQgAAACkEAEAAIAUIgAAMXBuGHr1A+4cft4O4KfOwV3ODUMLbfcBpIFjjLHdA9CRnBuGBiRdIOlDkk6eZirm67v/wzki2BF7L+XuspyME3vdiXjYmaG35j7ojyiflfQLSZ+TdJ1Z1LfbcmtARyIAAC3k3DDkSHqTpEsk/Z6k4sv/+SHBbn196D80OxyJta+kB4CnnV79dvZCPev07PmPapK+omYY+L5Z1McvLKBFCABACzg3DM2TtFjSUklH7O9rj/G36KtDn1OvqcXRmqRkB4CdKumc3AV61Jl+oC/dJOkqSZ83i/qeib4zoLMRAIBJcm4Yyko6T82n/XMkueP9d1/XeFLXDF+jLuNF1d4rJDUAjKigd+fep7ucuRP51wJJt6k5K3CTWdTXiKQ5oMMRAIAJcm4YOlrNQf8iSbMn+zkn+M/pmuEvaFYMywFJDADPOL1alH2vHnRmTuVjtkm6WtLnzKK+h1rTGZAOBABgHJwbhsqSFqm5oW+wVZ87NxzSNUPX6Jhga6s+cq+SOkXb3AAAHHlJREFUFgDuc2ZpUXaRnne6W/mxP1FzVuC/zaK+0VZ+MNCJCADAfjg3DL1Gzaf935fUG0WNHlPTlcNf1GBjUxQfLylZAeDbmSO0OPtOjSkfVYlRSV9Sc1bgx1EVAdodAQDYg3PD0DRJF6o58J8UR82sAq0au13Lqz9SRq3/mUxCAAjkaL17uv7WPVOBYuvlYTVnBa42i/qinWYB2gwBANCvj++9Rc1B/92SCjb6eG3jSf3j6I2aH+xq6efaDgCPOdP0B9lzJ7rZr5Uakm5WMwzcahb1BbYaAZKCAIBUczZovjz/j7Szcr6MmfSGvlbqMp7+fOw2XVj7Wcs+01YAMJL+wz1Vl7tvVFW52OvvlePs1LTy1cpn/8EM6inb7QC2EACQOs4G5SW9S80NfW+RlNGWYU+hiWxRejJ+q7FJnxj7lk7yn53yZ9kIAHc5c/Xn2Tfqx84hsdY9oIzT0OzenKRQ0rfUnBX4hhlUPGcygYQgACA1nA06Uc0p/gslvfLWmeGaNFa30dZ+OTJ6R/0Bfbxyuw6fwhXCcQaAR53p+qR7lm7OHBVLvQnrKki9xT3/r9slXSPpc2ZQD8TfFBA/AgA6mrNBvZLer+bA/9p9fmEjkLYn9+RYVqHeX/u5/rC6YVL7A+IIAJucAa13T9d1mRPj3OQ3cTO6pdx+72y6U81ZgS+aQcV7ZzMQIwIAOpKzQYNqTvEvklQe17+0bSSQH477Nj8bHBkNNjbpwtpdelv9YeU0vr1sUQWAulzdnDlKn88s1IbMoRGcX2ixbCbUzJ7xvpVxTC8eJxzUjyLsCrCCAICO4WzQbEkXq3kf/9ET/oDRujQS3/38UzU9HNOi+t16e/1BLfSfkatwn1/bygDgK6O7nLn6RuYofdE9QTtVasnnxqKnKHVP6oDHI3rxOOGgtrS2KcAOAgDamrNBrqTfUXOK/x2SspP+sCCUtrbnjG+vqelMb6Pe2HhMb/Ae07xw6BX/fKoBYLPTp9udw3V75nDdkZmvYTunJKduVo/kjncCYK98vXSc8BYzOM4pGCCBCABoS84GLVBz0L9YUusOl++uSNX2f7fM9HBMRwXbdFSwVUf7W3VifliznYp65KnLeOqSJ/eFCftAjsaU15iT14jy2uJ06SFnhh5xZvz6P3e001P+vpRyUv/4VoPG6VlJ/yXpKjOox1r5wUAcCABoG84GlSS9R82B/w1SBDvNglDaNqLkL2ZPXVG+JKk2hUmTtuE40szuqT7974uRdIekKyV9xQyqGkURoNUIAEg8Z4NOVXPQ/4Ck/sgLjtSa+wHQOboLzfX/6A1Juk7NjYM/j6MgMFkEACSSs0EDki5Qc+BfGGtxY5p7AUJ+NjqCm2k+/TuxH028R829AteaQe2MuzhwIAQAJIazQY6kN6k56P+epFge2faq4klDzOR2hP5yc/3fnrqkr6oZBm43g2lYYEI7IADAOmeD5klarObxvSPsdvMy20ebFwShfeXc5sU/yfGEpP+U9J+8hwC2EQBghbNBOUnnqfm0/zZJybuApxFIO8aaSwJoP47THPyzkWz8myreQwDrCACIlbNBx6g56F8kaZbldg6s1pB2VWx3gcmY1iUV2uKEA+8hgBUEAETO2aAuSe9T82re11tuZ+La7IZAqPmyn662vKyI9xAgNgQARMbZoNepOeifL6nHcjtT0yEXBKVCOS/1tf3FRWOSblBzVmCD7WbQmQgAaClng2ZI+qCa0/zHW26ndYykHWwKTLx8VpreZbuLVntE0lWS/ov3EKCVCACYMmeDMpLequag/05JebsdRSQ0zU2BPiEgkXJuc90/4tceW8R7CNBSBABMmrNB89U8urdE0iGW24mHMc1NgXXfdid4uWJO6i/ZuOzHFt5DgCkjAGBCnFvrPeouvF3Np/2zFcV9/O1guCaNcV1wIsR3zW9S/UDNWYEv8x4CTAQBAAfk3DCUUTG3TNIy9RQXKJuJ/j7+dlDxpOFqKl4clEiOpD7rt/wlyZCk69XcOHiX7WaQfAQA7JPzjbHjJP2dGsFvK5vJa6Cj11cnx/ObSwK8NyBeGae53p9L3v1RCXGvmm8n5D0E2CcCAF7BuWEor2Lu4wrCP1AjmCup+YTVV07rZP+BhaZ5T0CFy9xiUc43p/wJo+PBewiwTwQASJKcmypnyZi/ViN4vULz0mNVV6F5qQoOrBE0lwQ8NmdHIp9tfi/y1D9ZT4j3EOBlCAAp5nxttE9u5pPygwvlh9N+4wsY/Cen2mjOCASh7U46g5tpfh8WWetvkVDSt9WcFfg67yFILwJACjk3Vd6r0HxCjeAkGbP3eVR2Vk+NMc0rhMfqbBKcLMeRuvLN78X0HO+L23ZJX1Bz4+D9tptBvAgAKeF8Y+xgOc5aNYJ3KQj3f1Uag3/rBGHzyGCNa4QnpJhrPvW7iXyTX6fiPQQpQwDocM7NlaMUmmvl+aeN60mUaf9o1P3m/gCfZYH9yrpSX7G53g9bxtQMAldw9XBnIwB0KOemylwZc5284Kx9TvPvqZiTBsoRd5ZyFa/5h3cKvFLebe7uL3XmLdJtakzSP0laZwa1y3YzaD0CQIdxvj7WL0dXywvOlTHjnz/NutKMLtZa4+IHzSBQbaT3DoGM0xzwy3kpy1R/gu2WtE7S/zODGrPdDFqHANBBnJsrK1X3r1BoJjZ/mnGkGd2st9pg1NwfUPGalwqlQSHbHPQLOe6WaC/PS/qwGdTXbDeC1iAAdADn5upsBeHt8vyJv37XUfNGNdZc7QvCl2YFOu0IoZtpXihVzhM02981kj5mBrXbdiOYGgJAm3Nurv5/qjc+NeGn/hf1Fpsb/5Asdb8ZBup+80hhO3Kclz3tEzA7zDOSLjGDus12I5g8AkCbcv6nOl1BeLvq/smT/pC8K03vbmFXiEQjaN4u2PCb/5nU2QE30/yeymebt/VxY18afFbSn5hBjdpuBBNHAGhDzjdrp6neuEN+WJr8h0ia0cPmq3YUhC+FAs+3c6LAUXPjaD770qDP3fxp9bCkc82gNtluBBNDAGgzzjdr56vqXfuK+/ong6n/zmHMS4EgCJv/Pdzjz0R/zh2nOaC//I/jNANj7oUnfMZ7vGSbpN81g/qp7UYwfgSANuL8T/VyVRuXj/tc/77k3Oauf6SHkRTuJRxIvznIZzIM7piMmqQPmkF92XYjGB8CQJtwbq58UdXG+S35sJlM/QOIhJH0cTOodbYbwYERABLOuaniypg7Vfdf3ZIPLOelvslvHQCAcfispP9jBpWSyy3aEwEgwZzb6l2q+Y/K8+e27ENn9XAOG0AcbpP0Hm4PTC5GgoRyNshR3b+vpYM/l7AAiM/bJP23s0GcB00oRoOk2l25Q3X/8JZ9nqPma34BID7nSvpn201g7wgACeT8T/U/VW0MtvRDSzz9A7Diw84G/antJvCbGBESxvlmbZUq3uLWfqh4+gdg01png1pzigktwybABHFuqb1XY96XpnzOf0+lnNRfbulHAsAE1SWdbQa1wXYjaCIAJIRza/3Vqnh3Kghbv2FmWhcvYwGQBDslnWEG9ajtRsASQCI4t9UPUrXxw0gG/4zD4A8gKaZJusXZoFm2GwEBIBnq/s/lB9HczlPMRfKxADBJR0i60dnA+GMbfwGWOd+s/avq/kGRFSgRAAAkzm9J+iPbTaQdewAscm6rL9Ro/RcKW7zp70VupnnzHwAkT03SQjOoR2w3klbMANhU92+NbPCXePoHkGRFSf/JUoA9/A9vifPN6r+q7s+OtEiBAAAg0c6Q9H9tN5FWLAFY4Hy7MUMjtS0KwmgD2Jze5vvdASC5RiUdYQa1zXYjacMMgA2ef23kg3/OZfAH0A66JX3CdhNpxAxAzJxveQs0UvtVpGv/UvPNf33RnCwEgBbzJB1tBvWE7UbShBmAuHn+FyMf/KXmDAAAtIe8pL+y3UTaEABi5NxWf41q/mmxFCMAAGgvH3A26ETbTaQJASBOjeDTimPJxREBAEC7yUj6uO0m0oQ9ADFxbvf7tLuyK7bp/xndkZcBgBarSzrYDGq77UbSgBmAuNT9tbEM/hJP/wDaVUHSEttNpAUBIC4N/4LYanH8D0D7Wu5sEL/EYkAAiIFzW/098oL4LuXP8LMDoG0tkPRW202kAQEgDo3g8ljrEQAAtLflthtIAzYBRszZoIy2jXjyw/gW5vvLvAgIQDurSJpuBlWz3UgnYwYgahXvvFgHf4kZAADtrizpDbab6HQEgKj54SWx1yQAAGh/v2O7gU5HAIiaHwzGXpNTAADaHwEgYgSACDnfDw+SFwzEXpgZAADt7yhngxbYbqKTEQCiVGv8YSxX/+6JGQAAnYFZgAgRAKIUhmxiAYDJe63tBjoZASBKgWH6CgAm73jbDXQyAkCUgnCm7RYAoI0dw7XA0SEARMT5oZkuP+Q2HgCYvLKkw2w30akIAFGpNd5kZQMgAHQWlgEiQgCIih+eZbsFAOgAx9luoFMRAKISmoW2WwCADnCs7QY6FQEgKkbxXwAEAJ1nhu0GOhUBICrGdNluAQA6QK/tBjoVASA6JdsNAEAH6LPdQKciAETFmKLtFgCgAzADEBECQFSMKdhuAQA6AAEgIgSAqBhxCRAATB0BICIEgKgY49puAQA6QM7ZIJZUI0AAiIrh/moAaBGWVCNAAAAAJB0PVBEgAAAAkEIEAAAAUogAAABAChEAAABIIQIAAAAplLXdAABIkmukMx/frddtHlbBDxU6jgJHquRd/fSwPt15cE/sPfV6gQ4d9jSr2tDsiq/pVV8jeVdby1ltLWe1uaegbSV+jaI98Z0LwJojdla18nubddRzoyqNNaTQ7PXrzv/hU5LraFdvQXfP79P/O+tgbe3KR9LTvFFPZ28e0VueGtYpWytyzd57etH900u6/dBefefQXm3s47g62odjDvDNjclxbhwxCkI7xef0cWoWifbqZ0a08vYndeizI9JkfgVlHD1weJ/++q2H68mB1lwSd9BYQx+9e4t+d9NuZSb5a/EHB/foH06drV/1c3Fdiw2YQe223USnIQBEhAAA/KaiH+iq6x/SYU+PtOYDHel/j5uhPz7vVQqcyX3Tu8boI/ds1dIHtisfTP33YehIX1swoHWvnqOhAjeCtwgBIAIEgIgQAIBXOnZrRZ+5/kEVKo2Wf/bQtJIuuvB4beua2Du4ZlZ9/f0dT+m0LWMt72lzT15/+Ob52sSyQCsQACLAKQAAkXv/PVv1uc/fG8ngL0l9O6u68d9+qVOeGR33vzO70tAXv7kxksFfkg4d8XT9LZs0OIGegDgRAABE6ryHduhjt2yUWjC9vj+uF+hfrn9AR+6oHvBre7xA//6dJ3XQWDSB5OV1Pv29J/XqrdGEDGAqCAAAInPU9qpW3fzY5Db6TYLTCPXZ6x5U0d/38lshMPrX7z6pI3fXYukpFxr90/c2a96oF0s9YLwIAAAiUW6E+ux1D8jZz2AcheKopyuvf3Cf//yvfvKMTt1aibEjaaAe6DPf3ayirX1BwF4QAABE4vJvPa5CxFPs+3LsUF2Dz/7m2vtbnhrWOzbZ2Ut25O6aLnpwh5XawN4QAAC03PRKQ2c+sM1KbceRit15/dP3N+tdG18a7M/ePKy/++HTVnp60SUPbFd/PbDaA/AijgFGhGOASLN/+/IjOulXO63ULnTlVep/6ejd7oKrupvR7IhOIEzU1cdO19rXHGS7jXbDMcAIMAMAoKWyoXTSpl12ijtSoeeVdwH014PEDP6S9K6Nuw94vTAQBwIAgJZ6x0PbIz/yty/5Uk4ZN9m/1nq9QKdtiXcTIrA3yf5JAdB2zrvfztq/JLn59rh6981PDdtuASAAAGitBc/Zu/nOzbbHr7TXPc/FQLCvPX5aALSNvGdvl3umTQJA1DcQAuPRHj8tANpCuRFaW/93HEcZtz2Ov/R4gcoxX5AE7IkAAKBlxnMPf1Qy2fYY/F80h1kAWEYAANAyBYtPtU6mvQJA3tJMCfAiAgCAlnlkZslabRO214A6XGiPEwvoXAQAAC0zVMhKltbhwzZ7oh5qkyOL6FwEAAAt1cjZGdjaaQYgcByN5fj1C7v4DgTQUtVi1lrtdgkBQ0z/IwEIAABaaqgrd+Aviki7BIBNfYUDfxEQMQIAgJba1pO3Vtu3eAnRRDw8rWi7BYAAAKC1num393QbtEkAeGiAAAD7CAAAWuorJ86yVrtdZgAeYQYACUAAANBSj84oqWZpH0DQCBO/D2A0l9Gv+gkAsI8AAKDlfnFEv7XaSZ8F+P4hvWq02a2F6EwEAAAt91+nHWStdqPqW6s9HrfN77XdAiCJAAAgAvfN6ZJXtrMM0Kg2ErsMUMlmtGFuj+02AEkEAAARudfSk64xkpfQWYDvHdKjepu8shidjwAAIBJfsLgM4I151mrvz9XHzrDdAvBrBAAAkfjfg3u0c7qdtwMGjTBxdwL875wu3TfD3tsSgT0RAABE5q/OWWCtdm00WbMAV54w03YLwCsQAABE5s5De7R5np1Nb42qn5gjgQ9PK2rD3G7bbQCvQAAAEKnV71ggOXY2vtWG6lbq7unvT51juwXgNxAAAERq07SS7jlywEpt3wus3wtw2/w+/YinfyQQAQBA5Fa/fYHk2vl1Ux2uS5auBRjLZbT2NTz9I5kIAAAit6uU1a2nzrZSO/TDZgiw4NMnz9IWSxciAQdCAAAQi0+efZi2zSxbqV0f9eTX490QePfMsq45dnqsNYGJIAAAiM3iC45XUHCt1K7sqsZ2RfDOYlYr3nCIAkubH4HxIAAAiM2uUlafeNfRVk4FhIFRZVct+jqO9CdnHszUPxKPAAAgVj84ok83v9bONcGNmq96xBcE/fPC2frpQez6R/IRAADE7oo3z9czlgbJ6lA9sqOBtx7Wp38/kRv/0B4IAACsWPr7x8krZa3UruyqtvyWwFsO69PKMw+2deIQmDACAAArRgquLlxykhoWQoAx0tiOqkI/bMnn/c/hffrTMw9m0x/aCgEAgDVP9xV0ga0QEBqN7qgqDKb2zH7TEf1aNcjgj/ZDAABglc0QEPqhRreNKWhMbibg6wv6ddlvMfijPREAAFhnNQQERqPbKxO+KOirrxrQmtcfrJCxH22KAAAgEewvB1TkVRvj+vovHzmgT7x+HoM/2hoBAEBiPN1X0PsvOVmjfYX4ixupsrN2wHsCvnTUNF1+xjx2+6PtEQAAJMpzPXm9/Q9O1UNH9FupXx2qqzq095cHXXnCTP3l6XMZ/NERCAAAEsfPSJecf6y+dOYhVq4Nro96GttZlXlhpB/Ju/romw7VP5w6m8EfHYMAACCx/nHwYF32vmMV5uN/gVCj6mtse0W/6i3ovecu0O2H9MbeAxAlAgCARPvBEX1676ULNdxfjL325uklLX7b4XqqJx97bSBqBAAAifd8T15v//Ap+uFJs2JZEnCyGd1w1iF67+ITtcvSdcVA1BxjWNGKgnPjiFHQmmtGJ2xOn8TxJHSohc+Oat1XH1XX8N436k3Vrpllfew9R2vjQPwzDtinATOo3bab6DTMAABoK3fP7dZbP3Kqbn3NQVKmhUk3m9GXzzpE537oZAZ/pAIzABFhBgCI3lHbq1r/lUc0sLM6pc/ZMatLH33PUXrCwj4DjAszABFgBgBA23p0RknnLl+o695wqILCxE8KBHlXV771MJ13yUkM/kgdZgAiwgwAEK9cGGr17Zv123dvkXOA1/waN6PvnjRTf3324apn+WFpA8wARIAAEBECAGBHlxfoL7/1uF7/4HZpz1f9Zhz94sgBfeJ3Fmg3u/vbCQEgAgSAiBAAALtmjjX0yVs36eSNu6RQ2nhIj1af+yo91W/hPQOYKgJABAgAESEAAMmQkeSGoRoZtjy1MQJABJgDA9DRQkkhgz/wG/ipAAAghQgAAACkEAEAAIAUIgAAAJBCBAAAAFKIAAAAQAoRAAAASCECAAAAKUQAAAAghQgAAACkEAEAAIAUIgAAAJBCvAwoIrcP/Ztk6U2LPysc17LP2up265eFg3V3fp52ZUot+1wA0ZjX2K3zRu/V4NivNKcxJEfx/R4yksbcknbke7Qz1yvfcVvyuXcX5hWlU1ryWXgJASAix9Setlb71SPRvDXzyeyAflY4VFf0n61N2emR1AAwcadWN+szz35Bc+s75AZ+7PXdrKtcPqeMm5FjHKmu5p8WWeu+Jd+6T8OLCAAYt/n+Ls33d+ncyoP6i4Fz9O89p8vIsd0WkGrrn/tvvW/HT6zMODqOo3whr2w+2qHkeO/5FsYJvIg9AJiwkmno73bepJu2fE7z/V222wFS6fj6s7r/0T/X+7b/2Mrg72ZdlbpKkQ/+knRe5QECQAQIAJi0wdomfX3L51Q2nu1WgFQpmYZu3vSPGqgPWamfcTMqlotyMswAtjMCAKbkMH+n/nLXrbbbAFLl+s3/rrxv76G4UCxYq43WIQBgyj40cqfOqm203QaQCouGf67XDD9qrX6+kFfGZejoBPwtYsocGf3LjhtVNA3brQAdLW98rXv6i9bqZ9yMcoWctfpoLQIAWuJQf5dOrds7+gikwdtGH1QusLfnJpvl4FgnIQCgZRZ6z9puAehobx59yGp9pv47C3+baJmF3jO2WwA62sLqZqv1CQCdhb9NtAwBAIjWId4Oa7WdjCPH4dhfJyEAoGVe1diunAlstwF0rJJfs1Y7k2G46DT8jaJlMjJyY3zxCJA6ll4whs5EAAAAIIUIAAAApBABAACAFCIAAACQQgQAAABSiAAAAEAKEQAAAEghAgAAAClEAAAAIIUIAAAApBABAACAFCIAAACQQgQAAABSiAAAAEAKEQAAAEghAgAAAClEAAAAIIUIAAAApBABAACAFCIAAACQQgQAAABSiAAAAEAKEQAAAEghAgAAAClEAAAAIIUIAAAApBABAACAFCIAAACQQgQAAABSiAAAAEAKEQAAAEghAgAAAClEAAAAIIUIAAAApBABAACAFCIAAACQQgQAAABSiAAAAEAKEQAAAEghAgAAAClEAAAAIIUIAAAApBABAACAFCIAAACQQgQAAABSiAAAAEAKEQAAAEghAgAAAClEAAAAIIUIAAAApBABAACAFCIAAACQQgQAAABSiAAAAEAKEQAAAEghAgAAAClEAAAAIIUIAAAApBABAACAFCIAAACQQgQAAABSiAAQEcdxQlu1jTG2SgNAq41KGrbdRCciAEQkk8lss1U7DKxlDwBotbv7LriCX2oRIABExMk4D9mqHQSBrdIA0Gp32W6gUxEAIuI4zh22ajMDAKCD/Nx2A52KABAVRzfYKk0AANAhjKQ7bTfRqQgAEZm59FP3Z3PZH9mobYxRo96wURoAWukzfRdc8SvbTXQqAkCEnIxzTiaTqdmo7dU9ZgIAtLONkj5uu4lORgCI0Mylnxp1s+5SW/Xrtbqt0gAwFUbS0r4Lrhiz3UgnIwBEbOYln7o+m8t+yUbtMAjl1TwbpQFgskJJq/suuMLaRuq0IADEYNaH/v78XD73ARvLAQ2voepYleUAAO3gUUmDfRdcsdZ2I2lAAIjJzEs+db2bc2fa2BgYBqGqY1U2BgJIqlDSekkL+y644ie2m0mLrO0G0mTm0k+NShrcdtWfnCCjRcaYs0xojg3DcKYxJvIw5tU9NbyGMm5GGTcj13WVcTNyHKdlNbiEGMA4bFXzfP+Lf37Wd8EVz9htKX3+f0+ruD0oia1GAAAAAElFTkSuQmCC;" parent="1" vertex="1">
          <mxGeometry x="195.5" y="250" width="83.5" height="83.5" as="geometry" />
        </mxCell>
        <mxCell id="Hf2aZSIuRy_q8SedqZRs-24" value="" style="shape=image;imageAspect=0;aspect=fixed;verticalLabelPosition=bottom;verticalAlign=top;image=data:image/png,iVBORw0KGgoAAAANSUhEUgAAAgAAAAIACAYAAAD0eNT6AAAABHNCSVQICAgIfAhkiAAAAAlwSFlzAAALEwAACxMBAJqcGAAAABl0RVh0U29mdHdhcmUAd3d3Lmlua3NjYXBlLm9yZ5vuPBoAACAASURBVHic7d15uF1lfff/z9prz2fOTAIEiMxTQFSwB5ywUpGq1YgVhCQYUuujvydtU0NiS2tbml6xTZ+22toitSBgRXGACqg4YByoqMyTJEAYM+dMe1h7rXX//tggEDOcYa91r73X+3Vdubwsh/391pxz7s+6p+UYYwSg/S1dvmaaMeaNYRi+PjTmJBOamUamLKOyMaZojMkbY/KhMVljTMYYk5GMHCdjHEeh4zi+I8d3HMeTo7rjOLWMkxnKuJnnMo7zgKS7wjC84+rP/d2ztv9/BTB1DgEAaC9LLl19nDHmnWEYnhqG5qggDOcFQdAXBEE26tqO46hQyFdLxeLGrnLpp5lM5n5Jj0q6e/26Vc9FXR9A6xAAgIRbunzN/CAIlwdB8PaG7x/t+34xrtrZbFaFfF6FfE75Ql75XG5/X/6wpO++8Of769et2hFLkwAmhQAAJMzS5WtmhWF4qR8E5/m+f3yj4XfFVfuFJ3yVS0WVikW5rjvZjzKS7tVLgeCO9etWDbeqTwBTRwAAEmDp8jXlIAj/rOE3LvK8xtw4fy4dx1GpWFSpVFSpWFAmk4mijC/pNklXS/rG+nWralEUATB+BADAosXLLlvi+8GKuuedEIahE2ftcqmorq6yioWCHCfW0kOSviTp6vXrVm2IszCAlxAAgJgtuXT16/wg+CvPa7zB9/18nLVd11V3V1ndXeWpTO+30iZJ16gZBjbZbgZIEwIAEJPFy1Z/0Gt4a+t1b27ctYuFgrq7yyqXSnGXnohbJP3N+nWrfmS7ESANCABAxBYvu+wjntf4i7rnzYi7dldXWb3d3crlIj8h2Eo/UDMIfNt2I0AnIwAAEVm87LJP1OveSq/R6I27drlUUl9fj3LZthr49/QzSX+j5qZBflEBLUYAAFrs4g9dtrbu1T/aaPjluGsXiwX19/Ue6Lx+u7lf0hWS/nv9ulWh7WaATkEAAFpkyaWrz6vV61d7XqM/7tqFfF79fb0qFGLdUxi3OyV9eP26Vb+03QjQCQgAwBQtXb5mRqPRuKlaq58e98+Tm8looL9P5XKiN/e1UiDp05L+jIuFgKkhAABTcPGHLvvraq328Tju4d9TV1dZA329UV3ck3TPSfqj9etWfdF2I0C7IgAAk7Dk0tWvr9e9G+ueNzvu2tlsVtMG+lQsFOIunUTfkfSR9etWPWq7EaDdEACACbroko/fWKnW3m3jZ6e3p1t9vT1x39yXdHVJn5S0lk2CwPgRAIBxWnLpmgV1r76hXvfmxF07m3U1Y9o05fMdtbu/1b4j6cL161Ztsd0I0A5SuXgITNTiZZctH6tUHrYx+JdKRc2ZNZPB/8DOlnTPipVr32K7EaAdMAMA7MfS5WsyDd+/uVKp/o6N+v19vert6bZRup2Fat4b8Bfr160KbDcDJBUBANiHJZeuPqZe935o4wpf13U1Y9pAp5/rj9odkj6wft2qZ2w3AiQRSwDAXixedtmHxiqV+20M/sVCQXNmzWTwn7qzJN29YuXaN9tuBEgiAgCwh4uXXXb56FjlP4IgjP19uV3lkmbNnC7X5UezRWZIumXFyrXvs90IkDQsAQAvc/GHVv3b6FhluY3avT3d6u+L/b1BaRFK+tj6das+bbsRICkIAMALLrrk418fq1R/10ZtNvvF5pPr16263HYTQBIQAABJFy79059Wq7XX2ag9fdqAutJzl38S/JuatwdyaRBSjQCAVFu6fE2x7nn31Wr1V8Vd23EczZg+TaUiV/pa8GU1Lw2q224EsIUAgNRaunxNvlavP16ve3Pjru04jmbOmMZ9/nZ9W9J5hACkFVuNkVp1z7vPxuAvSTOmDTD42/dWSV9YsXItvweRSnzjI5U+uPRPf1Kr1Y+yUXv6tH6VSkUbpfGb3ivpX2w3AdhAAEDqXHTJx79aqdZOt1F7oL9PXeWyjdLYtw+vWLn2L2w3AcSNAIBUufhDqz4zVqm+y0btvt4e9XR32SiNA7t8xcq1f2i7CSBOBACkxuJll31irFL9sI3a3d1d6uvtsVEa4/fPK1auXWS7CSAunAJAKixedtmS0bHKVTa+3wuFvGbPjP2VApgcT9I569et+p7tRoCoEQDQ8ZZcumbBWKXySBAEsd/t77qu5syayd3+7WWbpIXr16161nYjQJT4rYSOV6/Xf2Rj8G9e9DPA4N9+Zkq6fsXKtbF/zwBx4jcTOtpFl3z8a3XPm22jdn9frwp5Xunbps6S9Je2mwCixBIAOtbiZZddPDpW+byN7/GucknTpw3EXhctFaq5H+DbthsBokAAQEdaunzNIaNjlU1BEGTjrp3LZTVn1kw5jhN3abTeVjX3AzxnuxGg1VgCQEeq1es/tjH4S823+zH4d4xZkq5jPwA6EQEAHeeiS1ZdV697B9uo3dvTrXwuZ6M0ovNGSZ+w3QTQaiwBoKMsuXT1wtHRsV+ExsT+CJ7NZnXQbKb+O1RD0snr1616yHYjQKswA4CO4nmNr9kY/CVp+kA/g3/nykn6tO0mgFYiAKBjLF522R/X6vX5Nmp3d3epUODIX4d704qVaz9guwmgVVgCQEdYunxN91ilusP3/dhH4azras6cWcrw9J8Gz0s6ev26VcO2GwGmihkAdISG73/FxuAvNV/xy+CfGnMk/ZXtJoBWYAYAbW/JpatfPzI69iMrL/rJ5zV7Fi/6SZlA0mnr162623YjwFQwA4C2V/e8r9gKsv19vVbqwipX0mdWrFzLtA/aGgEAbW3xsss+Wq97c2zULhULbPxLrzMkvdd2E8BUEADQ1upe43Jbtft4+k+71bYbAKaCAIC2tXjZZUs8z5tuo3ZXucSNf1i4YuXac203AUwWAQBty/Maf2ujruM46uvtsVEaybPGdgPAZBEA0JYWX7p6Ud3zZtuoXS6XlM1aec8QkueMFSvXvsl2E8BkEADQlhpe4+9t1e7p7rJVGsnELADaEgEAbWfJpavfXqvXD7FRu1DIs/aPPb1lxcq1r7PdBDBRBAC0Ha/R+CdbtXn6xz4wC4C2QwBAW1ly6ZoF9bq3wEZt13VVLpVslEbyvWPFyrWH2m4CmAgCANpKEAR/bevWv+6uspW6aAuOpAttNwFMBAEAbcVrNKycu3YcR91M/2P/LrLdADARBAC0jSWXrn5Lo9GwcgC/VCrKzfDjgv06ms2AaCf8RkPb8P3gz2zVZu0f48QsANoGAQBtw/O819uo6ziOSsWCjdJoP+evWLmWN0ShLRAA0BYWL7tsuR8EVg7gl4oFOQ5vfsW4TJfE+wHQFggAaAu+73/MVu0S0/+YGJYB0BYcW0eqgPFaunxNZmR0rBGGYeyB1XEczTtojjIZZgAwbp6kgfXrVlVsNwLsDzMASDxjzO/ZGPwlqVgoMPhjovKSBm03ARwIAQCJFwTBBbZql0tFW6XR3t5suwHgQAgASDzfD86wVbvI7n9MDgEAiUcAQKItXb4m3/Abs2zUdl1XruvaKI32d+qKlWv7bDcB7A8BAIkWhuHvh6GxsghfKHCcG5PmSjrLdhPA/hAAkGhBGJ5vq3YhTwDAlLAMgEQjACDRfD94ra3azABgiggASDQCABJr6fI15UajMd1GbcdxlM9ZuXgQnePEFSvXzrDdBLAvBAAkljHmrbYuqmL6Hy3gSDrJdhPAvhAAkFhhaH7LVu080/9ojaNsNwDsCwEAiRWa8GRbtXPZrK3S6CxH224A2BcCABIrDMMFtmpns5z/R0swA4DEIgAgsYIgnG2rNjMAaBFmAJBYBAAkVhAEXTbqZhxHmQw/GmiJw1asXMuGEiQSjzlIpCWXrj4hDEMrNwBmefofl4O6MzpyWlaH9rqqB0bPj4a6f5uvXbXQdmtJ4kpaIOkh240Ae+I3HRLJGPMmW7VZ/9+/jCOdfXhBb5yf154J7ezD87p1Y10/faYhOwc4E+koEQCQQMxzIpFCY15jqzYzAPuWzUiLTyrpTXsZ/CUp7zr63aOKev/xJblW5m8SiY2ASCQCABLJGGNtAyAzAHuXcaQPHF/SkdMOHJBOmpXVhSeWlOU3jCRxGyASiR9PJJMxPbZKswHwNzmSFh1b1LEzxj87csz0rBafVFaeqQBr38vA/vCbDolkjKycAJCa7wHAK73zqKIWzp74uxEWDLhaenJJxWyq/zclACCRCABIJCNjLQBkHH4sXu6cBQW9bt7kX4w0v8/VslPK6sqlNgQQAJBI/KZDIhljSrZqMwPwkjfOz+sNh079GPvc7owuPbWsgWIqf+X02m4A2JtU/jQi+YwxRVu1nQwBQJLOmJfT244otOzzZpUz+shpZR3en7pNlswAIJEIAEgkY2Tt9rQMMwA6ZU5O5x3V+gzWlXN0ycKyXjt38ksKbYgAgEQiACCRjDHWRoi0LwEcPzOr9x5T3Os5/1ZwHendRxf1u0cWlJLJFgIAEokAgEQyxli7jSfNAeDIaVm9/7hSLAPzGQfntfTkssqdvzmQAIBEIgAgkYwx1kaFtAaA+X2uLjyhGOvlPQsGXH30tPK4LhdqY7wMCIlEAACgg7ozWnxSycqlPf3FjJaeXNJ7jimm/b4AIFYEACDl5va4umRh2frge9pBOa14bZeOmd7RswFAYhAAgBSb3+dq2cJSYi7p6S04uvikkt53XDENewMAq4jaQEodOS2rD55QVC6Bd/WfMjunIwey+tqjNT2wzbfdDtCRmAEAUui4GVlddGIpkYP/i7rzji48oaTfPz45MxRAJ2EGAEiZhbNzWnRssW3O4J80K6sFA1266dGa7tnKbADQKswAACny2rk5va+NBv8XdeUcvf/4kpaeXNL8vtRdJQxEghkAICXOPCSvt7+qdXf723DktKyOnJbVxl2Bbn+irsd3B7ZbAtoWAQBIgd8+oqA3ze+c+2gWDLhaMFDW47ubQWDjLoIAMFEEAKCDZTPSe44pauHsznz5zuH9rj60sKwnhwJ99wlPj+5kjwAwXgQAoEOVc44+eGJJh6VgzXx+n6slJ5f01HAzCDyy05cxtrsCko0AAHSgGaWMFp9c0vRSuvb5HtLr6uKTShquG929paFfPt/Q82Oh7baARCIAAB3m8H5XF55QSvVNer0FR2cdmtdZh+b13GioXz7f0N1bGhrxmBYAXkQAADrIKbNzes8xRbnpevDfr4O6MzroVQWds6Cgjbt8/eSZhh7azl4BgAAAdIi3HJbX2Ye39zG/KGWcl44RPj0c6Or7qswIINV4TgDanJuR3ndckcF/Ag7udXXpqeVUL5MABACgjfUWHC1bWNYpHXrML0ozSpmOuhsBmCgCANCmjhhw9dHTurgadwpOn5dvu2uRgVZhDwDQZhxJb5if11sPLzB4TVE2I00rZbS9wlFBpA8BAGgjpayj9x1X1DHT+dFtlZ68o+0V210A8eO3CNAm5vW4uuCEogaKrNy1EpMoSCsCANAGXjc3p3ccWVSWsR9AixAAgATLuY7efVRBp8xhlz+A1iIAAAk1o5zRhSeUNLuLx34ArUcAABLGkfTaeTm9fUFBeZcVagDRIAAACTJQzOg9xxS1YICz/XH5vblDqk+rSZKM0wxcvnE00shoczWn+4ZL2u0xC4POQwAAEsCR9Lp5Of0OT/2xyyuQo0bzv7zs1QA9OWlurqrTe4dlMq6GgpweGi3qzu0lNXiFADoAAQCwbKCY0XuPKeoInvoTywkD9TuBzuip6YzeIe3yc/r+jh49NspVwmhfBADAEkfS6fNyOoen/vZijAZcT++etUPV2Xl9d3uPHhwiCKD9EAAAC6aVmmv9R/Tz1N/OSsbTuTN26PSBor78dJ+GffYKoH0QAIAYOZLedlhGZxxa5qm/Uxhpeqam5fPrum+0S7du6bHdETAuBAAgJidPD/WOQ+oq5Fzl3C7b7aDVjNGJXaM64ghPVz0xTbWQgIdkY74KiNi8LqP/e2Jd7z5kVLkXd5ujY3XJ0x8cvkNdWd4wiGRjBgCISHdOOv9VDR1SqOkV58vQ8XKmoUvn79BVm6drqMFzFpKJAAC0WMaR3nl4oJP6qnIMT4FplTW+Ljl0uz7/1HTWApBIRFOghc6ca7RmYVUn944x+EOuCbTkkB35oWtXl233AuyJGQCgBY7ul951WF0l1ZntxytkTCBJfyfpo5ZbAV6BGQBgCmaWpP9zgq/fP2ykOfgDe/eRoWtXv9l2E8DLEQCASZjfY/QHxzX0kWNGNCNbEY/9OABH0lVD167mkgAkBksAwAScPsdocLanbueFp33GfYzffEn/IGmZ7UYAiRkA4IAKrvTOw0N94pSKzpkz8tLgD0zckqFrV8+z3QQgMQMA7NPssnTuob4OLdUkE/K0j1ZwJV0s6QrbjQAEAGAPJ003evPchvrduiTDwI9WWyICABKAJQBAUjYjnX9ijz5zbr9+75AR9bvc3ofIvGro2tVvsN0EwAwAUm/RCd367cNcuQok+bbbQToskfQD200g3QgASLU/en2fTpgWSApst4J0ea3tBgCWAJBa5xzZ9cLgD8TuMNsNAAQApNZ5R+Zst4D0Kg1du3q27SaQbgQApFIx66iUYb0fVh1uuwGkGwEAqXT0zLztFoDDbDeAdCMAIJWKWV7RDut4LwCsIgAAgB1P2m4A6UYAAAA7HrfdANKNAAAA8TOSNttuAulGAACA+D3bd8EVvFYSVhEAACB+v7LdAEAAAID4/bftBgACAADEqyLpettNAAQAAIjXl/suuGLIdhMAAQAA4nWl7QYAiQAAAHG6r++CK35ouwlAIgAAQFwCSctsNwG8iAAAAPH4VN8FV9xpuwngRQQAAIjeg5Iut90E8HIEAACIUvPFkxdz8x+ShgAAABG6d7Qn6Lvgirts9wHsiQAAAFFwpJ+N9um2Ld2+7VaAvcnabgAAOo3jONqwu08/3lGy3QqwTwQAAGghx3H03V39umtn0XYrwH4RAACgRXy5+urzA3piLGe7FeCACAAAMFWOo4cqXfrmcz0KbfcCjBMBAAAmy5GGTEE3PNWvXR57qtFeCAAAMAm7w7y+va1PT4zxaxTtie9cpFJgdZ7W2CyOPRgzvr8Px3HkOVltHMvrxzvK2uHx6xPtje9gpNKoZy8BmJBV4kQx+/77aMjVDj+vxysFPThc0E6m+dFBCABIpeG6xUF4PwMO4nfLtn7troUKTXNuxkgaCxztqru2WwMiRQBAKu2uBtZqMwOQLJtGXQ3XebJH+vBdj1SqNGyuwxtmARKkbi8LAlYRAJBejr1vf2YBksML2JSJdCIAILXMC+9ptVKbGYBEaARG4zwEAHQcAgBSqx7aCwAyzDsnwZDH6I/0IgAgtYY8izMALAEkwrYx/h6QXgQApJbVX/4sASTCtgp/D0gvAgBSa/OwzaOALAEkAQEAaUYAQGo9tqNhrbYJfWu18RICANKMAIDUenibZ6126HvinQD2bWUPAFKMAIDUqvlGDVuXYRqj0Lc3AwFpuG5U9QlhSC8CAFLt+TF7tY1ft1cc2rSbZRikGwEAqXbfNnuDQNggANi0cRcbMZFuBACk2h1P1KzVDgP2Adi0aTcBAOlGAECqbR315bMPIHV210LtrLIBEOlGAEDqbanaq80+ADt4+gcIAIB+vNneUzj7AOx4bCcBACAAIPVu2zgmY+nVwOwDiJ8XGD2wnRMAAAEAqReG0tOjln4UjGEWIGYPbPPlBYQugAAASPrO4/YG4aBu8TKCFPr582y8BCQCACBJ+uETVYWOa6V22KjJBExJx2GobtgACLyAAAC8YOOQY612UB+1VjtNfvF8Q4bZf0ASAQD4tS/cMybJTggIvIqM4Vx6lIyRfv4c0//AiwgAwAueGmro+ZqdZQAZo5C9AJG6f5uvHVz+A/waAQB4mWvvtXcrUHMzIPPTUfnek5y2AF6OAAC8zANb6xo1BSu1TRgo8CxeS9jBHtnh67lRnv6BlyMAAHu4/dm8tdpBjc2AUfjek57tFoDEIQAAe/jlNkcVW7MAQUMh7wdoqcd3B3pyiKN/wJ4IAMBe3PhEQdZOBFSHrdTtREbSrRsJVMDeEACAvXhsSHrWK1mpHfoe9wK0yM+fa2jzME//wN4QAIB9uO5XWRlLtwP61WGZkNsBp6LSMLqFp39gnwgAwD6MNqRf7LIzCyBj5I/ttlO7Q9y6qa5Kg2OVwL4QAID9uOmJjDzZORUQ+nVeFDRJTw0HuutZbv0D9ocAABzANRuLkmPnR8WvDsmErGFPhB9KX32kxpVKwAEQAIADeGpEunNn2U5xY+RXWAqYiP95rMalP8A4EACAcbjlyYx2BUUrtcNGTYFXsVK73dy71ddPn2HqHxgPAgAwTlc+nFfoZK3U9itDMiFPtfuzvRrqxodrttsA2gYBABinsYb0tafKkmPhgiATyh/bIV5mv3d+KF13f1X1gP99gPEiAAATcO926Ufbu6zUDn1PjbEd4o2Br2Qk3fgw6/7ARBEAgAn69lMZPThqKQQ06mqM7bJSO6lueayuX25h3R+YKAIAMAlfeszVM3U7JwNCr8rJgBfcsdnTD5/iTX/AZBAAgEm68qGshkI7JwOC+pj8lL806BfPN3jRDzAFBABgkoykf7k/r1FjKQTURhTU0vnSoId3+PrKw1z2A0wFAQCYgkYo/cO9ee0M7LwzwK8Ope6OgHu3+vrC/VWFjP7AlBAAgCkKjfRP9+X0nGdnT4A/tkuhV7VSO24/eaahLz5YVcCGf2DKCABAi3z2waw2Ve2cDmiM7ez4PQHffryubzxa4yoEoEUIAEALXf2Iq3uGuyXFf1lQUBtRY2S7jOmsx2NjpK89UtN3n2C3P9BKBACgxb66KaMbn+pW6Lix1w79uhrDWxX6nTFYjnpGV91T0Z282hdoOTsXmwMd7t4djp4c7dKyY+rqduI9qmbCQI2RbcqW+uQWu2Ot3UqbdgX64oNVjXjM+QNRYAYAiWTjuv1WG6pLn7qnoEfGumRjScCvDqkxtrPt3h9gjHT7E56uvKfSKYN/Z63JoGMQAJBIbsYdsVXb9/2Wft71v3L11ad75GTin3ALvaq84a0yQXtMoftBoM/dU9F3Hq+3W27Zn8dsNwDsDQEAieRm3U22ante6wfLe7ZLw0OjCo0b+/SGCX15I9sU1EYSPRsQ1Eb11Jbt2rgrsN1Kq/3cdgPA3hAAkEhuJvNTW7W9RnRPy9WRYdXG6lImF1mNvTJGfnVY3vDzCuqjStIbBUPfkze8VX51SGGCA8oU3GW7AWBvCABIpEwmc7Ot2lHMALxc4Dc0tnu3fN/EvixgwlB+ZUje0BYFdbs3CBoTyq/sUmNkW9ssUUwSMwBIJE4BIJEcx/mW67p+EASxf4/WPU9hGCqTiTYf1ysV1StSodylXD4rE7Z278H+mDCQX9mloD6ibLFXmXx8VxkbEyqojTZnIjrzif/ltki623YTwN4wA4BEuuqzf+OXS8U/tVHbGKOdu4diq1evjGl095CdGYHAV2Nsp7zhrQobtWhrhcELsw/PJ34/QgstX79uVbT/wwKTRABAYn3+P/52falYvMdG7Uqlqko13vv165WKRncPqdEIm3sEYtwsaIKGGqM71BjZ1nyvQAsHZxM05Fd2v7DskIqn/hdds37dqq/bbgLYF5YAkGj5fO7sht941veDmHfNSTt3DamQL8h1483JXrUqr1qVk3FUKHcrm83EtjwQ+p5Cf6fkZOTmS8rky8pk8xP+HBOGCr2KAq/S6ev7+/KMpI/ZbgLYH2YAkGhXffZvtpdLpXfnstnYX3cXhqG27djR8nsBxsuERrXREY3uHlKt4imU+8ISQQwzAyZUUB9TY2SbvKEt8qvDCv269nt6wBiFXlWN0R3yhp6TXx1K6+D/sKTz1q9btdt2I8D+OCY903FoY0uXryk3Gv6tlWr1zLhrO46j/r5e9XRP7U1/f7xgqzJm6mfcnYyjfLEkN5dTxmmurcd2rM9xlMkWfv3HKFTYqMv49Za8f+DpiqsrH7XzRsUWCCX9o6Q1rPujHRAA0FYWL1v9wXq9/umG7/fE/b1bLBTU39+rfG5yqxGtCgB7ejEQZNysMm7mhfmB8IVg0KoaGSmTleO8MGkYhgqDhlodPNo0AASSfinpj9avW/VD280A40UAQFtaunxNbxiG7w5Dc04QBqea0EyLq7bjOEEulx3J5/PDxUJ+yHXdcT36/smCLW91TBjbspvjOHLzBWWzWWXzOTm/salwz5/9vSwtmGaQiOsVw9tqmaFPP9xt7RKoCdii5gU/d0m6e/26VbEvUQFTRQAAYvL8Z1dUwjCM78D9y5S7y3IybfGGpTv7LrjidNtNAGnAJkAAAFKIAAAAQAoRAAAASCECAAAAKUQAAAAghQgAAACkEAEAAIAUIgAAAJBCBAAAAFKIAAAAQAoRAAAASCECAAAAKUQAAAAghQgAAACkEAEAAIAUIgAAMXBuGHr1A+4cft4O4KfOwV3ODUMLbfcBpIFjjLHdA9CRnBuGBiRdIOlDkk6eZirm67v/wzki2BF7L+XuspyME3vdiXjYmaG35j7ojyiflfQLSZ+TdJ1Z1LfbcmtARyIAAC3k3DDkSHqTpEsk/Z6k4sv/+SHBbn196D80OxyJta+kB4CnnV79dvZCPev07PmPapK+omYY+L5Z1McvLKBFCABACzg3DM2TtFjSUklH7O9rj/G36KtDn1OvqcXRmqRkB4CdKumc3AV61Jl+oC/dJOkqSZ83i/qeib4zoLMRAIBJcm4Yyko6T82n/XMkueP9d1/XeFLXDF+jLuNF1d4rJDUAjKigd+fep7ucuRP51wJJt6k5K3CTWdTXiKQ5oMMRAIAJcm4YOlrNQf8iSbMn+zkn+M/pmuEvaFYMywFJDADPOL1alH2vHnRmTuVjtkm6WtLnzKK+h1rTGZAOBABgHJwbhsqSFqm5oW+wVZ87NxzSNUPX6Jhga6s+cq+SOkXb3AAAHHlJREFUFgDuc2ZpUXaRnne6W/mxP1FzVuC/zaK+0VZ+MNCJCADAfjg3DL1Gzaf935fUG0WNHlPTlcNf1GBjUxQfLylZAeDbmSO0OPtOjSkfVYlRSV9Sc1bgx1EVAdodAQDYg3PD0DRJF6o58J8UR82sAq0au13Lqz9SRq3/mUxCAAjkaL17uv7WPVOBYuvlYTVnBa42i/qinWYB2gwBANCvj++9Rc1B/92SCjb6eG3jSf3j6I2aH+xq6efaDgCPOdP0B9lzJ7rZr5Uakm5WMwzcahb1BbYaAZKCAIBUczZovjz/j7Szcr6MmfSGvlbqMp7+fOw2XVj7Wcs+01YAMJL+wz1Vl7tvVFW52OvvlePs1LTy1cpn/8EM6inb7QC2EACQOs4G5SW9S80NfW+RlNGWYU+hiWxRejJ+q7FJnxj7lk7yn53yZ9kIAHc5c/Xn2Tfqx84hsdY9oIzT0OzenKRQ0rfUnBX4hhlUPGcygYQgACA1nA06Uc0p/gslvfLWmeGaNFa30dZ+OTJ6R/0Bfbxyuw6fwhXCcQaAR53p+qR7lm7OHBVLvQnrKki9xT3/r9slXSPpc2ZQD8TfFBA/AgA6mrNBvZLer+bA/9p9fmEjkLYn9+RYVqHeX/u5/rC6YVL7A+IIAJucAa13T9d1mRPj3OQ3cTO6pdx+72y6U81ZgS+aQcV7ZzMQIwIAOpKzQYNqTvEvklQe17+0bSSQH477Nj8bHBkNNjbpwtpdelv9YeU0vr1sUQWAulzdnDlKn88s1IbMoRGcX2ixbCbUzJ7xvpVxTC8eJxzUjyLsCrCCAICO4WzQbEkXq3kf/9ET/oDRujQS3/38UzU9HNOi+t16e/1BLfSfkatwn1/bygDgK6O7nLn6RuYofdE9QTtVasnnxqKnKHVP6oDHI3rxOOGgtrS2KcAOAgDamrNBrqTfUXOK/x2SspP+sCCUtrbnjG+vqelMb6Pe2HhMb/Ae07xw6BX/fKoBYLPTp9udw3V75nDdkZmvYTunJKduVo/kjncCYK98vXSc8BYzOM4pGCCBCABoS84GLVBz0L9YUusOl++uSNX2f7fM9HBMRwXbdFSwVUf7W3VifliznYp65KnLeOqSJ/eFCftAjsaU15iT14jy2uJ06SFnhh5xZvz6P3e001P+vpRyUv/4VoPG6VlJ/yXpKjOox1r5wUAcCABoG84GlSS9R82B/w1SBDvNglDaNqLkL2ZPXVG+JKk2hUmTtuE40szuqT7974uRdIekKyV9xQyqGkURoNUIAEg8Z4NOVXPQ/4Ck/sgLjtSa+wHQOboLzfX/6A1Juk7NjYM/j6MgMFkEACSSs0EDki5Qc+BfGGtxY5p7AUJ+NjqCm2k+/TuxH028R829AteaQe2MuzhwIAQAJIazQY6kN6k56P+epFge2faq4klDzOR2hP5yc/3fnrqkr6oZBm43g2lYYEI7IADAOmeD5klarObxvSPsdvMy20ebFwShfeXc5sU/yfGEpP+U9J+8hwC2EQBghbNBOUnnqfm0/zZJybuApxFIO8aaSwJoP47THPyzkWz8myreQwDrCACIlbNBx6g56F8kaZbldg6s1pB2VWx3gcmY1iUV2uKEA+8hgBUEAETO2aAuSe9T82re11tuZ+La7IZAqPmyn662vKyI9xAgNgQARMbZoNepOeifL6nHcjtT0yEXBKVCOS/1tf3FRWOSblBzVmCD7WbQmQgAaClng2ZI+qCa0/zHW26ndYykHWwKTLx8VpreZbuLVntE0lWS/ov3EKCVCACYMmeDMpLequag/05JebsdRSQ0zU2BPiEgkXJuc90/4tceW8R7CNBSBABMmrNB89U8urdE0iGW24mHMc1NgXXfdid4uWJO6i/ZuOzHFt5DgCkjAGBCnFvrPeouvF3Np/2zFcV9/O1guCaNcV1wIsR3zW9S/UDNWYEv8x4CTAQBAAfk3DCUUTG3TNIy9RQXKJuJ/j7+dlDxpOFqKl4clEiOpD7rt/wlyZCk69XcOHiX7WaQfAQA7JPzjbHjJP2dGsFvK5vJa6Cj11cnx/ObSwK8NyBeGae53p9L3v1RCXGvmm8n5D0E2CcCAF7BuWEor2Lu4wrCP1AjmCup+YTVV07rZP+BhaZ5T0CFy9xiUc43p/wJo+PBewiwTwQASJKcmypnyZi/ViN4vULz0mNVV6F5qQoOrBE0lwQ8NmdHIp9tfi/y1D9ZT4j3EOBlCAAp5nxttE9u5pPygwvlh9N+4wsY/Cen2mjOCASh7U46g5tpfh8WWetvkVDSt9WcFfg67yFILwJACjk3Vd6r0HxCjeAkGbP3eVR2Vk+NMc0rhMfqbBKcLMeRuvLN78X0HO+L23ZJX1Bz4+D9tptBvAgAKeF8Y+xgOc5aNYJ3KQj3f1Uag3/rBGHzyGCNa4QnpJhrPvW7iXyTX6fiPQQpQwDocM7NlaMUmmvl+aeN60mUaf9o1P3m/gCfZYH9yrpSX7G53g9bxtQMAldw9XBnIwB0KOemylwZc5284Kx9TvPvqZiTBsoRd5ZyFa/5h3cKvFLebe7uL3XmLdJtakzSP0laZwa1y3YzaD0CQIdxvj7WL0dXywvOlTHjnz/NutKMLtZa4+IHzSBQbaT3DoGM0xzwy3kpy1R/gu2WtE7S/zODGrPdDFqHANBBnJsrK1X3r1BoJjZ/mnGkGd2st9pg1NwfUPGalwqlQSHbHPQLOe6WaC/PS/qwGdTXbDeC1iAAdADn5upsBeHt8vyJv37XUfNGNdZc7QvCl2YFOu0IoZtpXihVzhM02981kj5mBrXbdiOYGgJAm3Nurv5/qjc+NeGn/hf1Fpsb/5Asdb8ZBup+80hhO3Kclz3tEzA7zDOSLjGDus12I5g8AkCbcv6nOl1BeLvq/smT/pC8K03vbmFXiEQjaN4u2PCb/5nU2QE30/yeymebt/VxY18afFbSn5hBjdpuBBNHAGhDzjdrp6neuEN+WJr8h0ia0cPmq3YUhC+FAs+3c6LAUXPjaD770qDP3fxp9bCkc82gNtluBBNDAGgzzjdr56vqXfuK+/ong6n/zmHMS4EgCJv/Pdzjz0R/zh2nOaC//I/jNANj7oUnfMZ7vGSbpN81g/qp7UYwfgSANuL8T/VyVRuXj/tc/77k3Oauf6SHkRTuJRxIvznIZzIM7piMmqQPmkF92XYjGB8CQJtwbq58UdXG+S35sJlM/QOIhJH0cTOodbYbwYERABLOuaniypg7Vfdf3ZIPLOelvslvHQCAcfispP9jBpWSyy3aEwEgwZzb6l2q+Y/K8+e27ENn9XAOG0AcbpP0Hm4PTC5GgoRyNshR3b+vpYM/l7AAiM/bJP23s0GcB00oRoOk2l25Q3X/8JZ9nqPma34BID7nSvpn201g7wgACeT8T/U/VW0MtvRDSzz9A7Diw84G/antJvCbGBESxvlmbZUq3uLWfqh4+gdg01png1pzigktwybABHFuqb1XY96XpnzOf0+lnNRfbulHAsAE1SWdbQa1wXYjaCIAJIRza/3Vqnh3Kghbv2FmWhcvYwGQBDslnWEG9ajtRsASQCI4t9UPUrXxw0gG/4zD4A8gKaZJusXZoFm2GwEBIBnq/s/lB9HczlPMRfKxADBJR0i60dnA+GMbfwGWOd+s/avq/kGRFSgRAAAkzm9J+iPbTaQdewAscm6rL9Ro/RcKW7zp70VupnnzHwAkT03SQjOoR2w3klbMANhU92+NbPCXePoHkGRFSf/JUoA9/A9vifPN6r+q7s+OtEiBAAAg0c6Q9H9tN5FWLAFY4Hy7MUMjtS0KwmgD2Jze5vvdASC5RiUdYQa1zXYjacMMgA2ef23kg3/OZfAH0A66JX3CdhNpxAxAzJxveQs0UvtVpGv/UvPNf33RnCwEgBbzJB1tBvWE7UbShBmAuHn+FyMf/KXmDAAAtIe8pL+y3UTaEABi5NxWf41q/mmxFCMAAGgvH3A26ETbTaQJASBOjeDTimPJxREBAEC7yUj6uO0m0oQ9ADFxbvf7tLuyK7bp/xndkZcBgBarSzrYDGq77UbSgBmAuNT9tbEM/hJP/wDaVUHSEttNpAUBIC4N/4LYanH8D0D7Wu5sEL/EYkAAiIFzW/098oL4LuXP8LMDoG0tkPRW202kAQEgDo3g8ljrEQAAtLflthtIAzYBRszZoIy2jXjyw/gW5vvLvAgIQDurSJpuBlWz3UgnYwYgahXvvFgHf4kZAADtrizpDbab6HQEgKj54SWx1yQAAGh/v2O7gU5HAIiaHwzGXpNTAADaHwEgYgSACDnfDw+SFwzEXpgZAADt7yhngxbYbqKTEQCiVGv8YSxX/+6JGQAAnYFZgAgRAKIUhmxiAYDJe63tBjoZASBKgWH6CgAm73jbDXQyAkCUgnCm7RYAoI0dw7XA0SEARMT5oZkuP+Q2HgCYvLKkw2w30akIAFGpNd5kZQMgAHQWlgEiQgCIih+eZbsFAOgAx9luoFMRAKISmoW2WwCADnCs7QY6FQEgKkbxXwAEAJ1nhu0GOhUBICrGdNluAQA6QK/tBjoVASA6JdsNAEAH6LPdQKciAETFmKLtFgCgAzADEBECQFSMKdhuAQA6AAEgIgSAqBhxCRAATB0BICIEgKgY49puAQA6QM7ZIJZUI0AAiIrh/moAaBGWVCNAAAAAJB0PVBEgAAAAkEIEAAAAUogAAABAChEAAABIIQIAAAAplLXdAABIkmukMx/frddtHlbBDxU6jgJHquRd/fSwPt15cE/sPfV6gQ4d9jSr2tDsiq/pVV8jeVdby1ltLWe1uaegbSV+jaI98Z0LwJojdla18nubddRzoyqNNaTQ7PXrzv/hU5LraFdvQXfP79P/O+tgbe3KR9LTvFFPZ28e0VueGtYpWytyzd57etH900u6/dBefefQXm3s47g62odjDvDNjclxbhwxCkI7xef0cWoWifbqZ0a08vYndeizI9JkfgVlHD1weJ/++q2H68mB1lwSd9BYQx+9e4t+d9NuZSb5a/EHB/foH06drV/1c3Fdiw2YQe223USnIQBEhAAA/KaiH+iq6x/SYU+PtOYDHel/j5uhPz7vVQqcyX3Tu8boI/ds1dIHtisfTP33YehIX1swoHWvnqOhAjeCtwgBIAIEgIgQAIBXOnZrRZ+5/kEVKo2Wf/bQtJIuuvB4beua2Du4ZlZ9/f0dT+m0LWMt72lzT15/+Ob52sSyQCsQACLAKQAAkXv/PVv1uc/fG8ngL0l9O6u68d9+qVOeGR33vzO70tAXv7kxksFfkg4d8XT9LZs0OIGegDgRAABE6ryHduhjt2yUWjC9vj+uF+hfrn9AR+6oHvBre7xA//6dJ3XQWDSB5OV1Pv29J/XqrdGEDGAqCAAAInPU9qpW3fzY5Db6TYLTCPXZ6x5U0d/38lshMPrX7z6pI3fXYukpFxr90/c2a96oF0s9YLwIAAAiUW6E+ux1D8jZz2AcheKopyuvf3Cf//yvfvKMTt1aibEjaaAe6DPf3ayirX1BwF4QAABE4vJvPa5CxFPs+3LsUF2Dz/7m2vtbnhrWOzbZ2Ut25O6aLnpwh5XawN4QAAC03PRKQ2c+sM1KbceRit15/dP3N+tdG18a7M/ePKy/++HTVnp60SUPbFd/PbDaA/AijgFGhGOASLN/+/IjOulXO63ULnTlVep/6ejd7oKrupvR7IhOIEzU1cdO19rXHGS7jXbDMcAIMAMAoKWyoXTSpl12ijtSoeeVdwH014PEDP6S9K6Nuw94vTAQBwIAgJZ6x0PbIz/yty/5Uk4ZN9m/1nq9QKdtiXcTIrA3yf5JAdB2zrvfztq/JLn59rh6981PDdtuASAAAGitBc/Zu/nOzbbHr7TXPc/FQLCvPX5aALSNvGdvl3umTQJA1DcQAuPRHj8tANpCuRFaW/93HEcZtz2Ov/R4gcoxX5AE7IkAAKBlxnMPf1Qy2fYY/F80h1kAWEYAANAyBYtPtU6mvQJA3tJMCfAiAgCAlnlkZslabRO214A6XGiPEwvoXAQAAC0zVMhKltbhwzZ7oh5qkyOL6FwEAAAt1cjZGdjaaQYgcByN5fj1C7v4DgTQUtVi1lrtdgkBQ0z/IwEIAABaaqgrd+Aviki7BIBNfYUDfxEQMQIAgJba1pO3Vtu3eAnRRDw8rWi7BYAAAKC1num393QbtEkAeGiAAAD7CAAAWuorJ86yVrtdZgAeYQYACUAAANBSj84oqWZpH0DQCBO/D2A0l9Gv+gkAsI8AAKDlfnFEv7XaSZ8F+P4hvWq02a2F6EwEAAAt91+nHWStdqPqW6s9HrfN77XdAiCJAAAgAvfN6ZJXtrMM0Kg2ErsMUMlmtGFuj+02AEkEAAARudfSk64xkpfQWYDvHdKjepu8shidjwAAIBJfsLgM4I151mrvz9XHzrDdAvBrBAAAkfjfg3u0c7qdtwMGjTBxdwL875wu3TfD3tsSgT0RAABE5q/OWWCtdm00WbMAV54w03YLwCsQAABE5s5De7R5np1Nb42qn5gjgQ9PK2rD3G7bbQCvQAAAEKnV71ggOXY2vtWG6lbq7unvT51juwXgNxAAAERq07SS7jlywEpt3wus3wtw2/w+/YinfyQQAQBA5Fa/fYHk2vl1Ux2uS5auBRjLZbT2NTz9I5kIAAAit6uU1a2nzrZSO/TDZgiw4NMnz9IWSxciAQdCAAAQi0+efZi2zSxbqV0f9eTX490QePfMsq45dnqsNYGJIAAAiM3iC45XUHCt1K7sqsZ2RfDOYlYr3nCIAkubH4HxIAAAiM2uUlafeNfRVk4FhIFRZVct+jqO9CdnHszUPxKPAAAgVj84ok83v9bONcGNmq96xBcE/fPC2frpQez6R/IRAADE7oo3z9czlgbJ6lA9sqOBtx7Wp38/kRv/0B4IAACsWPr7x8krZa3UruyqtvyWwFsO69PKMw+2deIQmDACAAArRgquLlxykhoWQoAx0tiOqkI/bMnn/c/hffrTMw9m0x/aCgEAgDVP9xV0ga0QEBqN7qgqDKb2zH7TEf1aNcjgj/ZDAABglc0QEPqhRreNKWhMbibg6wv6ddlvMfijPREAAFhnNQQERqPbKxO+KOirrxrQmtcfrJCxH22KAAAgEewvB1TkVRvj+vovHzmgT7x+HoM/2hoBAEBiPN1X0PsvOVmjfYX4ixupsrN2wHsCvnTUNF1+xjx2+6PtEQAAJMpzPXm9/Q9O1UNH9FupXx2qqzq095cHXXnCTP3l6XMZ/NERCAAAEsfPSJecf6y+dOYhVq4Nro96GttZlXlhpB/Ju/romw7VP5w6m8EfHYMAACCx/nHwYF32vmMV5uN/gVCj6mtse0W/6i3ovecu0O2H9MbeAxAlAgCARPvBEX1676ULNdxfjL325uklLX7b4XqqJx97bSBqBAAAifd8T15v//Ap+uFJs2JZEnCyGd1w1iF67+ITtcvSdcVA1BxjWNGKgnPjiFHQmmtGJ2xOn8TxJHSohc+Oat1XH1XX8N436k3Vrpllfew9R2vjQPwzDtinATOo3bab6DTMAABoK3fP7dZbP3Kqbn3NQVKmhUk3m9GXzzpE537oZAZ/pAIzABFhBgCI3lHbq1r/lUc0sLM6pc/ZMatLH33PUXrCwj4DjAszABFgBgBA23p0RknnLl+o695wqILCxE8KBHlXV771MJ13yUkM/kgdZgAiwgwAEK9cGGr17Zv123dvkXOA1/waN6PvnjRTf3324apn+WFpA8wARIAAEBECAGBHlxfoL7/1uF7/4HZpz1f9Zhz94sgBfeJ3Fmg3u/vbCQEgAgSAiBAAALtmjjX0yVs36eSNu6RQ2nhIj1af+yo91W/hPQOYKgJABAgAESEAAMmQkeSGoRoZtjy1MQJABJgDA9DRQkkhgz/wG/ipAAAghQgAAACkEAEAAIAUIgAAAJBCBAAAAFKIAAAAQAoRAAAASCECAAAAKUQAAAAghQgAAACkEAEAAIAUIgAAAJBCvAwoIrcP/Ztk6U2LPysc17LP2up265eFg3V3fp52ZUot+1wA0ZjX2K3zRu/V4NivNKcxJEfx/R4yksbcknbke7Qz1yvfcVvyuXcX5hWlU1ryWXgJASAix9Setlb71SPRvDXzyeyAflY4VFf0n61N2emR1AAwcadWN+szz35Bc+s75AZ+7PXdrKtcPqeMm5FjHKmu5p8WWeu+Jd+6T8OLCAAYt/n+Ls33d+ncyoP6i4Fz9O89p8vIsd0WkGrrn/tvvW/HT6zMODqOo3whr2w+2qHkeO/5FsYJvIg9AJiwkmno73bepJu2fE7z/V222wFS6fj6s7r/0T/X+7b/2Mrg72ZdlbpKkQ/+knRe5QECQAQIAJi0wdomfX3L51Q2nu1WgFQpmYZu3vSPGqgPWamfcTMqlotyMswAtjMCAKbkMH+n/nLXrbbbAFLl+s3/rrxv76G4UCxYq43WIQBgyj40cqfOqm203QaQCouGf67XDD9qrX6+kFfGZejoBPwtYsocGf3LjhtVNA3brQAdLW98rXv6i9bqZ9yMcoWctfpoLQIAWuJQf5dOrds7+gikwdtGH1QusLfnJpvl4FgnIQCgZRZ6z9puAehobx59yGp9pv47C3+baJmF3jO2WwA62sLqZqv1CQCdhb9NtAwBAIjWId4Oa7WdjCPH4dhfJyEAoGVe1diunAlstwF0rJJfs1Y7k2G46DT8jaJlMjJyY3zxCJA6ll4whs5EAAAAIIUIAAAApBABAACAFCIAAACQQgQAAABSiAAAAEAKEQAAAEghAgAAAClEAAAAIIUIAAAApBABAACAFCIAAACQQgQAAABSiAAAAEAKEQAAAEghAgAAAClEAAAAIIUIAAAApBABAACAFCIAAACQQgQAAABSiAAAAEAKEQAAAEghAgAAAClEAAAAIIUIAAAApBABAACAFCIAAACQQgQAAABSiAAAAEAKEQAAAEghAgAAAClEAAAAIIUIAAAApBABAACAFCIAAACQQgQAAABSiAAAAEAKEQAAAEghAgAAAClEAAAAIIUIAAAApBABAACAFCIAAACQQgQAAABSiAAAAEAKEQAAAEghAgAAAClEAAAAIIUIAAAApBABAACAFCIAAACQQgQAAABSiAAAAEAKEQAAAEghAgAAAClEAAAAIIUIAAAApBABAACAFCIAAACQQgQAAABSiAAQEcdxQlu1jTG2SgNAq41KGrbdRCciAEQkk8lss1U7DKxlDwBotbv7LriCX2oRIABExMk4D9mqHQSBrdIA0Gp32W6gUxEAIuI4zh22ajMDAKCD/Nx2A52KABAVRzfYKk0AANAhjKQ7bTfRqQgAEZm59FP3Z3PZH9mobYxRo96wURoAWukzfRdc8SvbTXQqAkCEnIxzTiaTqdmo7dU9ZgIAtLONkj5uu4lORgCI0Mylnxp1s+5SW/Xrtbqt0gAwFUbS0r4Lrhiz3UgnIwBEbOYln7o+m8t+yUbtMAjl1TwbpQFgskJJq/suuMLaRuq0IADEYNaH/v78XD73ARvLAQ2voepYleUAAO3gUUmDfRdcsdZ2I2lAAIjJzEs+db2bc2fa2BgYBqGqY1U2BgJIqlDSekkL+y644ie2m0mLrO0G0mTm0k+NShrcdtWfnCCjRcaYs0xojg3DcKYxJvIw5tU9NbyGMm5GGTcj13WVcTNyHKdlNbiEGMA4bFXzfP+Lf37Wd8EVz9htKX3+f0+ruD0oia1GAAAAAElFTkSuQmCC;" parent="1" vertex="1">
          <mxGeometry x="220" y="610" width="83.5" height="83.5" as="geometry" />
        </mxCell>
        <mxCell id="Hf2aZSIuRy_q8SedqZRs-26" value="" style="shape=image;imageAspect=0;aspect=fixed;verticalLabelPosition=bottom;verticalAlign=top;image=data:image/png,iVBORw0KGgoAAAANSUhEUgAAAgAAAAIACAYAAAD0eNT6AAAABHNCSVQICAgIfAhkiAAAAAlwSFlzAAAOxAAADsQBlSsOGwAAABl0RVh0U29mdHdhcmUAd3d3Lmlua3NjYXBlLm9yZ5vuPBoAACAASURBVHic7d13uCVVme/x7zmdAzRNk7MEBQFJYkBU0Hb0IohhUJkRUXEYM9c0hnG8XHUU0yhGMAuMChhAVFSCjqJIFATJQWlSN6GBDnQ83D/e3bcP0N3n7LOr6q3a9f08z+853bR2r1p71aq1q1atBZIkSZIkSZIkSZIkSZIkSZIkSZIkSZIkSZIkSZIkSZIkSZIkSZIkSZIkSZIkSZIkSZIkSZIkSZIkSZIkSZIkSZIkSZIkSZIkSZIkSZIkSZIkSZIkSZIkSZIkSZIkSZIkSZIkSZIkSZIkSZIkSZIkSZIkSZIkSZIkSZIkSZIkSZIkSZIkSZIkSZIkSZIkSZIkSZIkSZIkSZIkSZIkSZIkSZIkSZIkSZIkSZIkSZIkSZIkSZIkSZIkSZIkSZIkSZIkSZIkSZIkSZK0VgPZBZDUlUnATGAqsD4wHtgAmAhM62Ri57+tOr8nANPX8Hdt0Pn5wBr+bCGwvPPrRzr/m2XAok6Wdf7bcmBB5789ACwd85FJqpQDACnPNGBzYFNgY2DLzs9ZxMV55hp+Tkkp6egtJgYCDwDzH/PzPmAecCdwD3B3J4tSSiq1nAMAqRybAVsPy3adn6su+JsRAwDFAOAuYG7n5xzg78BtnV/P6fyZpAI5AJDGZgqwI7DTsDyB1Rf8yXlF60tLWD0guBW4sZObOj+X5BVNaiYHANK6bQvsCuzC6gv9jsRF3vOnHh4hBgY3Dsu1wDXEnQRJa2AHJoWZxIX+ycN+7glslFko9ewhYkBwDfDXYT9vySyUVAcOANRG2wP7DMtexMQ7tce9wJ+By4bl1tQSSRVzAKB+9wTgqTz6gj8ztUSqq/tZPRi4HLgUBwXqYw4A1E8mAE8B9icu9M8FtkktkZpuLnAJMSi4APgD8HBqiaSCOABQk20OPAvYD3gmsDexCI5UlmXEYOBC4I/EgODu1BJJY+QAQE2yMfAM4qI/m7jg24aV7RbgXGIwcB5wR25xpNGx81SdTScu+LM72QsYTC2RNLJVA4JziQHB/bnFkdbMAYDqZBzwNOBFnTwVL/hqtpXEI4OzgV8S8wlWppZI6nAAoGwbAwcQ3/BfQiyRK/Wr+4m7AucCP8fHBUrkAEBVGwT2BQ4lvuXvie1Q7fQIsRbBL4EzibsDj6SWSK1ix6sqjCNm6R8GvILY9U7So91DDAZOB36NWyurZA4AVJapwPOJi/5LgBm5xZEaZTFwPjEYOBN4MLc46kcOAFSkGcSt/VcCL8B38qUiLCXmDJxKDAYeyi2O+oUDAPVqCjGB7zDg5bjHvVSmpcA5xJ2BnwALcoujJnMAoLGYTHzDPwx4GfG+vqRqLSHuDJwO/AhYlFscNY0DAI3WAPBs4HXERL71U0sjabiHgB8C3yH2LPBtAo3IAYBGsjXwT8C/ADskl0XSyOYA3wO+AdyUXBbVmAMArcn6wEuBI4iZ/LYTqZkuA07uxCWJ9Sh27Bpuf+Bo4B+JyX2S+sNi4hHB14hNiyQHAGIG8CrgLcAeyWWRVL7riLkC3wDuyy2KMjkAaK99iG/7/4yv7klttBT4KXFX4NzksiiBA4B2WQ84EvhXYLfkskiqj6uAE4CTgIXJZVFFHAC0w/bEt/2jgZnJZZFUXwuA7wOfIx4VqI85AOhv+wPvIFboG5dcFknNMUTsRfAF4Ge4rkBfcgDQfyYRk/reDTwluSySmu964KvA14m3CdQnHAD0j42BtxGz+TdKLouk/nMv8GXgS51fq+EcADTfdsA7gTcSW/BKUpmWAqcBHwNuSC6LeuAAoLn2Bv6NWLTH5/vt8gjwADCf2Cd+ObEW/BLg4c6vl/PoPeTnr+HvWfXnM9bwZ8Mni84gtnZej1ggajKxWuSEzp/NxMmlbbSCWFzoU8Cfk8uiMXAA0Dz/QFz4n59dEBVmEXAnMA+Y2/n1PcDdxEIt8zt5YNjPOtqA1YOBVb+eBWwGbAJsDmzayea4/kQ/OYcYCLieQIM4AGiOFwP/ATw9uyDqysPA34kNWuYAt3V+f1vn93fQ3olV04AtiQ2ntga2BbbpZNXvJ6eVTmPxJ+AjwNnZBdHIHADU2wBwCHHhf2pyWbR2i4Ebh+Wmzs8biG/0GrvNgCcCOwI7DcuOOOelzi4hBgI/x1cIa8sBQD0NAIcCHwb2Si6LVnsI+Ctw9bCf1wO3ZxaqpQaArYAnAbsSK1vuBjyZmJ+gericGAj8FAcCteMAoF4GiEV7Pozv8GcaIr69Xwb8hVgm9Rri1r3qbztiILAbscHVPsRdg8HEMrXdFcRA4AwcCNSGA4D6mA18Am/1V20lcWG/hrjgX0Zsl+re6f1lOrAnMRhYlSfhGzRVuwr4KHB6dkHkAKAO9gM+Djw3uyAtcQ9wYSd/JC74i1JLpCzTiAH3fsAzO3ERrWr8Bvh34jyUWucpwFnE7TBTTlYCVxLLmL6WuA0srcsTiR0zTyAe/6wkvx33c84Edh/VJyP1gR2A72HHUkZWXfCPB14KbDjKz0Ram1nAy4g29Rdifkh2O++3rAROIXYtlfrSTOCzxDKa2SdcP+VqYseylxOdtVSmjYBXAF8k3gTJbv/9lCXAZ3BVSfWRCcDRxCpv2SdYP2QB8ejkaGLBGCnTpsBhwEnExNHs86Mfch/wPmJnU6mxXk68TpZ9QjU5K4jVxY4lJmk5a1t1NQ54FvG620X4mK/XXE88ypMaZV/gd+SfQE3NIuAnwOuJbY6lJtoEOIqY6LaY/POqqfkt8dqmVGuziMlCjvy7zz3EbdTDiHe2pX4yhVjr43his6fs861pGSL6h027rXipbOOBY4hd2rJPlCblNuC/iPewXaVNbTFIPCr4HLEhVPZ52KTMB95O9LlSuucSrwdlnxhNyRziW9D+uBCVBLGXwbHAzeSfn03JtcTW6FKKrYFTyT8RmpDbgc8T3/S96EtrNkgMjH1MMLoMAd8ntpSWKjEBeD+wkPwToM5ZAHyXeO7p7X2pO+OIb7gnY18zmr7mPfhYQCXbG7iU/AZf16wELiDe0V9vjHUs6dGmEJNjzwKWk3+e1zVXAs8YYx1LazUD+ArO7l9briFG4FuMtYIljcqWwL8B15F/3tcxK4lVGtcfawVLwx2CM3XXlIeB04hb/D7Xl6q3D3AiPiJYU+4kNgCTxmQ74OfkN+S65XLgLcRdEUn5NgDeBlxBfv9Qt/wUlwxXFwaAtxITS7Ibb12yCPgarsYl1d2+wDdw5cHheQh4M96p1AieAJxHfoOtS24mNuVwlz2pWWYQi5PdQn4/Upf8Htipl0pVfxogZq77rT9yATHr2NdqpGYbJObpnEW8N5/dt2RnMfGlxleTBcSI8PfkN8zsLCBmzz6pt+qUVFM7A1/CSYOPEBsM7dBTbarRBoF34bOyO4EPABv2Vp2SGmJD4IPAXeT3P5lZBLwD5wa0ztbA+eQ3wMzcQDwjnNJjXUpqponEq3JXkd8fZeZcYKse61INcTixo1R2o8vKOcCLcNQrKQwAB9HuCdD3A6/qtSJVX+sTi2ZkN7TMC//Te65FSf1sT2KBr7ZOGDwNmNlzLapW9qOdW22uJGb/PrX3KpTUIrsDJwEryO/Hqs7fgQN6rkGlmwh8ivat4b+cOHl36b0KJbXYk4FTaN9AYCXwSeIaogbaAbiY/IZUZVYA38bXWyQVa0die++2DQQuIhaIU4O8nJjUkd14qsoQ8ezKd/gllWln2vdo4EFi8rhqbjJwPPkNpsqcA+xVROVJ0ijtSvsmC54ETC2i8lS8nYEryW8kVV749y2k5iRpbJ5OTDTO7g+ryjXEBEnVyFHEqk7ZjaOKXAw8t5hqk6RCPJ/YKjy7f6wiC4HXFVJr6slk4OvkN4gqchuxYZGbWEiqowFiE7G2vHLtI4FE29COWf73E7tXTS6m2iSpVBOJZcbbsOLq5cD2xVSbRusg4D7yP/wyswT4LG7SI6mZZgGfA5aS35+WmXuBFxZUZ1qHAeLbcL8v7HMOLuIjqT/sSLwxkN2vlpkh4Dh8RFuaDYGzyf+gy8z1wIuLqjBJqpHZwNXk97Nl5ud417ZwuwO3kP/hlpX5wDuBCUVVmCTV0ETgPcTiOtn9blm5iVgnQQV4KbCA/A+1jKwEvgZsUlhtSVL9bQp8i/5dSOgh4JDCaquF+v15/xXAMwurLUlqnn2AS8jvj8vIEHAscS1TFyYDJ5P/AZaRRcTAZnxhtSVJzTWeeG3wIfL75zJyKq4XMGpb0r8jwrOI9QskSY+2Jf37tsCfgW2Lq6r+tB9wN/kfVtG5FTi4wHqSpH71UmLl0+x+u+jcReydoDV4JfAw+R9SkVlJLIQxrcB6kqR+Nx34Iv03B2wx8IoC66kvHEP/fdA34qY9ktSL/YBrye/Pi8yqyYGtNw74MvkfSJFZTqwI5dr9ktS7yUSfuoL8/r3IfIMWr/0yHfgZ+R9CkfkL8NQiK0mSBMAewGXk9/NF5tfA+kVWUhNsRbwHn135RWUZ8GFaPJqTpApMBD5C3GnN7veLyp+JNyBaYXfgdvIrvahcg9/6JalKTwOuI7//LypzgN0KraEaegaxdWJ2ZReRIeBEnOEvSRmmEHMD+mUC+Xxg/0JrqEYOIV6ByK7kInIXcFCx1SNJGoPZxDfo7OtCEVlCH74meCT988zmNNzuUZLqZAZxRzb7+lBEVgD/Umz15Hkf/bHj00PAawquG0lScQ4jbqVnXy96TePXChgAPkN+RRaRS4Adi60eSVIJtgP+SP51o4h8ARgstHYqMB44hfzK6zVDwKfw9T5JapKJwGfpj7vP3yUWzWuEicAPya+0XjMPJ/pJUpPNBu4k/3rSa84EJhVcN4WbAvyC/MrqNb8CNi24biRJ1dsMOJf860qv+Rk1XmJ+GnAO+ZXUS4aI90ob98xFkrRWA8SE9KavGfBbYL1iq6Z3GwB/IL9yesm9wIuKrhhJUm08D5hL/vWml1xMjV5FnwlcRH6l9JJLgScUXTGSpNrZGriQ/OtOL7kM2KjoiunWxsBV5FdGL/kSMXFRktQOk4Cvkn/96SVXkjgI2JjY/ja7EsaaRcDhhdeKJKkpXkOzl6i/goRBQNMv/nNwBz9JEuwJ3Er+dakRg4CZxDPz7IMea36Pr/hJklbbCDif/OtTrQcBTb/4n4ir+kmSHm88cDz516leBgGzujnggS7+t7OIxRT27OYfqIllwNuAr2cXROrBLGJRk1nEYHx4NiB2RJsCrE9MbF2/8/tVi4esR3Ry67ICWND59RLgYWIjrGWdnw8DDxIbrqzKA52f9xKvWN3X01FKud5MDASa+GXxcuAFwP2j+R+PdgCwAXF7ZK8xFirTPODlxDoFUh2NB7YEth2WrYHNicdVWwCb0Jy3VZYR592dxIDgLmLezd+BvwG3AXcQgw2pjp4D/IgavGo3BpcBzycG6us0mgHANODXwH49FirDNcDBxAQPKdMEYHvgiZ3s1Pm5A3Hxb8xmHwVZQQwQbgJuAG7s/LyBOF+X5xVNAuLc/Bmwc3ZBxuAPwAuJt93WaqQBwCSiAmYXVKgqnUvsDf1AdkHUKuOIC/1TgN062Z3oTEa6/a6wghgYXAVc3clfgFuI5bqlqswk7gQcmF2QMTgHOARYOpb/83jgDPInNowl36CZz2/ULOOBPYCjgK8QS3Q2+Z3iumcRserol4E3EIMsB1Uq20Tg2+S3/7HkJ4zhHBkETqlB4bvNEPD+bg9WGqVtiMWjvkAsJerFPj+LgT8Sk7ZeTcydkMrw78Q1JrvNd5uT6WKDuwGauUTiYuKWv1SEccRiUccApxKT2LLbuBld5gA/AN4B7EP75leoPK8i3oTJbuPd5quMctL/J2tQ2G5zP7D/aA5OWosB4ln9McCZxNyR7HZtisl84nHmO4g5Gd28/iw91nOINpXdrrvNJ0c6sDfVoJDdZg6w60gHJq3BFsSz5FNp/hahZvSZS9wheD3xqqXUrd2B28lvy93m6LUd0B7EbMHsAnaTa4jnstJojCNuCR9LrGjZxOd5pvjcTMwhmE1z1lpQvm2Ba8lvv91kKTF59lEGad4SvxcAG67tk5E61gNeCXwfb+ubkTMf+G9iPtF0pHWbRUwIzm633eQiHvMY7PAaFKqbnEkscSqtySbAG4k1LJaQ315NM/MwcBbxmufGSGs2lehrsttrN3nUhPmLa1Cg0eZbOKtXjzeLeL51HrGQTHY7Nf2VFcTiYm/EO496vPHE63bZ7XS0uXBVwXetQWFGmy/iDF6tNgM4EvgFsf58dvs07cgy4hvfEcSGSxLEo/QmvUK/M8TCOdkFGU0+MfrPQX1sHHAQMXO/ie/jmv7Kw8T8khfhnUnFF9RPk98uR5P3APy0BgUZKcd18wmoL+1CzN7/G/nt0Zg15U7ibYImbpmuYr2P/PY4Un4EsQtXdkHWliFi8Q6103Tiuf4l5LdFY7rJRcR8gWmord5FvV81vgpig43sgqwpK4nZt2qfvYhnaQ+R3w6N6SUPEpsX7YHa6GjiWpbdDteU26CeM6ZXAq8dQ2WruSYTq/JdRH77M6aMXEhMWp2E2uQN1HMQ8ADU71vWSuIkUTtsAXwMmEd+2zOmiswFPoLLELdJHQcBDwD8pQYFWRUv/u2xN3AizuQ37c1S4DRgP9QGr6deg4DLAX5cg4I80qmY1421ZtUIA8AhwO/Jb2/G1Cm/Aw7GdU763VHUZxBwOsCHa1AQL/79bSLx+f6V/LZmTJ1zNTH/aQLqV2+kHoOA/4BYDSizEEPErRH1n+nAu4ktm7MbuzFNym3AO/E1wn71L+S/IvjUVYX5c2Ih3tVLLaqWpgHHAHeR35Ea0+TcQyyA5ZLD/eft5LWraxn2uOktSYX4QG/1p5pZj/hM7yW/4zSmnzKPWF3OLYr7y4fIaU9vGl6IicDNFRfAtf37xzTgg3jhN6bs3EMMBKaifvEpqm1DNxLX/Ed5AdU9k/hSL7Wl2pgIvA24m/yO0Zg25U7gzThZsB8MAF+hmnYzBDx/bQU5roICnExsm6jmGgQOo977SBjThvyNWG7WnQibbQD4BuW3l4+tqxDjgB+U+I+fCowfU/WoLg4iNpHI7viMMatzBfBC1GTjiYWhymoj32MUX77HA98t4R//Fo5Sm2w34Ffkd3TGmLXnF8CTUVONB75D8e3ia3T55ft/U8wyrYuJ1x3UTJsAJ1DPTaOMMY/PcuKZ8saoqd5BXDt7bQsLgSPW9o+MtOzkk4gZii8ZwwE8ApwJvBe4aQz/f+WaSCxE8kF8B7lu7h2W+4iZ4fOG/bclxDa0Q8AyYstviI2/VhIXiIWP+TunExPKxrH6855GtINBYAaxY+NGnWw67NeziIvNrEKPUr16kHjmezzxmatZdgQ+Syyf3u0S0SuB7xObTt24tv/RaP/SPYj3Bl9GnPjrchexv8DXgStH+ferXv4B+AIxAFS1HiReyb3lMbmT1Rf4lWmlW7dxrB4UbAFs38kOw349I6107XUtcRf2vOyCaEz2JJYPPoy4I7suNwNnA18EbhjpL+52VDFIPF/akxjxrw9MIba3vJkYaVxHfPtX82wD/BfwiuyC9LmFxC6c1/D4C/19ieWqwiwePyh4MrA7LnJTttOIpblvzy6IxmQA2JX4Qr4Tcb6sIF7Dngtcyjq+7a/tL5QmER3Dv+MCI0W7i7gTdgWx5PYVxCOxocxC1dAgcctzT2Cvzs89gc0yC9WHFgEfJQb6PhZoOQcA2p+YIbpLdkH6wO3AH3j0xX5uaomabzNWDwb2AvYDtkotUX+4mtiQ5k/ZBZFUvRnE5KA6bEvZ1NxJ3FY9mrg1p2psQTwPPZHYYjp7V7WmZqhTh07ylVrkEGK70ewOqGm5GTiJuOBv23WtqyybEQOC44nnoA4IusudOO9H6nubAD8kv8NpSuYB3wb+kZjZrmbYmBgQfIf4DLPbUVNyKrZzqS8dhp3haHIz8U1yNi5b3Q8GgX2AY/HuwGgyF+8GSH1jA+I5X3bHUtcsBy4gtlh13YP+tx3xCOcsYsGk7PZX15yGdwOkRjsUt+pdUxYTtztfAaw35tpV061PPN45nWKWPe+33AkcPObalZRiCnEbO7sDqVNWEt/0j8ZZz3q8GcBriTsDy8lvr3XKScSy0JJqbh9Wr8Zo4jWxY4lbv9JobAkcQwwYs9tvXXItsHcvlSqpPANEp7WU/M4iO3OIOyB79VSjUixTfCwxOTS7XWdnWacuRtxTXlJ1NgPOJb+DyMwKYhOq2bjCpYo3CLwAOAO3xj4Hl2iWauEAYrJOdqeQlbnAcXiLX9XZgvgm3ObXaucRu4ZKSjBAvLrW1m8jlxIT+qb0WpHSGE0k1tc4h/zzISNDxOB7XK8VKWn0NgZ+RX4HUHWWEO8n79d7FUqF2ptYb2MR+edJ1Tkf2Lz3KpQ0kmcTW8xmn/RVZh7wAWDDAupPKtOGwAdp3+OBO4FnFVB/ktbiaNo1y/9u4jHH1CIqT6rQJOJ8nUP+eVRVlhPnq6QCTQK+Sf4JXlVuJV5pnFxE5UmJJhILDF1P/nlVVU7GuTlSIbYCLiL/pK4iVxOdpZvwqN8MEhMG/0r+eVZFLsc3c6Se7E87niVeArwMFxhR/xsEXg5cRv55V3bm4oRdaUwOp/83KLmO+Fbkwj1qo9nAVeSfh2VmCXBkURUm9bsBYpGR7BO3zNxDPOP3Vr/abjwxWbDf3+w5Hu/wSes0HfgJ+SdrWVlILBzibnzSo00jZtA/SP55WlZ+hLsKSmu0BfBn8k/SMrIcOAHXD5dGsjnwNfp3S+JLsR+QHmUX4G/kn5xl5Bxg98JqSmqHJxGrXmafv2XkVmDn4qpKaq5nA/eTf1IWnauB5xZYT1IbHQhcQ/75XHTuxZUD1XIvAxaTfzIWmcXEJMZJxVWT1GoTiEmzC8g/v4vMEuBVBdaT1BhvB1aSfxIWmZ/h4h9SWbYHfkH+eV5kVgJvLbKSpLp7H/knXpG5g1jBT1L5DgH+Tv55X2SOK7SGpBoaAD5D/slWVJYT7/euV2QlSRrRNOKi2U9vC3wR1wpQnxpHf23ocxmwb6E1JKlbewAXkt8fFJWTcYEw9ZlJwBnkn1xFZAnwXhypS3Uxjnis2C9bhf+I2EVRarxJwE/JP6mKyNXAXsVWj6SC7Eb/LCZ2Nm4HroabAvya/JOp1wwRz/p9tU+qtwnEa7gryO83es0viT5UapypxCp42SdRr/kbcEChNSOpbM8EbiS//+g1vyX2SJEaYypwHvknT685Ddig4LqRVI31gRPJ70d6ze9wEKCGmAr8D/knTS+ZCxxadMVISvFSYB75/Uov+Q3Rt0q1NZnm3/Y/D9i06IqRlGpTmn9X8pc4D0k1NYFmz/ZfNdHPd3Cl/jSOmCDY5CXIz8ZBgGpmHPAD8k+OseZB4BWF14qkOjqYZu9A+iP8oqKaGAROIf+kGGsuJzYZkdQeO9DsNQNOwsXIVAOfJ/9k6OUkcmKN1E6Tga+R3w+NNV8pvkqk0fs/5J8EY8kSYn9xSXotsIj8fmks+VAJ9SGN6E3kN/6x5BZg7xLqQ1Jz7U30Ddn901hydAn1Ia3VoTRzqc0LgU1KqA9JzbchzVzDZCVwWAn1IT3Oc4lb6NmNvtt8HzfXkLRuk2nmG01LiL5ZKs12wD3kN/Zu85/AQPHVIakPDRB9Rna/1W3mAduUUB8SA8C55DfybrKcmKsgSd16HbCM/H6sm/wGv+yoBEeQ37i7yXxgdik1IaktZgMPkN+fdZPDS6kJtdY44CbyG/Zocyuwayk1IaltdiX6lOx+bbS5HhcJUoEOIr9RjzYXA5uVUw2SWmoj4ALy+7fR5oXlVIPa6CTyG/Ro8mtc2U9SOaYSfUx2PzeafKecKlAbzSW/QY+UM3GXLEnlmkQzdj29s6wKULtsQ35jHimnEtsRS1LZxtGMu6Kbl1UBao/nkd+Q15VvEyekJFVlHHGbPbv/W1eeWdbB9wtnSo5so+wCrMNXgaOIpTAlqSorgTcAJ2QXZB2cDzUCBwAjq2sdfQZ4KzCUXRBJrTQEvAX4bHZB1mJKdgHUfC8k/1bWY/N/Sz1iSerOR8jvFx8bF0JTz7YjvyEPz7+VerSSNDbvJ79/HJ6tyz1ctcEgsIj8xvwI8OGSj1WSenEs+f3kI8AC3BNABfk9+Q36v0o/Sknq3efJ7y/PKf0o1RrvJrcxfxNHs5KaYQD4Frl95pGlH6VaY2PgYXIa8k+A8eUfoiQVZhyxQFlGn7kYmFH+IapNvkr1DflXwMQqDk6SCjaR6MOq7je/VMXBqV02p9p9sf8ATKvkyCSpHNOIvqyqfvN+YJNKjkyt8zqqacR/Bjao5pAkqVQbEH1aFX3nERUdk1rqBMptwNfjCFZSf9kEuI5y+84vV3Y0fcKZ5d0bD/w38MoS/u4bgQOBO0r4u9U+s4jJUJNYvS76zM7PqazePnopMXEKYH7n5+LOf3+AuK0q9WpL4LfAjiX83acCrwFWlPB39y0HAGMzHvhP4L0UV4d/BF4B3F3Q36f+tQHRie4IbA9sSmxatSnxTWsj4s2Vot4eWQ7cC9wDzOvkHmAucAtwM3ATMViQ1mUz4s2mZxT4d36BeFXbi78q9UKiE+zlttUyYjAxCWm1AWAn4FXE6mqnAH8iLsRVPEsdS+4BLuyU9VjiLtmO+EVDjzYJ+DgxsOylvd1NfGmS0qxPrIHd7UBgBXHb6snVF1k1MwA8ETgc+DRwPtW+cVJ25gPndY7t1cTAxkGBdgZOo/uBwHzgozhRWjUylfi29k3gNtbccB8ilqh8D/E8TO00COwFvAs4i/662I82D3SO/Z3AntR3222VbyviXPgVcDtrbi9zgB8Qz/mnrvmvUbcchZdnCqufx64gnpvelVoiZdqVmOB5IPBcYoKeVruPmCD2m06uSS2NMq0PPIGYiLpq/snC1BL1KQcAUjkGgf2Ag4GXE7e9NXq3oUpl1QAADcNJREFUAb8EfgacjRO8JEk1NgmYDRxP3O3Jvs3eL7kXOAk4BCfLSpJqYpC46J8CPEj+xbLf8yAxGHgezhuQJCXYCngf8Q589kWxrZkDHAfsMMJnJUlSTyYDhxFvcgyRfwE0kZXABcDRuIGWJKlAmxEL29xH/sXOrDsPEnMwtl7TBylJ0mjsCZwIPEz+hc10l2XEIjNPf9ynKknSGgwQk/rOwtv8/ZILiEc345Ak6TEGgH8E/kr+BcuUk6uJteNd/0SSBMQ3/kvJv0CZanIVcUfAgYAktdRs4CLyL0gmJ38iFheSJLXEM4Hfk38BMvXI/+BkQUnqa5sTs/pXkn/RMfXKELHC4GZIkvrGBOAYXKrXjJyFxJoP7jkgSQ33fGL2d/aFxTQrNwAHIUlqnC2BM8i/kJhm58fAFkiSGuEwXLbXFJcHiH0GJEk1tTl+6zfl5WzcY0CSasdv/aaKrLob4CJCkpRsC+CX5F8YTLvyc3xlUJLSPA+4i/yLgWln5gEvRJJUmXHEu9ou6GOyMwQchzsNSlLpNgXOIb/jN2Z4fouvC0pSabzlb+qcecCLkBrC21ZqggHgQ8C3gPWSyyKtzTTgn4AVwAXJZZGkxptEbNKS/e3OmG7yA2AKUo35LqvqbFNiYZ9nZBekwRYSt6bnd37/IDFxbQnwcOe/TQEmd349s/NzA6L+p1dTzL70R+BlRP1LteMAQHW1B/BTYJvsgtTYYuBm4KZObgbmEBecucC9rL7Ij9VkYGNgk062BnbsZIfOz6k9/hv97G/AIcSGVFKtOABQHb0E+G/89jncHOCyYbkKuD21RKttCTwF2KeTvXHgNtwC4NXAL7ILIkl19iZ8v38FcAnwSWJL2o17qtEcGxNl/yRxLCvIr9fsz/SNPdWoJPWx9xHPp7M764xcC3weOJR4/t5vNiCO7fPAdeTXd0aGgHf3WpGS1G/eR34HXXX+SqxouE/v1dc42wPHEK/LtW3Qd1wB9SdJjTcIfJn8TrmqXEJc+HxGvto2RJ1cQv7nU1W+gHOwJLXYOGJxn+zOuOzcD5wI7FVMtfW1XYhvyHeT/7mVnVOA8cVUmyQ1x3jgR+R3wmVlCDgbeCkwoaA6a5MJRN2dTX8/IjgdBwGSWmSQeM0vu/MtI0uJlQt3K6y2tBNwPLCI/M+3jJxMnBOS1NcGgK+T3+kWnbnEhL5NCqspPdYmRB3PJf/zLjon4JwASX3u0+R3tkXmXuKi5CZF1ZlKTBrst3kCxxdZSZJUJx8lv5MtKg8Rk9VmFFpD6sZ04vXR+8lvD0Xl2CIrSJLqoF/e818MfIzVm+Yo30zg48Rnk90+ish7iq0eScpzJPmdahH5IbBdsVWjAm0H/Jj8dtJrhoAjiq0aSares4mtZ7M71V5yHfCioitGpTmQ2Cwpu930kmWd45CkRtqJmCSX3ZmONQuA/43vaTfRBOBdwELy29FYcw+x3bIkNcqGNHvTl98TAxg123bAeeS3p7HmOpxvIqlBJgDnkt95jiWLiAmLLszSPwaAo4k3N7Lb11jyP8DEwmtFkkrwTfI7zbHkXJzk18+eAJxPfjsbS75ZQn1IUqHeTH5n2W1WEO9f+62//w0QiwgtI7/ddZt/LaE+JKkQO9K8d7FvB55TRmWo1g4A7iC//XWTRcD2JdSFJPXsJ+R3kt3kl8DGpdSEmmAT4Nfkt8Nu8sNSakKSerAbzdm2dQhv+SsMAh+hWW13l1JqQpLG6Evkd46jyWLgVSXVgZrr1cDD5LfP0cRNgyTVxgBwF/kd40i5E3haSXWg5ns6zWjHd5RVAZLUrV3J7xRHypXAtmVVgPrGlsCl5LfXkbJVWRUgSd14Dfkd4rpyDrF1rDQa06n/6oEHlXb0ag0nQakI22UXYB3OAA4m1oSXRmMh8GLgrOyCrMNu2QVQ8zkAUBFmZBdgLb4HvBJYml0QNc4S4GXAd5LLsTaTswug5nMAoCIMZBdgDb5M7Km+PLsgaqyVwFHACdkFWYOV2QVQ8zkAUBHmZxfgMY4H3ka8My31Ygh4C/DF7II8xorsAkgSxK3S7ElRq/Jt6nlHQs02AHyN/Pa9Ki8p93AlaXS2Ir9DfAQ4HRhX8rGqvcYR80qy2/kjwBYlH6skjdqd5HaIZwATSj9Ktd0E4KfktvU5pR+lJHUhcyng84BJ5R+iBMQM/N+Q195dClhSrexBzoYq1wIzKzg+abgNgeupvr0P4RoAkmqo6luj9wA7VHJk0uPtCNxLtW3+J5UcmSR1aSdiAZUqOsIlwLOrOSxprZ5DdW3+YRzwSqqxY6jmNugRVR2QNIJXU83jr7dWdUCSNBYDxPKpZXaE/1HVwUij9B+U2+a/Wd2hSNLYjQdOpZyO8JMVHofUjU9TTpv/PnFOSVIjDALHUdyt0aXE8r5Snb2daKtFtPkVwMdxyXZJDfUPwI301hFeCuxTdcGlMdoLuJze2vy1wDOrLrgkFW0SsaHKDXR/4T8cl/dV8wwC/wxcQndt/krgdbiwlSrgpimq0gDwNOAg4tvNTsCMYX8+j+gwLwHOB66uuoBSCXYn2vyzgCcDmwLTgQeBucAtwG+J1QVXDRgkSZIkSZIkSZIkSZIkSZIkSZIkSZIkSZIkSZIkSZIkSZIkSZIkSZIkSZIkSZIkSZIkSZIkSZIkSZIkSZIkSZIkSZIkSZIkSZIkSZLaZSC7AJJKtymwC/BEYHtgJrA+MK3z5wuBBcD9wK3A9cB1wNzKSypJksZsC+BI4LvAbcAjY8zfge8ArwU2r/IAJEnS6EwGDgPOApYz9ov+2rISuAA4Gphe0TFJkqS1mAUcC9xH8Rf9teUh4LjOvy1Jkio0HfgE8ey+qgv/Y7MA+Dir5xJIkqQSHUI8n8+68D82dxDzBCRJUgk2BM4g/4K/tvyYeMNAkiQVZF/gFvIv8iPlNuBZJdWBJEmtchTlzOwvK8uA15VREZIktcUxwBD5F/VuM0S8nSBJkrr0SfIv5L3mE4XXiiRJfez95F+8i8p7C64bSZL60utp5m3/tWUIXxOUJGmd9gWWkn/RLjrLgGcUWE+SJPWNDWjGq35jzU3AjMJqS5KkPnE6+RfpsvODwmpLkqQ+8L/IvzhXlYMLqjNJkhptCv196/+xuYnYvlhSonHZBZDEh4CXZheiQhsSEx1/l10QSZKyrA/cT/638qpzH7BeAfUnaYwGswsgtdxbaecOehsCb84uhNRmA9kFkFpsIjAH2CS7IEnmAlsTGx1Jqph3AKQ8L6a9F3+ATYm3HyQlcAAg5TkiuwA1YB1ISXwEIOWYCdxNPAZos6XEnYAHswsitY13AKQcB+LFH2AScEB2IaQ2cgAg5TgwuwA1Yl1ICRwASDmel12AGrEupATOAZCqNxVYgAPwVYaA6cDD2QWR2sQOSKreE/HcG24Q2DG7EFLb2AlJ1XtSdgFqyDqRKuYAQKre9tkFqKEdsgsgtY0DAKl6M7ILAFwCvB54A3BpclmgHnUitcr47AJILTQ9+d+/AtgfWNb5/feAi4GnpJXInQGlynkHQKpe9sXuO6y++EOsxvftnKL8f+sn//tS6zgAkKo3lPzvT1rDf5tceSkeLbtOpNZxACBVb0Hyv/8WYNaw388C3pxUllWy60RqHecASNVbmPzvbwtcCZzU+f2RwBZ5xQHgoeR/X2odBwBS9eZnFwDYEvhAdiGGqUOdSK3iIwCpejdlF6CGbswugNQ2DgCk6l2fXYAask6kirkZkFS9icAifAS3ynJgWuenpIp4B0Cq3jJiMR6Fy/HiL1XOAYCU4/zsAtSIdSElcAAg5fhNdgFqxAGAlMA5AFKOqcDd5C8LnO0hYDPg4eyCSG3jHQApx2Lgx9mFqIHT8eIvpXAAIOU5ObsANWAdSJJaZ5BYFOiRluZG/BIipfHkk/IMAZ/KLkSi43AXQElSS00A/k7+t/GqcxuxIJKkJN4BkHItJ74Jt83HiAWRJElqrUHgIvK/lVeVS4FxhdScJEkN91RgJfkX57KzEnh6QXUmSVJf+Bz5F+iy85nCakuSpD4xAfgj+RfpsnIxTvyTJGmNtgfmk3+xLjr3A9sWWE+SJPWdA4jlcbMv2kVlKTC7yAqSJKlfHQqsIP/i3WtWAocVXDeSJPW1N9LsQcAK4KjCa0WSpBY4lNg5MPti3m2WAK8soT4kSWqNA4D7yL+ojzb3As8poyIkSWqbrYELyL+4j5SLgSeUVAeSJLXSBGLfgOXkX+gfm+XAJ4DxpR29JEkt9xTqdTfgEmIpY0mSVLIB4EjgRvIu/DcAR3TKIkmSKjQO+CfgL1R34b8SOBx39JMkqRZ2JeYI3E3xF/37gROB/Ss7Gkml8tad1H/GE8/kDwSeB+wLzOjy73iAeLZ/PvAb4FJiVT9JfcIBgNQOmwE7E6/obQisB0zv/NlCYAHxLf8W4DpgbkIZJUmSJEmSJEmSJEmSJEmSJEmSJEmSJEmSJEmSJEmSJEmSJEmSJEmSJEmSJEmSJEmSJEmSJEmSJEmSJEmSJEmSJEmSJEmSJEmSJEmSJEmSJEmSJEmSJEmSJEmSJEmSJEmSJEmSJEmSJEmSJEmSJEmSJEmSJEmSJEmSJEmSJEmSJEmSJEmSJEmSJEmSJEmSJEmSJEmSJEmSJEmSJEmSJEmSJEmSJEmSJEmSJEmSJEmSJEmSJEmSJEmSJEmSJEmSJEmSJEmSJEmSJElSPfw/jyOvVuk10sUAAAAASUVORK5CYII=;rotation=45;" parent="1" vertex="1">
          <mxGeometry x="340" y="549" width="30" height="30" as="geometry" />
        </mxCell>
        <mxCell id="Hf2aZSIuRy_q8SedqZRs-27" value="" style="shape=image;imageAspect=0;aspect=fixed;verticalLabelPosition=bottom;verticalAlign=top;image=data:image/png,iVBORw0KGgoAAAANSUhEUgAAAgAAAAIACAYAAAD0eNT6AAAABHNCSVQICAgIfAhkiAAAAAlwSFlzAAAOxAAADsQBlSsOGwAAABl0RVh0U29mdHdhcmUAd3d3Lmlua3NjYXBlLm9yZ5vuPBoAACAASURBVHic7d13uCVVme/x7zmdAzRNk7MEBQFJYkBU0Hb0IohhUJkRUXEYM9c0hnG8XHUU0yhGMAuMChhAVFSCjqJIFATJQWlSN6GBDnQ83D/e3bcP0N3n7LOr6q3a9f08z+853bR2r1p71aq1q1atBZIkSZIkSZIkSZIkSZIkSZIkSZIkSZIkSZIkSZIkSZIkSZIkSZIkSZIkSZIkSZIkSZIkSZIkSZIkSZIkSZIkSZIkSZIkSZIkSZIkSZIkSZIkSZIkSZIkSZIkSZIkSZIkSZIkSZIkSZIkSZIkSZIkSZIkSZIkSZIkSZIkSZIkSZIkSZIkSZIkSZIkSZIkSZIkSZIkSZIkSZIkSZIkSZIkSZIkSZIkSZIkSZIkSZIkSZIkSZIkSZIkSZIkSZIkSZIkSZIkSZIkSZK0VgPZBZDUlUnATGAqsD4wHtgAmAhM62Ri57+tOr8nANPX8Hdt0Pn5wBr+bCGwvPPrRzr/m2XAok6Wdf7bcmBB5789ACwd85FJqpQDACnPNGBzYFNgY2DLzs9ZxMV55hp+Tkkp6egtJgYCDwDzH/PzPmAecCdwD3B3J4tSSiq1nAMAqRybAVsPy3adn6su+JsRAwDFAOAuYG7n5xzg78BtnV/P6fyZpAI5AJDGZgqwI7DTsDyB1Rf8yXlF60tLWD0guBW4sZObOj+X5BVNaiYHANK6bQvsCuzC6gv9jsRF3vOnHh4hBgY3Dsu1wDXEnQRJa2AHJoWZxIX+ycN+7glslFko9ewhYkBwDfDXYT9vySyUVAcOANRG2wP7DMtexMQ7tce9wJ+By4bl1tQSSRVzAKB+9wTgqTz6gj8ztUSqq/tZPRi4HLgUBwXqYw4A1E8mAE8B9icu9M8FtkktkZpuLnAJMSi4APgD8HBqiaSCOABQk20OPAvYD3gmsDexCI5UlmXEYOBC4I/EgODu1BJJY+QAQE2yMfAM4qI/m7jg24aV7RbgXGIwcB5wR25xpNGx81SdTScu+LM72QsYTC2RNLJVA4JziQHB/bnFkdbMAYDqZBzwNOBFnTwVL/hqtpXEI4OzgV8S8wlWppZI6nAAoGwbAwcQ3/BfQiyRK/Wr+4m7AucCP8fHBUrkAEBVGwT2BQ4lvuXvie1Q7fQIsRbBL4EzibsDj6SWSK1ix6sqjCNm6R8GvILY9U7So91DDAZOB36NWyurZA4AVJapwPOJi/5LgBm5xZEaZTFwPjEYOBN4MLc46kcOAFSkGcSt/VcCL8B38qUiLCXmDJxKDAYeyi2O+oUDAPVqCjGB7zDg5bjHvVSmpcA5xJ2BnwALcoujJnMAoLGYTHzDPwx4GfG+vqRqLSHuDJwO/AhYlFscNY0DAI3WAPBs4HXERL71U0sjabiHgB8C3yH2LPBtAo3IAYBGsjXwT8C/ADskl0XSyOYA3wO+AdyUXBbVmAMArcn6wEuBI4iZ/LYTqZkuA07uxCWJ9Sh27Bpuf+Bo4B+JyX2S+sNi4hHB14hNiyQHAGIG8CrgLcAeyWWRVL7riLkC3wDuyy2KMjkAaK99iG/7/4yv7klttBT4KXFX4NzksiiBA4B2WQ84EvhXYLfkskiqj6uAE4CTgIXJZVFFHAC0w/bEt/2jgZnJZZFUXwuA7wOfIx4VqI85AOhv+wPvIFboG5dcFknNMUTsRfAF4Ge4rkBfcgDQfyYRk/reDTwluSySmu964KvA14m3CdQnHAD0j42BtxGz+TdKLouk/nMv8GXgS51fq+EcADTfdsA7gTcSW/BKUpmWAqcBHwNuSC6LeuAAoLn2Bv6NWLTH5/vt8gjwADCf2Cd+ObEW/BLg4c6vl/PoPeTnr+HvWfXnM9bwZ8Mni84gtnZej1ggajKxWuSEzp/NxMmlbbSCWFzoU8Cfk8uiMXAA0Dz/QFz4n59dEBVmEXAnMA+Y2/n1PcDdxEIt8zt5YNjPOtqA1YOBVb+eBWwGbAJsDmzayea4/kQ/OYcYCLieQIM4AGiOFwP/ATw9uyDqysPA34kNWuYAt3V+f1vn93fQ3olV04AtiQ2ntga2BbbpZNXvJ6eVTmPxJ+AjwNnZBdHIHADU2wBwCHHhf2pyWbR2i4Ebh+Wmzs8biG/0GrvNgCcCOwI7DcuOOOelzi4hBgI/x1cIa8sBQD0NAIcCHwb2Si6LVnsI+Ctw9bCf1wO3ZxaqpQaArYAnAbsSK1vuBjyZmJ+gericGAj8FAcCteMAoF4GiEV7Pozv8GcaIr69Xwb8hVgm9Rri1r3qbztiILAbscHVPsRdg8HEMrXdFcRA4AwcCNSGA4D6mA18Am/1V20lcWG/hrjgX0Zsl+re6f1lOrAnMRhYlSfhGzRVuwr4KHB6dkHkAKAO9gM+Djw3uyAtcQ9wYSd/JC74i1JLpCzTiAH3fsAzO3ERrWr8Bvh34jyUWucpwFnE7TBTTlYCVxLLmL6WuA0srcsTiR0zTyAe/6wkvx33c84Edh/VJyP1gR2A72HHUkZWXfCPB14KbDjKz0Ram1nAy4g29Rdifkh2O++3rAROIXYtlfrSTOCzxDKa2SdcP+VqYseylxOdtVSmjYBXAF8k3gTJbv/9lCXAZ3BVSfWRCcDRxCpv2SdYP2QB8ejkaGLBGCnTpsBhwEnExNHs86Mfch/wPmJnU6mxXk68TpZ9QjU5K4jVxY4lJmk5a1t1NQ54FvG620X4mK/XXE88ypMaZV/gd+SfQE3NIuAnwOuJbY6lJtoEOIqY6LaY/POqqfkt8dqmVGuziMlCjvy7zz3EbdTDiHe2pX4yhVjr43his6fs861pGSL6h027rXipbOOBY4hd2rJPlCblNuC/iPewXaVNbTFIPCr4HLEhVPZ52KTMB95O9LlSuucSrwdlnxhNyRziW9D+uBCVBLGXwbHAzeSfn03JtcTW6FKKrYFTyT8RmpDbgc8T3/S96EtrNkgMjH1MMLoMAd8ntpSWKjEBeD+wkPwToM5ZAHyXeO7p7X2pO+OIb7gnY18zmr7mPfhYQCXbG7iU/AZf16wELiDe0V9vjHUs6dGmEJNjzwKWk3+e1zVXAs8YYx1LazUD+ArO7l9briFG4FuMtYIljcqWwL8B15F/3tcxK4lVGtcfawVLwx2CM3XXlIeB04hb/D7Xl6q3D3AiPiJYU+4kNgCTxmQ74OfkN+S65XLgLcRdEUn5NgDeBlxBfv9Qt/wUlwxXFwaAtxITS7Ibb12yCPgarsYl1d2+wDdw5cHheQh4M96p1AieAJxHfoOtS24mNuVwlz2pWWYQi5PdQn4/Upf8Htipl0pVfxogZq77rT9yATHr2NdqpGYbJObpnEW8N5/dt2RnMfGlxleTBcSI8PfkN8zsLCBmzz6pt+qUVFM7A1/CSYOPEBsM7dBTbarRBoF34bOyO4EPABv2Vp2SGmJD4IPAXeT3P5lZBLwD5wa0ztbA+eQ3wMzcQDwjnNJjXUpqponEq3JXkd8fZeZcYKse61INcTixo1R2o8vKOcCLcNQrKQwAB9HuCdD3A6/qtSJVX+sTi2ZkN7TMC//Te65FSf1sT2KBr7ZOGDwNmNlzLapW9qOdW22uJGb/PrX3KpTUIrsDJwEryO/Hqs7fgQN6rkGlmwh8ivat4b+cOHl36b0KJbXYk4FTaN9AYCXwSeIaogbaAbiY/IZUZVYA38bXWyQVa0die++2DQQuIhaIU4O8nJjUkd14qsoQ8ezKd/gllWln2vdo4EFi8rhqbjJwPPkNpsqcA+xVROVJ0ijtSvsmC54ETC2i8lS8nYEryW8kVV749y2k5iRpbJ5OTDTO7g+ryjXEBEnVyFHEqk7ZjaOKXAw8t5hqk6RCPJ/YKjy7f6wiC4HXFVJr6slk4OvkN4gqchuxYZGbWEiqowFiE7G2vHLtI4FE29COWf73E7tXTS6m2iSpVBOJZcbbsOLq5cD2xVSbRusg4D7yP/wyswT4LG7SI6mZZgGfA5aS35+WmXuBFxZUZ1qHAeLbcL8v7HMOLuIjqT/sSLwxkN2vlpkh4Dh8RFuaDYGzyf+gy8z1wIuLqjBJqpHZwNXk97Nl5ud417ZwuwO3kP/hlpX5wDuBCUVVmCTV0ETgPcTiOtn9blm5iVgnQQV4KbCA/A+1jKwEvgZsUlhtSVL9bQp8i/5dSOgh4JDCaquF+v15/xXAMwurLUlqnn2AS8jvj8vIEHAscS1TFyYDJ5P/AZaRRcTAZnxhtSVJzTWeeG3wIfL75zJyKq4XMGpb0r8jwrOI9QskSY+2Jf37tsCfgW2Lq6r+tB9wN/kfVtG5FTi4wHqSpH71UmLl0+x+u+jcReydoDV4JfAw+R9SkVlJLIQxrcB6kqR+Nx34Iv03B2wx8IoC66kvHEP/fdA34qY9ktSL/YBrye/Pi8yqyYGtNw74MvkfSJFZTqwI5dr9ktS7yUSfuoL8/r3IfIMWr/0yHfgZ+R9CkfkL8NQiK0mSBMAewGXk9/NF5tfA+kVWUhNsRbwHn135RWUZ8GFaPJqTpApMBD5C3GnN7veLyp+JNyBaYXfgdvIrvahcg9/6JalKTwOuI7//LypzgN0KraEaegaxdWJ2ZReRIeBEnOEvSRmmEHMD+mUC+Xxg/0JrqEYOIV6ByK7kInIXcFCx1SNJGoPZxDfo7OtCEVlCH74meCT988zmNNzuUZLqZAZxRzb7+lBEVgD/Umz15Hkf/bHj00PAawquG0lScQ4jbqVnXy96TePXChgAPkN+RRaRS4Adi60eSVIJtgP+SP51o4h8ARgstHYqMB44hfzK6zVDwKfw9T5JapKJwGfpj7vP3yUWzWuEicAPya+0XjMPJ/pJUpPNBu4k/3rSa84EJhVcN4WbAvyC/MrqNb8CNi24biRJ1dsMOJf860qv+Rk1XmJ+GnAO+ZXUS4aI90ob98xFkrRWA8SE9KavGfBbYL1iq6Z3GwB/IL9yesm9wIuKrhhJUm08D5hL/vWml1xMjV5FnwlcRH6l9JJLgScUXTGSpNrZGriQ/OtOL7kM2KjoiunWxsBV5FdGL/kSMXFRktQOk4Cvkn/96SVXkjgI2JjY/ja7EsaaRcDhhdeKJKkpXkOzl6i/goRBQNMv/nNwBz9JEuwJ3Er+dakRg4CZxDPz7IMea36Pr/hJklbbCDif/OtTrQcBTb/4n4ir+kmSHm88cDz516leBgGzujnggS7+t7OIxRT27OYfqIllwNuAr2cXROrBLGJRk1nEYHx4NiB2RJsCrE9MbF2/8/tVi4esR3Ry67ICWND59RLgYWIjrGWdnw8DDxIbrqzKA52f9xKvWN3X01FKud5MDASa+GXxcuAFwP2j+R+PdgCwAXF7ZK8xFirTPODlxDoFUh2NB7YEth2WrYHNicdVWwCb0Jy3VZYR592dxIDgLmLezd+BvwG3AXcQgw2pjp4D/IgavGo3BpcBzycG6us0mgHANODXwH49FirDNcDBxAQPKdMEYHvgiZ3s1Pm5A3Hxb8xmHwVZQQwQbgJuAG7s/LyBOF+X5xVNAuLc/Bmwc3ZBxuAPwAuJt93WaqQBwCSiAmYXVKgqnUvsDf1AdkHUKuOIC/1TgN062Z3oTEa6/a6wghgYXAVc3clfgFuI5bqlqswk7gQcmF2QMTgHOARYOpb/83jgDPInNowl36CZz2/ULOOBPYCjgK8QS3Q2+Z3iumcRserol4E3EIMsB1Uq20Tg2+S3/7HkJ4zhHBkETqlB4bvNEPD+bg9WGqVtiMWjvkAsJerFPj+LgT8Sk7ZeTcydkMrw78Q1JrvNd5uT6WKDuwGauUTiYuKWv1SEccRiUccApxKT2LLbuBld5gA/AN4B7EP75leoPK8i3oTJbuPd5quMctL/J2tQ2G5zP7D/aA5OWosB4ln9McCZxNyR7HZtisl84nHmO4g5Gd28/iw91nOINpXdrrvNJ0c6sDfVoJDdZg6w60gHJq3BFsSz5FNp/hahZvSZS9wheD3xqqXUrd2B28lvy93m6LUd0B7EbMHsAnaTa4jnstJojCNuCR9LrGjZxOd5pvjcTMwhmE1z1lpQvm2Ba8lvv91kKTF59lEGad4SvxcAG67tk5E61gNeCXwfb+ubkTMf+G9iPtF0pHWbRUwIzm633eQiHvMY7PAaFKqbnEkscSqtySbAG4k1LJaQ315NM/MwcBbxmufGSGs2lehrsttrN3nUhPmLa1Cg0eZbOKtXjzeLeL51HrGQTHY7Nf2VFcTiYm/EO496vPHE63bZ7XS0uXBVwXetQWFGmy/iDF6tNgM4EvgFsf58dvs07cgy4hvfEcSGSxLEo/QmvUK/M8TCOdkFGU0+MfrPQX1sHHAQMXO/ie/jmv7Kw8T8khfhnUnFF9RPk98uR5P3APy0BgUZKcd18wmoL+1CzN7/G/nt0Zg15U7ibYImbpmuYr2P/PY4Un4EsQtXdkHWliFi8Q6103Tiuf4l5LdFY7rJRcR8gWmord5FvV81vgpig43sgqwpK4nZt2qfvYhnaQ+R3w6N6SUPEpsX7YHa6GjiWpbdDteU26CeM6ZXAq8dQ2WruSYTq/JdRH77M6aMXEhMWp2E2uQN1HMQ8ADU71vWSuIkUTtsAXwMmEd+2zOmiswFPoLLELdJHQcBDwD8pQYFWRUv/u2xN3AizuQ37c1S4DRgP9QGr6deg4DLAX5cg4I80qmY1421ZtUIA8AhwO/Jb2/G1Cm/Aw7GdU763VHUZxBwOsCHa1AQL/79bSLx+f6V/LZmTJ1zNTH/aQLqV2+kHoOA/4BYDSizEEPErRH1n+nAu4ktm7MbuzFNym3AO/E1wn71L+S/IvjUVYX5c2Ih3tVLLaqWpgHHAHeR35Ea0+TcQyyA5ZLD/eft5LWraxn2uOktSYX4QG/1p5pZj/hM7yW/4zSmnzKPWF3OLYr7y4fIaU9vGl6IicDNFRfAtf37xzTgg3jhN6bs3EMMBKaifvEpqm1DNxLX/Ed5AdU9k/hSL7Wl2pgIvA24m/yO0Zg25U7gzThZsB8MAF+hmnYzBDx/bQU5roICnExsm6jmGgQOo977SBjThvyNWG7WnQibbQD4BuW3l4+tqxDjgB+U+I+fCowfU/WoLg4iNpHI7viMMatzBfBC1GTjiYWhymoj32MUX77HA98t4R//Fo5Sm2w34Ffkd3TGmLXnF8CTUVONB75D8e3ia3T55ft/U8wyrYuJ1x3UTJsAJ1DPTaOMMY/PcuKZ8saoqd5BXDt7bQsLgSPW9o+MtOzkk4gZii8ZwwE8ApwJvBe4aQz/f+WaSCxE8kF8B7lu7h2W+4iZ4fOG/bclxDa0Q8AyYstviI2/VhIXiIWP+TunExPKxrH6855GtINBYAaxY+NGnWw67NeziIvNrEKPUr16kHjmezzxmatZdgQ+Syyf3u0S0SuB7xObTt24tv/RaP/SPYj3Bl9GnPjrchexv8DXgStH+ferXv4B+AIxAFS1HiReyb3lMbmT1Rf4lWmlW7dxrB4UbAFs38kOw349I6107XUtcRf2vOyCaEz2JJYPPoy4I7suNwNnA18EbhjpL+52VDFIPF/akxjxrw9MIba3vJkYaVxHfPtX82wD/BfwiuyC9LmFxC6c1/D4C/19ieWqwiwePyh4MrA7LnJTttOIpblvzy6IxmQA2JX4Qr4Tcb6sIF7Dngtcyjq+7a/tL5QmER3Dv+MCI0W7i7gTdgWx5PYVxCOxocxC1dAgcctzT2Cvzs89gc0yC9WHFgEfJQb6PhZoOQcA2p+YIbpLdkH6wO3AH3j0xX5uaomabzNWDwb2AvYDtkotUX+4mtiQ5k/ZBZFUvRnE5KA6bEvZ1NxJ3FY9mrg1p2psQTwPPZHYYjp7V7WmZqhTh07ylVrkEGK70ewOqGm5GTiJuOBv23WtqyybEQOC44nnoA4IusudOO9H6nubAD8kv8NpSuYB3wb+kZjZrmbYmBgQfIf4DLPbUVNyKrZzqS8dhp3haHIz8U1yNi5b3Q8GgX2AY/HuwGgyF+8GSH1jA+I5X3bHUtcsBy4gtlh13YP+tx3xCOcsYsGk7PZX15yGdwOkRjsUt+pdUxYTtztfAaw35tpV061PPN45nWKWPe+33AkcPObalZRiCnEbO7sDqVNWEt/0j8ZZz3q8GcBriTsDy8lvr3XKScSy0JJqbh9Wr8Zo4jWxY4lbv9JobAkcQwwYs9tvXXItsHcvlSqpPANEp7WU/M4iO3OIOyB79VSjUixTfCwxOTS7XWdnWacuRtxTXlJ1NgPOJb+DyMwKYhOq2bjCpYo3CLwAOAO3xj4Hl2iWauEAYrJOdqeQlbnAcXiLX9XZgvgm3ObXaucRu4ZKSjBAvLrW1m8jlxIT+qb0WpHSGE0k1tc4h/zzISNDxOB7XK8VKWn0NgZ+RX4HUHWWEO8n79d7FUqF2ptYb2MR+edJ1Tkf2Lz3KpQ0kmcTW8xmn/RVZh7wAWDDAupPKtOGwAdp3+OBO4FnFVB/ktbiaNo1y/9u4jHH1CIqT6rQJOJ8nUP+eVRVlhPnq6QCTQK+Sf4JXlVuJV5pnFxE5UmJJhILDF1P/nlVVU7GuTlSIbYCLiL/pK4iVxOdpZvwqN8MEhMG/0r+eVZFLsc3c6Se7E87niVeArwMFxhR/xsEXg5cRv55V3bm4oRdaUwOp/83KLmO+Fbkwj1qo9nAVeSfh2VmCXBkURUm9bsBYpGR7BO3zNxDPOP3Vr/abjwxWbDf3+w5Hu/wSes0HfgJ+SdrWVlILBzibnzSo00jZtA/SP55WlZ+hLsKSmu0BfBn8k/SMrIcOAHXD5dGsjnwNfp3S+JLsR+QHmUX4G/kn5xl5Bxg98JqSmqHJxGrXmafv2XkVmDn4qpKaq5nA/eTf1IWnauB5xZYT1IbHQhcQ/75XHTuxZUD1XIvAxaTfzIWmcXEJMZJxVWT1GoTiEmzC8g/v4vMEuBVBdaT1BhvB1aSfxIWmZ/h4h9SWbYHfkH+eV5kVgJvLbKSpLp7H/knXpG5g1jBT1L5DgH+Tv55X2SOK7SGpBoaAD5D/slWVJYT7/euV2QlSRrRNOKi2U9vC3wR1wpQnxpHf23ocxmwb6E1JKlbewAXkt8fFJWTcYEw9ZlJwBnkn1xFZAnwXhypS3Uxjnis2C9bhf+I2EVRarxJwE/JP6mKyNXAXsVWj6SC7Eb/LCZ2Nm4HroabAvya/JOp1wwRz/p9tU+qtwnEa7gryO83es0viT5UapypxCp42SdRr/kbcEChNSOpbM8EbiS//+g1vyX2SJEaYypwHvknT685Ddig4LqRVI31gRPJ70d6ze9wEKCGmAr8D/knTS+ZCxxadMVISvFSYB75/Uov+Q3Rt0q1NZnm3/Y/D9i06IqRlGpTmn9X8pc4D0k1NYFmz/ZfNdHPd3Cl/jSOmCDY5CXIz8ZBgGpmHPAD8k+OseZB4BWF14qkOjqYZu9A+iP8oqKaGAROIf+kGGsuJzYZkdQeO9DsNQNOwsXIVAOfJ/9k6OUkcmKN1E6Tga+R3w+NNV8pvkqk0fs/5J8EY8kSYn9xSXotsIj8fmks+VAJ9SGN6E3kN/6x5BZg7xLqQ1Jz7U30Ddn901hydAn1Ia3VoTRzqc0LgU1KqA9JzbchzVzDZCVwWAn1IT3Oc4lb6NmNvtt8HzfXkLRuk2nmG01LiL5ZKs12wD3kN/Zu85/AQPHVIakPDRB9Rna/1W3mAduUUB8SA8C55DfybrKcmKsgSd16HbCM/H6sm/wGv+yoBEeQ37i7yXxgdik1IaktZgMPkN+fdZPDS6kJtdY44CbyG/Zocyuwayk1IaltdiX6lOx+bbS5HhcJUoEOIr9RjzYXA5uVUw2SWmoj4ALy+7fR5oXlVIPa6CTyG/Ro8mtc2U9SOaYSfUx2PzeafKecKlAbzSW/QY+UM3GXLEnlmkQzdj29s6wKULtsQ35jHimnEtsRS1LZxtGMu6Kbl1UBao/nkd+Q15VvEyekJFVlHHGbPbv/W1eeWdbB9wtnSo5so+wCrMNXgaOIpTAlqSorgTcAJ2QXZB2cDzUCBwAjq2sdfQZ4KzCUXRBJrTQEvAX4bHZB1mJKdgHUfC8k/1bWY/N/Sz1iSerOR8jvFx8bF0JTz7YjvyEPz7+VerSSNDbvJ79/HJ6tyz1ctcEgsIj8xvwI8OGSj1WSenEs+f3kI8AC3BNABfk9+Q36v0o/Sknq3efJ7y/PKf0o1RrvJrcxfxNHs5KaYQD4Frl95pGlH6VaY2PgYXIa8k+A8eUfoiQVZhyxQFlGn7kYmFH+IapNvkr1DflXwMQqDk6SCjaR6MOq7je/VMXBqV02p9p9sf8ATKvkyCSpHNOIvqyqfvN+YJNKjkyt8zqqacR/Bjao5pAkqVQbEH1aFX3nERUdk1rqBMptwNfjCFZSf9kEuI5y+84vV3Y0fcKZ5d0bD/w38MoS/u4bgQOBO0r4u9U+s4jJUJNYvS76zM7PqazePnopMXEKYH7n5+LOf3+AuK0q9WpL4LfAjiX83acCrwFWlPB39y0HAGMzHvhP4L0UV4d/BF4B3F3Q36f+tQHRie4IbA9sSmxatSnxTWsj4s2Vot4eWQ7cC9wDzOvkHmAucAtwM3ATMViQ1mUz4s2mZxT4d36BeFXbi78q9UKiE+zlttUyYjAxCWm1AWAn4FXE6mqnAH8iLsRVPEsdS+4BLuyU9VjiLtmO+EVDjzYJ+DgxsOylvd1NfGmS0qxPrIHd7UBgBXHb6snVF1k1MwA8ETgc+DRwPtW+cVJ25gPndY7t1cTAxkGBdgZOo/uBwHzgozhRWjUylfi29k3gNtbccB8ilqh8D/E8TO00COwFvAs4i/662I82D3SO/Z3AntR3222VbyviXPgVcDtrbi9zgB8Qz/mnrvmvUbcchZdnCqufx64gnpvelVoiZdqVmOB5IPBcYoKeVruPmCD2m06uSS2NMq0PPIGYiLpq/snC1BL1KQcAUjkGgf2Ag4GXE7e9NXq3oUpl1QAADcNJREFUAb8EfgacjRO8JEk1NgmYDRxP3O3Jvs3eL7kXOAk4BCfLSpJqYpC46J8CPEj+xbLf8yAxGHgezhuQJCXYCngf8Q589kWxrZkDHAfsMMJnJUlSTyYDhxFvcgyRfwE0kZXABcDRuIGWJKlAmxEL29xH/sXOrDsPEnMwtl7TBylJ0mjsCZwIPEz+hc10l2XEIjNPf9ynKknSGgwQk/rOwtv8/ZILiEc345Ak6TEGgH8E/kr+BcuUk6uJteNd/0SSBMQ3/kvJv0CZanIVcUfAgYAktdRs4CLyL0gmJ38iFheSJLXEM4Hfk38BMvXI/+BkQUnqa5sTs/pXkn/RMfXKELHC4GZIkvrGBOAYXKrXjJyFxJoP7jkgSQ33fGL2d/aFxTQrNwAHIUlqnC2BM8i/kJhm58fAFkiSGuEwXLbXFJcHiH0GJEk1tTl+6zfl5WzcY0CSasdv/aaKrLob4CJCkpRsC+CX5F8YTLvyc3xlUJLSPA+4i/yLgWln5gEvRJJUmXHEu9ou6GOyMwQchzsNSlLpNgXOIb/jN2Z4fouvC0pSabzlb+qcecCLkBrC21ZqggHgQ8C3gPWSyyKtzTTgn4AVwAXJZZGkxptEbNKS/e3OmG7yA2AKUo35LqvqbFNiYZ9nZBekwRYSt6bnd37/IDFxbQnwcOe/TQEmd349s/NzA6L+p1dTzL70R+BlRP1LteMAQHW1B/BTYJvsgtTYYuBm4KZObgbmEBecucC9rL7Ij9VkYGNgk062BnbsZIfOz6k9/hv97G/AIcSGVFKtOABQHb0E+G/89jncHOCyYbkKuD21RKttCTwF2KeTvXHgNtwC4NXAL7ILIkl19iZ8v38FcAnwSWJL2o17qtEcGxNl/yRxLCvIr9fsz/SNPdWoJPWx9xHPp7M764xcC3weOJR4/t5vNiCO7fPAdeTXd0aGgHf3WpGS1G/eR34HXXX+SqxouE/v1dc42wPHEK/LtW3Qd1wB9SdJjTcIfJn8TrmqXEJc+HxGvto2RJ1cQv7nU1W+gHOwJLXYOGJxn+zOuOzcD5wI7FVMtfW1XYhvyHeT/7mVnVOA8cVUmyQ1x3jgR+R3wmVlCDgbeCkwoaA6a5MJRN2dTX8/IjgdBwGSWmSQeM0vu/MtI0uJlQt3K6y2tBNwPLCI/M+3jJxMnBOS1NcGgK+T3+kWnbnEhL5NCqspPdYmRB3PJf/zLjon4JwASX3u0+R3tkXmXuKi5CZF1ZlKTBrst3kCxxdZSZJUJx8lv5MtKg8Rk9VmFFpD6sZ04vXR+8lvD0Xl2CIrSJLqoF/e818MfIzVm+Yo30zg48Rnk90+ish7iq0eScpzJPmdahH5IbBdsVWjAm0H/Jj8dtJrhoAjiq0aSares4mtZ7M71V5yHfCioitGpTmQ2Cwpu930kmWd45CkRtqJmCSX3ZmONQuA/43vaTfRBOBdwELy29FYcw+x3bIkNcqGNHvTl98TAxg123bAeeS3p7HmOpxvIqlBJgDnkt95jiWLiAmLLszSPwaAo4k3N7Lb11jyP8DEwmtFkkrwTfI7zbHkXJzk18+eAJxPfjsbS75ZQn1IUqHeTH5n2W1WEO9f+62//w0QiwgtI7/ddZt/LaE+JKkQO9K8d7FvB55TRmWo1g4A7iC//XWTRcD2JdSFJPXsJ+R3kt3kl8DGpdSEmmAT4Nfkt8Nu8sNSakKSerAbzdm2dQhv+SsMAh+hWW13l1JqQpLG6Evkd46jyWLgVSXVgZrr1cDD5LfP0cRNgyTVxgBwF/kd40i5E3haSXWg5ns6zWjHd5RVAZLUrV3J7xRHypXAtmVVgPrGlsCl5LfXkbJVWRUgSd14Dfkd4rpyDrF1rDQa06n/6oEHlXb0ag0nQakI22UXYB3OAA4m1oSXRmMh8GLgrOyCrMNu2QVQ8zkAUBFmZBdgLb4HvBJYml0QNc4S4GXAd5LLsTaTswug5nMAoCIMZBdgDb5M7Km+PLsgaqyVwFHACdkFWYOV2QVQ8zkAUBHmZxfgMY4H3ka8My31Ygh4C/DF7II8xorsAkgSxK3S7ElRq/Jt6nlHQs02AHyN/Pa9Ki8p93AlaXS2Ir9DfAQ4HRhX8rGqvcYR80qy2/kjwBYlH6skjdqd5HaIZwATSj9Ktd0E4KfktvU5pR+lJHUhcyng84BJ5R+iBMQM/N+Q195dClhSrexBzoYq1wIzKzg+abgNgeupvr0P4RoAkmqo6luj9wA7VHJk0uPtCNxLtW3+J5UcmSR1aSdiAZUqOsIlwLOrOSxprZ5DdW3+YRzwSqqxY6jmNugRVR2QNIJXU83jr7dWdUCSNBYDxPKpZXaE/1HVwUij9B+U2+a/Wd2hSNLYjQdOpZyO8JMVHofUjU9TTpv/PnFOSVIjDALHUdyt0aXE8r5Snb2daKtFtPkVwMdxyXZJDfUPwI301hFeCuxTdcGlMdoLuJze2vy1wDOrLrgkFW0SsaHKDXR/4T8cl/dV8wwC/wxcQndt/krgdbiwlSrgpimq0gDwNOAg4tvNTsCMYX8+j+gwLwHOB66uuoBSCXYn2vyzgCcDmwLTgQeBucAtwG+J1QVXDRgkSZIkSZIkSZIkSZIkSZIkSZIkSZIkSZIkSZIkSZIkSZIkSZIkSZIkSZIkSZIkSZIkSZIkSZIkSZIkSZIkSZIkSZIkSZIkSZIkSZLaZSC7AJJKtymwC/BEYHtgJrA+MK3z5wuBBcD9wK3A9cB1wNzKSypJksZsC+BI4LvAbcAjY8zfge8ArwU2r/IAJEnS6EwGDgPOApYz9ov+2rISuAA4Gphe0TFJkqS1mAUcC9xH8Rf9teUh4LjOvy1Jkio0HfgE8ey+qgv/Y7MA+Dir5xJIkqQSHUI8n8+68D82dxDzBCRJUgk2BM4g/4K/tvyYeMNAkiQVZF/gFvIv8iPlNuBZJdWBJEmtchTlzOwvK8uA15VREZIktcUxwBD5F/VuM0S8nSBJkrr0SfIv5L3mE4XXiiRJfez95F+8i8p7C64bSZL60utp5m3/tWUIXxOUJGmd9gWWkn/RLjrLgGcUWE+SJPWNDWjGq35jzU3AjMJqS5KkPnE6+RfpsvODwmpLkqQ+8L/IvzhXlYMLqjNJkhptCv196/+xuYnYvlhSonHZBZDEh4CXZheiQhsSEx1/l10QSZKyrA/cT/638qpzH7BeAfUnaYwGswsgtdxbaecOehsCb84uhNRmA9kFkFpsIjAH2CS7IEnmAlsTGx1Jqph3AKQ8L6a9F3+ATYm3HyQlcAAg5TkiuwA1YB1ISXwEIOWYCdxNPAZos6XEnYAHswsitY13AKQcB+LFH2AScEB2IaQ2cgAg5TgwuwA1Yl1ICRwASDmel12AGrEupATOAZCqNxVYgAPwVYaA6cDD2QWR2sQOSKreE/HcG24Q2DG7EFLb2AlJ1XtSdgFqyDqRKuYAQKre9tkFqKEdsgsgtY0DAKl6M7ILAFwCvB54A3BpclmgHnUitcr47AJILTQ9+d+/AtgfWNb5/feAi4GnpJXInQGlynkHQKpe9sXuO6y++EOsxvftnKL8f+sn//tS6zgAkKo3lPzvT1rDf5tceSkeLbtOpNZxACBVb0Hyv/8WYNaw388C3pxUllWy60RqHecASNVbmPzvbwtcCZzU+f2RwBZ5xQHgoeR/X2odBwBS9eZnFwDYEvhAdiGGqUOdSK3iIwCpejdlF6CGbswugNQ2DgCk6l2fXYAask6kirkZkFS9icAifAS3ynJgWuenpIp4B0Cq3jJiMR6Fy/HiL1XOAYCU4/zsAtSIdSElcAAg5fhNdgFqxAGAlMA5AFKOqcDd5C8LnO0hYDPg4eyCSG3jHQApx2Lgx9mFqIHT8eIvpXAAIOU5ObsANWAdSJJaZ5BYFOiRluZG/BIipfHkk/IMAZ/KLkSi43AXQElSS00A/k7+t/GqcxuxIJKkJN4BkHItJ74Jt83HiAWRJElqrUHgIvK/lVeVS4FxhdScJEkN91RgJfkX57KzEnh6QXUmSVJf+Bz5F+iy85nCakuSpD4xAfgj+RfpsnIxTvyTJGmNtgfmk3+xLjr3A9sWWE+SJPWdA4jlcbMv2kVlKTC7yAqSJKlfHQqsIP/i3WtWAocVXDeSJPW1N9LsQcAK4KjCa0WSpBY4lNg5MPti3m2WAK8soT4kSWqNA4D7yL+ojzb3As8poyIkSWqbrYELyL+4j5SLgSeUVAeSJLXSBGLfgOXkX+gfm+XAJ4DxpR29JEkt9xTqdTfgEmIpY0mSVLIB4EjgRvIu/DcAR3TKIkmSKjQO+CfgL1R34b8SOBx39JMkqRZ2JeYI3E3xF/37gROB/Ss7Gkml8tad1H/GE8/kDwSeB+wLzOjy73iAeLZ/PvAb4FJiVT9JfcIBgNQOmwE7E6/obQisB0zv/NlCYAHxLf8W4DpgbkIZJUmSJEmSJEmSJEmSJEmSJEmSJEmSJEmSJEmSJEmSJEmSJEmSJEmSJEmSJEmSJEmSJEmSJEmSJEmSJEmSJEmSJEmSJEmSJEmSJEmSJEmSJEmSJEmSJEmSJEmSJEmSJEmSJEmSJEmSJEmSJEmSJEmSJEmSJEmSJEmSJEmSJEmSJEmSJEmSJEmSJEmSJEmSJEmSJEmSJEmSJEmSJEmSJEmSJEmSJEmSJEmSJEmSJEmSJEmSJEmSJEmSJEmSJEmSJEmSJEmSJEmSJElSPfw/jyOvVuk10sUAAAAASUVORK5CYII=;rotation=45;" parent="1" vertex="1">
          <mxGeometry x="340" y="200" width="30" height="30" as="geometry" />
        </mxCell>
        <mxCell id="Hf2aZSIuRy_q8SedqZRs-28" value="" style="endArrow=none;dashed=1;html=1;rounded=0;exitX=0.5;exitY=0;exitDx=0;exitDy=0;" parent="1" source="Hf2aZSIuRy_q8SedqZRs-26" edge="1">
          <mxGeometry width="50" height="50" relative="1" as="geometry">
            <mxPoint x="420" y="510" as="sourcePoint" />
            <mxPoint x="520" y="460" as="targetPoint" />
          </mxGeometry>
        </mxCell>
        <mxCell id="Hf2aZSIuRy_q8SedqZRs-29" value="" style="endArrow=none;dashed=1;html=1;rounded=0;entryX=0.069;entryY=0.503;entryDx=0;entryDy=0;exitX=0.971;exitY=1.029;exitDx=0;exitDy=0;entryPerimeter=0;exitPerimeter=0;" parent="1" source="Hf2aZSIuRy_q8SedqZRs-22" target="Hf2aZSIuRy_q8SedqZRs-1" edge="1">
          <mxGeometry width="50" height="50" relative="1" as="geometry">
            <mxPoint x="376" y="563" as="sourcePoint" />
            <mxPoint x="526" y="463" as="targetPoint" />
          </mxGeometry>
        </mxCell>
        <mxCell id="Hf2aZSIuRy_q8SedqZRs-30" value="&lt;font face=&quot;Times New Roman&quot; style=&quot;font-size: 16px;&quot;&gt;Servidor&lt;/font&gt;" style="text;html=1;align=center;verticalAlign=middle;whiteSpace=wrap;rounded=0;" parent="1" vertex="1">
          <mxGeometry x="555" y="414" width="60" height="30" as="geometry" />
        </mxCell>
        <mxCell id="Hf2aZSIuRy_q8SedqZRs-32" value="&lt;font face=&quot;Times New Roman&quot; style=&quot;font-size: 16px;&quot;&gt;Pacient&lt;/font&gt;&lt;span style=&quot;font-size: 16px; font-family: &amp;quot;Times New Roman&amp;quot;; background-color: initial;&quot;&gt;e&lt;/span&gt;" style="text;html=1;align=center;verticalAlign=middle;whiteSpace=wrap;rounded=0;" parent="1" vertex="1">
          <mxGeometry x="243.5" y="710" width="60" height="30" as="geometry" />
        </mxCell>
        <mxCell id="Hf2aZSIuRy_q8SedqZRs-33" value="&lt;font face=&quot;Times New Roman&quot;&gt;&lt;span style=&quot;font-size: 16px;&quot;&gt;Familiares&lt;/span&gt;&lt;/font&gt;" style="text;html=1;align=center;verticalAlign=middle;whiteSpace=wrap;rounded=0;" parent="1" vertex="1">
          <mxGeometry x="243.5" y="338" width="60" height="30" as="geometry" />
        </mxCell>
        <mxCell id="Hf2aZSIuRy_q8SedqZRs-35" value="&lt;font face=&quot;Times New Roman&quot;&gt;&lt;span style=&quot;font-size: 16px;&quot;&gt;Medico&lt;/span&gt;&lt;/font&gt;" style="text;html=1;align=center;verticalAlign=middle;whiteSpace=wrap;rounded=0;" parent="1" vertex="1">
          <mxGeometry x="814" y="680" width="60" height="30" as="geometry" />
        </mxCell>
        <mxCell id="Hf2aZSIuRy_q8SedqZRs-36" value="&lt;font face=&quot;Times New Roman&quot;&gt;&lt;span style=&quot;font-size: 16px;&quot;&gt;Medico&lt;/span&gt;&lt;/font&gt;" style="text;html=1;align=center;verticalAlign=middle;whiteSpace=wrap;rounded=0;" parent="1" vertex="1">
          <mxGeometry x="814" y="333.5" width="60" height="30" as="geometry" />
        </mxCell>
      </root>
    </mxGraphModel>
  </diagram>
</mxfile>
